<svg width="82" height="83" viewBox="0 0 82 83" version="1.1" xmlns="http://www.w3.org/2000/svg" xmlns:xlink="http://www.w3.org/1999/xlink">
<title>Logo</title>
<desc>Created using Figma</desc>
<g id="Canvas" transform="translate(-1361 3621)">
<g id="Logo">
<g id="Group 3">
<g id="Oval" filter="url(#filter0_d)">
<use xlink:href="#path0_fill" transform="translate(1372 -3610.86)" fill="#2196F3"/>
<mask id="mask0_outline_ins">
<use xlink:href="#path0_fill" fill="white" transform="translate(1372 -3610.86)"/>
</mask>
<g mask="url(#mask0_outline_ins)">
<use xlink:href="#path1_stroke_2x" transform="translate(1372 -3610.86)" fill="#42A5F5"/>
</g>
</g>
<mask id="mask1_outline" mask-type="alpha">
<g id="Oval">
<use xlink:href="#path0_fill" transform="translate(1372 -3610.86)" fill="#FFFFFF"/>
<mask id="mask2_outline_ins">
<use xlink:href="#path0_fill" fill="white" transform="translate(1372 -3610.86)"/>
</mask>
<g mask="url(#mask2_outline_ins)">
<use xlink:href="#path1_stroke_2x" transform="translate(1372 -3610.86)" fill="#FFFFFF"/>
</g>
</g>
</mask>
<g id="Group 2" mask="url(#mask1_outline)">
<g id="Line">
<use xlink:href="#path2_stroke" transform="translate(1374.25 -3589.86)" fill="#42A5F5"/>
</g>
<g id="Line">
<use xlink:href="#path2_stroke" transform="translate(1374.25 -3574.11)" fill="#42A5F5"/>
</g>
<g id="Path 2">
<use xlink:href="#path3_stroke" transform="translate(1391.5 -3606.36)" fill="#42A5F5"/>
</g>
<g id="Path 2">
<use xlink:href="#path3_stroke" transform="matrix(-1 0 0 1 1411.75 -3606.36)" fill="#42A5F5"/>
</g>
</g>
</g>
<g id="Group 7" filter="url(#filter1_d)">
<g id="Plane Icon">
<g id="Combined Shape">
<use xlink:href="#path4_fill" transform="matrix(0.5 0.866025 -0.866025 0.5 1408.05 -3607.34)" fill="#FFFFFF"/>
</g>
<mask id="mask3_outline" mask-type="alpha">
<g id="Combined Shape">
<use xlink:href="#path4_fill" transform="matrix(0.5 0.866025 -0.866025 0.5 1408.05 -3607.34)" fill="#FFFFFF"/>
</g>
</mask>
<g id="Rectangle 7" mask="url(#mask3_outline)">
<use xlink:href="#path5_fill" transform="matrix(0.5 0.866025 -0.866025 0.5 1406.54 -3590.08)" fill="#EBECF2"/>
</g>
<g id="Rectangle 5" mask="url(#mask3_outline)">
<use xlink:href="#path6_fill" transform="matrix(-0.5 -0.866025 -0.866025 0.5 1417.42 -3569.26)" fill="#DEE1E3"/>
</g>
<g id="Combined Shape" opacity="0.4" mask="url(#mask3_outline)">
<use xlink:href="#path7_fill" transform="matrix(0.5 0.866025 -0.866025 0.5 1393.45 -3575.09)" fill="#DEE1E3"/>
</g>
<g id="Combined Shape" mask="url(#mask3_outline)">
<use xlink:href="#path8_fill" transform="matrix(0.5 0.866025 -0.866025 0.5 1409.38 -3582.92)" fill="#C5C6CC"/>
</g>
<g id="Combined Shape" mask="url(#mask3_outline)">
<use xlink:href="#path9_fill" transform="matrix(0.5 0.866025 -0.866025 0.5 1417.38 -3591.12)" fill="#DEE1E3"/>
</g>
</g>
</g>
</g>
</g>
<defs>
<filter id="filter0_d" filterUnits="userSpaceOnUse" x="1361" y="-3621" width="82" height="83" color-interpolation-filters="sRGB">
<feFlood flood-opacity="0" result="BackgroundImageFix"/>
<feColorMatrix in="SourceAlpha" type="matrix" values="0 0 0 0 0 0 0 0 0 0 0 0 0 0 0 0 0 0 255 0"/>
<feOffset dx="0" dy="1"/>
<feGaussianBlur stdDeviation="5.5"/>
<feColorMatrix type="matrix" values="0 0 0 0 0.215686 0 0 0 0 0.407843 0 0 0 0 0.556863 0 0 0 0.3 0"/>
<feBlend mode="normal" in2="BackgroundImageFix" result="effect1_dropShadow"/>
<feBlend mode="normal" in="SourceGraphic" in2="effect1_dropShadow" result="shape"/>
</filter>
<filter id="filter1_d" filterUnits="userSpaceOnUse" x="1374" y="-3605" width="55" height="56" color-interpolation-filters="sRGB">
<feFlood flood-opacity="0" result="BackgroundImageFix"/>
<feColorMatrix in="SourceAlpha" type="matrix" values="0 0 0 0 0 0 0 0 0 0 0 0 0 0 0 0 0 0 255 0"/>
<feOffset dx="0" dy="4"/>
<feGaussianBlur stdDeviation="5.5"/>
<feColorMatrix type="matrix" values="0 0 0 0 0 0 0 0 0 0 0 0 0 0 0 0 0 0 0.35 0"/>
<feBlend mode="normal" in2="BackgroundImageFix" result="effect1_dropShadow"/>
<feBlend mode="normal" in="SourceGraphic" in2="effect1_dropShadow" result="shape"/>
</filter>
<path id="path0_fill" fill-rule="evenodd" d="M 30 60C 46.5685 60 60 46.5685 60 30C 60 13.4315 46.5685 0 30 0C 13.4315 0 0 13.4315 0 30C 0 46.5685 13.4315 60 30 60Z"/>
<path id="path1_stroke_2x" d="M 30 63.75C 48.6396 63.75 63.75 48.6396 63.75 30L 56.25 30C 56.25 44.4975 44.4975 56.25 30 56.25L 30 63.75ZM 63.75 30C 63.75 11.3604 48.6396 -3.75 30 -3.75L 30 3.75C 44.4975 3.75 56.25 15.5025 56.25 30L 63.75 30ZM 30 -3.75C 11.3604 -3.75 -3.75 11.3604 -3.75 30L 3.75 30C 3.75 15.5025 15.5025 3.75 30 3.75L 30 -3.75ZM -3.75 30C -3.75 48.6396 11.3604 63.75 30 63.75L 30 56.25C 15.5025 56.25 3.75 44.4975 3.75 30L -3.75 30Z"/>
<path id="path2_stroke" d="M 0.463983 0L -1.41102 0L -1.41102 3.75L 0.463983 3.75L 0.463983 0ZM 54.286 3.75L 56.161 3.75L 56.161 0L 54.286 0L 54.286 3.75ZM 0.463983 3.75L 54.286 3.75L 54.286 -2.22045e-16L 0.463983 -2.22045e-16L 0.463983 3.75Z"/>
<path id="path3_stroke" d="M 11.1713 1.22297C 11.8467 0.438026 11.7579 -0.745834 10.973 -1.42126C 10.188 -2.09669 9.00417 -2.00791 8.32874 -1.22297L 11.1713 1.22297ZM 8.38774 52.2884C 9.09928 53.0407 10.286 53.0738 11.0384 52.3623C 11.7907 51.6507 11.8238 50.464 11.1123 49.7116L 8.38774 52.2884ZM 9.75 0C 8.32874 -1.22297 8.32832 -1.22248 8.32786 -1.22195C 8.32766 -1.22171 8.32717 -1.22113 8.32676 -1.22066C 8.3262 -1.22001 8.32498 -1.21859 8.32387 -1.21729C 8.32215 -1.21528 8.31881 -1.21137 8.31539 -1.20736C 8.30957 -1.20052 8.29931 -1.18844 8.28782 -1.1748C 8.26687 -1.14995 8.23256 -1.10894 8.19185 -1.05962C 8.11459 -0.965955 7.99439 -0.818008 7.84953 -0.634214C 7.56824 -0.27708 7.15097 0.270869 6.66638 0.954946C 5.71461 2.30016 4.40828 4.31346 3.133 6.75646C 0.618614 11.5903 -1.95224 18.5958 -1.87134 26.2776L 1.87825 26.2224C 1.74345 19.2317 4.04587 13.1123 6.45868 8.48919C 7.647 6.20375 8.81775 4.40563 9.72716 3.12155C 10.1732 2.49097 10.5325 2.0198 10.7952 1.68647C 10.9223 1.52504 11.0159 1.40992 11.0845 1.32683C 11.1167 1.28777 11.1383 1.26198 11.155 1.24212C 11.1624 1.2334 11.1664 1.22866 11.1702 1.22425C 11.1715 1.22264 11.1718 1.22233 11.1725 1.22152C 11.1726 1.22141 11.1724 1.22167 11.1723 1.22172C 11.1722 1.22184 11.172 1.22215 11.1719 1.22221C 11.1716 1.22257 11.1713 1.22297 9.75 0ZM -1.87134 26.2776C -1.72819 33.9494 0.851801 40.5729 3.31714 45.0352C 4.57108 47.2955 5.8462 49.1277 6.76746 50.3344C 7.23831 50.9501 7.64517 51.4423 7.91708 51.7593C 8.05801 51.9234 8.1761 52.0565 8.25108 52.1396C 8.29101 52.1838 8.32528 52.2212 8.3458 52.2434C 8.35727 52.2558 8.36778 52.2671 8.37358 52.2733C 8.37709 52.277 8.38063 52.2808 8.38239 52.2827C 8.38357 52.2839 8.38491 52.2854 8.3855 52.286C 8.38595 52.2865 8.38651 52.2871 8.38673 52.2873C 8.38725 52.2878 8.38774 52.2884 9.75 51C 11.1123 49.7116 11.1127 49.7121 11.1131 49.7125C 11.1131 49.7126 11.1135 49.7129 11.1136 49.7131C 11.1136 49.7131 11.1142 49.7137 11.1141 49.7136C 11.1147 49.7142 11.1137 49.7131 11.1126 49.712C 11.1092 49.7084 11.1061 49.705 11.0995 49.6979C 11.0839 49.6811 11.0647 49.6601 11.0347 49.6269C 10.97 49.5552 10.8831 49.4574 10.763 49.3173C 10.5129 49.0259 10.1734 48.6161 9.7474 48.0579C 8.8749 46.9165 7.75381 45.3123 6.59808 43.2192C 4.24407 38.9745 1.95079 33.2231 1.87825 26.2224L -1.87134 26.2776Z"/>
<path id="path4_fill" fill-rule="evenodd" d="M 0.017696 19.5636C 0.0215793 19.324 0.157125 19.1058 0.370526 18.9964L 15.5068 11.2259L 15.5068 4.16151C 15.5068 4.08243 15.5124 4.00379 15.524 3.92617C 15.5293 3.89105 15.5357 3.8561 15.5435 3.82147C 15.5683 3.70964 15.6061 3.60077 15.6576 3.49689C 16.1103 2.58449 17.5055 -7.54899e-05 18.7789 -9.8491e-05C 20.0525 5.78228e-07 21.4465 2.58497 21.899 3.49711C 21.9476 3.59508 21.9838 3.69734 22.0085 3.80251C 22.0361 3.91934 22.0495 4.0397 22.0495 4.16122L 22.0494 11.1769L 37.2809 18.9964C 37.494 19.1058 37.6297 19.3239 37.6336 19.5637L 37.6568 21.0196C 37.66 21.2115 37.578 21.3949 37.433 21.5205L 36.6765 22.1771C 36.5498 22.2871 36.3855 22.3437 36.2179 22.3352L 22.0494 21.6121L 22.0493 28.9662L 25.7518 31.8971C 26.008 32.0998 26.0734 32.4615 25.9048 32.7415L 25.6476 33.168C 25.6014 33.2445 25.5409 33.3092 25.4709 33.3596C 25.344 33.4511 25.1856 33.4955 25.0239 33.4786L 20.6508 33.0204C 20.0698 34.1054 19.3876 35.0451 18.768 35.0451C 18.1489 35.0451 17.4711 34.1073 16.8946 33.0238L 12.5551 33.4785C 12.3046 33.5047 12.0615 33.3838 11.9313 33.168L 11.6743 32.7415C 11.5055 32.4616 11.5711 32.0999 11.8272 31.897L 15.5067 28.9843L 15.5068 21.617L 1.4334 22.3351C 1.36307 22.3388 1.29322 22.3309 1.22641 22.3123C 1.13416 22.2866 1.04815 22.2407 0.974697 22.177L 0.218141 21.5206C 0.147916 21.4596 0.0924976 21.3852 0.0543453 21.3028C 0.0138238 21.2153 -0.00706459 21.1187 -0.0055038 21.0198L 0.017696 19.5636Z"/>
<path id="path5_fill" fill-rule="evenodd" d="M 0 0L 1.30853 0L 1.30853 12.4084L 0 12.4084L 0 0Z"/>
<path id="path6_fill" fill-rule="evenodd" d="M 0.0281649 8.64231C 0.0320039 8.40261 0.167603 8.18451 0.380878 8.07502L 16.1101 0L 16.1101 10.6653L 1.44383 11.4138C 1.27626 11.4223 1.11189 11.3657 0.985155 11.2557L 0.228552 10.5992C 0.0836631 10.4735 0.00177379 10.2901 0.00484564 10.0983L 0.0281649 8.64231Z"/>
<path id="path7_fill" fill-rule="evenodd" d="M -0.0455235 4.15063L -0.0454954 4.25312L 4.39229 4.71801C 4.64273 4.7442 4.88598 4.62317 5.01591 4.4074L 5.27312 3.98094C 5.4418 3.70099 5.37634 3.33928 5.12014 3.13654L 1.20947 0.0408762L 1.20954 0.575418C 1.20956 0.740911 1.18603 0.905208 1.13651 1.06324C 0.967776 1.60111 0.521622 2.9559 -0.0455235 4.15063Z"/>
<path id="path8_fill" fill-rule="evenodd" d="M 0.000119173 10.5418L 0 0L 1.7914 0.919668L 3.74681 10.733L 0.000119173 10.5418Z"/>
<path id="path9_fill" fill-rule="evenodd" d="M 3.33437 0.655679L 3.33437 35.0553C 3.33437 35.0553 1.519 35.0222 0.0529702 35.0222C 0.0352221 35.0222 0.0175653 35.0217 0 35.0207C 0.760402 33.8992 2.02584 31.4875 2.02584 28.44L 2.02584 4.62487C 2.02584 1.97874 0.822703 0.635989 0.339415 0C 1.69161 0.228134 3.33437 0.655679 3.33437 0.655679Z"/>
</defs>
</svg>
