<svg width="16" height="15" viewBox="0 0 16 15" fill="none" xmlns="http://www.w3.org/2000/svg"><path d="M0 3.21429v.53572c0 .07104.0280943.13917.078104.1894.05001.05023.117837.07845.188561.07845h.800005v.40179c0 .22189.1791.40178.4.40178H14.5333c.2209 0 .4-.17989.4-.40178v-.40179h.8c.0708 0 .1386-.02822.1886-.07845.05-.05023.0781-.11836.0781-.1894v-.53572c0-.05299-.0156-.10479-.045-.14885-.0293-.04405-.071-.07838-.1197-.09865L8.10197.0203662c-.06529-.02715494-.13865-.02715494-.20394 0L.1647 2.96679c-.048748.02027-.0904164.0546-.1197343.09865C.0156488 3.1095 0 3.1613 0 3.21429zM.799999 13.3929H15.2c.4418 0 .8.3597.8.8035v.5357c0 .0711-.0281.1392-.0781.1894-.05.0503-.1178.0785-.1886.0785H.266665c-.070724 0-.138551-.0282-.188561-.0785C.0280943 14.8713 0 14.8032 0 14.7321v-.5357c0-.4438.358166-.8035.799999-.8035zM13.3333 5.35715v6.42855h1.2c.2209 0 .4.1799.4.4018v.6696H1.06667v-.6696c0-.2219.1791-.4018.4-.4018h1.2V5.35715H4.8v6.42855h2.13333V5.35715h2.13334v6.42855H11.2V5.35715h2.1333z" fill="#fff"/></svg>