<svg width="18" height="20" viewBox="0 0 18 20" fill="none" xmlns="http://www.w3.org/2000/svg"><path d="M16.5 2.9H14.6V1C14.6 0.4 14.2 0 13.6 0H12.8C12.3 0 11.8 0.5 11.8 1V2.9H9.9C9.3 2.9 8.9 3.3 8.9 3.9V4.7C8.9 5.2 9.4 5.7 9.9 5.7H11.8V7.6C11.8 8.2 12.2 8.6 12.8 8.6H13.6C14.1 8.6 14.6 8.1 14.6 7.6V5.6H16.5C17.1 5.6 17.5 5.2 17.5 4.6V3.8C17.6 3.4 17.1 2.9 16.5 2.9ZM14.5 10.1H13.5C12.7 10.1 12 10.8 12 11.6V17.9C12 18.7 12.7 19.4 13.5 19.4H14.5C15.3 19.4 16 18.7 16 17.9V11.6C16 10.7 15.3 10.1 14.5 10.1ZM8.5 12.5H7.5C6.7 12.5 6 13.2 6 14V17.9C6 18.7 6.7 19.4 7.5 19.4H8.5C9.3 19.4 10 18.7 10 17.9V14C10 13.1 9.3 12.5 8.5 12.5ZM2.5 4.9H1.5C0.7 4.9 0 5.6 0 6.4V17.9C0 18.7 0.7 19.4 1.5 19.4H2.5C3.3 19.4 4 18.7 4 17.9V6.4C4 5.5 3.3 4.9 2.5 4.9Z" fill="#A9B7C7"/></svg>