<svg width="13" height="12" viewBox="0 0 13 12" fill="none" xmlns="http://www.w3.org/2000/svg"><path d="M.542969 11.3753H2.70964V4.87533H.542969v6.49997zM12.4596 5.41699c0-.59854-.4848-1.08333-1.0833-1.08333H7.95568l.51729-2.47542c.01083-.05416.01896-.11104.01896-.17062 0-.22479-.09209-.42792-.23834-.57417L7.67672.541992 4.10984 4.10887c-.195.19771-.31687.46854-.31687.76646V10.292c0 .5985.48479 1.0833 1.08333 1.0833h4.875c.4496 0 .8342-.2735.9967-.6608l1.6331-3.81876c.0487-.12458.0785-.25729.0785-.39541v-1.0373l-.0054-.00541.0054-.04063z" fill="#8FAA62"/></svg>