<svg width="11" height="11" viewBox="0 0 11 11" fill="none" xmlns="http://www.w3.org/2000/svg"><path fill-rule="evenodd" clip-rule="evenodd" d="M6.49997 0H10.5C10.7761 0 11 0.223877 11 0.5V4.5C11 4.77612 10.7761 5 10.5 5C10.2238 5 10 4.77612 10 4.5V1.70709L4.85355 6.85352C4.75592 6.95123 4.62793 7 4.49997 7C4.37201 7 4.24405 6.95117 4.14645 6.85358C3.95117 6.65826 3.95117 6.34174 4.14645 6.14648L9.29288 1H6.49997C6.22385 1 5.99997 0.776123 5.99997 0.5C5.99997 0.223877 6.22385 0 6.49997 0ZM7.99997 5.5C7.99997 5.22388 8.22385 5 8.49997 5C8.77612 5 8.99997 5.22388 9 5.5V10.5C9 10.7761 8.77612 11 8.5 11H0.5C0.223877 11 0 10.7761 0 10.5V2.5C0 2.22388 0.223877 2 0.5 2H5.5C5.77612 2 6 2.22382 6 2.5C6 2.77612 5.77612 3 5.5 3H1V10H7.99997V5.5Z" fill="#A9B7C7"/></svg>