<svg width="48" height="48" viewBox="0 0 48 48" fill="none" xmlns="http://www.w3.org/2000/svg"><circle cx="24" cy="24" r="24" fill="#071321"/><path d="M13.0824 23.4167C15.3895 19.45 19.4544 17 23.9588 17C28.4632 17 32.5281 19.45 34.8352 23.4167C35.0549 23.7667 35.0549 24.2333 34.8352 24.5833C32.638 28.55 28.4632 31 23.9588 31C19.4544 31 15.3895 28.55 13.0824 24.5833C12.9725 24.2333 12.9725 23.7667 13.0824 23.4167ZM23.9588 28.6667C27.4744 28.6667 30.6604 26.9167 32.5281 24C30.6604 21.0833 27.4744 19.3333 23.9588 19.3333C20.4432 19.3333 17.2572 21.0833 15.3895 24C17.2572 26.9167 20.4432 28.6667 23.9588 28.6667ZM20.6629 24C20.6629 23.3 21.1024 22.8333 21.7615 22.8333C22.4207 22.8333 22.8602 23.3 22.8602 24C22.8602 24.7 23.2996 25.1667 23.9588 25.1667C24.618 25.1667 25.0574 24.7 25.0574 24C25.0574 23.3 24.618 22.8333 23.9588 22.8333C23.2996 22.8333 22.8602 22.3667 22.8602 21.6667C22.8602 20.9667 23.2996 20.5 23.9588 20.5C25.8265 20.5 27.2547 22.0167 27.2547 24C27.2547 25.9833 25.8265 27.5 23.9588 27.5C22.0911 27.5 20.6629 25.9833 20.6629 24Z" fill="#FFC700"/></svg>