<svg xmlns="http://www.w3.org/2000/svg" width="51" height="50" viewBox="0 0 51 50"><path fill="#071321" d="M44.2 6H6.4C3 6 .3 8.7.3 12.1v25.8C.3 41.3 3 44 6.4 44h37.8c3.4 0 6.1-2.7 6.1-6.1V12.1c0-3.4-2.7-6.1-6.1-6.1zm3.3 31.9c0 1.8-1.5 3.3-3.3 3.3H6.4c-1.8 0-3.3-1.5-3.3-3.3V12.1c0-1.8 1.5-3.3 3.3-3.3h37.8c1.8 0 3.3 1.5 3.3 3.3v25.8z"/><path fill="#071321" d="M31.9 24.7l12.2-11c.6-.5.6-1.4.1-2-.5-.6-1.4-.6-2-.1L25.4 26.8l-3.3-2.9-.2-.2-13.4-12c-.6-.5-1.5-.5-2 .1s-.5 1.5.1 2L19 24.9 6.6 36.3c-.6.5-.6 1.4-.1 2 .5.6 1.4.6 2 .1L21 26.7l3.4 3c.5.5 1.3.5 1.9 0l3.5-3.1 12.4 11.8c.6.5 1.5.4 2-.2.4-.5.4-1.3-.1-1.8L31.9 24.7z"/></svg>