<svg width="18" height="18" viewBox="0 0 18 18" fill="none" xmlns="http://www.w3.org/2000/svg"><g clip-path="url(#clip0)" fill="#848F9B"><path d="M9.77113 4.07919C10.6409 4.07919 11.3525 3.36756 11.3525 2.49778C11.3525 1.62804 10.6409 0.916412 9.77113 0.916412C8.90139 0.916412 8.18973 1.62804 8.18973 2.49782C8.18973 3.3676 8.90135 4.07919 9.77113 4.07919Z"/><path d="M14.12 10.0094V8.42801C12.6572 8.42801 11.3921 7.63732 10.6805 6.49079L9.92928 5.22569C9.65257 4.7513 9.1386 4.47455 8.58512 4.47455C8.38746 4.47455 8.18976 4.5141 7.9921 4.59315L3.84094 6.29316V10.0095H5.42235V7.36061L6.80606 6.76758L4.63163 17.9164H6.29209L7.6758 11.5908L9.37581 13.1722V17.9164H10.9572V11.9466L9.3363 10.3257L9.81072 7.95363C10.8386 9.21873 12.3805 10.0094 14.12 10.0094Z"/></g><defs><clipPath id="clip0"><path fill="#fff" transform="translate(.48 .916)" d="M0 0H17V17H0z"/></clipPath></defs></svg>