<svg width="29" height="25" viewBox="0 0 29 25" fill="none" xmlns="http://www.w3.org/2000/svg"><path d="M19.8927 25L13.7216 21.1957C16.7408 16.8149 18.3002 12.253 18.3997 7.50988L18.3997 9.8064e-07L29 1.90735e-06L29 6.81818C28.9668 9.98024 28.1042 13.274 26.4121 16.6996C24.6869 20.1581 22.5137 22.9249 19.8927 25ZM6.17107 25L-3.48211e-06 21.1956C3.01918 16.8149 4.57854 12.253 4.67807 7.50988L4.67807 -2.18942e-07L15.2784 7.07766e-07L15.2784 6.81818C15.2452 9.98024 14.3826 13.274 12.6905 16.6996C10.9653 20.1581 8.79212 22.9249 6.17107 25Z" fill="#FFCB00"/></svg>