<svg width="16" height="15" viewBox="0 0 16 15" fill="none" xmlns="http://www.w3.org/2000/svg"><path d="M13.7471 1.59141C13.5763 1.09973 13.1096 0.749725 12.5638 0.749725H3.39715C2.85133 0.749725 2.38465 1.09973 2.21383 1.59141L0.480469 6.58309V13.2498C0.480469 13.7081 0.855469 14.0831 1.31379 14.0831H2.14711C2.60961 14.0831 2.98043 13.7081 2.98043 13.2498V12.4164H12.9804V13.2497C12.9804 13.708 13.3554 14.083 13.8138 14.083H14.6471C15.1096 14.083 15.4804 13.708 15.4804 13.2497V6.58309L13.7471 1.59141ZM3.39715 9.91641C2.70547 9.91641 2.14715 9.35809 2.14715 8.66641C2.14715 7.97473 2.70547 7.41641 3.39715 7.41641C4.08883 7.41641 4.64715 7.97473 4.64715 8.66641C4.64715 9.35809 4.08879 9.91641 3.39715 9.91641ZM12.5638 9.91641C11.8721 9.91641 11.3138 9.35809 11.3138 8.66641C11.3138 7.97473 11.8721 7.41641 12.5638 7.41641C13.2555 7.41641 13.8138 7.97473 13.8138 8.66641C13.8138 9.35809 13.2555 9.91641 12.5638 9.91641ZM2.14715 5.74973L3.39715 1.99973H12.5638L13.8138 5.74973H2.14715Z" fill="#848F9B"/></svg>