<svg width="20" height="20" viewBox="0 0 20 20" fill="none" xmlns="http://www.w3.org/2000/svg"><path d="M7.82168 10.8966L1.81094 16.9082V13.0473C1.81094 12.5472 1.40565 12.1418 0.905469 12.1418C0.405288 12.1418 0 12.5472 0 13.0473V19.0945C0 19.5946 0.405288 20 0.905469 20H6.95207C7.45213 20 7.85754 19.5946 7.85754 19.0945C7.85754 18.5944 7.45225 18.189 6.95207 18.189H3.09139L9.10226 12.1771C9.45587 11.8235 9.45587 11.2501 9.10214 10.8965C8.74876 10.543 8.17542 10.543 7.82168 10.8966Z" fill="#fff"/><path d="M19.0928 0H13.0459C12.5457 0 12.1405 0.405431 12.1405 0.90552C12.1405 1.40561 12.5457 1.81104 13.0459 1.81104H16.9067L11.0757 7.64271C10.7221 7.99635 10.7221 8.56972 11.0759 8.92336C11.2526 9.10011 11.4844 9.18849 11.7161 9.18849C11.9478 9.18849 12.1796 9.09999 12.3564 8.92323L18.1874 3.09157V6.9527C18.1874 7.45279 18.5927 7.85822 19.0929 7.85822C19.5931 7.85822 19.9984 7.45279 19.9984 6.9527V0.90552C19.9982 0.405311 19.5928 0 19.0928 0Z" fill="#fff"/></svg>