<svg width="14" height="12" fill="none" xmlns="http://www.w3.org/2000/svg"><path d="M1.34 4.04A362.27 362.27 0 0 0 5 6.4a36.88 36.88 0 0 1 .76.5c.1.07.24.14.4.23.16.09.31.15.45.2a1.32 1.32 0 0 0 .8 0A8.37 8.37 0 0 0 9 6.4l3.66-2.36c.38-.25.7-.54.96-.9.25-.34.38-.7.38-1.09 0-.32-.12-.59-.37-.82a1.26 1.26 0 0 0-.88-.34H1.25c-.4 0-.71.13-.93.38a1.4 1.4 0 0 0-.32.94c0 .3.14.64.43 1 .29.35.6.63.91.83z" fill="#fff"/><path d="M13.22 4.82A163.25 163.25 0 0 0 8.6 7.8a4.6 4.6 0 0 1-.74.34c-.31.12-.6.18-.86.18H7a2.4 2.4 0 0 1-.87-.18 4.6 4.6 0 0 1-.74-.34l-.72-.48c-.7-.48-2-1.31-3.88-2.5-.3-.19-.56-.4-.79-.63v5.76c0 .32.12.59.37.82.24.22.54.34.88.34h11.5c.34 0 .64-.12.88-.34.25-.23.37-.5.37-.82V4.19c-.22.23-.48.44-.78.63z" fill="#fff"/></svg>