<svg width="15" height="9" viewBox="0 0 15 9" fill="none" xmlns="http://www.w3.org/2000/svg"><path d="M0.0561798 4.125C1.62921 1.575 4.40075 0 7.47191 0C10.5431 0 13.3146 1.575 14.8876 4.125C15.0375 4.35 15.0375 4.65 14.8876 4.875C13.3895 7.425 10.5431 9 7.47191 9C4.40075 9 1.62921 7.425 0.0561798 4.875C-0.0187266 4.65 -0.0187266 4.35 0.0561798 4.125ZM7.47191 7.5C9.86891 7.5 12.0412 6.375 13.3146 4.5C12.0412 2.625 9.86891 1.5 7.47191 1.5C5.07491 1.5 2.90262 2.625 1.62921 4.5C2.90262 6.375 5.07491 7.5 7.47191 7.5ZM5.22472 4.5C5.22472 4.05 5.52434 3.75 5.97378 3.75C6.42322 3.75 6.72285 4.05 6.72285 4.5C6.72285 4.95 7.02247 5.25 7.47191 5.25C7.92135 5.25 8.22097 4.95 8.22097 4.5C8.22097 4.05 7.92135 3.75 7.47191 3.75C7.02247 3.75 6.72285 3.45 6.72285 3C6.72285 2.55 7.02247 2.25 7.47191 2.25C8.74532 2.25 9.7191 3.225 9.7191 4.5C9.7191 5.775 8.74532 6.75 7.47191 6.75C6.1985 6.75 5.22472 5.775 5.22472 4.5Z" fill="#A9B7C7"/></svg>