<svg width="49" height="54" viewBox="0 0 49 54" fill="none" xmlns="http://www.w3.org/2000/svg"><mask id="path-1-inside-1" fill="#fff"><path fill-rule="evenodd" clip-rule="evenodd" d="M39.4702 43C45.2671 38.6107 49 31.7324 49 24C49 10.7452 38.031 0 24.5 0C10.969 0 0 10.7452 0 24C0 31.7324 3.73291 38.6107 9.52979 43H9.50024L24.0002 53.5L37.6458 44.2562C38.1682 43.9302 38.6772 43.5854 39.1716 43.2227L39.5002 43H39.4702Z"/></mask><path fill-rule="evenodd" clip-rule="evenodd" d="M39.4702 43C45.2671 38.6107 49 31.7324 49 24C49 10.7452 38.031 0 24.5 0C10.969 0 0 10.7452 0 24C0 31.7324 3.73291 38.6107 9.52979 43H9.50024L24.0002 53.5L37.6458 44.2562C38.1682 43.9302 38.6772 43.5854 39.1716 43.2227L39.5002 43H39.4702Z" fill="#FFCB00"/><path d="M39.4702 43L37.0556 39.811L27.5612 47H39.4702V43ZM9.52979 43V47H21.4388L11.9444 39.811L9.52979 43ZM9.50024 43V39H-2.84357L7.1542 46.2398L9.50024 43ZM24.0002 53.5L21.6542 56.7398L23.9237 58.3832L26.2436 56.8117L24.0002 53.5ZM37.6458 44.2562L35.5283 40.8626L35.4646 40.9024L35.4024 40.9446L37.6458 44.2562ZM39.1716 43.2227L36.9279 39.9112L36.8658 39.9533L36.8054 39.9976L39.1716 43.2227ZM39.5002 43L41.744 46.3115L52.5348 39H39.5002V43ZM45 24C45 30.4078 41.9127 36.1333 37.0556 39.811L41.8848 46.189C48.6215 41.0881 53 33.057 53 24H45ZM24.5 4C35.9 4 45 13.0317 45 24H53C53 8.45869 40.162 -4 24.5 -4V4ZM4 24C4 13.0317 13.1 4 24.5 4V-4C8.83801 -4 -4 8.45869 -4 24H4ZM11.9444 39.811C7.08731 36.1333 4 30.4078 4 24H-4C-4 33.057 0.378507 41.0881 7.11515 46.189L11.9444 39.811ZM9.50024 47H9.52979V39H9.50024V47ZM26.3463 50.2602L11.8463 39.7602L7.1542 46.2398L21.6542 56.7398L26.3463 50.2602ZM35.4024 40.9446L21.7568 50.1883L26.2436 56.8117L39.8892 47.5679L35.4024 40.9446ZM36.8054 39.9976C36.3919 40.301 35.9659 40.5896 35.5283 40.8626L39.7632 47.6498C40.3705 47.2709 40.9626 46.8698 41.5379 46.4477L36.8054 39.9976ZM37.2565 39.6885L36.9279 39.9112L41.4153 46.5341L41.744 46.3115L37.2565 39.6885ZM39.4702 47H39.5002V39H39.4702V47Z" fill="#fff" mask="url(#path-1-inside-1)"/><path d="M15.4353 23.2297L23.685 16.2888C23.6902 16.2844 23.6959 16.2809 23.7012 16.2765C23.7202 16.261 23.7396 16.2466 23.7593 16.2324C23.7731 16.2225 23.7868 16.2126 23.8008 16.2033C23.8202 16.1905 23.84 16.1787 23.86 16.1672C23.8757 16.1579 23.8915 16.1487 23.9075 16.1403C23.9258 16.1308 23.9445 16.1222 23.9632 16.1135C23.9816 16.1051 24.0001 16.0965 24.0188 16.089C24.0357 16.0822 24.0529 16.0763 24.0701 16.0703C24.0909 16.063 24.1117 16.0557 24.1329 16.0496C24.1491 16.0448 24.1654 16.041 24.1818 16.037C24.2039 16.0315 24.2261 16.0261 24.2485 16.0218C24.2651 16.0187 24.2816 16.0165 24.2983 16.014C24.3204 16.0108 24.3425 16.0075 24.3648 16.0054C24.3827 16.0037 24.4005 16.003 24.4185 16.0021C24.4395 16.0011 24.4604 15.9999 24.4814 16C24.501 16 24.5205 16.0011 24.5401 16.002C24.5594 16.003 24.5787 16.0038 24.5979 16.0055C24.6188 16.0075 24.6396 16.0107 24.6605 16.0137C24.6783 16.0163 24.6963 16.0187 24.714 16.0222C24.7352 16.0262 24.7562 16.0314 24.7772 16.0366C24.7947 16.0409 24.8122 16.0451 24.8295 16.0501C24.8497 16.0561 24.8695 16.063 24.8894 16.07C24.9075 16.0764 24.9255 16.0826 24.9434 16.0897C24.9614 16.0971 24.9792 16.1053 24.997 16.1135C25.0163 16.1223 25.0355 16.1312 25.0545 16.1411C25.0701 16.1493 25.0855 16.1584 25.1009 16.1673C25.1211 16.1791 25.1411 16.191 25.1607 16.2039C25.1747 16.2132 25.1883 16.2231 25.202 16.233C25.2217 16.2472 25.2412 16.2616 25.26 16.2771C25.2654 16.2814 25.271 16.285 25.2764 16.2895L33.5655 23.2759C34.0837 23.7126 34.1474 24.4841 33.7078 24.9991C33.4644 25.2841 33.1178 25.4307 32.7689 25.4307C32.4876 25.4307 32.2048 25.3354 31.9735 25.1404L30.7892 24.1423V28.486C30.7892 30.4236 29.2025 32 27.2522 32H21.7086C19.7583 32 18.1716 30.4236 18.1716 28.486V24.1317L17.0259 25.0957C16.7947 25.2902 16.5122 25.3852 16.2313 25.3852C15.882 25.3852 15.535 25.2383 15.2916 24.9527C14.8523 24.4375 14.9167 23.6661 15.4353 23.2297ZM20.6326 28.486C20.6326 29.0754 21.1153 29.5549 21.7085 29.5549H27.2521C27.8454 29.5549 28.328 29.0754 28.328 28.486V22.0681L24.4803 18.8252L20.6326 22.0681V28.486Z" fill="#000"/></svg>