<svg xmlns="http://www.w3.org/2000/svg" xmlns:xlink="http://www.w3.org/1999/xlink" width="31" height="40" viewBox="0 0 31 40"><defs><path id="manaa" d="M66.72 1990.74a15.65 15.65 0 0 1-1.15 3.62c-1.54 3.71-4.9 9.43-12.08 15.64H58a1 1 0 0 1 0 2H45a1 1 0 0 1 0-2h4.52c-7.19-6.21-10.55-11.93-12.1-15.67a15.22 15.22 0 0 1-1.15-3.62 16.19 16.19 0 0 1-.2-4.5 15.62 15.62 0 0 1 14.87-14.2l.55-.01c8.54 0 15.5 7.07 15.51 15.75 0 1-.1 2-.28 3zM51 1973.96a13.69 13.69 0 0 0-13.02 12.45c-.13 1.32-.07 2.66.18 3.96v.05l.08.38c.21.95.52 1.86.92 2.74 1.52 3.66 4.86 9.29 12.13 15.43a.31.31 0 0 0 .4 0c7.27-6.13 10.6-11.76 12.1-15.4a14.53 14.53 0 0 0 1.01-3.16c.17-.9.25-1.78.25-2.65 0-7.78-6.35-14.07-14.05-13.8zm.49 22.04a8.5 8.5 0 1 1 0-17 8.5 8.5 0 0 1 0 17zm0-15a6.5 6.5 0 1 0 0 13 6.5 6.5 0 0 0 0-13z"/></defs><use fill="#ffcb00" xlink:href="#manaa" transform="translate(-36 -1972)"/></svg>