<svg xmlns="http://www.w3.org/2000/svg" xmlns:xlink="http://www.w3.org/1999/xlink" width="82" height="86" viewBox="0 0 82 86"><defs><path id="6j7wb" d="M214.12 997.97a6.1 6.1 0 0 1-5.7 3.09v.4c0 2.21-.26 4.35-.76 6.42l-.02.1a27.21 27.21 0 0 1-2.31 6.16 32.81 32.81 0 0 1-5.9 8.96c-3.85 3.96-4.33 8.8-4.43 10.9v1c-.08 1.03-.95 2-2 2h-12a2 2 0 0 1-2-2v-3h-10v3a2 2 0 0 1-2 2h-13a2 2 0 0 1-2-2v-4c-.02-1 .43-4.05-3.33-7.46-.14-.11-.27-.23-.4-.36l-.12-.1c-4.18-3.73-6.55-7.87-8.15-13.08h-4c-2.04 0-3-1.97-3-4v-9c-.02-2.01.96-4 3-4h4c1.8-5.51 4.72-10.34 9.4-14.13.97-3.44-.2-7.2-1.61-9.47-1-1.57.29-3.61 2.14-3.39 4.15.52 6.67 1.72 8.63 3.42 1.36 1.19 2.6 3.51 3.3 5.6A46.55 46.55 0 0 1 175 973c17.41 0 31.72 10.67 33.3 24.52a2.63 2.63 0 0 0 3-1.26c.59-1 .5-2.26-.18-3.15-.6-.7-.49-1.79.21-2.44a1.6 1.6 0 0 1 2.34.13 6.42 6.42 0 0 1 .45 7.17zM150 993a3 3 0 1 0 6 0 3 3 0 0 0-6 0z"/><path id="6j7wa" d="M192.49 993.9c-17.92-6.23-17.61-21.04-17.4-31.83.04-1.13.04-2.21.04-3.3 0-.87.67-1.54 1.53-1.54 6.39 0 11.24-1.85 15.27-5.8.3-.29.69-.43 1.07-.43.38 0 .76.14 1.07.42 4.03 3.96 8.88 5.81 15.27 5.81.86 0 1.53.67 1.53 1.55 0 1.08 0 2.16.05 3.29.2 10.8.5 25.6-17.41 31.83l-.51.1z"/><path id="6j7wd" d="M193 1000v-50h19v50z"/><path id="6j7we" d="M188.79 975.2L185 971.5l2.83-2.78 3.77 3.7 7.55-7.42 2.83 2.79-7.55 7.42-2.83 2.78z"/><clipPath id="6j7wc"><use xlink:href="#6j7wa"/></clipPath></defs><g transform="translate(-133 -951)"><use fill="#fff" xlink:href="#6j7wb"/><use fill="#ffb294" xlink:href="#6j7wb"/></g><use fill="#ffcb00" xlink:href="#6j7wa" transform="translate(-133 -951)"/><g clip-path="url(#6j7wc)" transform="translate(-133 -951)"><use fill="#ffcb00" xlink:href="#6j7wd"/><use fill="#ffda2e" xlink:href="#6j7wd"/></g><g transform="translate(-133 -951)"><use fill="#ffcb00" xlink:href="#6j7we"/><use fill="#fff" xlink:href="#6j7we"/></g></svg>