<svg width="184" height="40" viewBox="0 0 184 40" fill="none" xmlns="http://www.w3.org/2000/svg"><path d="M0 0H184V39.867H0z"/><path transform="translate(55.01 5.604)" d="M0 0H128.99V29.31H0z"/><path fill-rule="evenodd" clip-rule="evenodd" d="M58.3754 28.314H55.9078V32.9005H55.0105V27.5868H58.3754V28.314ZM63.3668 27.5309V32.8445H62.4695V28.258H60.6748L60.5626 30.2716C60.5066 31.1665 60.3383 31.8377 60.114 32.2293C59.8897 32.6208 59.4971 32.8445 58.9363 32.8445H58.5998V32.0615H58.8802C59.1606 32.0055 59.3849 31.8377 59.4971 31.5581C59.6093 31.2225 59.7214 30.6631 59.7214 29.8241L59.8336 27.5309H63.3668ZM68.1898 32.8445C68.1338 32.7327 68.0777 32.5649 68.0777 32.2852C67.629 32.7327 67.1243 32.9564 66.5635 32.9564C66.0587 32.9564 65.6101 32.7886 65.2736 32.5089C64.9371 32.2293 64.7688 31.8377 64.7688 31.3903C64.7688 30.8309 64.9932 30.3835 65.3857 30.1038C65.8344 29.7682 66.3952 29.6564 67.1804 29.6564H68.0777V29.2648C68.0777 28.9292 67.9655 28.7055 67.7973 28.4818C67.629 28.314 67.3486 28.2021 66.956 28.2021C66.6195 28.2021 66.3391 28.258 66.1148 28.4258C65.8905 28.5936 65.7783 28.7614 65.7783 29.0411H64.881C64.881 28.7614 64.9931 28.5377 65.1614 28.258C65.3296 28.0343 65.6101 27.8106 65.9466 27.6428C66.283 27.475 66.6195 27.419 67.0121 27.419C67.629 27.419 68.1338 27.5868 68.4703 27.8665C68.8068 28.1462 68.975 28.5936 69.0311 29.153V31.614C69.0311 32.1174 69.0872 32.5089 69.1993 32.7886V32.8445H68.1898ZM66.6756 32.1733C66.956 32.1733 67.2365 32.1174 67.5169 31.9496C67.7973 31.7818 67.9655 31.614 68.0777 31.3903V30.2716H67.3486C66.227 30.2716 65.6661 30.6072 65.6661 31.2784C65.6661 31.5581 65.7783 31.7818 65.9466 31.9496C66.1148 32.1174 66.3391 32.1733 66.6756 32.1733ZM70.4892 32.8445V27.5309H72.5643C73.2933 27.5309 73.7981 27.6428 74.1907 27.9224C74.5832 28.1462 74.7515 28.5377 74.7515 28.9852C74.7515 29.2089 74.6954 29.4326 74.5272 29.6564C74.3589 29.8801 74.1346 29.9919 73.8542 30.1038C74.1907 30.1597 74.415 30.3276 74.6393 30.5513C74.8076 30.775 74.9197 31.0547 74.9197 31.3343C74.9197 31.8377 74.7515 32.1733 74.3589 32.453C74.0224 32.7327 73.4616 32.8445 72.8447 32.8445H70.4892ZM71.3865 30.5513V32.1733H72.9008C73.2933 32.1733 73.5737 32.1174 73.742 31.9496C73.9102 31.7818 74.0224 31.614 74.0224 31.3343C74.0224 30.775 73.6298 30.5513 72.8447 30.5513H71.3865ZM71.3865 29.8241H72.5643C73.4055 29.8241 73.8542 29.6004 73.8542 29.097C73.8542 28.5936 73.4616 28.314 72.6203 28.314H71.3865V29.8241ZM80.528 32.8445H79.6306V30.5513H77.163V32.8445H76.2657V27.5309H77.163V29.8241H79.6306V27.5309H80.528V32.8445ZM82.9956 29.3767H84.3976C85.0145 29.3767 85.4632 29.5445 85.8558 29.8241C86.1923 30.1597 86.3605 30.5513 86.3605 31.0547C86.3605 31.614 86.1923 32.0055 85.7997 32.3411C85.4632 32.6767 84.9585 32.8445 84.3416 32.8445H82.0983V27.5309H82.9956V29.3767ZM88.2673 32.8445H87.37V27.5309H88.2673V32.8445ZM82.9956 30.1038V32.1174H84.3416C84.6781 32.1174 84.9585 32.0055 85.1267 31.8377C85.295 31.6699 85.4071 31.4462 85.4071 31.1106C85.4071 30.8309 85.295 30.5513 85.1267 30.3835C84.9585 30.2157 84.6781 30.1038 84.3416 30.1038H82.9956ZM93.3708 27.5309H94.2681V32.8445H93.3708V28.9852L90.9032 32.8445H90.0059V27.5309H90.9032V31.4462L93.3708 27.5309ZM93.5951 25.5732C93.5951 25.9648 93.483 26.3004 93.2026 26.5241C92.9222 26.7478 92.5857 26.9156 92.137 26.9156C91.6883 26.9156 91.3519 26.8038 91.0714 26.5241C90.791 26.3004 90.6789 25.9648 90.6789 25.5732H91.4079C91.4079 25.797 91.464 25.9648 91.5762 26.1326C91.6883 26.2444 91.9127 26.3004 92.137 26.3004C92.3613 26.3004 92.5296 26.2444 92.6978 26.1326C92.81 26.0207 92.8661 25.797 92.8661 25.5732H93.5951ZM104.587 32.8445H103.69V28.258H101.222V32.8445H100.325V27.5309H104.643V32.8445H104.587ZM105.821 30.1597C105.821 29.6563 105.933 29.153 106.158 28.7614C106.382 28.3699 106.662 28.0343 106.999 27.8106C107.391 27.5868 107.784 27.475 108.233 27.475C108.962 27.475 109.523 27.6987 110.027 28.2021C110.476 28.7055 110.7 29.3767 110.7 30.2157V30.2716C110.7 30.775 110.588 31.2784 110.42 31.6699C110.196 32.0615 109.915 32.3971 109.579 32.6208C109.186 32.8445 108.793 32.9564 108.289 32.9564C107.56 32.9564 106.999 32.7327 106.55 32.2293C106.102 31.7259 105.877 31.0547 105.877 30.2157V30.1597H105.821ZM106.718 30.2716C106.718 30.8869 106.831 31.3343 107.111 31.6699C107.391 32.0055 107.728 32.2293 108.233 32.2293C108.681 32.2293 109.074 32.0615 109.354 31.6699C109.635 31.3343 109.747 30.775 109.747 30.1597C109.747 29.6004 109.635 29.097 109.354 28.7614C109.074 28.4258 108.681 28.2021 108.233 28.2021C107.784 28.2021 107.391 28.3699 107.167 28.7614C106.887 29.097 106.718 29.6004 106.718 30.2716ZM120.627 32.8445H119.73V30.5513H117.262V32.8445H116.365V27.5309H117.262V29.8241H119.73V27.5309H120.627V32.8445ZM121.861 30.1597C121.861 29.6563 121.973 29.153 122.197 28.7614C122.421 28.3699 122.702 28.0343 123.038 27.8106C123.431 27.5868 123.824 27.475 124.272 27.475C125.001 27.475 125.562 27.6987 126.067 28.2021C126.515 28.7055 126.74 29.3767 126.74 30.2157V30.2716C126.74 30.775 126.628 31.2784 126.459 31.6699C126.235 32.0615 125.955 32.3971 125.618 32.6208C125.226 32.8445 124.833 32.9564 124.328 32.9564C123.599 32.9564 123.038 32.7327 122.59 32.2293C122.141 31.7259 121.917 31.0547 121.917 30.2157V30.1597H121.861ZM122.814 30.2716C122.814 30.8869 122.926 31.3343 123.207 31.6699C123.487 32.0055 123.824 32.2293 124.328 32.2293C124.777 32.2293 125.17 32.0615 125.45 31.6699C125.73 31.3343 125.842 30.775 125.842 30.1597C125.842 29.6004 125.73 29.097 125.45 28.7614C125.17 28.4258 124.777 28.2021 124.328 28.2021C123.88 28.2021 123.487 28.3699 123.263 28.7614C122.926 29.097 122.814 29.6004 122.814 30.2716ZM127.974 32.8445V27.5309H130.049C130.778 27.5309 131.282 27.6428 131.675 27.9224C132.068 28.1462 132.236 28.5377 132.236 28.9852C132.236 29.2089 132.18 29.4326 132.012 29.6564C131.843 29.8801 131.619 29.9919 131.339 30.1038C131.675 30.1597 131.899 30.3276 132.124 30.5513C132.292 30.775 132.404 31.0547 132.404 31.3343C132.404 31.8377 132.236 32.1733 131.843 32.453C131.507 32.7327 130.946 32.8445 130.329 32.8445H127.974ZM128.927 30.5513V32.1733H130.441C130.834 32.1733 131.114 32.1174 131.282 31.9496C131.451 31.7818 131.563 31.614 131.563 31.3343C131.563 30.775 131.17 30.5513 130.385 30.5513H128.927ZM128.927 29.8241H130.105C130.946 29.8241 131.395 29.6004 131.395 29.097C131.395 28.5936 131.002 28.314 130.161 28.314H128.927V29.8241ZM133.47 30.1597C133.47 29.6563 133.582 29.153 133.806 28.7614C134.031 28.3699 134.311 28.0343 134.647 27.8106C135.04 27.5868 135.433 27.475 135.881 27.475C136.61 27.475 137.171 27.6987 137.676 28.2021C138.125 28.7055 138.349 29.3767 138.349 30.2157V30.2716C138.349 30.775 138.237 31.2784 138.068 31.6699C137.844 32.0615 137.564 32.3971 137.227 32.6208C136.835 32.8445 136.442 32.9564 135.937 32.9564C135.208 32.9564 134.647 32.7327 134.199 32.2293C133.75 31.7259 133.526 31.0547 133.526 30.2157V30.1597H133.47ZM134.367 30.2716C134.367 30.8869 134.479 31.3343 134.76 31.6699C135.04 32.0055 135.376 32.2293 135.881 32.2293C136.33 32.2293 136.722 32.0615 137.003 31.6699C137.283 31.3343 137.395 30.775 137.395 30.1597C137.395 29.6004 137.283 29.097 137.003 28.7614C136.722 28.4258 136.33 28.2021 135.881 28.2021C135.433 28.2021 135.04 28.3699 134.816 28.7614C134.535 29.097 134.367 29.6004 134.367 30.2716ZM141.602 32.2293C141.938 32.2293 142.219 32.1174 142.443 31.9496C142.667 31.7259 142.835 31.5021 142.835 31.2225H143.677C143.677 31.5021 143.565 31.8377 143.34 32.1174C143.172 32.3971 142.892 32.6208 142.555 32.7886C142.219 32.9564 141.882 33.0123 141.546 33.0123C140.816 33.0123 140.256 32.7886 139.807 32.2852C139.358 31.7818 139.19 31.1106 139.19 30.2716V30.1038C139.19 29.6004 139.302 29.097 139.471 28.7055C139.639 28.314 139.919 27.9784 140.312 27.7546C140.648 27.5309 141.097 27.419 141.602 27.419C142.219 27.419 142.723 27.5868 143.116 27.9784C143.508 28.314 143.733 28.8174 143.733 29.3767H142.892C142.892 29.0411 142.723 28.7614 142.499 28.5377C142.275 28.314 141.994 28.2021 141.602 28.2021C141.153 28.2021 140.76 28.3699 140.536 28.7055C140.256 29.0411 140.143 29.5445 140.143 30.1597V30.3275C140.143 30.9428 140.256 31.3903 140.536 31.7259C140.816 32.0615 141.153 32.2293 141.602 32.2293ZM148.78 28.258H146.986V32.8445H146.088V28.258H144.294V27.5309H148.78V28.258ZM154.164 30.2716C154.164 31.1106 153.996 31.7259 153.603 32.2293C153.211 32.7327 152.706 32.9564 152.089 32.9564C151.416 32.9564 150.911 32.7327 150.575 32.3411V34.914H149.677V27.5309H150.519L150.575 28.1462C150.967 27.6987 151.472 27.475 152.145 27.475C152.762 27.475 153.323 27.6987 153.659 28.2021C154.052 28.7055 154.22 29.3767 154.22 30.2157V30.2716H154.164ZM153.267 30.1597C153.267 29.5445 153.155 29.097 152.874 28.7614C152.594 28.4258 152.257 28.258 151.809 28.258C151.248 28.258 150.855 28.4818 150.575 28.9852V31.5021C150.855 32.0055 151.248 32.2293 151.809 32.2293C152.257 32.2293 152.594 32.0615 152.874 31.7259C153.155 31.3343 153.267 30.8309 153.267 30.1597ZM155.117 30.1597C155.117 29.6563 155.23 29.153 155.454 28.7614C155.678 28.3699 155.959 28.0343 156.295 27.8106C156.688 27.5868 157.08 27.475 157.529 27.475C158.258 27.475 158.819 27.6987 159.324 28.2021C159.772 28.7055 159.997 29.3767 159.997 30.2157V30.2716C159.997 30.775 159.884 31.2784 159.716 31.6699C159.492 32.0615 159.211 32.3971 158.875 32.6208C158.482 32.8445 158.09 32.9564 157.585 32.9564C156.856 32.9564 156.295 32.7327 155.847 32.2293C155.398 31.7259 155.174 31.0547 155.174 30.2157V30.1597H155.117ZM156.015 30.2716C156.015 30.8869 156.127 31.3343 156.407 31.6699C156.688 32.0055 157.024 32.2293 157.529 32.2293C157.978 32.2293 158.37 32.0615 158.651 31.6699C158.931 31.3343 159.043 30.775 159.043 30.1597C159.043 29.6004 158.931 29.097 158.651 28.7614C158.37 28.4258 157.978 28.2021 157.529 28.2021C157.08 28.2021 156.688 28.3699 156.463 28.7614C156.183 29.097 156.015 29.6004 156.015 30.2716ZM164.595 27.5309H165.493V32.8445H164.595V28.9852L162.128 32.8445H161.23V27.5309H162.128V31.4462L164.595 27.5309ZM164.82 25.5732C164.82 25.9648 164.708 26.3004 164.427 26.5241C164.147 26.7478 163.81 26.9156 163.362 26.9156C162.913 26.9156 162.576 26.8038 162.296 26.5241C162.016 26.3004 161.903 25.9648 161.903 25.5732H162.633C162.633 25.797 162.689 25.9648 162.801 26.1326C162.913 26.2444 163.137 26.3004 163.362 26.3004C163.586 26.3004 163.754 26.2444 163.922 26.1326C164.035 26.0207 164.091 25.797 164.091 25.5732H164.82ZM168.633 30.6072H167.96V32.9005H167.063V27.5868H167.96V29.8241H168.577L170.372 27.5868H171.494L169.362 30.1597L171.662 32.9564H170.484L168.633 30.6072ZM175.756 32.8445C175.7 32.7327 175.644 32.5649 175.644 32.2852C175.195 32.7327 174.69 32.9564 174.129 32.9564C173.625 32.9564 173.176 32.7886 172.839 32.5089C172.503 32.2293 172.335 31.8377 172.335 31.3903C172.335 30.8309 172.559 30.3835 172.952 30.1038C173.4 29.7682 173.961 29.6564 174.746 29.6564H175.644V29.2648C175.644 28.9292 175.531 28.7055 175.363 28.4818C175.195 28.314 174.915 28.2021 174.522 28.2021C174.185 28.2021 173.905 28.258 173.681 28.4258C173.456 28.5936 173.344 28.7614 173.344 29.0411H172.447C172.447 28.7614 172.559 28.5377 172.727 28.258C172.896 28.0343 173.176 27.8106 173.512 27.6428C173.849 27.475 174.185 27.419 174.578 27.419C175.195 27.419 175.7 27.5868 176.036 27.8665C176.373 28.1462 176.541 28.5936 176.597 29.153V31.614C176.597 32.1174 176.653 32.5089 176.765 32.7886V32.8445H175.756ZM174.242 32.1733C174.522 32.1733 174.802 32.1174 175.083 31.9496C175.363 31.7818 175.531 31.614 175.644 31.3903V30.2716H174.915C173.793 30.2716 173.232 30.6072 173.232 31.2784C173.232 31.5581 173.344 31.7818 173.512 31.9496C173.681 32.1174 173.961 32.1733 174.242 32.1733ZM181.084 31.6699L182.878 27.5309H184V32.8445H183.103V28.9852L181.364 32.8445H180.747L179.009 28.8733V32.8445H178.111V27.5309H179.289L181.084 31.6699Z" fill="#fff"/><path transform="translate(55.437 5.604)" d="M0 0H128.564V17.668H0z"/><path fill-rule="evenodd" clip-rule="evenodd" d="M174.984 20.6068V15.4742H177.674C180.115 15.4742 181.311 16.3132 181.311 18.0405C181.311 19.7678 180.514 20.6068 178.172 20.6068H174.984ZM174.984 12.9572V8.3182H177.774C179.617 8.3182 180.862 8.76237 180.862 10.6377C180.862 12.5131 179.667 12.9572 177.774 12.9572H174.984ZM172.344 5.80127V23.1237H178.172C182.108 23.1237 184 21.347 184 18.4353V17.695C184 15.6222 182.954 14.5365 181.759 14.0923C182.855 13.3521 183.452 12.365 183.452 10.9832V10.1936C183.452 7.77534 181.809 5.80127 177.674 5.80127H172.344Z" fill="#fff"/><path fill-rule="evenodd" clip-rule="evenodd" d="M160.291 5.85059C163.777 5.85059 167.264 5.85059 170.751 5.85059V8.36751H162.98V12.9572H169.356V15.4741H162.98V20.508H170.751V23.0249C167.264 23.0249 163.777 23.0249 160.291 23.0249V5.85059Z" fill="#fff"/><path fill-rule="evenodd" clip-rule="evenodd" d="M152.47 23.2721H153.217C156.505 23.2721 158.647 20.8539 158.647 17.0538V11.8225C158.647 8.02247 156.505 5.60425 153.217 5.60425H152.47C149.182 5.60425 147.04 8.02247 147.04 11.8225V17.0538C147.04 20.8539 149.132 23.2721 152.47 23.2721ZM152.819 20.7552C150.826 20.7552 149.68 19.472 149.68 17.0538V11.8225C149.68 9.40431 150.826 8.12117 152.819 8.12117C154.811 8.12117 155.957 9.40431 155.957 11.8225V17.0538C156.007 19.472 154.811 20.7552 152.819 20.7552Z" fill="#fff"/><path fill-rule="evenodd" clip-rule="evenodd" d="M137.078 15.5235H139.867C141.71 15.5235 142.956 14.3391 142.956 12.4637V11.2793C142.956 9.40394 141.76 8.3182 139.867 8.3182H137.078C137.078 10.6871 137.078 13.1053 137.078 15.5235ZM134.438 5.80127H139.817C143.952 5.80127 145.596 8.1208 145.596 11.2793V12.4637C145.596 15.8196 143.952 18.0405 139.817 18.0405H137.128V23.025H134.438V5.80127Z" fill="#fff"/><path fill-rule="evenodd" clip-rule="evenodd" d="M120.789 5.85059H132.943V8.36751H128.211V23.0249H125.521V8.36751H120.789V5.85059Z" fill="#fff"/><path fill-rule="evenodd" clip-rule="evenodd" d="M117.053 10.6381V11.2797H119.743V10.6381C119.743 7.82507 117.551 5.60425 114.563 5.60425H113.815C110.528 5.60425 108.386 8.02247 108.386 11.8225C108.386 13.5498 108.386 15.3265 108.386 17.0538C108.386 20.8539 110.528 23.2721 113.815 23.2721H114.563C117.601 23.2721 119.743 21.0513 119.743 18.2382V17.5967H117.053V18.2382C117.053 19.8668 115.659 20.7552 114.114 20.7552C112.122 20.7552 110.976 19.472 110.976 17.0538C110.976 15.3265 110.976 13.5498 110.976 11.8225C110.976 9.40431 112.122 8.12117 114.114 8.12117C115.659 8.12117 117.053 9.0095 117.053 10.6381Z" fill="#fff"/><path fill-rule="evenodd" clip-rule="evenodd" d="M100.616 23.2721H101.363C104.651 23.2721 106.793 20.8539 106.793 17.0538V11.8225C106.793 8.02247 104.651 5.60425 101.363 5.60425H100.616C97.3287 5.60425 95.1868 8.02247 95.1868 11.8225V17.0538C95.1868 20.8539 97.3287 23.2721 100.616 23.2721ZM101.015 20.7552C99.0223 20.7552 97.8767 19.472 97.8767 17.0538V11.8225C97.8767 9.40431 99.0223 8.12117 101.015 8.12117C103.007 8.12117 104.153 9.40431 104.153 11.8225V17.0538C104.153 19.472 103.007 20.7552 101.015 20.7552Z" fill="#fff"/><path fill-rule="evenodd" clip-rule="evenodd" d="M84.976 20.6068V15.4742H87.6658C90.1066 15.4742 91.3021 16.3132 91.3021 18.0405C91.3021 19.7678 90.5051 20.6068 88.1639 20.6068H84.976ZM84.976 12.9572V8.3182H87.7654C89.6085 8.3182 90.8039 8.76237 90.8039 10.6377C90.8039 12.5131 89.6085 12.9572 87.7654 12.9572H84.976ZM82.2861 5.80127V23.1237H88.1141C92.0492 23.1237 93.9421 21.347 93.9421 18.4353V17.695C93.9421 15.6222 92.896 14.5365 91.7006 14.0923C92.7964 13.3521 93.3941 12.365 93.3941 10.9832V10.1936C93.3941 7.77534 91.7504 5.80127 87.616 5.80127H82.2861Z" fill="#fff"/><path fill-rule="evenodd" clip-rule="evenodd" d="M74.3638 23.2721H75.111C78.3986 23.2721 80.5405 20.8539 80.5405 17.0538V11.8225C80.5405 8.02247 78.3986 5.60425 75.111 5.60425H74.3638C71.0762 5.60425 68.9343 8.02247 68.9343 11.8225V17.0538C68.9343 20.8539 71.0762 23.2721 74.3638 23.2721ZM74.7623 20.7552C72.7698 20.7552 71.6242 19.472 71.6242 17.0538V11.8225C71.6242 9.40431 72.7698 8.12117 74.7623 8.12117C76.7548 8.12117 77.9004 9.40431 77.9004 11.8225V17.0538C77.9004 19.472 76.7548 20.7552 74.7623 20.7552Z" fill="#fff"/><path fill-rule="evenodd" clip-rule="evenodd" d="M64.6518 15.4248V23.0249H67.3416V5.85059H64.6518V12.9572H58.1265V5.85059H55.4366V23.0249H58.1265V15.4248H64.6518Z" fill="#fff"/><path d="M0 0H42.32V39.867H0z"/><path transform="translate(4.07 28.472)" d="M0 0H34.305V11.395H0z"/><path opacity=".4" fill-rule="evenodd" clip-rule="evenodd" d="M5.97742 29.598C5.97742 29.598 11.949 29.4103 15.57 29.7857C19.1911 30.2237 23.3839 30.474 26.6238 29.9109C29.8001 29.3477 35.7717 29.5354 35.7717 29.5354C35.7717 29.5354 37.1058 35.6677 34.2471 37.3572C31.3883 39.0467 26.8779 38.9841 25.1627 37.1695C23.4474 35.3548 23.0027 31.2249 23.2568 31.0372C23.2568 31.0372 23.0027 30.474 21.2875 30.474C19.5723 30.474 19.3181 31.0372 19.3181 31.0372C19.3181 31.0372 19.5087 37.1695 15.6971 38.2332C11.8855 39.297 9.09025 38.859 7.88323 37.1069C6.67622 35.3548 6.48563 31.9758 6.48563 30.7869C6.48563 29.598 5.97742 29.598 5.97742 29.598Z" fill="#1A3658"/><path fill-rule="evenodd" clip-rule="evenodd" d="M7.81985 36.9819L12.2668 29.4104L6.10461 29.911C6.10461 29.911 6.23167 31.5379 6.86694 33.728C7.50222 35.9807 7.81985 36.9819 7.81985 36.9819Z" fill="#071321"/><path fill-rule="evenodd" clip-rule="evenodd" d="M25.3527 37.9199C25.1622 38.045 22.4305 32.5385 23.8281 31.0367C25.2257 29.5975 30.2443 29.5349 30.2443 29.5349L25.3527 37.9199Z" fill="#071321"/><path fill-rule="evenodd" clip-rule="evenodd" d="M18.4916 34.0408C18.9363 31.8507 19.0634 30.9121 16.4587 30.4115C14.9976 30.2863 13.473 30.2238 11.9483 30.2238C10.8048 30.2238 9.8519 30.2238 8.83547 30.3489C7.62845 30.4741 7.37434 32.0384 7.56492 33.0396L7.94609 34.9168C8.13667 35.7929 8.32725 36.5438 8.83547 37.1069C9.72485 37.983 11.5036 38.2333 12.7742 38.2958C14.3623 38.3584 15.5694 38.1081 16.5223 37.4824C17.5387 36.7315 18.174 35.6051 18.4916 34.0408ZM29.7995 39.8602C27.8936 39.9228 26.3055 39.5473 25.0984 38.7339C23.7008 37.7953 22.8115 36.2935 22.4303 34.3537C22.3032 33.6028 22.1127 31.8507 21.2868 31.8507C20.461 31.8507 20.2704 33.6028 20.1433 34.3537C19.7622 36.356 18.8728 37.7953 17.4752 38.7339C16.2682 39.5473 14.7435 39.9228 12.7742 39.8602C11.0589 39.7976 8.83547 39.4848 7.56492 38.1707C6.73907 37.3572 6.42143 36.2935 6.23085 35.1671L5.91321 33.6028C5.65911 32.7267 5.40499 31.8507 4.2615 31.8507L4.07092 29.3477C6.92965 28.722 9.02605 28.4717 11.8848 28.4717C14.6164 28.4717 17.4116 28.722 20.1433 29.2226C20.5245 29.2851 20.7786 29.3477 21.2233 29.3477C21.668 29.3477 21.9856 29.2851 22.3032 29.2226C24.9714 28.722 27.8301 28.4717 30.5618 28.4717C33.4205 28.4717 35.5804 28.722 38.3756 29.3477L38.1851 31.8507C37.0416 31.8507 36.7239 32.7267 36.5334 33.6028L36.2157 35.1671C35.9616 36.356 35.7075 37.3572 34.8816 38.1707C33.7382 39.4848 31.5147 39.7976 29.7995 39.8602ZM24.1455 34.0408C24.4632 35.6051 25.0984 36.7315 26.1149 37.3572C27.0043 37.983 28.2748 38.2333 29.863 38.1707C31.1335 38.1081 32.9758 37.8578 33.8017 36.9818C34.3099 36.4812 34.5005 35.6677 34.6911 34.7917L35.0722 32.9144C35.2628 31.9133 35.0087 30.4115 33.8017 30.2238C32.7852 30.0986 31.8323 30.0986 30.6888 30.0986C29.1642 30.0986 27.7031 30.1612 26.1784 30.2863C23.5738 30.9121 23.6373 31.8507 24.1455 34.0408Z" fill="#fff"/><path d="M0 0H42.32V28.346H0z"/><path opacity=".4" fill-rule="evenodd" clip-rule="evenodd" d="M1.4667 27.2825C1.4667 27.2825 0.577317 25.0298 1.84786 23.4029C3.11841 21.8386 2.73725 21.0251 2.73725 21.0251C2.73725 21.0251 3.30899 14.5174 6.61241 11.3261C9.91582 8.0722 12.8381 6.25754 12.8381 6.25754C12.8381 6.25754 12.711 4.25516 15.8874 3.31655C19.0638 2.37793 20.2072 1.18902 20.2072 1.18902L22.4307 0.938721L23.8918 3.00368L29.8634 4.44289V6.50784C29.8634 6.50784 36.0891 9.19854 37.8678 13.9542C39.6466 18.7098 40.2819 22.652 40.2819 22.652C40.2819 22.652 41.743 24.2164 41.6159 25.155C41.4889 26.0936 40.9171 27.22 40.9171 27.22C40.9171 27.22 29.8634 24.7795 21.3507 25.155C12.8381 25.593 1.4667 27.2825 1.4667 27.2825Z" fill="#1A3658"/><path fill-rule="evenodd" clip-rule="evenodd" d="M21.2866 25.155L29.7992 10.6377V6.50781C29.7992 6.50781 34.7543 7.82187 37.8036 13.9542C40.853 20.0864 40.2177 22.652 40.2177 22.652L41.5518 25.155L41.1706 27.2825C41.1706 27.2825 35.199 26.031 31.1333 25.6556C27.1311 25.2801 21.2866 25.155 21.2866 25.155Z" fill="#071321"/><path fill-rule="evenodd" clip-rule="evenodd" d="M23.8915 13.4536L29.3549 4.13L23.8915 3.00366V13.4536Z" fill="#071321"/><path fill-rule="evenodd" clip-rule="evenodd" d="M17.9201 13.4535V3.69189C17.4754 3.75447 17.0307 3.87961 16.586 3.94219C15.8237 4.12991 14.9978 4.3802 14.299 4.69308C14.1084 4.75565 13.9814 4.8808 13.9179 5.00595C13.7908 5.1311 13.7908 5.31882 13.7908 5.50654V11.764H12.0756V7.69665C9.78859 9.07328 7.81925 10.9505 6.35812 13.2032C4.64289 15.7687 3.62645 18.8349 3.56292 22.0887C3.49939 22.7771 3.0547 23.3402 2.54649 23.966C2.22885 24.3414 1.97474 24.7169 1.97474 24.7794C2.03827 25.1549 2.10179 25.5303 2.16532 25.9684C2.16532 26.0935 2.22885 26.2186 2.22885 26.3438C5.21463 25.718 8.26394 25.2175 11.3768 24.9046C14.6802 24.5291 18.0471 24.3414 21.4776 24.3414C24.8445 24.3414 28.2115 24.5291 31.5784 24.9046C34.6277 25.2175 37.6771 25.718 40.7264 26.3438C40.7264 26.2186 40.7899 26.0935 40.7899 25.9684C40.8534 25.5929 40.9169 25.1549 40.9805 24.7794C40.9805 24.7169 40.6628 24.3414 40.4087 23.966C39.964 23.4028 39.4558 22.7771 39.3923 22.0887C39.2652 18.8349 38.2488 15.7687 36.5971 13.2032C35.136 10.9505 33.1666 9.07328 30.8796 7.69665V11.764H28.9738V5.50654C28.9738 5.31882 28.9103 5.1311 28.8468 5.00595C28.7197 4.8808 28.5927 4.75565 28.4656 4.69308C27.7033 4.3802 26.8774 4.12991 26.0516 3.94219C25.6069 3.81704 25.2257 3.75447 24.781 3.69189V13.4535H23.0658V3.37902C23.0658 2.941 22.8752 2.50297 22.5576 2.1901C22.2399 1.87723 21.7952 1.68951 21.3506 1.68951C20.9059 1.68951 20.4612 1.87723 20.1435 2.1901C19.8259 2.50297 19.6353 2.941 19.6353 3.37902V13.4535H17.9201ZM18.2377 1.93981C18.4283 1.62694 18.6189 1.31406 18.873 1.00119C19.5083 0.37545 20.3341 0 21.287 0C22.2399 0 23.0658 0.37545 23.7011 1.00119C23.9552 1.25149 24.2093 1.56436 24.3363 1.93981C25.0351 2.06496 25.6704 2.1901 26.3692 2.31525C27.2586 2.50297 28.0844 2.81585 28.9103 3.12872C29.4185 3.31644 29.8632 3.62931 30.1173 4.06733C30.435 4.50535 30.562 5.00595 30.562 5.50654V5.75684C33.4843 7.3212 35.8983 9.57387 37.6771 12.3271C39.5193 15.143 40.6628 18.4594 40.7264 22.0887C40.7264 22.2139 41.044 22.5893 41.3616 22.9648C41.8699 23.5905 42.3781 24.2163 42.3145 25.0297C42.251 25.4678 42.1875 25.9058 42.124 26.2812C42.0604 26.7193 41.9334 27.0947 41.8699 27.5327L41.6793 28.3462L40.8534 28.1585C37.6771 27.4701 34.4372 26.907 31.0702 26.5941C27.8303 26.2187 24.5269 26.0935 21.16 26.0935C17.793 26.0935 14.4896 26.2812 11.2497 26.5941C7.9463 26.9695 4.64289 27.4701 1.46652 28.1585L0.640669 28.3462L0.450085 27.5327C0.323031 27.0947 0.259505 26.7193 0.195978 26.2812C0.13245 25.8432 0.0689236 25.4678 0.0053963 25.0297C-0.058131 24.2789 0.450087 23.6531 0.958305 22.9648C1.27594 22.5893 1.59358 22.2139 1.59358 22.0887C1.72063 18.522 2.86412 15.2056 4.64289 12.3271C6.42165 9.57387 8.89921 7.3212 11.7579 5.75684V5.50654C11.7579 4.94337 11.9485 4.44278 12.2026 4.06733C12.5203 3.62931 12.965 3.31644 13.4096 3.12872C14.2355 2.81585 15.0614 2.56555 15.8872 2.37783C16.8401 2.1901 17.5389 2.06496 18.2377 1.93981Z" fill="#fff"/><path fill-rule="evenodd" clip-rule="evenodd" d="M21.2871 20.9621C18.5554 20.9621 15.8873 21.0873 13.2191 21.3376C10.551 21.5879 7.88283 21.9008 5.27821 22.4013L4.96057 20.7744C7.62872 20.3364 10.3604 19.961 13.0921 19.7107C15.7602 19.4604 18.4919 19.3352 21.2871 19.3352C24.0188 19.3352 26.7504 19.4604 29.4821 19.7107C32.2138 19.961 34.9454 20.2738 37.6136 20.7744L37.296 22.4013C34.6913 21.9633 32.0232 21.5879 29.355 21.3376C26.6869 21.0873 24.0188 20.9621 21.2871 20.9621Z" fill="#fff"/></svg>