<svg xmlns="http://www.w3.org/2000/svg" viewBox="0 0 23 25"><path d="M18.3 19.9c2.7-2 4.3-5.2 4.3-8.6-.1-6.1-5-11-11.1-10.9C5.4.3.5 5.2.4 11.2c0 3.5 1.7 6.6 4.3 8.6l6.6 4.8 6.2-4.2c.5-.3.5-.3.7-.5h.1z" fill-rule="evenodd" clip-rule="evenodd" fill="#fff" stroke="#000" stroke-width=".75" stroke-miterlimit="10"/><path d="M6.7 17.6l-.2-.1c-2-1.5-3.1-3.8-3.1-6.2a8 8 0 0 1 8-7.9h.2c4.4 0 8 3.6 8.1 7.9 0 2.4-1.2 4.7-3.1 6.2l-.3.2c-.1.1-.2.1-.3.2l-.1.1-4.6 3-4.6-3.4z" fill-rule="evenodd" clip-rule="evenodd" fill="#1b6bc6"/><circle cx="11.4" cy="10.5" r="2" fill="#fff"/></svg>