<svg width="617" height="105" xmlns="http://www.w3.org/2000/svg"><g fill="none" fill-rule="evenodd"><circle stroke="#61A580" stroke-width="2" cx="129.5" cy="68.5" r="3.5"/><circle stroke="#61A580" stroke-width="2" cx="70.5" cy="15.5" r="3.5"/><circle stroke="#61A580" stroke-width="2" cx="222.5" cy="55.5" r="3.5"/><path d="M82.027 35.495a1.03 1.03 0 0 1 1.252.698l2.408 8.223 6.532-2.56c.27-.106.582-.09.842.046.264.135.455.375.525.659l1.674 6.783a.978.978 0 0 1-.742 1.191 1.028 1.028 0 0 1-1.222-.75l-1.394-5.65-6.486 2.541a1.023 1.023 0 0 1-.773-.013c-.017-.007-.034-.014-.05-.023a1.022 1.022 0 0 1-.534-.628l-2.72-9.295a.977.977 0 0 1 .688-1.222zM191.792 75.205c.532.153.85.713.708 1.246l-2.206 8.279 6.912 1.2c.286.05.544.224.696.476.156.251.195.556.107.835l-2.087 6.667a.978.978 0 0 1-1.252.634 1.028 1.028 0 0 1-.656-1.274l1.739-5.554-6.864-1.192a1.026 1.026 0 0 1-.654-.412l-.031-.046a1.022 1.022 0 0 1-.13-.813l2.495-9.358a.978.978 0 0 1 1.223-.688zM221.735 8.435c.533.154.85.713.708 1.246l-2.206 8.279 6.912 1.2c.287.05.545.224.696.476.156.252.195.556.108.835l-2.087 6.667a.979.979 0 0 1-1.253.634 1.027 1.027 0 0 1-.655-1.274l1.738-5.554-6.863-1.192a1.023 1.023 0 0 1-.685-.458 1.023 1.023 0 0 1-.131-.813l2.496-9.358a.977.977 0 0 1 1.222-.688zM183.385 25.484l-6.872-1.852 2.401-8.907c.441-1.64-.519-3.324-2.145-3.763L139.466.91c-1.626-.438-3.303.536-3.745 2.175l-2.4 8.908-6.872-1.852a1.02 1.02 0 0 0-1.248.725l-5.334 19.794a1.02 1.02 0 0 0 .715 1.254l2.945.794-1.334 4.948a1.021 1.021 0 0 0 .715 1.254l3.927 1.059a1.02 1.02 0 0 0 1.248-.726l1.334-4.948 39.265 10.581-1.333 4.949a1.021 1.021 0 0 0 .715 1.254l3.926 1.058a1.021 1.021 0 0 0 1.249-.725l1.333-4.948 2.945.793a1.022 1.022 0 0 0 1.249-.725l5.334-19.794a1.021 1.021 0 0 0-.715-1.254zm-17.948-15.452l10.798 2.91c.542.146.863.707.715 1.254l-3.939 14.617a25.07 25.07 0 0 0-11.779-3.175l4.205-15.606zm-4.755 17.644a22.702 22.702 0 0 1 11.78 3.174l-1.113 4.13-11.779-3.175 1.112-4.129zm-8.988-21.348l11.78 3.175-4.206 15.606a25.07 25.07 0 0 0-11.78-3.174l4.206-15.607zm-4.755 17.644a22.702 22.702 0 0 1 11.78 3.175l-1.113 4.129-11.779-3.174 1.112-4.13zm-9.255-20.358a1.022 1.022 0 0 1 1.249-.725l10.798 2.91-4.206 15.607a25.072 25.072 0 0 0-11.78-3.175l3.939-14.617zm-4.488 16.655a22.704 22.704 0 0 1 11.78 3.174l-1.113 4.13-11.779-3.175 1.112-4.129zm-6.81 17.456l-1.963-.53 1.067-3.958 1.963.529-1.067 3.959zm45.156 12.168l-1.963-.529 1.067-3.959 1.963.53-1.067 3.958zm5.527-4.88L122.097 30.2l4.8-17.814 5.89 1.587-2.933 10.887a1.02 1.02 0 0 0 .715 1.254l41.229 11.11a1.02 1.02 0 0 0 1.248-.725l2.934-10.886 5.89 1.587-4.801 17.814zM24.673 40.483a3.649 3.649 0 0 0-3.655 3.643 3.649 3.649 0 0 0 3.655 3.642 3.649 3.649 0 0 0 3.655-3.642 3.649 3.649 0 0 0-3.655-3.643zm0 5.464a1.824 1.824 0 0 1-1.828-1.821c0-1.006.818-1.822 1.828-1.822 1.01 0 1.827.816 1.827 1.822a1.824 1.824 0 0 1-1.827 1.82zM35.638 51.41a3.649 3.649 0 0 0-3.656 3.643 3.649 3.649 0 0 0 3.656 3.642 3.649 3.649 0 0 0 3.655-3.642 3.649 3.649 0 0 0-3.655-3.642zm0 5.464a1.824 1.824 0 0 1-1.828-1.821c0-1.006.818-1.821 1.828-1.821 1.009 0 1.827.815 1.827 1.821a1.824 1.824 0 0 1-1.827 1.821zM36.82 41.66L22.2 56.23l1.291 1.288 14.62-14.57z" fill="#61A580" fill-rule="nonzero"/><path d="M51.746 39.163l-6.24-4.143h.184v-6.375c0-.503-.41-.91-.914-.91h-4.57a.912.912 0 0 0-.913.91v2.245l-8.63-5.737a.916.916 0 0 0-1.015 0L8.564 39.163a2.799 2.799 0 0 0-.78 3.89 2.82 2.82 0 0 0 3.903.778l2.934-1.95v17.725h-1.828c0-.503-.41-.91-.914-.91H4.57a.912.912 0 0 0-.914.91H0v1.821h3.655v9.106H0v1.822h3.655c0 .502.41.91.914.91h7.31a.912.912 0 0 0 .914-.91v-.347l6.822 2.823a15.86 15.86 0 0 0 11.63.128l14.116-5.365a3.32 3.32 0 0 0 1.867-1.772c.369-.83.388-1.771.053-2.614a3.31 3.31 0 0 0-1.591-1.736v-21.59l2.934 1.949a2.82 2.82 0 0 0 3.903-.779 2.799 2.799 0 0 0-.78-3.89zm-40.78 32.28H5.482V60.518h5.483v10.927zM41.12 29.557h2.741v4.37l-2.741-1.82v-2.55zm4.43 37.532a1.507 1.507 0 0 1-.846.807L30.59 73.26a14.026 14.026 0 0 1-10.282-.11l-7.514-3.114v-8.608h2.317c3.03.004 6.017.707 8.729 2.054a6.485 6.485 0 0 0 2.883.678h7.088c.757.005 1.367.62 1.362 1.375a1.367 1.367 0 0 1-1.06 1.321c-.12.011-.237.036-.358.036h-10.91v1.821H33.81c.019 0 .036-.005.055-.005a5.648 5.648 0 0 0 2.11-.446l7.64-3.231a1.456 1.456 0 0 1 1.139 0c.378.159.675.465.822.847.155.39.147.827-.024 1.21zm-11.74-4.75h-7.089a4.662 4.662 0 0 1-2.066-.486 21.512 21.512 0 0 0-8.208-2.2V40.665l13.707-9.106 13.707 9.106v22.456c-.33.028-.655.105-.962.23l-5.925 2.507c.017-.11.028-.221.034-.333a3.193 3.193 0 0 0-3.199-3.187zm16.374-19.856a.99.99 0 0 1-.548-.165L30.662 29.71a.916.916 0 0 0-1.014 0L10.673 42.315a.99.99 0 0 1-1.535-.82c0-.328.164-.636.44-.819l20.577-13.67 20.578 13.672a.986.986 0 0 1-.548 1.804z" fill="#61A580" fill-rule="nonzero"/><path fill="#61A580" fill-rule="nonzero" d="M9.138 67.801H7.311v1.822h1.827z"/><g class="hidden-n-2 hidden-n-2_md hidden-n-2_sm" transform="translate(493 14)"><path d="M89.255 38.747a3.402 3.402 0 0 0 2.482-4.116 3.402 3.402 0 0 0-4.116-2.481 3.403 3.403 0 0 0-2.482 4.116 3.403 3.403 0 0 0 4.116 2.481zm-1.167-4.712a1.458 1.458 0 0 1 1.764 1.063c.193.78-.284 1.571-1.064 1.764a1.459 1.459 0 0 1-1.764-1.063 1.459 1.459 0 0 1 1.064-1.764zM69.46 43.65a3.401 3.401 0 0 0 2.482-4.116 3.402 3.402 0 0 0-4.116-2.482 3.403 3.403 0 0 0-2.482 4.116 3.403 3.403 0 0 0 4.116 2.482zm-1.167-4.713a1.458 1.458 0 0 1 1.764 1.064 1.458 1.458 0 0 1-1.063 1.764 1.458 1.458 0 0 1-.701-2.828z" fill="#61A580" fill-rule="nonzero"/><path d="M105.502 41.742l-3.972-16.038-2.828.7-1.885.467-.942.233-1.885.467-.943.233-1.885.467L61 35.741 74.54 90.41l22.658-5.612c1.64.226 3.479.139 5.381-.332 2.345-.58 4.34-1.63 5.802-2.922 1.959.472 4.223.439 6.451-.113 5.55-1.374 9.179-5.35 8.263-9.049l-.934-3.77-.934-3.77-.934-3.77-.933-3.77-.934-3.771-.934-3.77-.934-3.77c-.89-3.594-5.695-5.407-11.056-4.249zm9.171 4.715c.633 2.555-2.502 5.622-6.844 6.697-4.343 1.076-8.547-.174-9.179-2.728a2.672 2.672 0 0 1-.074-.477c-.004-.046.001-.093.001-.14a2.907 2.907 0 0 1 .007-.348c.005-.052.018-.106.026-.159.017-.111.032-.223.061-.335.016-.062.041-.123.061-.185.031-.103.062-.205.103-.308.034-.082.078-.165.118-.248.038-.08.072-.16.117-.24.067-.123.147-.246.229-.368.025-.038.047-.078.073-.115a6.9 6.9 0 0 1 .828-.97 8.933 8.933 0 0 1 1.038-.872l.069-.048c.374-.267.774-.517 1.206-.746.015-.007.031-.014.046-.023.366-.193.751-.37 1.149-.53l.048-.02c.421-.166.855-.313 1.304-.44l.439-.126c4.341-1.074 8.541.175 9.174 2.73zm5.676 23.182c.004.083 0 .167-.004.252-.004.079-.006.157-.016.236-.011.085-.029.17-.046.255-.017.08-.031.158-.054.238-.024.085-.055.17-.086.255-.028.08-.054.159-.089.237-.037.086-.081.171-.125.256-.039.078-.076.156-.121.233a5.27 5.27 0 0 1-.162.257c-.05.076-.097.152-.151.227-.061.085-.131.169-.198.252-.06.074-.116.148-.18.222-.073.083-.153.164-.231.245-.069.072-.135.144-.207.215-.084.08-.173.157-.262.236-.078.07-.153.14-.234.206-.094.078-.194.153-.294.228-.084.065-.166.13-.254.193-.105.075-.219.147-.329.22-.09.06-.176.12-.269.177-.115.072-.239.14-.359.207-.095.055-.188.11-.286.163-.126.067-.259.13-.389.193-.099.048-.195.099-.296.144-.144.065-.292.123-.439.184-.095.04-.189.082-.287.119-.165.063-.336.12-.506.176-.085.03-.167.06-.254.088a12.425 12.425 0 0 1-2.193.486 12.68 12.68 0 0 1-.93.095c-.045.003-.091.008-.137.01a4.792 4.792 0 0 0-.12-.727l-.28-1.131c.069-.006.137-.019.205-.026.264-.025.528-.058.791-.098.109-.016.217-.03.326-.05a14.85 14.85 0 0 0 1.081-.221 15.8 15.8 0 0 0 1.126-.326c.119-.039.231-.082.348-.123.245-.087.487-.177.722-.273.129-.053.255-.11.38-.164a13.618 13.618 0 0 0 1.605-.845c.098-.06.198-.117.291-.178.276-.18.542-.367.792-.56l.031-.022c.259-.202.501-.413.731-.63.074-.069.14-.14.211-.21.151-.152.299-.305.436-.46.073-.085.142-.17.212-.255a7.89 7.89 0 0 0 .348-.46c.033-.048.074-.092.105-.139.01.053.019.107.025.16.009.076.019.153.022.233zm-12.253 3.034c.004.084 0 .168-.004.253-.004.078-.006.157-.016.236-.011.084-.029.17-.047.255-.016.08-.031.158-.053.237-.024.086-.055.171-.086.256-.028.079-.055.159-.089.237-.037.086-.081.171-.125.256-.04.078-.076.156-.121.233-.05.087-.107.172-.163.257-.049.076-.096.151-.15.227-.061.085-.131.168-.198.252-.06.074-.117.148-.18.222-.073.083-.153.163-.232.245-.068.072-.134.143-.207.214-.083.081-.173.158-.261.237-.078.07-.153.139-.234.206-.094.078-.195.152-.294.228-.084.065-.166.13-.254.193-.106.075-.219.147-.33.22-.089.06-.175.12-.268.177-.115.072-.239.14-.359.207-.096.055-.188.11-.286.163-.126.067-.259.13-.389.192-.099.049-.195.1-.297.145-.143.064-.291.123-.438.184-.096.04-.189.081-.287.119-.165.063-.337.119-.507.176-.084.03-.167.06-.253.088a12.614 12.614 0 0 1-1.594.396c-.089.016-.176.026-.265.04-.177.03-.355.06-.53.08-.104.013-.205.02-.309.029-.158.015-.317.032-.474.042-.11.007-.218.006-.328.01-.146.006-.292.012-.437.012-.111 0-.217-.007-.326-.01-.139-.005-.28-.007-.416-.016-.109-.008-.213-.02-.32-.031-.132-.014-.265-.024-.394-.042-.108-.014-.21-.035-.315-.052-.123-.02-.247-.04-.367-.064-.103-.022-.202-.049-.303-.073-.115-.029-.23-.055-.342-.088-.096-.028-.189-.06-.283-.092-.106-.036-.216-.07-.319-.11-.09-.034-.175-.073-.263-.111-.098-.043-.198-.084-.292-.131-.083-.041-.16-.086-.239-.13-.09-.05-.18-.099-.264-.152-.075-.047-.145-.099-.215-.148-.078-.056-.157-.11-.23-.17-.066-.053-.126-.11-.188-.167-.068-.061-.136-.123-.197-.186-.056-.06-.106-.123-.157-.186a3.174 3.174 0 0 1-.161-.204c-.045-.065-.084-.133-.124-.201a2.683 2.683 0 0 1-.122-.221c-.033-.07-.061-.145-.089-.218a3.617 3.617 0 0 1-.053-.153c.05.027.106.048.157.073.169.087.344.17.524.246a7.335 7.335 0 0 0 .906.33c.096.029.188.06.285.088.305.083.618.157.941.215l.034.004c.314.056.636.097.965.127.111.01.226.014.34.021.234.015.47.027.711.03a15.472 15.472 0 0 0 1.103-.033 12.911 12.911 0 0 0 1.179-.128c.122-.018.242-.032.364-.053a15.042 15.042 0 0 0 2.276-.561c.118-.039.231-.083.347-.123.246-.087.488-.177.723-.274.129-.053.254-.109.38-.164a13.682 13.682 0 0 0 1.605-.844c.097-.06.197-.117.291-.178.276-.18.542-.367.792-.56l.03-.022c.259-.203.501-.413.732-.63.074-.069.14-.14.211-.21.151-.153.298-.305.436-.461.073-.084.142-.17.212-.255.123-.151.238-.305.348-.46.032-.047.074-.091.105-.138.01.052.018.106.025.16.008.076.019.153.022.232zM72.083 52.217l-1.455-5.874a6.322 6.322 0 0 0 4.241-7.034l7.576-1.876a6.322 6.322 0 0 0 7.033 4.241l1.455 5.874-.053-.03c-.198-.12-.404-.227-.609-.337-.198-.108-.392-.223-.594-.321-.073-.036-.15-.063-.225-.096a13.463 13.463 0 0 0-7.47-1.126c-.032.004-.063.004-.095.008a13.95 13.95 0 0 0-2.691.667c-.03.01-.058.025-.088.036a13.461 13.461 0 0 0-6.082 4.483c-.05.064-.105.125-.153.19-.134.181-.252.373-.376.561-.128.193-.262.383-.381.583-.01.017-.022.033-.033.05zm25.51 5.57c.014-.001.028-.005.043-.006a12.803 12.803 0 0 1 1.534-.093 10.977 10.977 0 0 1 1.864.163c.107.019.216.035.32.057.292.063.572.14.841.228.061.019.119.04.178.06a5.979 5.979 0 0 1 1.598.834c.149.113.284.231.408.354l.043.041c.115.117.214.24.307.363.018.025.038.047.055.072.083.117.15.24.213.364.016.032.037.063.052.095.073.158.131.318.172.484.633 2.554-2.502 5.621-6.844 6.697-4.343 1.075-8.547-.174-9.179-2.729a2.893 2.893 0 0 1-.014-1.26c.119-.623.428-1.262.901-1.882.03-.04.062-.079.094-.119.133-.167.28-.332.438-.495 1.245-1.283 3.169-2.382 5.425-2.94a13.43 13.43 0 0 1 1.551-.288zm2.726-3.114a7.2 7.2 0 0 0 .907.33c.095.03.187.061.285.088.305.084.617.157.94.215.012.003.023.003.034.005.314.055.637.096.965.126.112.01.227.014.341.022.233.015.469.027.71.03a15.55 15.55 0 0 0 1.104-.033c.136-.009.273-.019.412-.032.253-.024.509-.058.766-.096.122-.018.242-.032.364-.053a14.849 14.849 0 0 0 2.274-.561c.119-.039.231-.082.348-.123a16.5 16.5 0 0 0 .723-.273c.128-.053.254-.11.379-.164a13.826 13.826 0 0 0 1.606-.845c.097-.06.197-.117.291-.178.275-.18.541-.367.791-.56l.031-.022c.259-.202.501-.413.731-.63.074-.069.14-.14.211-.21.152-.152.299-.305.436-.461.073-.084.142-.17.212-.255.124-.151.239-.305.348-.46.033-.047.074-.091.105-.138.01.053.019.106.025.16.009.078.021.156.023.234.004.084-.001.168-.005.253a3.098 3.098 0 0 1-.015.236c-.011.084-.029.17-.047.255-.016.08-.031.158-.053.237-.024.085-.055.171-.086.256-.028.079-.055.158-.089.237a3.945 3.945 0 0 1-.125.256c-.04.078-.076.156-.121.233-.05.087-.107.172-.163.256-.049.077-.096.152-.151.228-.061.085-.13.168-.197.252-.06.074-.117.148-.18.222-.073.083-.153.163-.232.245-.068.072-.134.143-.207.214-.083.08-.173.158-.261.237-.078.07-.153.139-.234.206-.094.078-.195.152-.294.228-.084.065-.166.13-.254.193-.106.075-.219.147-.33.22-.089.06-.175.12-.268.177-.116.072-.239.14-.359.207-.096.055-.188.11-.286.163-.126.067-.259.13-.389.192-.1.049-.195.1-.297.145-.143.064-.291.123-.439.184-.095.04-.188.081-.286.119-.166.063-.337.119-.507.176-.085.029-.167.06-.253.088a13.62 13.62 0 0 1-1.809.431c-.109.018-.216.027-.324.043-.232.034-.463.066-.693.087-.128.011-.255.014-.383.021-.208.013-.417.026-.623.027-.132 0-.261-.007-.391-.01-.15-.003-.299-.01-.445-.02-1.127-.777-2.587-1.285-4.246-1.47-.503-.43-.844-.92-1.013-1.464.054.03.114.051.169.08.169.086.344.168.524.244zm15.583.344c.073-.084.142-.169.212-.254.123-.152.238-.305.348-.46.032-.048.073-.092.105-.139.01.053.018.107.024.16.01.078.021.156.024.235.003.083-.001.167-.005.252-.004.079-.006.157-.016.236-.011.085-.028.17-.046.256-.017.079-.031.157-.054.237-.024.085-.054.17-.085.255-.029.08-.055.159-.09.237-.036.087-.08.171-.124.256-.04.078-.077.156-.122.233-.049.087-.106.172-.162.257-.049.076-.097.152-.151.227-.061.085-.13.168-.198.252-.06.074-.116.148-.18.222-.072.083-.152.164-.231.245-.069.072-.135.144-.207.215-.083.08-.173.157-.262.236-.078.07-.152.14-.234.207-.094.077-.194.152-.294.227-.084.065-.165.13-.254.193-.105.075-.219.148-.329.221-.09.06-.176.12-.269.176-.115.072-.238.14-.359.207-.095.055-.187.11-.285.163-.127.067-.26.13-.39.193-.099.048-.194.099-.296.144-.143.065-.292.123-.439.184-.095.04-.189.082-.287.119-.165.063-.336.12-.506.176-.085.03-.167.06-.253.088-.259.081-.522.155-.791.222-.474.117-.952.2-1.429.264-.142.019-.286.03-.428.045-.186.019-.372.023-.559.033l-.174-.701a4.676 4.676 0 0 0-.198-.607c-.049-.125-.11-.243-.17-.363-.024-.05-.043-.1-.069-.147l.068-.008c.277-.022.557-.06.836-.097.137-.018.274-.029.411-.051a15.296 15.296 0 0 0 2.371-.58c.119-.037.231-.081.348-.122.245-.087.487-.177.722-.273.129-.053.254-.11.38-.164.216-.097.427-.196.634-.301a12.49 12.49 0 0 0 .971-.544c.097-.06.197-.117.291-.178.276-.18.542-.366.792-.56l.031-.022c.259-.202.5-.413.731-.63.074-.069.14-.14.211-.21.151-.152.298-.306.436-.462zm.934 3.77c.073-.084.142-.169.212-.254.123-.152.238-.305.348-.46.032-.047.073-.092.105-.138.01.052.018.106.024.16.01.077.021.156.023.234.004.083 0 .167-.004.252-.004.079-.006.158-.016.236-.011.085-.029.17-.047.256-.016.079-.031.157-.053.237-.024.085-.055.17-.086.255-.028.08-.054.159-.089.238-.037.086-.081.17-.125.256-.039.077-.076.156-.121.233-.05.086-.107.171-.163.256-.049.076-.096.152-.15.227-.061.086-.131.169-.198.252-.06.074-.116.148-.18.222-.073.083-.153.164-.232.245-.068.072-.134.144-.207.215-.083.08-.173.158-.261.237-.078.069-.153.139-.234.206-.094.077-.194.152-.294.227-.084.065-.166.13-.254.194-.106.075-.219.147-.33.22-.089.06-.175.12-.268.177-.115.071-.239.139-.359.207-.095.054-.188.11-.286.163-.126.067-.259.129-.389.192-.099.049-.195.1-.297.144-.143.065-.291.124-.438.184-.095.04-.189.082-.287.12-.165.062-.336.118-.506.176-.085.029-.167.06-.254.087-.258.081-.521.156-.79.222-.474.117-.952.2-1.429.264-.143.02-.286.03-.428.045-.187.02-.373.023-.559.033l-.174-.7-.28-1.132c.068-.006.136-.019.205-.026.263-.025.528-.057.791-.097.109-.016.217-.031.326-.05.361-.062.722-.133 1.081-.222.386-.096.759-.206 1.126-.326.118-.038.23-.082.347-.123.246-.087.488-.177.723-.273.129-.053.254-.109.38-.164.216-.097.427-.196.633-.301a12.488 12.488 0 0 0 .972-.544c.097-.06.197-.117.291-.178.276-.18.542-.366.792-.56l.03-.022c.259-.202.501-.413.732-.63.074-.068.14-.14.211-.21.151-.152.298-.305.436-.462zm.933 3.77c.074-.083.143-.169.212-.254.124-.151.239-.305.349-.46.032-.047.073-.091.104-.138.01.052.019.106.025.16.009.078.021.156.023.234.004.083-.001.167-.004.252-.004.08-.006.158-.016.236-.011.085-.029.17-.047.256-.016.08-.031.158-.053.237-.024.085-.055.17-.086.256-.028.079-.055.158-.089.237-.037.086-.081.17-.125.256-.04.078-.076.156-.121.233-.05.086-.107.171-.163.256-.049.076-.096.152-.151.228-.06.085-.13.168-.197.252-.06.073-.117.148-.18.221-.073.083-.153.164-.232.246-.068.072-.134.143-.207.214-.083.08-.173.158-.261.237-.078.07-.153.139-.234.206-.094.077-.195.152-.294.228-.084.064-.166.13-.254.193-.106.075-.219.147-.33.22-.089.06-.175.12-.268.177-.116.072-.239.14-.359.207-.096.054-.188.11-.286.163-.126.067-.259.129-.389.192-.099.049-.195.1-.297.145-.143.064-.291.123-.438.183-.096.04-.189.082-.287.12-.166.062-.337.119-.507.176-.084.029-.167.06-.253.087-.258.081-.522.156-.79.222-.474.118-.952.2-1.43.264-.142.02-.285.03-.428.045-.186.02-.372.023-.558.034l-.174-.702-.28-1.13c.068-.007.136-.02.204-.026.264-.026.528-.058.791-.098.11-.016.218-.031.326-.05.362-.062.723-.133 1.082-.222.385-.095.759-.206 1.126-.326.118-.038.23-.082.347-.123.246-.087.488-.176.723-.273.129-.053.254-.109.379-.164a13.344 13.344 0 0 0 1.606-.845c.097-.06.197-.117.291-.178.275-.18.541-.366.791-.56l.031-.022c.259-.202.501-.413.732-.629.073-.07.14-.14.21-.211.152-.152.299-.305.436-.461zm.934 3.771c.073-.084.142-.17.212-.255.124-.151.239-.305.348-.46.033-.047.074-.091.105-.138.01.053.019.107.025.16.009.078.02.156.023.234.003.084-.001.168-.005.253a3.095 3.095 0 0 1-.015.236c-.011.084-.029.17-.047.255-.016.08-.031.158-.053.237-.024.085-.055.171-.086.256-.029.079-.055.158-.089.237a3.97 3.97 0 0 1-.125.256c-.04.078-.077.156-.121.233-.05.086-.107.172-.163.257-.049.076-.096.151-.151.227-.061.085-.13.168-.197.252-.06.074-.117.148-.181.222-.072.083-.152.163-.231.245-.068.072-.135.143-.207.214-.083.08-.173.158-.261.237-.078.07-.153.139-.235.206-.093.077-.194.152-.293.228-.084.065-.166.13-.255.193-.105.075-.218.147-.329.22-.089.06-.176.12-.268.177-.116.072-.239.14-.359.207-.096.055-.188.11-.286.163-.127.067-.259.13-.39.192-.099.049-.194.1-.296.145-.143.064-.292.123-.439.183-.095.04-.188.082-.286.12-.166.063-.337.119-.507.176-.085.029-.167.06-.253.088a13.29 13.29 0 0 1-.791.221c-.474.118-.951.2-1.429.264-.142.02-.285.031-.428.045-.186.02-.372.024-.559.034l-.173-.701-.281-1.132c.069-.005.137-.018.205-.025.264-.025.528-.058.791-.098.109-.016.218-.03.326-.05.362-.061.722-.133 1.082-.222.385-.095.759-.206 1.125-.325.119-.039.231-.083.348-.124.246-.086.487-.176.723-.273a13.721 13.721 0 0 0 1.985-1.009c.097-.06.197-.116.291-.177.275-.18.541-.367.791-.56l.031-.022c.259-.203.501-.413.731-.63.074-.069.141-.14.211-.21.152-.153.299-.306.436-.462zm-11.541 2.575c.004.083 0 .167-.004.252-.004.08-.006.158-.016.236-.011.085-.029.17-.046.256-.017.08-.031.158-.054.237-.024.085-.055.17-.086.256-.028.079-.054.158-.089.237-.037.086-.081.17-.125.256-.039.078-.076.156-.121.233-.05.086-.106.171-.162.256-.05.076-.097.152-.151.228-.061.085-.131.168-.198.252-.06.074-.116.148-.18.221-.073.083-.153.164-.231.246-.069.072-.135.143-.207.214-.084.08-.173.158-.262.237-.078.07-.153.139-.234.206-.094.077-.194.152-.294.228-.084.065-.166.13-.254.193-.105.075-.219.147-.33.22-.089.06-.175.12-.268.177-.115.072-.239.14-.359.207-.095.055-.188.11-.286.163-.126.067-.259.129-.389.192-.099.049-.195.1-.296.145-.144.064-.292.123-.439.183-.095.04-.189.082-.287.12-.165.062-.336.119-.506.176-.085.029-.167.06-.254.088a13.391 13.391 0 0 1-1.593.396c-.089.015-.177.026-.265.04-.178.029-.356.059-.531.08-.104.013-.205.02-.309.029-.158.015-.317.032-.473.042-.111.006-.219.006-.329.01-.146.005-.292.012-.436.011-.112 0-.218-.007-.327-.01-.139-.004-.28-.006-.416-.016-.109-.007-.213-.02-.32-.03-.132-.014-.265-.024-.394-.042-.108-.014-.21-.035-.315-.052-.122-.02-.247-.04-.366-.064-.104-.022-.203-.05-.304-.073-.115-.029-.23-.055-.341-.088-.097-.028-.19-.06-.283-.093-.107-.035-.217-.07-.32-.109-.09-.034-.175-.073-.262-.112-.099-.042-.199-.084-.293-.13-.083-.042-.16-.087-.239-.131-.089-.049-.18-.098-.264-.15-.075-.048-.144-.1-.215-.15-.077-.055-.157-.11-.23-.169-.066-.053-.126-.11-.188-.167-.067-.062-.135-.123-.196-.187-.057-.059-.107-.122-.158-.185-.056-.067-.112-.134-.161-.204-.045-.065-.084-.133-.124-.201a2.668 2.668 0 0 1-.122-.221c-.033-.071-.06-.145-.089-.218a2.57 2.57 0 0 1-.052-.153c.049.026.105.047.156.073.169.087.344.169.524.245a7.334 7.334 0 0 0 .907.33c.095.03.187.062.285.088.304.084.617.158.94.216l.034.004c.314.055.637.097.965.126.112.01.227.014.341.022.233.015.469.027.71.03a16.009 16.009 0 0 0 1.516-.065c.253-.024.509-.058.766-.096.122-.018.242-.032.364-.053a14.944 14.944 0 0 0 2.276-.562c.119-.038.231-.082.348-.123.245-.087.487-.177.722-.273.129-.053.254-.109.38-.164a13.826 13.826 0 0 0 1.605-.845c.098-.06.198-.117.291-.178.276-.18.542-.366.792-.56l.031-.022c.259-.202.501-.413.731-.629.074-.07.14-.14.211-.211.151-.152.299-.304.436-.46.073-.084.142-.17.212-.255.124-.151.239-.305.348-.46.033-.047.074-.091.105-.138.01.052.019.106.025.16.009.076.019.153.022.232zm-19.458 1.17c-.367.131-.736.252-1.109.345-.445.11-.893.186-1.34.243-.143.018-.287.026-.43.04a11.512 11.512 0 0 1-1.41.042c-.292-.01-.583-.033-.873-.065-.155-.016-.31-.027-.464-.05a11.288 11.288 0 0 1-1.229-.25c-.125-.033-.245-.078-.368-.115-.299-.09-.597-.187-.89-.3-.147-.058-.291-.121-.435-.185a11.806 11.806 0 0 1-.852-.413c-.106-.057-.214-.111-.318-.171-.237-.138-.463-.297-.692-.451l2.12-3.922c.287-.53.771-.883 1.253-.914.045-.003.09-.004.137-.004.169.076.545.281.802.423.632.346 1.041.563 1.358.679.787.893 1.626 1.118 2.212 1.14.712.028 1.442-.216 2.184-.712l.885 3.576.189.761c-.098.042-.193.09-.291.13-.145.06-.293.119-.439.172zm-15.425-9.214c-.014-.089-.025-.177-.037-.265-.04-.307-.068-.612-.084-.916l-.009-.138c-.013-.35-.008-.7.01-1.048.004-.073.012-.146.017-.219.019-.27.049-.54.088-.807.014-.1.027-.199.044-.297.049-.284.108-.565.177-.843.036-.144.078-.287.119-.43a12.26 12.26 0 0 1 .151-.475l3.458 2.31c.885.593 1.911.773 2.837.548.34-.09.662-.23.953-.42.357-.233.543-.607.739-1.002.332-.664.609-1.146 1.175-1.287a3.873 3.873 0 0 1 2.778.358l1.266.788.142-1.456c.156-.337 1.128-.972 1.76-1.206.611.896 1.847 3.112 1.261 5.682-.055.058-.11.116-.163.175-.096.108-.183.218-.273.328-.078.096-.158.191-.231.29-.083.112-.157.227-.233.34-.065.1-.134.197-.193.298-.07.117-.129.237-.19.356-.052.1-.109.2-.154.301-.056.122-.1.246-.146.37-.038.1-.082.2-.114.3-.041.13-.068.26-.1.389l-.006.024c-.785.847-1.537 1.32-2.069 1.296-.122-.005-.49-.019-.965-.65l-.341-.454-.39.051c-.235-.1-.714-.362-1.016-.527-.806-.442-1.147-.622-1.486-.65a3.372 3.372 0 0 0-.522-.003c-1.162.08-2.218.801-2.825 1.927l-1.956 3.62-.009-.006a12.579 12.579 0 0 1-.668-.686 10.9 10.9 0 0 1-.531-.641c-.063-.081-.122-.166-.183-.249a12.473 12.473 0 0 1-.45-.666c-.039-.063-.081-.126-.12-.19a11.555 11.555 0 0 1-.497-.92c-.02-.042-.037-.086-.057-.128a11.95 11.95 0 0 1-.353-.848c-.03-.084-.062-.167-.091-.252a11.398 11.398 0 0 1-.309-1.023c-.087-.35-.151-.7-.204-1.05zm18.588 8.16c.101.043.201.086.305.125.195.075.396.141.602.204.095.03.187.062.285.089.305.083.617.157.94.215l.035.004c.313.056.636.097.964.127.112.01.227.014.341.021.234.016.469.027.71.03a15.55 15.55 0 0 0 1.104-.033 13.384 13.384 0 0 0 1.178-.128c.122-.018.243-.032.364-.053a14.97 14.97 0 0 0 2.274-.56c.119-.04.231-.083.348-.124.246-.087.487-.177.723-.273.129-.053.254-.109.379-.164a13.618 13.618 0 0 0 1.606-.845c.097-.06.197-.117.291-.178.275-.18.541-.366.791-.56l.031-.022c.259-.202.501-.413.731-.63.074-.068.141-.14.211-.21.152-.152.299-.304.436-.46.074-.085.142-.17.212-.255.124-.152.239-.305.349-.46.032-.047.073-.092.104-.139.01.053.019.107.025.16.009.078.021.156.023.235.004.083-.001.167-.004.252-.004.079-.006.158-.016.236-.011.085-.029.17-.047.256-.016.079-.031.157-.053.237-.024.085-.055.17-.086.255-.028.08-.055.159-.089.238-.037.086-.081.17-.125.256-.04.077-.076.155-.121.233-.05.086-.107.171-.163.256-.049.076-.096.152-.151.227-.061.085-.13.169-.197.252-.06.074-.117.148-.18.222-.073.083-.153.164-.232.245-.068.072-.134.144-.207.215-.083.08-.173.158-.261.237-.078.069-.153.139-.234.206-.094.077-.195.152-.294.227-.084.065-.166.13-.254.194-.106.075-.219.147-.33.22-.089.06-.175.12-.268.177-.116.071-.239.139-.359.207-.096.054-.188.11-.286.162-.126.068-.259.13-.389.193-.099.048-.195.1-.297.144-.143.065-.291.124-.438.184-.096.04-.189.082-.287.119-.166.063-.337.12-.507.177-.084.028-.167.06-.253.087a14.174 14.174 0 0 1-1.594.394c-.089.016-.177.027-.265.04-.178.03-.356.06-.53.081-.104.013-.206.019-.309.029-.159.015-.318.032-.474.042-.111.006-.219.006-.329.01-.146.005-.292.011-.436.011-.111 0-.218-.007-.327-.01-.139-.005-.28-.007-.416-.016-.109-.007-.213-.02-.32-.03-.132-.014-.265-.024-.394-.042-.108-.015-.21-.035-.315-.052-.122-.02-.247-.04-.366-.064-.103-.022-.202-.05-.303-.073-.115-.029-.231-.055-.342-.088-.097-.028-.189-.061-.283-.093-.107-.035-.216-.07-.319-.109-.091-.034-.176-.073-.263-.112-.099-.043-.199-.084-.293-.13-.083-.042-.16-.087-.239-.131-.089-.05-.179-.098-.263-.151-.075-.048-.145-.1-.215-.149-.078-.056-.158-.11-.23-.17-.067-.053-.127-.11-.189-.166-.067-.062-.135-.123-.196-.187-.057-.059-.107-.123-.158-.185a3.534 3.534 0 0 1-.161-.204c-.045-.065-.084-.133-.124-.202-.042-.072-.085-.144-.121-.22-.034-.071-.061-.146-.089-.219-.02-.05-.036-.1-.053-.153.049.027.106.048.156.074.172.086.346.168.526.245zm3.489-12.47c-.171.056-.338.117-.504.178-.148.056-.297.112-.442.17-.162.067-.32.136-.476.206-.141.064-.281.127-.417.195a11.71 11.71 0 0 0-.447.231 10.517 10.517 0 0 0-.807.47l-.046.029c-.123-3.237-2.102-5.553-2.205-5.672l-.274-.315-.417-.017c-.868-.037-2.645.773-3.562 1.816a5.793 5.793 0 0 0-3.309-.155c-1.483.367-2.111 1.631-2.447 2.31-.055.11-.099.21-.146.29-.093.05-.196.09-.304.118-.408.086-.839-.004-1.26-.285l-3.743-2.5c.13-.244.255-.49.401-.721.064-.102.134-.2.201-.3.176-.263.364-.517.56-.763.099-.124.196-.247.3-.367.205-.236.422-.461.646-.68.092-.09.177-.188.272-.274.308-.283.633-.546.97-.795.125-.092.257-.174.387-.26.242-.163.488-.32.742-.465a11.415 11.415 0 0 1 1.267-.62c.133-.056.264-.116.399-.166.421-.159.852-.3 1.297-.41.445-.11.892-.186 1.339-.243.144-.019.288-.026.431-.04a11.512 11.512 0 0 1 1.41-.043c.292.01.583.034.873.065.154.017.31.027.464.05.414.062.824.143 1.229.25.124.033.244.078.368.115.299.09.597.187.889.3.148.058.291.122.436.185.289.127.573.263.852.413.106.057.213.111.317.172a11.86 11.86 0 0 1 2.246 1.682 11.583 11.583 0 0 1 3.258 5.603l.002.007c-.098.027-.189.06-.286.09-.157.046-.311.094-.464.145zM76.652 70.665c.016.01.034.017.049.026.412.252.836.485 1.274.692.154.074.313.132.47.199.285.122.571.243.865.346.204.072.41.132.617.193a12.819 12.819 0 0 0 2.249.468c.211.025.422.053.635.069.301.022.604.025.909.026.188.002.375.013.564.006.475-.018.953-.058 1.432-.127.158-.023.315-.063.473-.092.29-.052.581-.097.873-.169.045-.011.09-.03.136-.043.26-.067.517-.159.775-.243.241-.078.482-.151.722-.245.072-.028.146-.046.218-.075l.268 1.081.934 3.77.7 2.828-5.673 1.405a6.323 6.323 0 0 0-7.034-4.24l-1.455-5.875h-.001zm23.46-42.61l3.519 14.21c-.312.108-.617.224-.913.35l-3.549-14.327.943-.234zm-2.828.7l3.656 14.761c-.3.182-.586.37-.86.568L96.342 28.99l.942-.233zm-2.828.7l3.983 16.08a8.228 8.228 0 0 0-.757.982L93.514 29.69l.942-.234zM75.958 88.058L63.352 37.16l28.277-7.003 5.135 20.736.934 3.77.28 1.131h-.002c-.322.028-.645.068-.973.117-.005-.024-.008-.047-.014-.072a13.487 13.487 0 0 0-3.56-6.295l-2.555-10.318-1.006.349c-.125.043-.25.083-.38.115a4.375 4.375 0 0 1-5.292-3.191 4.978 4.978 0 0 1-.076-.393l-.163-1.048-11.533 2.856.346 1.003c.042.125.083.252.116.383a4.376 4.376 0 0 1-3.191 5.292 4.54 4.54 0 0 1-.39.076l-1.053.16 2.556 10.319a13.916 13.916 0 0 0-.425 1.754c-.02.116-.031.235-.047.353-.043.301-.078.602-.099.904a16.192 16.192 0 0 0-.012 1.67c.017.307.046.611.084.917.015.123.025.243.043.366.063.422.141.844.246 1.264.104.42.231.83.372 1.234.041.117.089.228.132.343.109.288.226.572.354.85.055.12.114.239.172.357.132.268.274.529.424.786.064.11.127.22.194.329.16.257.332.507.509.753.07.097.135.197.207.29a13.922 13.922 0 0 0 1.14 1.3l.055.053 2.556 10.319 1.006-.35c.124-.042.249-.082.379-.115a4.375 4.375 0 0 1 5.292 3.191c.033.131.055.263.077.394l.162 1.048 7.754-1.92c.036.074.077.148.117.22.048.09.097.178.151.263.044.07.093.137.141.206.478.686 1.127 1.272 1.921 1.734l-17.755 4.398zm21.078-5.269a9.64 9.64 0 0 1-.738-.166c-.093-.026-.182-.055-.272-.084a7.049 7.049 0 0 1-.724-.27c-.077-.033-.16-.064-.234-.1-.105-.052-.201-.108-.299-.163a5.442 5.442 0 0 1-.273-.161 4.788 4.788 0 0 1-.51-.38c-.062-.054-.125-.108-.183-.164-.1-.098-.192-.2-.277-.305-.031-.038-.067-.074-.096-.114a3.078 3.078 0 0 1-.285-.462c-.02-.041-.033-.086-.051-.127a2.812 2.812 0 0 1-.102-.281c.049.026.104.046.153.072.17.087.344.169.524.245.101.043.202.086.305.126.195.074.396.14.602.204.095.03.187.061.285.088.305.084.617.157.941.215l.034.005c.314.055.636.097.964.126.112.01.227.014.341.022.234.015.47.027.711.03a15.472 15.472 0 0 0 1.103-.033 13.144 13.144 0 0 0 1.179-.128c.121-.018.242-.032.364-.053a14.972 14.972 0 0 0 2.273-.561c.118-.039.23-.082.347-.123.246-.087.488-.177.723-.273.129-.053.254-.11.379-.164a13.15 13.15 0 0 0 .991-.487c.212-.114.414-.234.615-.358.097-.06.197-.117.291-.178.275-.18.541-.367.792-.56l.03-.022c.259-.202.501-.413.732-.63.074-.069.14-.14.21-.21.152-.152.299-.305.437-.46.073-.085.142-.17.212-.255.123-.152.238-.306.348-.46.032-.047.071-.09.101-.136.018.099.036.198.042.302.002.025.007.05.008.075.005.178-.005.362-.033.557l-.001.005c-.099.69-.429 1.398-.961 2.082l-.046.057a7.284 7.284 0 0 1-.537.598c-.039.04-.074.08-.116.118l-.017.017c-1.246 1.187-3.082 2.19-5.206 2.716-1.798.445-3.569.487-5.076.208zm17.329-3.243c-1.536.38-3.08.482-4.482.307a6.582 6.582 0 0 0 .86-1.753c.018 0 .035-.003.053-.004.458-.015.919-.056 1.38-.117.102-.013.203-.029.304-.044.473-.071.946-.157 1.418-.274.386-.096.759-.206 1.126-.326.118-.038.231-.082.348-.123.245-.087.487-.177.722-.273.129-.053.254-.11.38-.164a13.786 13.786 0 0 0 1.605-.845c.097-.06.197-.117.291-.178.276-.18.542-.366.792-.56l.03-.022c.259-.202.501-.413.732-.63.074-.069.14-.14.211-.21.151-.152.299-.305.436-.46.073-.085.142-.17.212-.255.123-.152.238-.305.348-.46.036-.051.079-.1.112-.15.473 2.522-2.622 5.487-6.878 6.541zM23.733.435c.533.153.85.713.708 1.246L22.235 9.96l6.912 1.2c.287.05.545.224.696.476.156.252.195.556.108.835l-2.087 6.667a.979.979 0 0 1-1.253.634 1.027 1.027 0 0 1-.655-1.274l1.738-5.554-6.863-1.192a1.023 1.023 0 0 1-.685-.458 1.023 1.023 0 0 1-.131-.814l2.496-9.357a.977.977 0 0 1 1.222-.688z" fill="#61A580" fill-rule="nonzero"/><circle stroke="#61A580" stroke-width="2" cx="3.5" cy="49.5" r="3.5"/></g><g class="hidden-n-2 hidden-n-2_sm" transform="translate(246 12)"><circle stroke="#61A580" stroke-width="2" cx="76.5" cy="3.5" r="3.5"/><circle stroke="#61A580" stroke-width="2" cx="122.5" cy="31.5" r="3.5"/><path d="M108.733 54.435c.533.154.85.713.708 1.246l-2.206 8.279 6.912 1.2c.287.05.545.224.696.476.156.252.195.556.108.835l-2.087 6.667a.979.979 0 0 1-1.253.634 1.027 1.027 0 0 1-.655-1.274l1.738-5.554-6.863-1.192a1.023 1.023 0 0 1-.685-.458 1.023 1.023 0 0 1-.131-.813l2.496-9.358a.977.977 0 0 1 1.222-.688zM173 59h-2v-4a1 1 0 0 0-1-1h-14a1 1 0 0 0-1 1v5a1 1 0 0 0 1 1h2v3h-1a1 1 0 0 0-1 1v4a1 1 0 0 0-1 1v15a1 1 0 0 0 1 1h14a1 1 0 0 0 1-1V71a1 1 0 0 0 1-1v-4h1a1 1 0 0 0 1-1v-5a1 1 0 0 0-1-1zm-16 0v-3h12v3h-12zm12 25h-12v-3h12v3zm0-5h-12v-3h12v3zm0-5h-12v-3h12v3zm1-5h-12v-3h12v3zm2-5h-12v-3h12v3zM193 64h-14a1 1 0 0 0-1 1v4h-2a1 1 0 0 0-1 1v5a1 1 0 0 0 1 1h1v9a1 1 0 0 0 1 1h14a1 1 0 0 0 1-1V75a1 1 0 0 0-1-1h-1v-3h2a1 1 0 0 0 1-1v-5a1 1 0 0 0-1-1zm-16 10v-3h12v3h-12zm14 10h-12v-3h12v3zm0-5h-12v-3h12v3zm1-10h-12v-3h12v3zM214 66a1 1 0 0 0 1-1v-5a1 1 0 0 0-1-1h-1v-4a1 1 0 0 0-1-1h-14a1 1 0 0 0-1 1v5a1 1 0 0 0 1 1h1v3h-1a1 1 0 0 0-1 1v5a1 1 0 0 0 1 1h1v14a1 1 0 0 0 1 1h14a1 1 0 0 0 1-1V70a1 1 0 0 0-1-1h-1v-3h1zm-15-10h12v3h-12v-3zm0 13v-3h12v3h-12zm14 15h-12v-3h12v3zm0-5h-12v-3h12v3zm0-5h-12v-3h12v3zm-12-10v-3h12v3h-12zM159 28v-2h-2v2h-2v2h2v2h2v-2h2v-2zM207 45v-2h-2v2h-2v2h2v2h2v-2h2v-2zM166 44v-2h-2v2h-2v2h2v2h2v-2h2v-2zM212 28v-2h-2v2h-2v2h2v2h2v-2h2v-2zM195.904 40.992a12 12 0 0 0-5.903-5.904V32h-2v3.75a.997.997 0 0 0 .637.932c5.144 2.008 7.687 7.807 5.678 12.952-2.008 5.145-7.807 7.687-12.951 5.679-5.145-2.009-7.688-7.807-5.679-12.952a9.999 9.999 0 0 1 5.678-5.679 1 1 0 0 0 .637-.932V30h-2v5.088h-.007c-6.024 2.763-8.667 9.887-5.904 15.91 2.763 6.025 9.887 8.668 15.911 5.904 6.023-2.763 8.667-9.887 5.903-15.91z" fill="#61A580" fill-rule="nonzero"/><path fill="#61A580" fill-rule="nonzero" d="M186 29h-2v5h2zM187.871 47.295a2.843 2.843 0 0 0-1.449-1.702l-1.949-.975a.854.854 0 0 1 .381-1.618h.292c.471 0 .854.383.854.854V44h2v-.146a2.85 2.85 0 0 0-2-2.709V40h-2v1.145a2.844 2.844 0 0 0-.422 5.262l1.949.975a.854.854 0 0 1-.381 1.618h-.292a.856.856 0 0 1-.854-.854V48h-2v.146a2.85 2.85 0 0 0 2 2.709V52h2v-1.145a2.843 2.843 0 0 0 1.871-3.56zM190 28h-2v2h2zM182 26h-2v2h2zM192 45h-2v2h2zM180 45h-2v2h2zM59.353 46.746l-7.306-1.4 1.399-7.3a3.719 3.719 0 0 0-2.954-4.35l-32.874-6.297a3.718 3.718 0 0 0-4.352 2.951l-8.39 43.807-2.74-.525a.93.93 0 0 0-1.088.738l-.349 1.825a3.718 3.718 0 0 0 2.953 4.35L34.7 86.492a3.718 3.718 0 0 0 4.352-2.951l1.923-10.04 7.305 1.4a3.718 3.718 0 0 0 4.352-2.951l1.573-8.214 4.566.875a.93.93 0 0 0 1.088-.738l2.447-12.777a3.718 3.718 0 0 0-2.953-4.35zM4.002 78.72a1.859 1.859 0 0 1-1.477-2.175l.175-.913 29.221 5.597-.174.913a3.685 3.685 0 0 0 .14 1.919L4.002 78.72zM46.14 36.646l-8.914 46.545a1.86 1.86 0 0 1-3.653-.7l.35-1.825a.93.93 0 0 0-.739-1.087L6.702 74.507l8.39-43.807a1.86 1.86 0 0 1 2.176-1.476l29.73 5.694a3.674 3.674 0 0 0-.858 1.728zm-4.816 35.03l6.643-34.68a1.858 1.858 0 1 1 3.652.7L45.327 70.55a3.669 3.669 0 0 0 .158 1.922l-4.161-.796zm13.677-21.98L50.806 71.6a1.86 1.86 0 0 1-3.653-.7l4.545-23.728 4.16.797a3.683 3.683 0 0 0-.857 1.728zm3.206 12.915l-3.652-.7 2.272-11.864a1.859 1.859 0 0 1 3.653.7L58.207 62.61z"/><path fill="#61A580" fill-rule="nonzero" d="M35.728 56.413L14.725 52.39l-.35 1.825 21.003 4.023zM40.079 53.462l-19.177-3.673-.349 1.825 19.176 3.673zM31.614 42.658a2.644 2.644 0 0 0-1.026-1.806l-1.609-1.231a.792.792 0 0 1 .63-1.41l.267.051c.43.083.712.498.63.929l-.025.133 1.826.35.026-.133a2.648 2.648 0 0 0-1.353-2.822l.2-1.046-1.826-.35-.2 1.046a2.642 2.642 0 0 0-1.305 4.728l1.609 1.23a.794.794 0 0 1-.631 1.41l-.267-.05a.795.795 0 0 1-.63-.929l.025-.133-1.826-.35-.025.133a2.648 2.648 0 0 0 1.352 2.822l-.2 1.045 1.827.35.2-1.045a2.643 2.643 0 0 0 2.331-2.922zM19.076 49.44l-1.826-.35-.35 1.825 1.827.35zM34.153 64.627L13.15 60.604l-.349 1.825 21.003 4.023zM38.505 61.676l-19.177-3.673-.349 1.825 19.176 3.673zM17.504 57.653l-1.826-.35-.35 1.826 1.826.35zM32.581 72.84l-21.003-4.022-.349 1.825 21.002 4.023zM36.932 69.89l-19.176-3.673-.35 1.825 19.177 3.673zM15.93 65.867l-1.826-.35-.35 1.825 1.826.35z"/></g></g></svg>