<svg width="118" height="118" fill="none" xmlns="http://www.w3.org/2000/svg"><g clip-path="url(#clip0)" fill="#94A5B9"><path d="M59 54.462c-15.373 0-27.88 12.506-27.88 27.879 0 15.373 12.507 27.879 27.88 27.879s27.88-12.506 27.88-27.879c0-15.373-12.507-27.88-27.88-27.88zm0 51.868c-13.228 0-23.989-10.761-23.989-23.989 0-13.228 10.761-23.989 23.989-23.989 13.228 0 23.989 10.761 23.989 23.989 0 13.228-10.761 23.989-23.989 23.989z"/><path d="M59 64.835c-9.653 0-17.505 7.853-17.505 17.506 0 9.652 7.852 17.505 17.505 17.505 9.653 0 17.506-7.853 17.506-17.505 0-9.653-7.853-17.506-17.506-17.506zm0 31.12c-7.508 0-13.615-6.107-13.615-13.614 0-7.508 6.108-13.616 13.615-13.616 7.508 0 13.615 6.108 13.615 13.616 0 7.507-6.107 13.615-13.615 13.615z"/><path d="M103.088 46.681h-26.88l-1.47-8.818c-.63-3.78-4.125-6.742-7.958-6.742H51.22c-3.832 0-7.328 2.961-7.958 6.742l-1.47 8.819h-26.88C8.12 46.681 2.594 52.207 2.594 59v46.682C2.594 112.474 8.12 118 14.912 118h88.176c6.792 0 12.319-5.526 12.319-12.318V59c0-6.792-5.527-12.319-12.319-12.319zm-55.989-8.179c.315-1.892 2.203-3.49 4.12-3.49H66.78c1.919 0 3.806 1.598 4.121 3.49l1.364 8.18h-26.53l1.364-8.18zm64.418 67.18c0 4.647-3.782 8.428-8.429 8.428H14.912c-4.647 0-8.428-3.781-8.428-8.428V59c0-4.647 3.78-8.428 8.428-8.428h88.176c4.647 0 8.429 3.78 8.429 8.428v46.682z"/><path d="M18.154 42.791h8.559a1.945 1.945 0 0 0 0-3.89h-8.559a1.945 1.945 0 1 0 0 3.89zM97.901 57.055a7.14 7.14 0 0 0-7.132 7.132 7.14 7.14 0 0 0 7.132 7.131 7.14 7.14 0 0 0 7.132-7.131c0-3.933-3.199-7.132-7.132-7.132zm0 10.373a3.245 3.245 0 0 1-3.241-3.241 3.245 3.245 0 0 1 3.241-3.242 3.245 3.245 0 0 1 3.242 3.242 3.245 3.245 0 0 1-3.242 3.241zM36.082 38.723a1.945 1.945 0 1 0 2.708-2.793l-7.496-7.27 9.554-4.278a1.945 1.945 0 0 0 1.14-1.974l-1.072-10.414 10.07 2.865a1.946 1.946 0 0 0 2.142-.78L59 5.412l5.873 8.667a1.945 1.945 0 0 0 2.142.78l10.07-2.864-1.073 10.413a1.945 1.945 0 0 0 1.14 1.974l9.555 4.279-7.496 7.27a1.945 1.945 0 1 0 2.708 2.792l9.556-9.268a1.945 1.945 0 0 0-.559-3.172l-10.89-4.876 1.222-11.87a1.944 1.944 0 0 0-2.467-2.07l-11.477 3.265L60.61.854a1.944 1.944 0 0 0-3.22 0l-6.694 9.878L39.22 7.467a1.946 1.946 0 0 0-2.468 2.07l1.222 11.87-10.89 4.876a1.945 1.945 0 0 0-.559 3.172l9.557 9.268z"/></g><defs><clipPath id="clip0"><path fill="#fff" d="M0 0h118v118H0z"/></clipPath></defs></svg>