<svg width="52" height="31" viewBox="0 0 52 31" fill="none" xmlns="http://www.w3.org/2000/svg"><path d="M20.9354 14.8787c.2857 0 .5408-.1151.7183-.324.1994-.2346.2747-.5638.2119-.927l-.6266-3.6249c-.0359-.20834.0873-.5848.2399-.73235l2.6545-2.56694c.3339-.32292.4563-.71933.3357-1.08761-.1206-.36817-.4545-.61758-.916-.6841l-3.6684-.52892c-.2109-.03043-.5337-.26304-.628-.45258L17.6161.652913C17.4098.237958 17.0674 0 16.6771 0c-.3904 0-.7327.238067-.939.652913L14.0975 3.95041c-.0942.18943-.417.42204-.6278.45247l-3.66859.52892c-.46159.06652-.79545.31593-.91604.68421-.12059.36817.00187.76459.33583 1.08761l2.6545 2.56683c.1525.14755.2759.5239.2398.73215l-.6267 3.625c-.0627.3633.0124.6925.2119.9271.297.3496.8143.4251 1.3073.168l3.2813-1.7114c.069-.0359.2071-.0744.3881-.0744.1809 0 .3191.0385.388.0744l3.2811 1.7114c.1985.1036.3967.156.5892.156zm-4.2582-3.2505c-.3684 0-.7241.0797-1.0019.2248l-2.7933 1.4568.5336-3.0859c.109-.63098-.1572-1.44377-.6192-1.89067L10.5366 6.1482l3.123-.45029c.6387-.09215 1.3356-.59457 1.621-1.16852l1.3967-2.80708 1.3967 2.80708c.2854.57406.9824 1.07637 1.6211 1.16852l3.1229.45029-2.2598 2.18514c-.462.44679-.7282 1.25947-.6192 1.89046l.5335 3.086-2.7932-1.4568c-.278-.145-.6338-.2248-1.0021-.2248zm22.4787 3.2505c.2858 0 .5407-.1151.7182-.324.1995-.2346.2748-.5639.2119-.9271l-.6268-3.625c-.036-.20825.0874-.5846.2399-.73215l2.6545-2.56694c.334-.32292.4563-.71933.3358-1.08761-.1207-.36817-.4545-.61758-.916-.6841l-3.6682-.52892c-.211-.03043-.5337-.26304-.6281-.45258L35.8366.652913C35.6301.237958 35.2879 0 34.8975 0c-.3903 0-.7325.238067-.939.652913L32.3179 3.95019c-.0942.18954-.417.42226-.6279.45269l-3.6685.52892c-.4616.06652-.7955.31593-.9161.68421-.1206.36817.002.76459.3359 1.08761l2.6544 2.56683c.1526.14755.2759.5239.2399.73215l-.6266 3.625c-.0628.3633.0123.6925.2118.9271.2972.3496.8142.4251 1.3075.168l3.2812-1.7114c.0689-.0359.2071-.0744.388-.0744.181 0 .3191.0385.388.0744l3.2814 1.7114c.1985.1036.3966.156.589.156zm-4.2584-3.2505c-.3684 0-.7242.0797-1.002.2248l-2.7931 1.4568.5335-3.0859c.1091-.63098-.1572-1.44377-.6192-1.89067L28.757 6.1482l3.123-.45029c.6386-.09215 1.3353-.59446 1.621-1.16852l1.3966-2.80708 1.3966 2.80708c.2856.57406.9825 1.07637 1.6212 1.16852l3.1228.45029-2.2596 2.18514c-.4622.44679-.7283 1.25958-.6192 1.89056l.5336 3.0859-2.7933-1.4568c-.2781-.145-.6338-.2248-1.0022-.2248zm-20.1842 9.4253l-3.6686-.5292c-.2107-.0303-.5334-.2631-.6278-.4525l-1.64055-3.2976c-.20645-.4147-.54866-.6526-.93902-.6526-.39036 0-.73257.238-.93901.6528l-1.64048 3.2972c-.09432.1896-.41707.4224-.62791.4527l-3.668457.5292c-.461483.0663-.795448.3158-.9160408.6839-.1207025.3684.0017588.7649.3357238 1.088l2.654464 2.5667c.15258.1476.27592.5242.23987.7325l-.6266 3.6241c-.06277.3633.01242.6927.21194.9272.29714.3495.81447.4251 1.30739.1679l3.28106-1.711c.06893-.036.20711-.0745.38805-.0745.18095 0 .31913.0385.38805.0745l3.28102 1.711c.1985.1035.3967.1561.589.1561.2858 0 .5409-.1152.7184-.3241.1994-.2346.2747-.5639.2119-.927l-.6265-3.6242c-.0361-.2083.0873-.5849.2398-.7323l2.6546-2.5671c.334-.3231.4563-.7196.3356-1.0879-.1207-.368-.4545-.6174-.9159-.6838zm-2.9951 3.4018c-.4621.447-.7282 1.2598-.6192 1.8906l.5334 3.0853-2.79317-1.4566c-.27779-.1448-.63363-.2248-1.0019-.2248-.36826 0-.7241.0796-1.00189.2248l-2.7932 1.4565.53349-3.0852c.10905-.631-.15709-1.4438-.61923-1.8908l-2.25993-2.1852 3.12298-.4505c.63858-.0919 1.33553-.5942 1.62124-1.1686l1.39654-2.8069 1.39665 2.8071c.28571.5742.98262 1.0765 1.62112 1.1684l3.1231.4505-2.26 2.1854zm21.1577-3.4018l-3.6685-.5292c-.2108-.0303-.5335-.2631-.6278-.4525l-1.6405-3.2976c-.2065-.4147-.5487-.6526-.939-.6526-.3904 0-.7326.238-.939.6528l-1.6405 3.2972c-.0943.1896-.4171.4224-.6279.4527l-3.6685.5292c-.4615.0663-.7954.3158-.916.6839-.1207.3684.0017.7649.3357 1.088l2.6545 2.5667c.1525.1476.2759.5242.2398.7325l-.6266 3.6241c-.0627.3633.0125.6925.2119.9272.2971.3495.814.4251 1.3074.1679l3.281-1.711c.0689-.036.2072-.0745.3883-.0745.1809 0 .319.0385.3879.0745l3.2812 1.711c.1984.1035.3965.1561.5889.1561.2858 0 .541-.1152.7184-.3241.1994-.2346.2747-.5639.2119-.9271l-.6266-3.6241c-.036-.2083.0873-.5849.2399-.7323l2.6544-2.5669c.3341-.3231.4564-.7196.3358-1.088-.1206-.3681-.4546-.6175-.9161-.6839zm-2.9951 3.4018c-.462.447-.7283 1.2597-.6191 1.8907l.5334 3.0852-2.7931-1.4566c-.2777-.1448-.6337-.2248-1.0019-.2248-.3683 0-.7241.0796-1.002.2248l-2.7932 1.4566.5335-3.0852c.109-.631-.1571-1.4437-.6193-1.8908L19.8592 22.27l3.123-.4505c.6386-.092 1.3355-.5942 1.6212-1.1685L26 17.8439l1.3967 2.8072c.2857.5742.9826 1.0764 1.6212 1.1684l3.123.4505-2.2601 2.1853zm21.7381-1.63c.334-.3229.4563-.7194.3357-1.0878-.1207-.3683-.4545-.6176-.916-.6839l-3.6686-.5292c-.2108-.0303-.5336-.2631-.6279-.4525l-1.6405-3.2977c-.2064-.4147-.5488-.6527-.939-.6527-.3904 0-.7326.2381-.939.6529l-1.6406 3.2974c-.0942.1894-.4171.4222-.628.4525l-3.6683.5292c-.4614.0663-.7952.3158-.916.6839-.1207.3683.0016.7648.3357 1.0882l2.6544 2.5666c.1526.1476.2759.5242.24.7325l-.6266 3.6241c-.0627.3633.0124.6925.212.9272.1775.2088.4327.324.7184.324.1924 0 .3906-.0523.5889-.1561l3.2812-1.711c.0689-.036.207-.0745.3878-.0745.181 0 .3193.0385.3881.0745l3.2813 1.7112c.4932.2568 1.0103.1815 1.3074-.1682.1993-.2346.2747-.5638.2119-.9271l-.6266-3.6241c-.0361-.2083.0872-.5849.2399-.7324l2.6544-2.567zm-3.5752 1.63c-.4622.447-.7283 1.2597-.6194 1.8907l.5336 3.0852-2.7933-1.4566c-.2778-.1448-.6336-.2248-1.0019-.2248-.3683 0-.7241.0799-1.0017.2248l-2.7932 1.4566.5334-3.0852c.1091-.6309-.1571-1.4437-.6192-1.8908l-2.2598-2.1853 3.1227-.4504c.6388-.092 1.3357-.5943 1.6213-1.1685l1.3966-2.8071 1.3967 2.8072c.2858.5742.9826 1.0764 1.6211 1.1684l3.1232.4505-2.2601 2.1853z" fill="#071321"/></svg>