<svg width="12" height="12" viewBox="0 0 12 12" fill="none" xmlns="http://www.w3.org/2000/svg"><path d="M11.9902 4.63472C11.9648 4.55697 11.8976 4.50026 11.8166 4.48845L7.93095 3.92375L6.19325 0.402815C6.15717 0.329355 6.08242 0.282959 6.00079 0.282959C5.91917 0.282959 5.84421 0.329355 5.80834 0.402815L4.07042 3.92396L0.184766 4.48866C0.103788 4.50048 0.0367712 4.55697 0.0112105 4.63494C-0.0139206 4.71248 0.00691456 4.79797 0.0655538 4.85489L2.87745 7.59568L2.21351 11.4659C2.19977 11.5464 2.23284 11.6278 2.29879 11.6759C2.36516 11.7245 2.45301 11.7307 2.52497 11.6923L6.00079 9.86522L9.47619 11.6923C9.50755 11.7088 9.54213 11.717 9.57629 11.717C9.62075 11.717 9.665 11.7032 9.70259 11.6759C9.76874 11.6278 9.80182 11.5464 9.78786 11.4659L9.12414 7.5959L11.936 4.85489C11.9945 4.79754 12.0155 4.71226 11.9902 4.63472Z" fill="#000"/></svg>