<svg width="24" height="22" viewBox="0 0 24 22" fill="none" xmlns="http://www.w3.org/2000/svg"><path d="M10.9618 16.9612l-4.40973 2.2217.83427-4.6711c.11918-.6836-.17877-1.4811-.6555-1.9938L3.15541 9.21404l4.88643-.68358c.71509-.11393 1.43017-.56965 1.72813-1.19626l2.20483-4.21538 2.2049 4.21538c.2979.62661 1.013 1.1393 1.7281 1.19626l4.8864.68358-3.5158 3.30396c-.5363.4557-.7747 1.3102-.6555 1.9938l.8343 4.6711-4.3502-2.2217c-.6555-.2848-1.5493-.2848-2.1452 0zm6.4954 4.7851c1.4301.7405 2.8603-.2279 2.5624-1.7659L18.9469 14.17c0 .0569 4.4097-4.1015 4.4097-4.1015 1.1918-1.08232.6555-2.67733-1.013-2.90519l-6.1378-.85447c.0595 0-2.6816-5.24075-2.6816-5.24075-.7151-1.424119-2.4432-1.424119-3.2179 0L7.56511 6.3658c0-.05696-6.07824.79751-6.07824.79751-1.48976833.22786-2.026084 1.82287-.834271 2.90519L5.06231 14.17c-.05959-.057-1.07264 5.7534-1.07264 5.7534-.29795 1.538 1.13223 2.5064 2.5624 1.7659l5.48233-2.7343c-.0596.057 5.4228 2.7913 5.4228 2.7913z" fill="#D4DBE3"/></svg>