<svg width="25" height="22" viewBox="0 0 25 22" fill="none" xmlns="http://www.w3.org/2000/svg"><path fill-rule="evenodd" clip-rule="evenodd" d="M11.9998 18.9739V.00121966C11.3611-.0236827 10.7068.332763 10.3064 1.06909L7.56423 6.36694c0-.05713-6.07813.79737-6.07813.79737-1.48827983.22802-2.025389 1.82324-.833983 2.90529l4.410153 4.1015c-.06054-.0542-1.07226 5.7535-1.07226 5.7535-.29883 1.538 1.13086 2.5063 2.5625 1.7661l5.44729-2.7168z" fill="#FFCB00"/><path fill-rule="evenodd" clip-rule="evenodd" d="M12.0625 16.748v2.2251l.0352-.0176c-.0254.023.8711.4902 1.9414 1.0361 1.5547.7945 3.4804 1.7549 3.4804 1.7549 1.4297.7408 2.8614-.2275 2.5625-1.7656l-1.0722-5.8105c0 .0244.8007-.7168 1.7187-1.5752 1.2383-1.1568 2.6914-2.5264 2.6914-2.5264 1.1914-1.08204.6543-2.67725-1.0137-2.90528l-6.1386-.85449c.0273 0-.4942-1.0249-1.084-2.16797-.7441-1.4419-1.5977-3.07275-1.5977-3.07275-.3457-.687505-.9277-1.0444385-1.5234-1.06787597-.0215-.00097656-.041 0-.0625 0h.0625V3.16743l2.1797 4.16699c.2988.62695 1.0137 1.13965 1.7285 1.19629l4.8867.68359-3.5156 3.3042c-.5371.4556-.7754 1.3101-.6563 1.9937l.834 4.6709-4.3496-2.2212c-.332-.1441-.7246-.2154-1.1074-.2139z" fill="#D4DBE3"/></svg>