<svg xmlns="http://www.w3.org/2000/svg" preserveAspectRatio="xMidYMid" width="35.969" height="36.72" viewBox="0 0 35.969 36.72"><path d="M24.133,22.297 C24.020,22.243 23.950,22.130 23.951,22.006 L23.951,18.630 C24.456,17.778 24.799,16.840 24.964,15.865 C25.359,15.865 25.865,15.294 26.423,13.351 C27.152,10.796 26.423,10.345 25.764,10.345 C27.415,2.842 23.160,2.822 23.160,2.822 C22.468,0.893 20.483,-0.274 18.439,0.047 C16.296,0.266 14.134,0.245 11.996,-0.013 C11.995,0.583 12.262,1.148 12.725,1.530 C8.916,3.824 9.787,8.893 10.131,10.345 C9.483,10.345 8.814,10.836 9.524,13.351 C10.081,15.284 10.598,15.835 10.982,15.865 C11.147,16.840 11.491,17.778 11.996,18.630 L11.996,22.006 C11.997,22.130 11.926,22.243 11.813,22.297 C8.072,24.147 4.543,26.391 1.287,28.989 C0.468,29.662 -0.004,30.661 0.000,31.714 L0.000,36.723 L35.966,36.723 L35.966,31.714 C35.970,30.661 35.498,29.662 34.679,28.989 C31.418,26.390 27.882,24.146 24.133,22.297 Z" fill="#fff" fill-rule="evenodd"/></svg>