<?xml version="1.0" encoding="utf-8"?><svg xmlns="http://www.w3.org/2000/svg" xmlns:xlink="http://www.w3.org/1999/xlink"><symbol viewBox="0 0 463.021 463.021" id="hat" xmlns="http://www.w3.org/2000/svg"><path d="M442.763 174.192a1597.738 1597.738 0 0 0-422.502 0C8.717 175.732.012 185.705.012 197.429a23.251 23.251 0 0 0 7.906 17.475 23.424 23.424 0 0 0 18.494 5.606 1580.773 1580.773 0 0 1 85.314-8.794l-14.6 226.292a23.585 23.585 0 0 0 6.307 17.587 23.585 23.585 0 0 0 17.144 7.427h221.869c6.47 0 12.718-2.707 17.143-7.427s6.725-11.13 6.308-17.586l-14.6-226.292a1580.773 1580.773 0 0 1 85.314 8.794 23.406 23.406 0 0 0 18.493-5.607 23.273 23.273 0 0 0 7.906-17.515c.002-11.684-8.703-21.657-20.247-23.197zm-94.116 271.143a8.42 8.42 0 0 1-6.201 2.687H120.577c-2.375 0-4.577-.954-6.201-2.687s-2.434-3.991-2.281-6.361l10.319-159.952h218.195l10.32 159.952a8.418 8.418 0 0 1-2.282 6.361zm-9.005-181.314h-216.26l3.444-53.383a1583.483 1583.483 0 0 1 209.372 0l3.444 53.383zm105.568-60.389c-1.837 1.614-4.199 2.324-6.654 2.006a1597.953 1597.953 0 0 0-414.089 0c-2.452.317-4.816-.393-6.654-2.006-1.807-1.586-2.802-3.789-2.802-6.242 0-4.198 3.109-7.778 7.232-8.328a1582.777 1582.777 0 0 1 418.536 0c4.123.55 7.232 4.13 7.232 8.368.001 2.413-.994 4.616-2.801 6.202zM15.87 45.747l256 88a23.453 23.453 0 0 0 7.642 1.282 23.513 23.513 0 0 0 22.226-15.868c4.208-12.253-2.333-25.649-14.585-29.865L31.155 1.297C25.198-.754 18.813-.361 13.176 2.399 7.548 5.153 3.326 9.941 1.285 15.882-2.923 28.135 3.619 41.531 15.87 45.747zm213.879 39.678l-5.529 16.081-12.928-4.444 5.529-16.081 12.928 4.444zm57.803 28.86a8.508 8.508 0 0 1-8.041 5.744 8.47 8.47 0 0 1-2.765-.468l-38.342-13.18 5.529-16.081 38.341 13.18c4.433 1.526 6.8 6.374 5.278 10.805zm-272.08-93.53a8.452 8.452 0 0 1 4.298-4.884 8.416 8.416 0 0 1 3.707-.862c.938 0 1.882.157 2.8.473l176.36 60.623-5.529 16.081L20.749 31.562c-4.433-1.525-6.8-6.374-5.277-10.807z"/><path d="M328.22 351.037a7.493 7.493 0 0 0-7.967-7.002 7.5 7.5 0 0 0-7.001 7.967l4.646 72.002a7.5 7.5 0 1 0 14.968-.965l-4.646-72.002zm-9.556-24.016a7.5 7.5 0 0 0 7.491-7.983l-1.032-16.003a7.487 7.487 0 0 0-7.967-7.002 7.5 7.5 0 0 0-7.001 7.967l1.032 16.003a7.5 7.5 0 0 0 7.477 7.018z"/></symbol></svg>