# File produced by Open Asset Import Library (http://www.assimp.sf.net)
# (assimp v3.0.1262)

mtllib mini_avion.stl.obj.mtl

# 234 vertex positions
v  -14.9573 0.260005 2.89145e-06
v  -14.9573 0.260005 0.446796
v  9.22084 9.17245 0.166796
v  9.22084 9.17245 0.166796
v  9.22084 9.17245 2.24067e-06
v  -14.9573 0.260005 2.89145e-06
v  9.22084 9.17245 0.166796
v  -14.9573 0.260005 0.446796
v  9.22085 9.17245 0.446795
v  14.9573 8.80369 3.2238e-06
v  13.0427 3.06 2.06328e-11
v  9.22084 9.17245 2.24067e-06
v  9.22084 9.17245 2.24067e-06
v  -14.9573 -5.72716e-11 1.7763e-06
v  -14.9573 0.260005 2.89145e-06
v  -14.9573 -5.72716e-11 1.7763e-06
v  9.22084 9.17245 2.24067e-06
v  13.0427 2.22 2.1088e-06
v  13.0427 2.22 2.1088e-06
v  9.22084 9.17245 2.24067e-06
v  13.0427 3.06 2.06328e-11
v  -14.9573 0.260005 0.446796
v  -3.88831 0.260005 2.07819
v  0.66792 1.52213 0.446799
v  13.0427 0.192023 4.03935
v  -14.9573 -5.72716e-11 1.7763e-06
v  13.0427 2.22 2.1088e-06
v  14.9573 -8.80369 0.166796
v  13.0427 -2.67517 0.166797
v  9.22084 -9.17245 0.166796
v  2.94347 -3.55753 0.166797
v  0.85651 -1.41083 0.166798
v  0.856512 -1.69082 0.166797
v  0.85651 -1.41083 0.166798
v  2.94347 -3.55753 0.166797
v  13.0427 -2.39517 0.166795
v  2.94347 -3.55753 0.166797
v  9.22084 -9.17245 0.166796
v  13.0427 -2.67517 0.166797
v  13.0427 -2.67517 0.166797
v  13.0427 -2.39517 0.166795
v  2.94347 -3.55753 0.166797
v  0.66792 -1.52213 0.446799
v  2.94347 -3.55753 0.166797
v  0.856512 -1.69082 0.166797
v  2.94347 -3.55753 0.166797
v  9.22085 -9.17245 0.446795
v  9.22084 -9.17245 0.166796
v  9.22085 -9.17245 0.446795
v  2.94347 -3.55753 0.166797
v  0.66792 -1.52213 0.446799
v  13.0427 -3.06 0
v  14.9573 -8.80369 0.166796
v  14.9573 -8.80369 3.22362e-06
v  13.0427 -2.67517 0.166797
v  14.9573 -8.80369 0.166796
v  13.0427 -3.06 0
v  0.85651 -1.41083 0.166798
v  0.66792 -1.52213 0.446799
v  0.856512 -1.69082 0.166797
v  0.66792 -1.52213 0.446799
v  0.85651 -1.41083 0.166798
v  0.667918 -1.24214 0.446798
v  13.0427 -0.413461 4.29354
v  0.85651 -1.41083 0.166798
v  13.0427 -2.39517 0.166795
v  0.85651 1.41083 0.166798
v  0.66792 1.52213 0.446799
v  0.667918 1.24214 0.446798
v  0.66792 1.52213 0.446799
v  0.85651 1.41083 0.166798
v  0.856512 1.69082 0.166797
v  13.0427 -0.413461 4.29354
v  0.667918 -1.24214 0.446798
v  0.85651 -1.41083 0.166798
v  0.667918 -1.24214 0.446798
v  13.0427 -0.413461 4.29354
v  -3.33433 -0.133458 1.87983
v  14.9573 8.80369 0.166796
v  13.0427 2.67517 0.166797
v  13.0427 3.06 2.06328e-11
v  14.9573 8.80369 0.166796
v  13.0427 3.06 2.06328e-11
v  14.9573 8.80369 3.2238e-06
v  9.22085 9.17245 0.446795
v  2.94347 3.55753 0.166797
v  9.22084 9.17245 0.166796
v  2.94347 3.55753 0.166797
v  9.22085 9.17245 0.446795
v  0.66792 1.52213 0.446799
v  0.66792 1.52213 0.446799
v  0.856512 1.69082 0.166797
v  2.94347 3.55753 0.166797
v  -3.33432 0.133458 1.87983
v  0.667918 1.24214 0.446798
v  0.66792 1.52213 0.446799
v  0.66792 1.52213 0.446799
v  -3.88831 0.260005 2.07819
v  -3.33432 0.133458 1.87983
v  9.22085 9.17245 0.446795
v  -14.9573 0.260005 0.446796
v  0.66792 1.52213 0.446799
v  13.0427 0.413462 4.29354
v  13.0427 2.39517 0.166795
v  0.85651 1.41083 0.166798
v  9.22084 9.17245 0.166796
v  14.9573 8.80369 3.2238e-06
v  9.22084 9.17245 2.24067e-06
v  14.9573 8.80369 3.2238e-06
v  9.22084 9.17245 0.166796
v  14.9573 8.80369 0.166796
v  -14.9573 -0.260005 0.446796
v  -14.9573 0.260005 0.446796
v  -14.9573 -5.72716e-11 1.7763e-06
v  -14.9573 -5.72716e-11 1.7763e-06
v  -14.9573 -0.260005 2.89159e-06
v  -14.9573 -0.260005 0.446796
v  -14.9573 -5.72716e-11 1.7763e-06
v  -14.9573 0.260005 0.446796
v  -14.9573 0.260005 2.89145e-06
v  13.0427 -2.22 2.11361e-06
v  13.0427 -2.67517 0.166797
v  13.0427 -3.06 0
v  13.0427 -2.67517 0.166797
v  13.0427 -2.22 2.11361e-06
v  13.0427 -2.39517 0.166795
v  13.0427 -2.39517 0.166795
v  13.0427 -2.22 2.11361e-06
v  13.0427 -0.207973 4.03935
v  13.0427 -0.207973 4.03935
v  13.0427 -0.413461 4.29354
v  13.0427 -2.39517 0.166795
v  13.0427 -0.413461 4.29354
v  13.0427 -0.207973 4.03935
v  13.0427 0.192023 4.03935
v  13.0427 0.192023 4.03935
v  13.0427 0.413462 4.29354
v  13.0427 -0.413461 4.29354
v  13.0427 0.192023 4.03935
v  13.0427 2.22 2.1088e-06
v  13.0427 2.39517 0.166795
v  13.0427 2.39517 0.166795
v  13.0427 0.413462 4.29354
v  13.0427 0.192023 4.03935
v  13.0427 2.22 2.1088e-06
v  13.0427 3.06 2.06328e-11
v  13.0427 2.67517 0.166797
v  13.0427 2.67517 0.166797
v  13.0427 2.39517 0.166795
v  13.0427 2.22 2.1088e-06
v  -14.9573 -0.260005 0.446796
v  -3.88831 -0.260005 2.07819
v  -3.88831 0.260005 2.07819
v  -3.88831 0.260005 2.07819
v  -14.9573 0.260005 0.446796
v  -14.9573 -0.260005 0.446796
v  0.85651 1.41083 0.166798
v  13.0427 2.39517 0.166795
v  2.94347 3.55753 0.166797
v  2.94347 3.55753 0.166797
v  0.856512 1.69082 0.166797
v  0.85651 1.41083 0.166798
v  2.94347 3.55753 0.166797
v  13.0427 2.39517 0.166795
v  13.0427 2.67517 0.166797
v  13.0427 2.67517 0.166797
v  9.22084 9.17245 0.166796
v  2.94347 3.55753 0.166797
v  9.22084 9.17245 0.166796
v  13.0427 2.67517 0.166797
v  14.9573 8.80369 0.166796
v  -3.88831 -0.260005 2.07819
v  -3.33433 -0.133458 1.87983
v  -3.88831 0.260005 2.07819
v  -3.33433 -0.133458 1.87983
v  -3.88831 -0.260005 2.07819
v  0.66792 -1.52213 0.446799
v  -3.33433 -0.133458 1.87983
v  0.66792 -1.52213 0.446799
v  0.667918 -1.24214 0.446798
v  -3.88831 0.260005 2.07819
v  -3.33433 -0.133458 1.87983
v  -3.33432 0.133458 1.87983
v  13.0427 -0.207973 4.03935
v  13.0427 -2.22 2.11361e-06
v  -14.9573 -5.72716e-11 1.7763e-06
v  13.0427 -0.207973 4.03935
v  -14.9573 -5.72716e-11 1.7763e-06
v  13.0427 0.192023 4.03935
v  13.0427 -0.413461 4.29354
v  -3.33432 0.133458 1.87983
v  -3.33433 -0.133458 1.87983
v  -3.33432 0.133458 1.87983
v  13.0427 -0.413461 4.29354
v  13.0427 0.413462 4.29354
v  0.667918 1.24214 0.446798
v  13.0427 0.413462 4.29354
v  0.85651 1.41083 0.166798
v  13.0427 0.413462 4.29354
v  0.667918 1.24214 0.446798
v  -3.33432 0.133458 1.87983
v  14.9573 -8.80369 3.22362e-06
v  14.9573 -8.80369 0.166796
v  9.22084 -9.17245 0.166796
v  9.22084 -9.17245 0.166796
v  9.22084 -9.17245 2.2405e-06
v  14.9573 -8.80369 3.22362e-06
v  9.22085 -9.17245 0.446795
v  0.66792 -1.52213 0.446799
v  -14.9573 -0.260005 0.446796
v  -14.9573 -5.72716e-11 1.7763e-06
v  13.0427 -2.22 2.11361e-06
v  9.22084 -9.17245 2.2405e-06
v  9.22084 -9.17245 2.2405e-06
v  -14.9573 -0.260005 2.89159e-06
v  -14.9573 -5.72716e-11 1.7763e-06
v  9.22084 -9.17245 2.2405e-06
v  13.0427 -2.22 2.11361e-06
v  13.0427 -3.06 0
v  9.22084 -9.17245 2.2405e-06
v  13.0427 -3.06 0
v  14.9573 -8.80369 3.22362e-06
v  9.22084 -9.17245 0.166796
v  -14.9573 -0.260005 2.89159e-06
v  9.22084 -9.17245 2.2405e-06
v  -14.9573 -0.260005 2.89159e-06
v  9.22084 -9.17245 0.166796
v  -14.9573 -0.260005 0.446796
v  -14.9573 -0.260005 0.446796
v  9.22084 -9.17245 0.166796
v  9.22085 -9.17245 0.446795
v  -3.88831 -0.260005 2.07819
v  -14.9573 -0.260005 0.446796
v  0.66792 -1.52213 0.446799

# 0 UV coordinates

# 234 vertex normals
vn -0.345866 0.938284 -4.94344e-07
vn -0.345866 0.938284 -4.94344e-07
vn -0.345866 0.938284 -4.94344e-07
vn -0.345866 0.938284 -4.94344e-07
vn -0.345866 0.938284 -1.83253e-06
vn -0.345866 0.938284 -4.94344e-07
vn -0.345866 0.938284 2.16091e-05
vn -0.345866 0.938284 2.16091e-05
vn -0.345866 0.938284 2.16091e-05
vn 2.03111e-07 4.93569e-07 -1
vn 2.03111e-07 4.93569e-07 -1
vn 2.03111e-07 4.93569e-07 -1
vn 2.03111e-07 4.93569e-07 -1
vn -1.6079e-06 4.28897e-06 -1
vn -1.6079e-06 4.28897e-06 -1
vn -1.6079e-06 4.28897e-06 -1
vn 2.03111e-07 4.93569e-07 -1
vn 9.93813e-09 2.44306e-08 -1
vn 9.93813e-09 2.44306e-08 -1
vn 2.03111e-07 4.93569e-07 -1
vn 2.03111e-07 4.93569e-07 -1
vn -0.0706574 0.874742 0.47941
vn -0.0706574 0.874742 0.47941
vn -0.0706574 0.874742 0.47941
vn 0.0706796 -0.891456 -0.44756
vn 0.0706796 -0.891456 -0.44756
vn 0.0706796 -0.891456 -0.44756
vn 3.12512e-08 -2.27311e-07 1
vn 3.12512e-08 -2.27311e-07 1
vn 3.12512e-08 -2.27311e-07 1
vn -4.3372e-06 -4.79871e-06 1
vn -4.3372e-06 -4.79871e-06 1
vn -4.3372e-06 -4.79871e-06 1
vn -4.3372e-06 -4.79871e-06 1
vn -4.3372e-06 -4.79871e-06 1
vn 2.73643e-07 -3.16181e-07 1
vn -4.3372e-06 -4.79871e-06 1
vn 3.12512e-08 -2.27311e-07 1
vn 3.12512e-08 -2.27311e-07 1
vn 3.12512e-08 -2.27311e-07 1
vn 2.73643e-07 -3.16181e-07 1
vn -7.60422e-07 8.66839e-06 1
vn 0.666682 0.745342 2.91168e-06
vn 0.666682 0.745342 2.91168e-06
vn 0.666682 0.745342 2.91168e-06
vn 0.666684 0.74534 -2.70573e-05
vn 0.666684 0.74534 -2.70573e-05
vn 0.666684 0.74534 -2.70573e-05
vn 0.666683 0.745341 1.79909e-05
vn 0.666683 0.745341 1.79909e-05
vn 0.666683 0.745341 1.79909e-05
vn 0.948683 0.316228 4.06125e-09
vn 0.948683 0.316228 4.06125e-09
vn 0.948683 0.316228 4.06125e-09
vn 0.786374 0.245665 -0.566802
vn 0.786374 0.245665 -0.566802
vn 0.786374 0.245665 -0.566802
vn 0.829411 4.44064e-06 0.558638
vn 0.829411 4.44064e-06 0.558638
vn 0.829411 4.44064e-06 0.558638
vn 0.829411 4.44064e-06 0.558638
vn 0.829411 4.44064e-06 0.558638
vn 0.82941 9.69005e-06 0.55864
vn -0.0726224 -0.899068 0.431743
vn -0.0726224 -0.899068 0.431743
vn -0.0726224 -0.899068 0.431743
vn 0.82941 -9.69026e-06 0.55864
vn 0.82941 -9.69026e-06 0.55864
vn 0.82941 -9.69026e-06 0.55864
vn 0.82941 -9.69026e-06 0.55864
vn 0.82941 -9.69026e-06 0.55864
vn 0.829411 -4.44066e-06 0.558638
vn -0.087367 -0.878203 0.470241
vn -0.087367 -0.878203 0.470241
vn -0.087367 -0.878203 0.470241
vn -0.082325 -0.886286 0.455762
vn -0.082325 -0.886286 0.455762
vn -0.082325 -0.886286 0.455762
vn 0.786373 -0.245665 -0.566803
vn 0.786373 -0.245665 -0.566803
vn 0.786373 -0.245665 -0.566803
vn 0.948683 -0.316228 4.987e-09
vn 0.948683 -0.316228 4.987e-09
vn 0.948683 -0.316228 4.987e-09
vn 0.666684 -0.74534 -2.70569e-05
vn 0.666684 -0.74534 -2.70569e-05
vn 0.666684 -0.74534 -2.70569e-05
vn 0.666683 -0.745341 1.79912e-05
vn 0.666683 -0.745341 1.79912e-05
vn 0.666683 -0.745341 1.79912e-05
vn 0.666682 -0.745342 2.91169e-06
vn 0.666682 -0.745342 2.91169e-06
vn 0.666682 -0.745342 2.91169e-06
vn 0.337102 -7.23108e-06 0.941468
vn 0.337102 -7.23108e-06 0.941468
vn 0.337102 -7.23108e-06 0.941468
vn 0.337098 5.81553e-06 0.94147
vn 0.337098 5.81553e-06 0.94147
vn 0.337098 5.81553e-06 0.94147
vn -2.71153e-07 7.53129e-07 1
vn -2.71153e-07 7.53129e-07 1
vn -2.71153e-07 7.53129e-07 1
vn -0.0726224 0.899068 0.431743
vn -0.0726224 0.899068 0.431743
vn -0.0726224 0.899068 0.431743
vn 0.0641509 0.99794 -5.12904e-06
vn 0.0641509 0.99794 -5.12904e-06
vn 0.0641509 0.99794 -5.12904e-06
vn 0.0641509 0.99794 -5.12904e-06
vn 0.0641509 0.99794 -5.12904e-06
vn 0.0641511 0.99794 -8.13831e-09
vn -1 -1.34037e-10 4.26358e-07
vn -1 -1.34037e-10 4.26358e-07
vn -1 -1.34037e-10 4.26358e-07
vn -1 -1.34037e-10 4.26358e-07
vn -1 -1.81184e-06 -6.27935e-07
vn -1 -1.34037e-10 4.26358e-07
vn -1 -1.34037e-10 4.26358e-07
vn -1 -1.34037e-10 4.26358e-07
vn -1 1.81186e-06 -6.28104e-07
vn 1 -2.07765e-06 -1.06363e-05
vn 1 -2.07765e-06 -1.06363e-05
vn 1 -2.07765e-06 -1.06363e-05
vn 1 -2.07765e-06 -1.06363e-05
vn 1 -2.07765e-06 -1.06363e-05
vn 1 -4.83615e-06 -1.81641e-05
vn 1 8.04539e-06 -4.63506e-06
vn 1 8.04539e-06 -4.63506e-06
vn 1 8.04539e-06 -4.63506e-06
vn 1 -9.21163e-06 5.11162e-06
vn 1 -9.21163e-06 5.11162e-06
vn 1 -9.21163e-06 5.11162e-06
vn 1 9.65016e-09 1.25661e-05
vn 1 9.65016e-09 1.25661e-05
vn 1 9.65016e-09 1.25661e-05
vn 1 9.65016e-09 1.25661e-05
vn 1 -2.31753e-12 1.25431e-05
vn 1 9.65016e-09 1.25661e-05
vn 1 -8.01817e-06 -4.65174e-06
vn 1 -8.01817e-06 -4.65174e-06
vn 1 -8.01817e-06 -4.65174e-06
vn 1 8.77264e-06 4.9008e-06
vn 1 8.77264e-06 4.9008e-06
vn 1 8.77264e-06 4.9008e-06
vn 1 2.07989e-06 -1.06304e-05
vn 1 2.07989e-06 -1.06304e-05
vn 1 2.07989e-06 -1.06304e-05
vn 1 2.07989e-06 -1.06304e-05
vn 1 4.83628e-06 -1.81524e-05
vn 1 2.07989e-06 -1.06304e-05
vn -0.145809 -1.90015e-10 0.989313
vn -0.145809 -1.90015e-10 0.989313
vn -0.145809 -1.90015e-10 0.989313
vn -0.145809 -1.90015e-10 0.989313
vn -0.145809 7.34549e-11 0.989313
vn -0.145809 -1.90015e-10 0.989313
vn 2.73637e-07 3.16245e-07 1
vn 2.73637e-07 3.16245e-07 1
vn 2.73637e-07 3.16245e-07 1
vn 2.73637e-07 3.16245e-07 1
vn -4.3375e-06 4.79906e-06 1
vn 2.73637e-07 3.16245e-07 1
vn 2.73637e-07 3.16245e-07 1
vn 2.73637e-07 3.16245e-07 1
vn -7.60479e-07 -8.66878e-06 1
vn -7.60479e-07 -8.66878e-06 1
vn 1.59759e-08 2.18308e-07 1
vn 2.73637e-07 3.16245e-07 1
vn 1.59759e-08 2.18308e-07 1
vn -7.60479e-07 -8.66878e-06 1
vn 3.12543e-08 2.27295e-07 1
vn 0.337094 -1.91089e-10 0.941471
vn 0.337094 -1.91089e-10 0.941471
vn 0.337098 5.81553e-06 0.94147
vn 0.337097 -1.14131e-05 0.94147
vn 0.337097 -1.14131e-05 0.94147
vn 0.337097 -1.14131e-05 0.94147
vn 0.337102 7.23115e-06 0.941468
vn 0.337102 7.23115e-06 0.941468
vn 0.337102 7.23115e-06 0.941468
vn 0.337098 5.81553e-06 0.94147
vn 0.337102 7.23115e-06 0.941468
vn 0.337098 5.81553e-06 0.94147
vn 0.0707908 0.892859 -0.444738
vn 0.0707908 0.892859 -0.444738
vn 0.0707908 0.892859 -0.444738
vn 0.142784 -2.35179e-08 -0.989754
vn 0.142784 -2.35179e-08 -0.989754
vn 0.142784 -2.35179e-08 -0.989754
vn -0.145808 1.72956e-05 0.989313
vn -0.145808 1.72956e-05 0.989313
vn -0.145808 1.72956e-05 0.989313
vn -0.145809 2.57399e-11 0.989313
vn -0.145809 2.57399e-11 0.989313
vn -0.145809 2.57399e-11 0.989313
vn -0.0873671 0.878203 0.470241
vn -0.0873671 0.878203 0.470241
vn -0.0873671 0.878203 0.470241
vn -0.0823252 0.886286 0.455763
vn -0.0823252 0.886286 0.455763
vn -0.0823252 0.886286 0.455763
vn 0.0641512 -0.99794 -9.01829e-09
vn 0.0641512 -0.99794 -9.01829e-09
vn 0.0641512 -0.99794 -9.01829e-09
vn 0.0641512 -0.99794 -9.01829e-09
vn 0.064151 -0.99794 -5.13081e-06
vn 0.0641512 -0.99794 -9.01829e-09
vn -2.71154e-07 -7.53138e-07 1
vn -2.71154e-07 -7.53138e-07 1
vn -2.71154e-07 -7.53138e-07 1
vn -1.6079e-06 4.28897e-06 -1
vn 1.01571e-08 -2.38345e-08 -1
vn 1.01571e-08 -2.38345e-08 -1
vn 1.01571e-08 -2.38345e-08 -1
vn -1.60811e-06 -4.2895e-06 -1
vn -1.6079e-06 4.28897e-06 -1
vn 1.01571e-08 -2.38345e-08 -1
vn 1.01571e-08 -2.38345e-08 -1
vn -4.61047e-06 2.5162e-06 -1
vn 1.01571e-08 -2.38345e-08 -1
vn -4.61047e-06 2.5162e-06 -1
vn 2.03108e-07 -4.93542e-07 -1
vn -0.345866 -0.938284 -1.83424e-06
vn -0.345866 -0.938284 -1.83424e-06
vn -0.345866 -0.938284 -1.83424e-06
vn -0.345866 -0.938284 -1.83424e-06
vn -0.345866 -0.938284 -1.83424e-06
vn -0.345866 -0.938284 -4.94014e-07
vn -0.345866 -0.938284 2.16096e-05
vn -0.345866 -0.938284 2.16096e-05
vn -0.345866 -0.938284 2.16096e-05
vn -0.0706574 -0.874742 0.47941
vn -0.0706574 -0.874742 0.47941
vn -0.0706574 -0.874742 0.47941

# Mesh '<STL_BINARY>' with 78 faces
g <STL_BINARY>
usemtl DefaultMaterial
f  1//1 2//2 3//3
f  4//4 5//5 6//6
f  7//7 8//8 9//9
f  10//10 11//11 12//12
f  13//13 14//14 15//15
f  16//16 17//17 18//18
f  19//19 20//20 21//21
f  22//22 23//23 24//24
f  25//25 26//26 27//27
f  28//28 29//29 30//30
f  31//31 32//32 33//33
f  34//34 35//35 36//36
f  37//37 38//38 39//39
f  40//40 41//41 42//42
f  43//43 44//44 45//45
f  46//46 47//47 48//48
f  49//49 50//50 51//51
f  52//52 53//53 54//54
f  55//55 56//56 57//57
f  58//58 59//59 60//60
f  61//61 62//62 63//63
f  64//64 65//65 66//66
f  67//67 68//68 69//69
f  70//70 71//71 72//72
f  73//73 74//74 75//75
f  76//76 77//77 78//78
f  79//79 80//80 81//81
f  82//82 83//83 84//84
f  85//85 86//86 87//87
f  88//88 89//89 90//90
f  91//91 92//92 93//93
f  94//94 95//95 96//96
f  97//97 98//98 99//99
f  100//100 101//101 102//102
f  103//103 104//104 105//105
f  106//106 107//107 108//108
f  109//109 110//110 111//111
f  112//112 113//113 114//114
f  115//115 116//116 117//117
f  118//118 119//119 120//120
f  121//121 122//122 123//123
f  124//124 125//125 126//126
f  127//127 128//128 129//129
f  130//130 131//131 132//132
f  133//133 134//134 135//135
f  136//136 137//137 138//138
f  139//139 140//140 141//141
f  142//142 143//143 144//144
f  145//145 146//146 147//147
f  148//148 149//149 150//150
f  151//151 152//152 153//153
f  154//154 155//155 156//156
f  157//157 158//158 159//159
f  160//160 161//161 162//162
f  163//163 164//164 165//165
f  166//166 167//167 168//168
f  169//169 170//170 171//171
f  172//172 173//173 174//174
f  175//175 176//176 177//177
f  178//178 179//179 180//180
f  181//181 182//182 183//183
f  184//184 185//185 186//186
f  187//187 188//188 189//189
f  190//190 191//191 192//192
f  193//193 194//194 195//195
f  196//196 197//197 198//198
f  199//199 200//200 201//201
f  202//202 203//203 204//204
f  205//205 206//206 207//207
f  208//208 209//209 210//210
f  211//211 212//212 213//213
f  214//214 215//215 216//216
f  217//217 218//218 219//219
f  220//220 221//221 222//222
f  223//223 224//224 225//225
f  226//226 227//227 228//228
f  229//229 230//230 231//231
f  232//232 233//233 234//234

