<svg xmlns="http://www.w3.org/2000/svg" width="111" height="111" fill="none" viewBox="0 0 111 111"><path fill="#fff" d="M55.5 0C24.9 0 0 24.9 0 55.5S24.9 111 55.5 111 111 86.1 111 55.5 86.1 0 55.5 0zm0 107.3A51.86 51.86 0 0 1 3.7 55.5 51.86 51.86 0 0 1 55.5 3.7a51.86 51.86 0 0 1 51.8 51.8 51.86 51.86 0 0 1-51.8 51.8z"/><path fill="#fff" d="M53.85 48.14V29.38a1.85 1.85 0 1 1 3.7 0v18.76a7.39 7.39 0 0 1 5.29 5.29h13.21a1.85 1.85 0 1 1 0 3.7H62.84a7.4 7.4 0 0 1-14.54-1.85 7.4 7.4 0 0 1 5.55-7.14zm1.85 10.84a3.7 3.7 0 1 0 0-7.41 3.7 3.7 0 0 0 0 7.4zM55.5 18.28c1.02 0 1.85-.83 1.85-1.85v-1.85a1.85 1.85 0 1 0-3.7 0v1.85c0 1.02.83 1.85 1.85 1.85zM55.5 92.28c-1.02 0-1.85.82-1.85 1.85v1.85a1.85 1.85 0 1 0 3.7 0v-1.85c0-1.03-.83-1.85-1.85-1.85zM96.2 53.43h-1.85a1.85 1.85 0 1 0 0 3.7h1.85a1.85 1.85 0 1 0 0-3.7zM16.65 53.43H14.8a1.85 1.85 0 1 0 0 3.7h1.85a1.85 1.85 0 1 0 0-3.7zM82.97 25.19l-1.3 1.3a1.85 1.85 0 1 0 2.6 2.62l1.32-1.3a1.85 1.85 0 1 0-2.62-2.62zM26.72 81.44l-1.3 1.3a1.85 1.85 0 1 0 2.6 2.62l1.32-1.3a1.85 1.85 0 1 0-2.62-2.62zM84.28 81.44a1.85 1.85 0 1 0-2.62 2.61l1.31 1.31a1.84 1.84 0 0 0 2.62 0c.72-.72.72-1.89 0-2.61l-1.31-1.31zM28.03 25.19a1.85 1.85 0 1 0-2.62 2.61l1.31 1.31a1.84 1.84 0 0 0 2.62 0c.72-.72.72-1.9 0-2.61l-1.31-1.31z"/></svg>