<svg width="52" height="40" viewBox="0 0 52 40" fill="none" xmlns="http://www.w3.org/2000/svg"><path d="M34.0985 34.3715C30.3017 38.0177 25.3286 40 20.1479 40C19.2676 40 18.3813 39.9427 17.4939 39.8264C6.49716 38.3884 -1.27276 28.3242 0.173149 17.3915C1.62016 6.45927 11.741 -1.26616 22.741 0.172357C23.0238 0.20948 23.3033 0.255338 23.5817 0.30338C23.976 0.371621 24.2984 0.654412 24.4159 1.03492C24.5334 1.41544 24.4258 1.82925 24.138 2.10549C21.6471 4.4972 19.9491 7.46159 19.1567 10.759H16.9744C17.657 7.56641 19.0903 4.63914 21.194 2.14752C20.8294 2.12569 20.4664 2.11477 20.1051 2.11477C11.2204 2.11477 3.47189 8.67846 2.28243 17.6672C0.988636 27.4442 7.93703 36.4444 17.7717 37.7306C22.557 38.3551 27.305 37.0695 31.0793 34.176C27.7657 33.2376 24.8541 31.5037 22.5213 29.2234H25.7729C27.9859 30.8857 30.6196 32.0638 33.5422 32.5699C33.9365 32.6382 34.2589 32.9209 34.3764 33.3015C34.4939 33.6814 34.3868 34.0947 34.0985 34.3715ZM39.0041 25.8812C39.0041 25.2976 38.528 24.8237 37.9404 24.8237H32.8816L38.6219 19.0615C38.9233 18.7585 39.0128 18.3043 38.8476 17.9107C38.6823 17.517 38.2951 17.2605 37.8662 17.2605H30.3319C29.7449 17.2605 29.2682 17.7338 29.2682 18.3179C29.2682 18.9021 29.7443 19.3754 30.3319 19.3754H35.3165L29.5763 25.1376C29.2748 25.4412 29.1853 25.8949 29.3506 26.2885C29.5159 26.6821 29.903 26.9387 30.3319 26.9387H37.9404C38.5274 26.9387 39.0041 26.4653 39.0041 25.8812ZM51.4286 25.8812C51.4286 25.2976 50.9525 24.8237 50.3649 24.8237H45.3067L51.0469 19.0615C51.3489 18.7585 51.4379 18.3043 51.2726 17.9107C51.1073 17.517 50.7202 17.2605 50.2913 17.2605H42.757C42.1699 17.2605 41.6932 17.7338 41.6932 18.3179C41.6932 18.9021 42.1694 19.3754 42.757 19.3754H47.741L42.0013 25.1376C41.6998 25.4412 41.6103 25.8949 41.7756 26.2885C41.9409 26.6821 42.3281 26.9387 42.757 26.9387H50.3649C50.9525 26.9387 51.4286 26.4653 51.4286 25.8812ZM26.7976 25.8812C26.7976 25.2976 26.3215 24.8237 25.7339 24.8237H16.3483L26.3742 14.759C26.6762 14.456 26.7652 14.0018 26.5999 13.6082C26.4346 13.2146 26.0474 12.958 25.6185 12.958H13.7986C13.2111 12.958 12.7349 13.4313 12.7349 14.0149C12.7349 14.5991 13.2111 15.0724 13.7986 15.0724H23.0688L13.043 25.1376C12.741 25.4412 12.652 25.8949 12.8173 26.2885C12.9826 26.6821 13.3698 26.9387 13.7986 26.9387H25.7344C26.3215 26.9387 26.7976 26.4653 26.7976 25.8812Z" fill="#fff"/></svg>