<svg width="11" height="12" viewBox="0 0 11 12" fill="none" xmlns="http://www.w3.org/2000/svg"><path d="M5.43952 0.00305421C7.80538 0.0867081 9.77083 1.94678 9.9979 4.32107C10.0427 4.77987 10.0192 5.2249 9.94264 5.6517C9.93729 5.68155 9.9323 5.71143 9.92641 5.74117C9.92146 5.76617 9.91386 5.80144 9.90268 5.84652C9.82943 6.17622 9.71956 6.49607 9.58283 6.79624C9.10673 7.93295 8.00559 9.83484 5.53474 11.904C5.38337 12.032 5.16118 12.032 5.00737 11.904C2.53652 9.8373 1.43538 7.93541 0.956835 6.79378C0.817666 6.49361 0.710238 6.17622 0.636992 5.84406C0.620314 5.77123 0.610668 5.7225 0.606988 5.70324C0.605804 5.69705 0.60466 5.69088 0.603495 5.68469C0.548485 5.39238 0.519797 5.09285 0.519797 4.78609C0.519797 2.08456 2.73917 -0.0929017 5.43952 0.00305421ZM5.27105 7.16776C6.54554 7.16776 7.57832 6.12701 7.57832 4.84268C7.57832 3.55834 6.54554 2.51759 5.27105 2.51759C3.99657 2.51759 2.96379 3.55834 2.96379 4.84268C2.96379 6.12701 3.99657 7.16776 5.27105 7.16776Z" fill="#FFCB00"/></svg>