<svg width="13" height="16" viewBox="0 0 13 16" fill="none" xmlns="http://www.w3.org/2000/svg"><path d="M6.73175 0.00407228C9.96901 0.115611 12.6584 2.5957 12.9691 5.76143C13.0325 6.39457 12.9958 7.00803 12.8822 7.59525C12.8822 7.59525 12.8722 7.66414 12.8388 7.79536C12.7385 8.23495 12.5882 8.66142 12.4011 9.06165C11.7497 10.5773 10.243 13.1131 6.86204 15.8721C6.65491 16.0426 6.3509 16.0426 6.14043 15.8721C2.75952 13.1164 1.25281 10.5805 0.598006 9.05837C0.407579 8.65814 0.260584 8.23495 0.160359 7.79208C0.130292 7.66414 0.116929 7.59197 0.116929 7.59197C0.0400896 7.1983 0 6.7948 0 6.38145C0 2.77941 3.0368 -0.123869 6.73175 0.00407228ZM6.50123 9.55701C8.24514 9.55701 9.65831 8.16934 9.65831 6.4569C9.65831 4.74446 8.24514 3.35679 6.50123 3.35679C4.75733 3.35679 3.34416 4.74446 3.34416 6.4569C3.34416 8.16934 4.75733 9.55701 6.50123 9.55701Z" fill="#071321"/></svg>