<svg width="16" height="16" viewBox="0 0 16 16" fill="none" xmlns="http://www.w3.org/2000/svg"><path transform="matrix(-1 0 0 1 16 0)" d="M0 0H16V16H0z"/><path transform="matrix(-1 0 0 1 16 0)" d="M0 0H16V16H0z"/><path transform="matrix(-1 0 0 1 16 0)" d="M0 0H16V16H0z"/><path d="M5 0H11C13.761 0 16 2.239 16 5V11C16 13.761 13.761 16 11 16H5C2.239 16 0 13.761 0 11V5C0 2.239 2.239 0 5 0ZM1.5 11C1.5 12.93 3.07 14.5 5 14.5H11C12.93 14.5 14.5 12.93 14.5 11V5C14.5 3.07 12.93 1.5 11 1.5H5C3.07 1.5 1.5 3.07 1.5 5V11Z" fill="#fff"/><path transform="matrix(-1 0 0 1 12 4)" d="M0 0H8V8H0z"/><path transform="matrix(-1 0 0 1 12 4)" d="M0 0H8V8H0z"/><path d="M8 4C10.209 4 12 5.791 12 8C12 10.209 10.209 12 8 12C5.791 12 4 10.209 4 8C4 5.791 5.791 4 8 4ZM8 10.5C9.378 10.5 10.5 9.378 10.5 8C10.5 6.621 9.378 5.5 8 5.5C6.622 5.5 5.5 6.621 5.5 8C5.5 9.378 6.622 10.5 8 10.5Z" fill="#fff"/><path transform="matrix(-1 0 0 1 4.233 3.167)" d="M0 0H1.066V1.066H0z"/><path transform="matrix(-1 0 0 1 4.233 3.167)" d="M0 0H1.066V1.066H0z"/><path d="M3.69954 4.23299C3.40518 4.23299 3.16654 3.99436 3.16654 3.69999C3.16654 3.40562 3.40518 3.16699 3.69954 3.16699C3.99391 3.16699 4.23254 3.40562 4.23254 3.69999C4.23254 3.99436 3.99391 4.23299 3.69954 4.23299Z" fill="#fff"/></svg>