<svg width="23" height="27" viewBox="0 0 23 27" fill="none" xmlns="http://www.w3.org/2000/svg"><path fill-rule="evenodd" clip-rule="evenodd" d="M11.1567 0.0382385L1.24243 2.88925C0.510254 3.0849 0 3.74048 0 4.48795V18.3955C0 20.2215 1.02441 21.8679 2.67529 22.6985L9.18945 26.4656L9.2124 26.477C9.90771 26.8223 10.6707 26.9949 11.4333 26.9949C12.196 26.9949 12.959 26.8223 13.6543 26.477L13.6995 26.4528L20.1914 22.6985C21.8423 21.8679 22.8667 20.2215 22.8667 18.3955V4.48801C22.8667 3.7406 22.3564 3.08496 21.6243 2.88931L11.6995 0.0352173L11.6887 0.0324707C11.5217 -0.0108032 11.345 -0.0108643 11.1777 0.0325317L11.1567 0.0382385ZM3.44653 21.3098L3.42358 21.2984C2.30347 20.7422 1.60767 19.6299 1.60791 18.3954V4.48795C1.60791 4.45395 1.6311 4.42416 1.66455 4.41553L1.68506 4.40991L11.4336 1.60663L21.2024 4.41553C21.2358 4.42416 21.259 4.45395 21.259 4.48795V18.3954C21.259 19.6299 20.5632 20.7422 19.4431 21.2984L19.3979 21.3226L12.9082 25.0756C11.9829 25.5266 10.884 25.5268 9.95874 25.0756L3.44653 21.3098ZM10.9009 7.8555L5.51172 12.3457C5.17285 12.6281 5.13086 13.1271 5.41772 13.4604C5.5769 13.6452 5.80347 13.7402 6.03174 13.7402C6.21533 13.7402 6.39966 13.6788 6.55078 13.5529L7.29932 12.9293V15.7462C7.29932 16.9997 8.33569 18.0195 9.60986 18.0195H13.2312C14.5054 18.0195 15.542 16.9997 15.542 15.7462V12.9361L16.3154 13.5818C16.4666 13.708 16.6514 13.7697 16.8352 13.7697C17.0632 13.7697 17.2896 13.6748 17.4485 13.4904C17.7358 13.1573 17.6941 12.6582 17.3555 12.3756L11.9407 7.85593L11.9299 7.8479C11.9175 7.83789 11.9048 7.82855 11.8921 7.81937L11.865 7.80057C11.8523 7.79218 11.8391 7.78448 11.8259 7.77689L11.7957 7.75992L11.7581 7.74203L11.7231 7.72668L11.6877 7.71393L11.6487 7.70108L11.6145 7.69232L11.5732 7.68298L11.5381 7.67749L11.5132 7.67401L11.4973 7.67224L11.4595 7.66995L11.4211 7.66864L11.4014 7.66901L11.3801 7.67001L11.345 7.67212L11.3015 7.6777L11.269 7.68277L11.2471 7.68744L11.2256 7.69257L11.1936 7.70071C11.1797 7.70471 11.166 7.70941 11.1526 7.71414L11.1191 7.72623C11.1067 7.73108 11.0947 7.7366 11.0828 7.7421L11.0464 7.75943L11.0154 7.77679C11.0022 7.78427 10.9893 7.79187 10.9766 7.80014L10.9495 7.819C10.9368 7.82819 10.9241 7.83752 10.9116 7.84753L10.9009 7.8555ZM9.60986 16.4377C9.22217 16.4377 8.90698 16.1275 8.90698 15.7462V11.5943L11.4204 9.49634L13.9341 11.5943V15.7462C13.9341 16.1275 13.6189 16.4377 13.2312 16.4377H9.60986Z" fill="#071321"/></svg>