<svg width="19" height="20" fill="none" xmlns="http://www.w3.org/2000/svg"><path d="M18.26 17.62c.37 0 .66-.3.66-.67 0-.37-.29-.67-.66-.67H5.04a2.53 2.53 0 0 0-4.97.65c0 1.4 1.14 2.51 2.53 2.51 1.15 0 2.13-.78 2.42-1.84h13.24v.02zM.07 10.02c0 .37.3.66.67.66h6.87a2.52 2.52 0 0 0 4.85 0h5.81c.38 0 .67-.29.67-.66 0-.38-.3-.67-.67-.67h-5.8a2.53 2.53 0 0 0-4.9 0H.75c-.37 0-.67.3-.67.67zM13.97 2.41H.74c-.37 0-.67.3-.67.67 0 .38.3.67.67.67h13.23a2.52 2.52 0 0 0 4.95-.67 2.52 2.52 0 0 0-4.95-.67z" fill="#fff"/></svg>