<svg xmlns="http://www.w3.org/2000/svg" width="50" height="50" viewBox="0 0 50 50"><path fill="#071321" d="M39.5 31a4.8 4.8 0 0 0-3.6-1.6c-1.3 0-2.5.6-3.6 1.6L29 34.3l-.8-.4-1-.6c-3.1-2-6-4.6-8.7-7.9a21.4 21.4 0 0 1-2.8-4.5l2.4-2.4.9-.9c2.2-2.2 2.2-5.1 0-7.3l-2.9-2.9-1-1-2-2a5 5 0 0 0-3.5-1.6C8.3 2.9 7 3.4 6 4.4L2.4 8.1A7 7 0 0 0 .1 13c-.3 3.1.7 6 1.4 7.8a49 49 0 0 0 24.6 26.4c2.4 1.2 5.7 2.5 9.3 2.7h.7c2.4 0 4.5-.9 6.1-2.6v-.1c.5-.7 1.2-1.3 1.8-1.9l1.4-1.4c1-1.1 1.6-2.4 1.6-3.7 0-1.3-.6-2.6-1.6-3.6L39.5 31zm3.8 11.1L42 43.4c-.7.7-1.4 1.3-2 2.1a5.3 5.3 0 0 1-4 1.7h-.5a22 22 0 0 1-8.2-2.5A47.3 47.3 0 0 1 4.1 19.8c-1-2.6-1.3-4.7-1.2-6.6.1-1.2.6-2.2 1.5-3.1L8 6.5c.5-.5 1.1-.8 1.6-.8.7 0 1.2.4 1.5.7L13 8.3l1 1 2.9 2.9c1.1 1.1 1.1 2.2 0 3.3l-.9.9-2.6 2.6-.1.1c-.9.9-.7 1.8-.5 2.4v.1c.7 1.8 1.8 3.5 3.4 5.6 2.9 3.6 6 6.4 9.4 8.5l1.3.7 1 .6.1.1 1 .3c.9 0 1.4-.5 1.6-.7l3.6-3.6c.4-.4.9-.8 1.6-.8.7 0 1.2.4 1.5.8l5.8 5.8c1.3 1 1.3 2.1.2 3.2zM27 11.9A13.6 13.6 0 0 1 38.1 23c.1.7.7 1.2 1.4 1.2h.2c.8-.1 1.3-.9 1.2-1.6A16.7 16.7 0 0 0 27.5 9.2c-.8-.2-1.5.3-1.6 1-.2.8.3 1.6 1.1 1.7zM49.9 22.1a26.4 26.4 0 0 0-7.5-14.5c-4-4-9-6.6-14.5-7.5-.8-.1-1.5.4-1.6 1.2-.1.8.4 1.5 1.2 1.6a23.7 23.7 0 0 1 19.7 19.7c.1.7.7 1.2 1.4 1.2h.2c.8-.2 1.3-1 1.1-1.7z"/></svg>