<svg width="16" height="18" viewBox="0 0 16 18" fill="none" xmlns="http://www.w3.org/2000/svg"><path d="M14 9.1L8 3.1L2 9.1V15C2 15.6 2.4 16 3 16H8.1C8.5 17.1 10.1 17.9 12 17.9C14.2 17.9 16 16.8 16 15.4C16 15 15.9 14.7 15.7 14.4C15.9 14.1 16 13.8 16 13.4C16 13 15.9 12.7 15.7 12.4C15.9 12.1 16 11.8 16 11.4C16 10.5 15.2 9.7 13.9 9.2V9.1H14ZM12.1 16.9C10.8 16.9 9.8 16.5 9.4 15.9C9.3 15.8 9.2 15.6 9.2 15.4C9.2 15.3 9.2 15.2 9.3 15.1C10 15.6 11.1 15.9 12.2 15.9C12.8 15.9 13.3 15.8 13.8 15.7C14.3 15.6 14.8 15.3 15.1 15.1C15.2 15.2 15.2 15.3 15.2 15.4C15 16.1 13.8 16.9 12.1 16.9ZM15 13.7C14.9 13.9 14.6 14.2 14.2 14.4L14 14.5C13.5 14.7 12.8 14.9 12.1 14.9C11.2 14.9 10.5 14.7 10 14.4C9.6 14.2 9.4 14 9.2 13.7C9.2 13.6 9.1 13.5 9.1 13.4C9.1 13.3 9.1 13.2 9.2 13.1C10.1 13.6 11.1 13.9 12.1 13.9C13.1 13.9 14.1 13.6 15 13.1C15 13.2 15.1 13.3 15.1 13.4C15.1 13.5 15 13.6 15 13.7ZM15 11.8C14.9 12 14.6 12.3 14.2 12.5H14C13.5 12.7 12.8 12.9 12.1 12.9C11.2 12.9 10.5 12.7 10 12.4C9.6 12.2 9.4 12 9.2 11.7C9.2 11.6 9.1 11.5 9.1 11.4C9.1 10.7 10.4 9.9 12.1 9.9C12.8 9.9 13.5 10.1 14 10.3C14.6 10.6 15.1 11 15.1 11.4C15 11.6 15 11.7 15 11.8ZM15.7 7.3L8.7 0.3C8.3 -0.1 7.7 -0.1 7.3 0.3L0.3 7.3C0.1 7.5 0 7.8 0 8L1.1 9L8 2L15 9L16 8C16 7.8 15.9 7.5 15.7 7.3Z" fill="#fff"/></svg>