<svg xmlns="http://www.w3.org/2000/svg" xmlns:xlink="http://www.w3.org/1999/xlink" width="70" height="90" viewBox="0 0 70 90"><defs><path id="zdrha" d="M175.56 633.62l-16.31 12.25V610l15.75.33h1.13l15.5.54v35z"/><path id="zdrhb" d="M159.25 621.37h32.37v6.13a4.34 4.34 0 0 1-4.49.7l-2.1-.86a4.38 4.38 0 0 0-5 1.2l-1.49 1.72a4.37 4.37 0 0 1-6.58.05l-1.53-1.72a4.36 4.36 0 0 0-5-1.1l-2.1.9c-1.4.6-2.9.4-4.08-.35z"/><path id="zdrhc" d="M207.77 589.42a4.48 4.48 0 0 0 .04 5.18l1.35 1.86c1.55 2.16.9 5.21-1.42 6.51l-2 1.11a4.47 4.47 0 0 0-2.19 4.7l.41 2.25a4.42 4.42 0 0 1-4.07 5.24l-2.26.13a4.43 4.43 0 0 0-3.99 3.27l-.6 2.22a4.38 4.38 0 0 1-5.9 2.93l-2.12-.87a4.38 4.38 0 0 0-4.99 1.2l-1.49 1.73a4.37 4.37 0 0 1-6.58.04l-1.53-1.71a4.36 4.36 0 0 0-5-1.11l-2.1.9a4.38 4.38 0 0 1-5.95-2.84l-.63-2.2a4.4 4.4 0 0 0-4.04-3.2l-2.27-.1a4.44 4.44 0 0 1-4.14-5.18l.38-2.27a4.43 4.43 0 0 0-2.25-4.65l-2-1.08a4.47 4.47 0 0 1-1.52-6.48l1.32-1.88a4.48 4.48 0 0 0-.04-5.18l-1.35-1.88a4.48 4.48 0 0 1 1.42-6.5l2-1.12a4.47 4.47 0 0 0 2.19-4.69l-.41-2.26a4.42 4.42 0 0 1 4.07-5.24l2.26-.13a4.4 4.4 0 0 0 3.98-3.25l.6-2.22a4.38 4.38 0 0 1 5.92-2.93l2.1.87c1.75.73 3.75.24 5-1.2l1.49-1.73a4.37 4.37 0 0 1 6.58-.04l1.53 1.71a4.36 4.36 0 0 0 5 1.11l2.1-.9a4.38 4.38 0 0 1 5.95 2.84l.63 2.2a4.4 4.4 0 0 0 4.04 3.2l2.27.1a4.43 4.43 0 0 1 4.14 5.18l-.38 2.26a4.43 4.43 0 0 0 2.25 4.66l2 1.08a4.47 4.47 0 0 1 1.51 6.48z"/><path id="zdrhd" d="M175 568.56a23.71 23.71 0 1 1 .02 47.42 23.71 23.71 0 0 1-.02-47.42z"/><path id="zdrhe" d="M187.85 586.41l-11.9 12.13h.01l-3.78 3.85-3.77-3.84-5.06-5.17 3.78-3.85 5.06 5.16 11.88-12.13z"/></defs><g transform="translate(-140 -556)"><use fill="#e2bd59" xlink:href="#zdrha"/><use fill="#d82a21" xlink:href="#zdrha"/></g><g transform="translate(-140 -556)"><use xlink:href="#zdrhb"/><use fill="#a40f08" xlink:href="#zdrhb"/></g><use fill="#ffcb00" xlink:href="#zdrhc" transform="translate(-140 -556)"/><g transform="translate(-140 -556)"><use fill="#f3f3f3" xlink:href="#zdrhd"/><use fill="#ffdb50" xlink:href="#zdrhd"/></g><g transform="translate(-140 -556)"><use fill="#ffd76c" xlink:href="#zdrhe"/><use fill="#c59d00" xlink:href="#zdrhe"/></g></svg>