<svg xmlns="http://www.w3.org/2000/svg" xmlns:xlink="http://www.w3.org/1999/xlink" width="16" height="20" viewBox="0 0 16 20"><defs><path id="ikvya" d="M40 1299.02a8.26 8.26 0 0 1-.73 3.35c-.86 2.03-2.76 5.16-6.91 8.5a.57.57 0 0 1-.72 0c-4.15-3.34-6.05-6.47-6.9-8.5a7.9 7.9 0 0 1-.74-3.35 8.02 8.02 0 0 1 8-8.02c4.4 0 8 3.6 8 8.02zm-4.06.08a3.96 3.96 0 0 0-3.94-3.95 3.96 3.96 0 0 0 0 7.91 3.96 3.96 0 0 0 3.94-3.96z"/></defs><use fill="#ffcb00" xlink:href="#ikvya" transform="translate(-24 -1291)"/></svg>