<svg xmlns="http://www.w3.org/2000/svg" xmlns:xlink="http://www.w3.org/1999/xlink" width="398" height="420" viewBox="0 0 398 420"><defs><path id="ej4qa" d="M759 6740.41a203.54 203.54 0 0 1-4.89 43.9 192.9 192.9 0 0 1-13.31 39.12c-21.43 50.33-68.66 127.64-171.96 210.46a14.15 14.15 0 0 1-17.68 0c-103.4-82.82-150.53-160.13-171.96-210.46a195.08 195.08 0 0 1-14.66-45.76 194.83 194.83 0 0 1-3.54-37.26c0-109.37 89.25-198.41 198.9-198.41 109.64 0 198.9 89.04 199.1 198.41zm-28.3-.1c0-93.91-76.66-170.4-170.8-170.4-94.15 0-170.81 76.49-170.81 170.4 0 10.9 1.04 21.69 3.12 32.38 0 .3.1.52.1.72.1.52.31 2.08.94 4.47v.2a175.48 175.48 0 0 0 11.54 33.83c.1.1.1.32.21.42 19.46 45.97 62.1 116.12 154.9 192.6 92.79-76.48 135.44-146.63 154.89-192.6.1-.1.1-.31.2-.42a164.5 164.5 0 0 0 11.55-33.83v-.2c.52-2.39.84-3.95.94-4.47 0-.2.1-.41.1-.62a168.54 168.54 0 0 0 3.12-32.48zm-44.52 2.28c0 69.43-56.7 125.98-126.28 125.98-69.6 0-126.29-56.55-126.29-125.98 0-69.42 56.7-125.98 126.29-125.98s126.28 56.56 126.28 125.98zm-28.08 0c0-53.96-44.11-97.96-98.2-97.96-54.1 0-98.2 44-98.2 97.96 0 53.97 44 97.97 98.2 97.97s98.2-44 98.2-97.97z"/></defs><g clip-path="url(#clip-2546)" transform="translate(-361 -6580)"><use fill="#f2f4f6" xlink:href="#ej4qa"/></g></svg>