<svg xmlns="http://www.w3.org/2000/svg" xmlns:xlink="http://www.w3.org/1999/xlink" width="80" height="100" viewBox="0 0 80 100"><defs><path id="d7h4a" d="M134 788l20-10v61l-20 10z"/><path id="d7h4b" d="M154 778l20 10v61l-20-10z"/><path id="d7h4c" d="M174 788l20-10v61l-20 10z"/><path id="d7h4d" d="M194 778l20 10v61l-20-10z"/><path id="d7h4e" d="M188.7 749.01a22.5 22.5 0 0 0-21.6 20.15c-.21 2.22-.09 4.37.3 6.42a22.28 22.28 0 0 0 1.67 5.13c2.26 5.3 7.47 14.18 19.18 23.84.71.6 1.77.6 2.5 0 11.7-9.64 16.91-18.52 19.18-23.85.66-1.4 1.17-2.88 1.51-4.43l.16-.7a22.42 22.42 0 0 0-22.9-26.56z"/><path id="d7h4f" d="M189.5 756a15.5 15.5 0 1 1 0 31 15.5 15.5 0 0 1 0-31z"/><path id="d7h4g" d="M193 777v-2h1l-1-3-3 5-3-5-1 3h1v2h-7v-2h1l5-12 4 6 4-6 5 12h1v2z"/></defs><g><g transform="translate(-134 -749)"><g><use fill="#ffcb00" xlink:href="#d7h4a"/></g><g><use fill="#ffe069" xlink:href="#d7h4b"/></g><g><use fill="#ffcb00" xlink:href="#d7h4c"/></g><g><use fill="#ffe069" xlink:href="#d7h4d"/></g><g><use xlink:href="#d7h4e"/><use fill="#d82a21" xlink:href="#d7h4e"/></g><g><use fill="#fff" xlink:href="#d7h4f"/></g><g><use fill="#d82a21" xlink:href="#d7h4g"/></g></g></g></svg>