<svg xmlns="http://www.w3.org/2000/svg" width="303.542" height="99.27" viewBox="0 0 303.542 99.27"><path fill="#EB6852" d="M137.841 45.873V34.232h5.59v10.404c0 3.455 1.492 5.332 5.076 5.332 2.644 0 5.034-1.023 6.229-1.791V34.232h5.589v30.289h-5.589V54.49c0-.598.086-1.408.086-1.408h-.086c-1.493.77-4.479 1.879-7.637 1.879-6.316 0-9.258-3.414-9.258-9.088m100.431 18.648h5.461V38.967h9.941v-4.734h-25.342v4.734h9.939v25.554zm25.902-4.734V49.59h4.949c3.029 0 4.863 2.047 4.863 5.162 0 3.072-1.748 5.035-4.777 5.035h-5.035zm-5.504 4.734h11.52c5.547 0 9.387-3.967 9.387-9.77 0-6.057-3.969-9.896-9.473-9.896h-5.93V34.232h-5.504v30.289zm26.909 0h17.963v-4.734h-12.459V49.549h10.758v-4.734h-10.758v-5.848h12.459v-4.734h-17.963v30.288zM151.753 90.236v4.268h2.022v-2.381h7.837v2.381h1.954v-4.268h-1.343V80.055h-7.496v2.635c0 2.447-.255 5.287-1.751 7.547h-1.223zm3.485 0c1.258-2.039 1.564-5.031 1.564-7.395v-.9h3.229v8.295h-4.793zm10.133-4.232c0 3.553 2.686 6.324 6.238 6.324s6.238-2.771 6.238-6.324c0-3.451-2.686-6.152-6.238-6.152s-6.238 2.701-6.238 6.152zm2.26 0c0-2.346 1.768-4.146 3.978-4.146s3.978 1.801 3.978 4.146c0 2.447-1.768 4.318-3.978 4.318s-3.978-1.871-3.978-4.318zm12.393 6.119h2.193l.492-6.748c.068-.799.018-1.887.018-1.887h.034s.391 1.189.662 1.887l1.955 4.674h1.904l1.954-4.674a51.71 51.71 0 0 0 .663-1.869h.034s-.051 1.07.017 1.869l.493 6.748h2.193l-.986-12.068h-2.329l-2.379 5.967a35.066 35.066 0 0 0-.596 1.768h-.033s-.323-1.055-.596-1.768l-2.38-5.967h-2.328l-.985 12.068zm14.586 0h2.244l1.02-3.094h4.232l1.037 3.094h2.244l-4.233-12.068h-2.312l-4.232 12.068zm3.807-4.879l1.088-3.229c.204-.68.476-1.869.476-1.869h.034s.272 1.189.477 1.869l1.07 3.229h-3.145zm14.349 4.879h4.368c2.227 0 4.165-1.088 4.165-3.502 0-1.223-.629-2.447-1.955-2.838v-.033c.918-.494 1.462-1.463 1.462-2.584 0-1.99-1.547-3.111-3.74-3.111h-4.3v12.068zm2.192-7.139v-3.043h2.091c1.003 0 1.53.629 1.53 1.496s-.544 1.547-1.496 1.547h-2.125zm0 5.252v-3.484h2.346c1.105 0 1.751.73 1.751 1.734 0 1.02-.629 1.75-1.751 1.75h-2.346zm13.89 1.887h2.192l.493-6.748c.068-.799.017-1.887.017-1.887h.034s.391 1.189.663 1.887l1.955 4.674h1.903l1.955-4.674c.271-.697.663-1.869.663-1.869h.034s-.052 1.07.017 1.869l.493 6.748h2.192l-.985-12.068h-2.329l-2.38 5.967a35.724 35.724 0 0 0-.595 1.768h-.034s-.323-1.055-.595-1.768l-2.38-5.967h-2.329l-.984 12.068zm14.704-6.119c0 3.553 2.686 6.324 6.238 6.324s6.238-2.771 6.238-6.324c0-3.451-2.686-6.152-6.238-6.152s-6.238 2.701-6.238 6.152zm2.261 0c0-2.346 1.768-4.146 3.978-4.146s3.978 1.801 3.978 4.146c0 2.447-1.768 4.318-3.978 4.318s-3.978-1.871-3.978-4.318zm12.41.035c0 3.551 2.448 6.289 6.238 6.289 2.159 0 3.706-.902 4.742-1.955l-1.155-1.582c-.918.902-2.21 1.531-3.502 1.531-2.617 0-4.062-2.057-4.062-4.318 0-2.227 1.394-4.146 4.046-4.146 1.173 0 2.447.543 3.298 1.273l1.054-1.631c-1.173-1.139-2.873-1.648-4.454-1.648-3.638 0-6.205 2.685-6.205 6.187zm13.719 6.084h2.193v-5.27h1.563l2.94 5.27h2.482l-3.621-6.289v-.033l3.417-5.746h-2.38l-2.839 4.912h-1.563v-4.912h-2.193v12.068zm12.036 0h4.368c2.227 0 4.165-1.088 4.165-3.502 0-1.223-.629-2.447-1.955-2.838v-.033c.918-.494 1.462-1.463 1.462-2.584 0-1.99-1.547-3.111-3.74-3.111h-4.3v12.068zm2.192-7.139v-3.043h2.091c1.003 0 1.53.629 1.53 1.496s-.544 1.547-1.496 1.547h-2.125zm0 5.252v-3.484h2.346c1.105 0 1.751.73 1.751 1.734 0 1.02-.629 1.75-1.751 1.75h-2.346zm9.851 1.887h7.496v-1.887h-5.304V86.99h4.062v-1.887h-4.062v-3.162h5.031v-1.887h-7.224v12.069zM88.184 77.749L45.57 99.27 0 76.255V23.008L45.57 0l42.55 21.484-2.444 4.881L48.3 7.494v84.279l37.418-18.896 2.466 4.872zM42.84 7.494L5.46 26.367v46.529l37.38 18.877V7.494zm88.309 48.942l-.019-.025c-2.304 2.262-5.545 3.84-8.787 3.84-6.571 0-10.197-5.162-10.197-10.836 0-5.59 3.498-10.41 10.154-10.41 2.942 0 6.142 1.365 8.274 3.199l.014-.021 2.224-4.427c-2.923-2.601-6.976-3.786-10.768-3.786-9.132 0-15.572 6.74-15.572 15.529 0 8.918 6.142 15.785 15.656 15.785 5.019 0 8.703-1.943 11.29-4.332l-2.269-4.516zm92.406 0l-.018-.025c-2.305 2.262-5.545 3.84-8.787 3.84-6.572 0-10.197-5.162-10.197-10.836 0-5.59 3.498-10.41 10.154-10.41 2.941 0 6.141 1.365 8.273 3.199l.014-.021 2.225-4.427c-2.924-2.601-6.977-3.786-10.768-3.786-9.133 0-15.572 6.74-15.572 15.529 0 8.918 6.141 15.785 15.656 15.785 5.018 0 8.703-1.943 11.289-4.332l-2.269-4.516zm-35.346.9h-13.316l-2.271 7.174h-5.715l10.049-30.277h9.062L196.11 64.51h-5.594l-2.307-7.174zm-1.515-4.715l-4.318-13.427h-1.738l-4.252 13.427h10.308z"/></svg>