<svg width="169" height="37" viewBox="0 0 169 37" fill="none" xmlns="http://www.w3.org/2000/svg"><path d="M0 0H169V37H0z"/><path transform="translate(50.161 6.899)" d="M0 0H118.838V26.674H0z"/><path fill-rule="evenodd" clip-rule="evenodd" d="M53.2615 27.5668H50.9881V31.7409H50.1614V26.9051H53.2615V27.5668ZM57.86 26.8542V31.69H57.0333V27.5159H55.3799L55.2766 29.3485C55.2249 30.1629 55.0699 30.7737 54.8632 31.1301C54.6566 31.4864 54.2949 31.69 53.7782 31.69H53.4682V30.9774H53.7265C53.9849 30.9265 54.1916 30.7737 54.2949 30.5192C54.3982 30.2138 54.5016 29.7048 54.5016 28.9412L54.6049 26.8542H57.86ZM62.3036 31.69C62.2519 31.5882 62.2002 31.4355 62.2002 31.181C61.7869 31.5882 61.3219 31.7918 60.8052 31.7918C60.3401 31.7918 59.9268 31.6391 59.6168 31.3846C59.3068 31.1301 59.1518 30.7737 59.1518 30.3665C59.1518 29.8575 59.3584 29.4503 59.7201 29.1957C60.1335 28.8903 60.6502 28.7885 61.3735 28.7885H62.2002V28.4322C62.2002 28.1268 62.0969 27.9232 61.9419 27.7195C61.7869 27.5668 61.5285 27.465 61.1669 27.465C60.8568 27.465 60.5985 27.5159 60.3918 27.6686C60.1851 27.8214 60.0818 27.9741 60.0818 28.2286H59.2551C59.2551 27.9741 59.3584 27.7705 59.5134 27.5159C59.6684 27.3123 59.9268 27.1087 60.2368 26.956C60.5468 26.8033 60.8568 26.7524 61.2185 26.7524C61.7869 26.7524 62.2519 26.9051 62.5619 27.1596C62.8719 27.4141 63.0269 27.8214 63.0786 28.3304V30.5701C63.0786 31.0283 63.1303 31.3846 63.2336 31.6391V31.69H62.3036ZM60.9085 31.0792C61.1669 31.0792 61.4252 31.0283 61.6835 30.8756C61.9419 30.7228 62.0969 30.5701 62.2002 30.3665V29.3485H61.5285C60.4952 29.3485 59.9785 29.6539 59.9785 30.2647C59.9785 30.5192 60.0818 30.7228 60.2368 30.8756C60.3918 31.0283 60.5985 31.0792 60.9085 31.0792ZM64.422 31.69V26.8542H66.3337C67.0054 26.8542 67.4705 26.956 67.8321 27.2105C68.1938 27.4141 68.3488 27.7704 68.3488 28.1777C68.3488 28.3813 68.2972 28.5849 68.1422 28.7885C67.9871 28.9921 67.7805 29.0939 67.5221 29.1957C67.8321 29.2466 68.0388 29.3994 68.2455 29.603C68.4005 29.8066 68.5038 30.0611 68.5038 30.3156C68.5038 30.7737 68.3488 31.0792 67.9871 31.3337C67.6771 31.5882 67.1604 31.69 66.5921 31.69H64.422ZM65.2487 29.603V31.0792H66.6437C67.0054 31.0792 67.2638 31.0283 67.4188 30.8756C67.5738 30.7228 67.6771 30.5701 67.6771 30.3156C67.6771 29.8066 67.3154 29.603 66.5921 29.603H65.2487ZM65.2487 28.9412H66.3337C67.1088 28.9412 67.5221 28.7376 67.5221 28.2795C67.5221 27.8214 67.1604 27.5668 66.3854 27.5668H65.2487V28.9412ZM73.6707 31.69H72.844V29.603H70.5706V31.69H69.7439V26.8542H70.5706V28.9412H72.844V26.8542H73.6707V31.69ZM75.9441 28.534H77.2359C77.8042 28.534 78.2176 28.6867 78.5793 28.9412C78.8893 29.2466 79.0443 29.603 79.0443 30.0611C79.0443 30.5701 78.8893 30.9265 78.5276 31.2319C78.2176 31.5373 77.7526 31.69 77.1842 31.69H75.1175V26.8542H75.9441V28.534ZM80.801 31.69H79.9743V26.8542H80.801V31.69ZM75.9441 29.1957V31.0283H77.1842C77.4942 31.0283 77.7526 30.9265 77.9076 30.7737C78.0626 30.621 78.1659 30.4174 78.1659 30.112C78.1659 29.8575 78.0626 29.603 77.9076 29.4503C77.7526 29.2975 77.4942 29.1957 77.1842 29.1957H75.9441ZM85.5029 26.8542H86.3296V31.69H85.5029V28.1777L83.2295 31.69H82.4028V26.8542H83.2295V30.4174L85.5029 26.8542ZM85.7096 25.0726C85.7096 25.4289 85.6062 25.7343 85.3479 25.9379C85.0895 26.1415 84.7795 26.2943 84.3662 26.2943C83.9528 26.2943 83.6428 26.1924 83.3845 25.9379C83.1261 25.7343 83.0228 25.4289 83.0228 25.0726H83.6945C83.6945 25.2762 83.7462 25.4289 83.8495 25.5816C83.9528 25.6834 84.1595 25.7343 84.3662 25.7343C84.5729 25.7343 84.7279 25.6834 84.8829 25.5816C84.9862 25.4798 85.0379 25.2762 85.0379 25.0726H85.7096ZM95.8367 31.69H95.01V27.5159H92.7365V31.69H91.9098V26.8542H95.8883V31.69H95.8367ZM96.9734 29.2466C96.9734 28.7885 97.0767 28.3304 97.2834 27.9741C97.4901 27.6177 97.7484 27.3123 98.0584 27.1087C98.4201 26.9051 98.7818 26.8033 99.1951 26.8033C99.8668 26.8033 100.384 27.0069 100.849 27.465C101.262 27.9232 101.469 28.534 101.469 29.2976V29.3485C101.469 29.8066 101.365 30.2647 101.21 30.621C101.004 30.9774 100.745 31.2828 100.435 31.4864C100.074 31.69 99.7118 31.7918 99.2468 31.7918C98.5751 31.7918 98.0584 31.5882 97.6451 31.1301C97.2317 30.6719 97.0251 30.0611 97.0251 29.2976V29.2466H96.9734ZM97.8001 29.3485C97.8001 29.9084 97.9034 30.3156 98.1618 30.621C98.4201 30.9265 98.7301 31.1301 99.1951 31.1301C99.6085 31.1301 99.9702 30.9774 100.229 30.621C100.487 30.3156 100.59 29.8066 100.59 29.2466C100.59 28.7376 100.487 28.2795 100.229 27.9741C99.9702 27.6686 99.6085 27.465 99.1951 27.465C98.7818 27.465 98.4201 27.6177 98.2134 27.9741C97.9551 28.2795 97.8001 28.7376 97.8001 29.3485ZM110.614 31.69H109.787V29.603H107.514V31.69H106.687V26.8542H107.514V28.9412H109.787V26.8542H110.614V31.69ZM111.751 29.2466C111.751 28.7885 111.854 28.3304 112.061 27.9741C112.267 27.6177 112.526 27.3123 112.836 27.1087C113.197 26.9051 113.559 26.8033 113.972 26.8033C114.644 26.8033 115.161 27.0069 115.626 27.465C116.039 27.9232 116.246 28.534 116.246 29.2976V29.3485C116.246 29.8066 116.143 30.2647 115.988 30.621C115.781 30.9774 115.523 31.2828 115.213 31.4864C114.851 31.69 114.489 31.7918 114.024 31.7918C113.352 31.7918 112.836 31.5882 112.422 31.1301C112.009 30.6719 111.802 30.0611 111.802 29.2976V29.2466H111.751ZM112.629 29.3485C112.629 29.9084 112.732 30.3156 112.991 30.621C113.249 30.9265 113.559 31.1301 114.024 31.1301C114.437 31.1301 114.799 30.9774 115.057 30.621C115.316 30.3156 115.419 29.8066 115.419 29.2466C115.419 28.7376 115.316 28.2795 115.057 27.9741C114.799 27.6686 114.437 27.465 114.024 27.465C113.611 27.465 113.249 27.6177 113.042 27.9741C112.732 28.2795 112.629 28.7376 112.629 29.3485ZM117.383 31.69V26.8542H119.294C119.966 26.8542 120.431 26.956 120.793 27.2105C121.154 27.4141 121.309 27.7704 121.309 28.1777C121.309 28.3813 121.258 28.5849 121.103 28.7885C120.948 28.9921 120.741 29.0939 120.483 29.1957C120.793 29.2466 120.999 29.3994 121.206 29.603C121.361 29.8066 121.464 30.0611 121.464 30.3156C121.464 30.7737 121.309 31.0792 120.948 31.3337C120.638 31.5882 120.121 31.69 119.553 31.69H117.383ZM118.261 29.603V31.0792H119.656C120.018 31.0792 120.276 31.0283 120.431 30.8756C120.586 30.7228 120.689 30.5701 120.689 30.3156C120.689 29.8066 120.328 29.603 119.604 29.603H118.261ZM118.261 28.9412H119.346C120.121 28.9412 120.534 28.7376 120.534 28.2795C120.534 27.8214 120.173 27.5668 119.398 27.5668H118.261V28.9412ZM122.446 29.2466C122.446 28.7885 122.549 28.3304 122.756 27.9741C122.963 27.6177 123.221 27.3123 123.531 27.1087C123.893 26.9051 124.255 26.8033 124.668 26.8033C125.34 26.8033 125.856 27.0069 126.321 27.465C126.735 27.9232 126.941 28.534 126.941 29.2976V29.3485C126.941 29.8066 126.838 30.2647 126.683 30.621C126.476 30.9774 126.218 31.2828 125.908 31.4864C125.546 31.69 125.185 31.7918 124.72 31.7918C124.048 31.7918 123.531 31.5882 123.118 31.1301C122.704 30.6719 122.498 30.0611 122.498 29.2976V29.2466H122.446ZM123.273 29.3485C123.273 29.9084 123.376 30.3156 123.635 30.621C123.893 30.9265 124.203 31.1301 124.668 31.1301C125.081 31.1301 125.443 30.9774 125.701 30.621C125.96 30.3156 126.063 29.8066 126.063 29.2466C126.063 28.7376 125.96 28.2795 125.701 27.9741C125.443 27.6686 125.081 27.465 124.668 27.465C124.255 27.465 123.893 27.6177 123.686 27.9741C123.428 28.2795 123.273 28.7376 123.273 29.3485ZM129.938 31.1301C130.248 31.1301 130.507 31.0283 130.713 30.8756C130.92 30.6719 131.075 30.4683 131.075 30.2138H131.85C131.85 30.4683 131.747 30.7737 131.54 31.0283C131.385 31.2828 131.127 31.4864 130.817 31.6391C130.506 31.7918 130.196 31.8427 129.886 31.8427C129.215 31.8427 128.698 31.6391 128.285 31.181C127.871 30.7228 127.716 30.112 127.716 29.3485V29.1957C127.716 28.7376 127.82 28.2795 127.975 27.9232C128.13 27.5668 128.388 27.2614 128.75 27.0578C129.06 26.8542 129.473 26.7524 129.938 26.7524C130.507 26.7524 130.972 26.9051 131.333 27.2614C131.695 27.5668 131.902 28.025 131.902 28.534H131.127C131.127 28.2286 130.972 27.9741 130.765 27.7705C130.558 27.5668 130.3 27.465 129.938 27.465C129.525 27.465 129.163 27.6177 128.956 27.9232C128.698 28.2286 128.595 28.6867 128.595 29.2466V29.3993C128.595 29.9593 128.698 30.3665 128.956 30.6719C129.215 30.9774 129.525 31.1301 129.938 31.1301ZM136.552 27.5159H134.898V31.69H134.072V27.5159H132.418V26.8542H136.552V27.5159ZM141.512 29.3485C141.512 30.112 141.357 30.6719 140.995 31.1301C140.634 31.5882 140.169 31.7918 139.6 31.7918C138.98 31.7918 138.515 31.5882 138.205 31.2319V33.5734H137.378V26.8542H138.153L138.205 27.4141C138.567 27.0069 139.032 26.8033 139.652 26.8033C140.22 26.8033 140.737 27.0069 141.047 27.465C141.409 27.9232 141.564 28.534 141.564 29.2976V29.3485H141.512ZM140.685 29.2466C140.685 28.6867 140.582 28.2795 140.324 27.9741C140.065 27.6686 139.755 27.5159 139.342 27.5159C138.825 27.5159 138.464 27.7195 138.205 28.1777V30.4683C138.464 30.9265 138.825 31.1301 139.342 31.1301C139.755 31.1301 140.065 30.9774 140.324 30.6719C140.582 30.3156 140.685 29.8575 140.685 29.2466ZM142.39 29.2466C142.39 28.7885 142.494 28.3304 142.7 27.9741C142.907 27.6177 143.165 27.3123 143.475 27.1087C143.837 26.9051 144.199 26.8033 144.612 26.8033C145.284 26.8033 145.8 27.0069 146.266 27.465C146.679 27.9232 146.886 28.534 146.886 29.2976V29.3485C146.886 29.8066 146.782 30.2647 146.627 30.621C146.421 30.9774 146.162 31.2828 145.852 31.4864C145.49 31.69 145.129 31.7918 144.664 31.7918C143.992 31.7918 143.475 31.5882 143.062 31.1301C142.649 30.6719 142.442 30.0611 142.442 29.2976V29.2466H142.39ZM143.217 29.3485C143.217 29.9084 143.32 30.3156 143.579 30.621C143.837 30.9265 144.147 31.1301 144.612 31.1301C145.025 31.1301 145.387 30.9774 145.645 30.621C145.904 30.3156 146.007 29.8066 146.007 29.2466C146.007 28.7376 145.904 28.2795 145.645 27.9741C145.387 27.6686 145.025 27.465 144.612 27.465C144.199 27.465 143.837 27.6177 143.63 27.9741C143.372 28.2795 143.217 28.7376 143.217 29.3485ZM151.122 26.8542H151.949V31.69H151.122V28.1777L148.849 31.69H148.022V26.8542H148.849V30.4174L151.122 26.8542ZM151.329 25.0726C151.329 25.4289 151.226 25.7343 150.967 25.9379C150.709 26.1415 150.399 26.2943 149.986 26.2943C149.572 26.2943 149.262 26.1924 149.004 25.9379C148.746 25.7343 148.642 25.4289 148.642 25.0726H149.314C149.314 25.2762 149.366 25.4289 149.469 25.5816C149.572 25.6834 149.779 25.7343 149.986 25.7343C150.192 25.7343 150.347 25.6834 150.502 25.5816C150.606 25.4798 150.657 25.2762 150.657 25.0726H151.329ZM154.843 29.6539H154.223V31.7409H153.396V26.9051H154.223V28.9412H154.791L156.444 26.9051H157.478L155.514 29.2466L157.633 31.7918H156.548L154.843 29.6539ZM161.404 31.69C161.353 31.5882 161.301 31.4355 161.301 31.181C160.888 31.5882 160.423 31.7918 159.906 31.7918C159.441 31.7918 159.028 31.6391 158.718 31.3846C158.408 31.1301 158.253 30.7737 158.253 30.3665C158.253 29.8575 158.459 29.4503 158.821 29.1957C159.234 28.8903 159.751 28.7885 160.474 28.7885H161.301V28.4322C161.301 28.1268 161.198 27.9232 161.043 27.7195C160.888 27.5668 160.629 27.465 160.268 27.465C159.958 27.465 159.699 27.5159 159.493 27.6686C159.286 27.8214 159.183 27.9741 159.183 28.2286H158.356C158.356 27.9741 158.459 27.7705 158.614 27.5159C158.769 27.3123 159.028 27.1087 159.338 26.956C159.648 26.8033 159.958 26.7524 160.319 26.7524C160.888 26.7524 161.353 26.9051 161.663 27.1596C161.973 27.4141 162.128 27.8214 162.18 28.3304V30.5701C162.18 31.0283 162.231 31.3846 162.335 31.6391V31.69H161.404ZM160.009 31.0792C160.268 31.0792 160.526 31.0283 160.784 30.8756C161.043 30.7228 161.198 30.5701 161.301 30.3665V29.3485H160.629C159.596 29.3485 159.079 29.6539 159.079 30.2647C159.079 30.5192 159.183 30.7228 159.338 30.8756C159.493 31.0283 159.751 31.0792 160.009 31.0792ZM166.313 30.621L167.966 26.8542H169V31.69H168.173V28.1777L166.571 31.69H166.003L164.401 28.0759V31.69H163.575V26.8542H164.66L166.313 30.621Z" fill="#071321"/><path transform="translate(50.553 6.899)" d="M0 0H118.447V16.079H0z"/><path fill-rule="evenodd" clip-rule="evenodd" d="M160.693 20.5528V15.8817H163.172C165.42 15.8817 166.522 16.6453 166.522 18.2172C166.522 19.7892 165.787 20.5528 163.631 20.5528H160.693ZM160.693 13.5911V9.36922H163.263C164.961 9.36922 166.109 9.77344 166.109 11.4802C166.109 13.1869 165.007 13.5911 163.263 13.5911H160.693ZM158.261 7.07861V22.8433H163.631C167.256 22.8433 169 21.2265 169 18.5765V17.9028C169 16.0165 168.036 15.0284 166.935 14.6241C167.944 13.9504 168.495 13.0521 168.495 11.7946V11.0759C168.495 8.87517 166.981 7.07861 163.172 7.07861H158.261Z" fill="#071321"/><path fill-rule="evenodd" clip-rule="evenodd" d="M147.156 7.1235C150.368 7.1235 153.58 7.1235 156.793 7.1235V9.4141H149.634V13.5911H155.508V15.8817H149.634V20.4629H156.793V22.7535C153.58 22.7535 150.368 22.7535 147.156 22.7535V7.1235Z" fill="#071321"/><path fill-rule="evenodd" clip-rule="evenodd" d="M139.951 22.9781H140.639C143.668 22.9781 145.641 20.7773 145.641 17.319V12.5581C145.641 9.09976 143.668 6.89899 140.639 6.89899H139.951C136.922 6.89899 134.948 9.09976 134.948 12.5581V17.319C134.948 20.7773 136.876 22.9781 139.951 22.9781ZM140.272 20.6875C138.436 20.6875 137.381 19.5197 137.381 17.319V12.5581C137.381 10.3573 138.436 9.18958 140.272 9.18958C142.108 9.18958 143.163 10.3573 143.163 12.5581V17.319C143.209 19.5197 142.108 20.6875 140.272 20.6875Z" fill="#071321"/><path fill-rule="evenodd" clip-rule="evenodd" d="M125.77 15.9266H128.34C130.038 15.9266 131.185 14.8487 131.185 13.142V12.064C131.185 10.3573 130.084 9.36922 128.34 9.36922H125.77C125.77 11.5251 125.77 13.7258 125.77 15.9266ZM123.338 7.07861H128.294C132.103 7.07861 133.617 9.18956 133.617 12.064V13.142C133.617 16.1961 132.103 18.2172 128.294 18.2172H125.816V22.7535H123.338V7.07861Z" fill="#071321"/><path fill-rule="evenodd" clip-rule="evenodd" d="M110.764 7.1235H121.961V9.4141H117.601V22.7535H115.123V9.4141H110.764V7.1235Z" fill="#071321"/><path fill-rule="evenodd" clip-rule="evenodd" d="M107.321 11.4802V12.0641H109.799V11.4802C109.799 8.9201 107.78 6.89899 105.027 6.89899H104.338C101.31 6.89899 99.3362 9.09976 99.3362 12.5581C99.3362 14.1301 99.3362 15.747 99.3362 17.319C99.3362 20.7773 101.31 22.9781 104.338 22.9781H105.027C107.826 22.9781 109.799 20.957 109.799 18.3969V17.813H107.321V18.3969C107.321 19.8791 106.036 20.6875 104.614 20.6875C102.778 20.6875 101.723 19.5197 101.723 17.319C101.723 15.747 101.723 14.1301 101.723 12.5581C101.723 10.3573 102.778 9.18958 104.614 9.18958C106.036 9.18958 107.321 9.99803 107.321 11.4802Z" fill="#071321"/><path fill-rule="evenodd" clip-rule="evenodd" d="M92.1781 22.9781H92.8665C95.8953 22.9781 97.8687 20.7773 97.8687 17.319V12.5581C97.8687 9.09976 95.8953 6.89899 92.8665 6.89899H92.1781C89.1492 6.89899 87.1759 9.09976 87.1759 12.5581V17.319C87.1759 20.7773 89.1492 22.9781 92.1781 22.9781ZM92.5452 20.6875C90.7096 20.6875 89.6541 19.5197 89.6541 17.319V12.5581C89.6541 10.3573 90.7096 9.18958 92.5452 9.18958C94.3809 9.18958 95.4364 10.3573 95.4364 12.5581V17.319C95.4364 19.5197 94.3809 20.6875 92.5452 20.6875Z" fill="#071321"/><path fill-rule="evenodd" clip-rule="evenodd" d="M77.7682 20.5528V15.8817H80.2463C82.495 15.8817 83.5964 16.6453 83.5964 18.2172C83.5964 19.7892 82.8622 20.5528 80.7053 20.5528H77.7682ZM77.7682 13.5911V9.36922H80.3381C82.0361 9.36922 83.1375 9.77344 83.1375 11.4802C83.1375 13.1869 82.0361 13.5911 80.3381 13.5911H77.7682ZM75.29 7.07861V22.8433H80.6594C84.2848 22.8433 86.0287 21.2265 86.0287 18.5765V17.9028C86.0287 16.0165 85.065 15.0284 83.9636 14.6241C84.9732 13.9504 85.5239 13.0521 85.5239 11.7946V11.0759C85.5239 8.87517 84.0095 7.07861 80.2005 7.07861H75.29Z" fill="#071321"/><path fill-rule="evenodd" clip-rule="evenodd" d="M67.9922 22.9781H68.6806C71.7094 22.9781 73.6828 20.7773 73.6828 17.319V12.5581C73.6828 9.09976 71.7094 6.89899 68.6806 6.89899H67.9922C64.9633 6.89899 62.99 9.09976 62.99 12.5581V17.319C62.99 20.7773 64.9633 22.9781 67.9922 22.9781ZM68.3593 20.6875C66.5237 20.6875 65.4681 19.5197 65.4681 17.319V12.5581C65.4681 10.3573 66.5237 9.18958 68.3593 9.18958C70.195 9.18958 71.2505 10.3573 71.2505 12.5581V17.319C71.2505 19.5197 70.195 20.6875 68.3593 20.6875Z" fill="#071321"/><path fill-rule="evenodd" clip-rule="evenodd" d="M59.0431 15.8368V22.7535H61.5212V7.1235H59.0431V13.5911H53.0313V7.1235H50.5531V22.7535H53.0313V15.8368H59.0431Z" fill="#071321"/><path d="M0 0H38.987V37H0z"/><path transform="translate(3.75 26.424)" d="M0 0H31.603V10.576H0z"/><path fill-rule="evenodd" clip-rule="evenodd" d="M5.50659 27.4695C5.50659 27.4695 11.0079 27.2953 14.3438 27.6437C17.6797 28.0503 21.5424 28.2826 24.5271 27.7599C27.4534 27.2372 32.9547 27.4115 32.9547 27.4115C32.9547 27.4115 34.1837 33.1028 31.5501 34.6708C28.9165 36.2389 24.7612 36.1808 23.1811 34.4966C21.6009 32.8124 21.1912 28.9795 21.4253 28.8052C21.4253 28.8052 21.1912 28.2826 19.6111 28.2826C18.0309 28.2826 17.7968 28.8052 17.7968 28.8052C17.7968 28.8052 17.9724 34.4966 14.4609 35.4839C10.9494 36.4711 8.37431 36.0646 7.26234 34.4385C6.15036 32.8124 5.97479 29.6764 5.97479 28.573C5.97479 27.4695 5.50659 27.4695 5.50659 27.4695Z" fill="#FFCB00"/><path fill-rule="evenodd" clip-rule="evenodd" d="M7.20517 34.3223L11.3019 27.2952L5.625 27.7598C5.625 27.7598 5.74205 29.2697 6.3273 31.3024C6.91255 33.3931 7.20517 34.3223 7.20517 34.3223Z" fill="#FFB431"/><path fill-rule="evenodd" clip-rule="evenodd" d="M23.3565 35.1935C23.1809 35.3097 20.6644 30.1991 21.9519 28.8053C23.2394 27.4695 27.8629 27.4115 27.8629 27.4115L23.3565 35.1935Z" fill="#FFB431"/><path fill-rule="evenodd" clip-rule="evenodd" d="M17.0357 31.5928C17.4454 29.5602 17.5625 28.6891 15.1629 28.2245C13.8169 28.1083 12.4123 28.0503 11.0077 28.0503C9.95424 28.0503 9.07636 28.0503 8.13997 28.1664C7.028 28.2826 6.7939 29.7344 6.96947 30.6636L7.32062 32.4059C7.4962 33.2189 7.67177 33.9158 8.13997 34.4385C8.95931 35.2516 10.598 35.4838 11.7685 35.5419C13.2316 35.6 14.3436 35.3677 15.2215 34.787C16.1579 34.0901 16.7431 33.0447 17.0357 31.5928ZM27.4531 36.9938C25.6974 37.0519 24.2343 36.7034 23.1223 35.9485C21.8348 35.0773 21.0154 33.6835 20.6643 31.8832C20.5472 31.1863 20.3716 29.5602 19.6108 29.5602C18.85 29.5602 18.6744 31.1863 18.5574 31.8832C18.2062 33.7416 17.3869 35.0773 16.0993 35.9485C14.9874 36.7034 13.5828 37.0519 11.7685 36.9938C10.1883 36.9357 8.13997 36.6454 6.96947 35.4258C6.20865 34.6708 5.91603 33.6835 5.74045 32.6382L5.44783 31.1863C5.21373 30.3733 4.97963 29.5602 3.92618 29.5602L3.75061 27.2372C6.38422 26.6565 8.31554 26.4242 10.9492 26.4242C13.4657 26.4242 16.0408 26.6565 18.5574 27.1211C18.9085 27.1791 19.1426 27.2372 19.5523 27.2372C19.962 27.2372 20.2546 27.1791 20.5472 27.1211C23.0053 26.6565 25.6389 26.4242 28.1554 26.4242C30.7891 26.4242 32.7789 26.6565 35.354 27.2372L35.1784 29.5602C34.125 29.5602 33.8323 30.3733 33.6568 31.1863L33.3641 32.6382C33.13 33.7416 32.8959 34.6708 32.1351 35.4258C31.0817 36.6454 29.0333 36.9357 27.4531 36.9938ZM22.2444 31.5928C22.5371 33.0447 23.1223 34.09 24.0587 34.6708C24.8781 35.2515 26.0485 35.4839 27.5117 35.4258C28.6822 35.3677 30.3794 35.1354 31.1402 34.3223C31.6084 33.8577 31.784 33.1028 31.9595 32.2897L32.3107 30.5475C32.4863 29.6183 32.2522 28.2245 31.1402 28.0503C30.2038 27.9341 29.3259 27.9341 28.2725 27.9341C26.8679 27.9341 25.5218 27.9922 24.1172 28.1083C21.7177 28.6891 21.7762 29.5602 22.2444 31.5928Z" fill="#1A1B28"/><path d="M0 0H38.987V26.308H0z"/><path fill-rule="evenodd" clip-rule="evenodd" d="M1.35132 25.3206C1.35132 25.3206 0.531968 23.2299 1.70246 21.72C2.87296 20.2681 2.52181 19.5131 2.52181 19.5131C2.52181 19.5131 3.04853 13.4733 6.09182 10.5115C9.13511 7.49159 11.8272 5.80741 11.8272 5.80741C11.8272 5.80741 11.7102 3.94901 14.6364 3.07788C17.5627 2.20676 18.6161 1.10334 18.6161 1.10334L20.6645 0.871033L22.0106 2.78751L27.5119 4.12324V6.03971C27.5119 6.03971 33.2473 8.53693 34.886 12.9506C36.5247 17.3643 37.11 21.0231 37.11 21.0231C37.11 21.0231 38.456 22.4749 38.339 23.3461C38.2219 24.2172 37.6952 25.2625 37.6952 25.2625C37.6952 25.2625 27.5119 22.9976 19.6696 23.3461C11.8273 23.7526 1.35132 25.3206 1.35132 25.3206Z" fill="#FFCB00"/><path fill-rule="evenodd" clip-rule="evenodd" d="M19.6106 23.3462L27.4529 9.87283V6.03989C27.4529 6.03989 32.0178 7.25946 34.827 12.9508C37.6362 18.6422 37.051 21.0232 37.051 21.0232L38.28 23.3462L37.9289 25.3208C37.9289 25.3208 32.4275 24.1593 28.6819 23.8108C24.9949 23.4624 19.6106 23.3462 19.6106 23.3462Z" fill="#FFB431"/><path fill-rule="evenodd" clip-rule="evenodd" d="M22.0106 12.4861L27.0437 3.83292L22.0106 2.78757V12.4861Z" fill="#FFB431"/><path fill-rule="evenodd" clip-rule="evenodd" d="M16.509 12.4861V3.42643C16.0993 3.4845 15.6896 3.60065 15.2799 3.65873C14.5776 3.83295 13.8168 4.06525 13.173 4.35562C12.9975 4.4137 12.8804 4.52985 12.8219 4.646C12.7048 4.76215 12.7048 4.93637 12.7048 5.1106V10.9181H11.1247V7.14322C9.01779 8.42087 7.20352 10.1631 5.85745 12.2538C4.27728 14.6349 3.34088 17.4806 3.28236 20.5005C3.22383 21.1393 2.81416 21.662 2.34596 22.2427C2.05334 22.5912 1.81924 22.9396 1.81924 22.9977C1.87776 23.3461 1.93629 23.6946 1.99481 24.1011C1.99481 24.2173 2.05334 24.3334 2.05334 24.4496C4.804 23.8688 7.61319 23.4042 10.4809 23.1138C13.5242 22.7654 16.626 22.5912 19.7863 22.5912C22.8882 22.5912 25.99 22.7654 29.0918 23.1138C31.901 23.4042 34.7102 23.8688 37.5193 24.4496C37.5193 24.3334 37.5779 24.2173 37.5779 24.1011C37.6364 23.7527 37.6949 23.3461 37.7534 22.9977C37.7534 22.9396 37.4608 22.5912 37.2267 22.2427C36.817 21.72 36.3489 21.1393 36.2903 20.5005C36.1733 17.4806 35.2369 14.6349 33.7152 12.2538C32.3692 10.1631 30.5549 8.42087 28.448 7.14322V10.9181H26.6923V5.1106C26.6923 4.93637 26.6337 4.76215 26.5752 4.646C26.4582 4.52985 26.3411 4.4137 26.2241 4.35562C25.5218 4.06525 24.7609 3.83295 24.0001 3.65873C23.5905 3.54258 23.2393 3.4845 22.8296 3.42643V12.4861H21.2495V3.13605C21.2495 2.72953 21.0739 2.323 20.7813 2.03262C20.4886 1.74225 20.079 1.56802 19.6693 1.56802C19.2596 1.56802 18.8499 1.74225 18.5573 2.03262C18.2647 2.323 18.0891 2.72953 18.0891 3.13605V12.4861H16.509ZM16.8016 1.80033C16.9772 1.50995 17.1527 1.21958 17.3868 0.929203C17.9721 0.348453 18.7329 0 19.6108 0C20.4886 0 21.2495 0.348453 21.8347 0.929203C22.0688 1.1615 22.3029 1.45188 22.42 1.80033C23.0637 1.91648 23.649 2.03262 24.2927 2.14877C25.1121 2.323 25.8729 2.61337 26.6337 2.90375C27.1019 3.07797 27.5116 3.36835 27.7457 3.77487C28.0383 4.1814 28.1554 4.646 28.1554 5.1106V5.3429C30.8475 6.79477 33.0715 8.88547 34.7102 11.4408C36.4074 14.0541 37.4608 17.1321 37.5193 20.5005C37.5193 20.6166 37.812 20.9651 38.1046 21.3135C38.5728 21.8943 39.041 22.475 38.9825 23.23C38.9239 23.6365 38.8654 24.043 38.8069 24.3915C38.7484 24.798 38.6313 25.1465 38.5728 25.553L38.3972 26.308L37.6364 26.1337C34.7102 25.4949 31.7254 24.9722 28.6236 24.6819C25.6388 24.3334 22.5955 24.2173 19.4937 24.2173C16.3919 24.2173 13.3486 24.3915 10.3639 24.6819C7.32057 25.0303 4.27728 25.4949 1.35104 26.1337L0.590219 26.308L0.414643 25.553C0.297593 25.1465 0.23907 24.798 0.180545 24.3915C0.12202 23.985 0.0634961 23.6365 0.00497137 23.23C-0.0535534 22.5331 0.414645 21.9523 0.882843 21.3135C1.17547 20.9651 1.46809 20.6166 1.46809 20.5005C1.58514 17.1902 2.63859 14.1122 4.27728 11.4408C5.91597 8.88547 8.19844 6.79477 10.8321 5.3429V5.1106C10.8321 4.58792 11.0076 4.12332 11.2417 3.77487C11.5343 3.36835 11.944 3.07797 12.3537 2.90375C13.1145 2.61337 13.8753 2.38108 14.6362 2.20685C15.514 2.03263 16.1578 1.91648 16.8016 1.80033Z" fill="#1A1B28"/><path fill-rule="evenodd" clip-rule="evenodd" d="M19.6114 19.4552C17.0949 19.4552 14.6368 19.5713 12.1788 19.8036C9.72074 20.0359 7.2627 20.3263 4.86318 20.7909L4.57056 19.2809C7.0286 18.8744 9.54516 18.526 12.0617 18.2937C14.5198 18.0614 17.0363 17.9452 19.6114 17.9452C22.128 17.9452 24.6446 18.0614 27.1611 18.2937C29.6777 18.526 32.1943 18.8163 34.6523 19.2809L34.3597 20.7909C31.9602 20.3844 29.5021 20.0359 27.0441 19.8036C24.586 19.5713 22.128 19.4552 19.6114 19.4552Z" fill="#1A1B28"/></svg>