<svg version="1.1" id="Layer_1" xmlns="http://www.w3.org/2000/svg" x="0" y="0" viewBox="0 0 51 60" xml:space="preserve"><path d="M51,25.5C51,11.4,39.6,0,25.5,0C11.4,0,0,11.4,0,25.5C0,37,7.6,46.7,18.1,49.9L24.5,60l6-9.5	C42.2,48.2,51,37.9,51,25.5z" fill="#2d336b"/><path d="M25.5,34.6c-4.7,0-8.6-3.8-8.6-8.6s3.8-8.6,8.6-8.6s8.6,3.8,8.6,8.6S30.2,34.6,25.5,34.6z M30.5,25.3 c0-0.4-0.3-0.7-0.7-0.7h-2.9v-2.9c0-0.4-0.3-0.7-0.7-0.7h-1.4c-0.4,0-0.7,0.3-0.7,0.7v2.9h-2.9c-0.4,0-0.7,0.3-0.7,0.7v1.4 c0,0.4,0.3,0.7,0.7,0.7h2.9v2.9c0,0.4,0.3,0.7,0.7,0.7h1.4c0.4,0,0.7-0.3,0.7-0.7v-2.9h2.9c0.4,0,0.7-0.3,0.7-0.7V25.3z" fill="#feca07"/></svg>