<svg xmlns="http://www.w3.org/2000/svg" width="49" height="54" fill="none"><mask id="a" fill="#fff"><path fill-rule="evenodd" clip-rule="evenodd" d="M39.47 43A23.8 23.8 0 0 0 49 24C49 10.75 38.03 0 24.5 0S0 10.75 0 24a23.8 23.8 0 0 0 9.53 19H9.5L24 53.5l13.65-9.24c.52-.33 1.03-.67 1.52-1.04l.33-.22h-.03z"/></mask><path fill-rule="evenodd" clip-rule="evenodd" d="M39.47 43A23.8 23.8 0 0 0 49 24C49 10.75 38.03 0 24.5 0S0 10.75 0 24a23.8 23.8 0 0 0 9.53 19H9.5L24 53.5l13.65-9.24c.52-.33 1.03-.67 1.52-1.04l.33-.22h-.03z" fill="#FFCB00"/><path d="M39.47 43l-2.41-3.19-9.5 7.19h11.91v-4zM9.53 43v4h11.9l-9.49-7.19L9.53 43zm-.03 0v-4H-2.84l10 7.24L9.5 43zM24 53.5l-2.35 3.24 2.27 1.64 2.32-1.57L24 53.5zm13.65-9.24l-2.12-3.4-.07.04-.06.04 2.25 3.32zm1.52-1.04l-2.24-3.3-.06.03-.06.05 2.36 3.22zm.33-.22l2.24 3.31L52.54 39H39.5v4zM45 24a19.8 19.8 0 0 1-7.94 15.81l4.82 6.38A27.8 27.8 0 0 0 53 24h-8zM24.5 4C35.9 4 45 13.03 45 24h8C53 8.46 40.16-4 24.5-4v8zM4 24C4 13.03 13.1 4 24.5 4v-8C8.84-4-4 8.46-4 24h8zm7.94 15.81A19.8 19.8 0 0 1 4 24h-8A27.8 27.8 0 0 0 7.12 46.19l4.82-6.38zM9.5 47h.03v-8H9.5v8zm16.85 3.26l-14.5-10.5-4.7 6.48 14.5 10.5 4.7-6.48zm9.05-9.32L21.76 50.2l4.48 6.62 13.65-9.24-4.49-6.63zm1.4-.94c-.4.3-.83.59-1.27.86l4.23 6.79c.61-.38 1.2-.78 1.78-1.2L36.8 40zm.46-.31l-.33.22 4.49 6.62.32-.22-4.48-6.62zM39.47 47h.03v-8h-.03v8z" fill="#fff" mask="url(#a)"/><path d="M16.5 20.21v.54a.27.27 0 0 0 .27.27h.8v.4c0 .22.18.4.4.4h13.06a.4.4 0 0 0 .4-.4v-.4h.8a.27.27 0 0 0 .27-.27v-.54a.27.27 0 0 0-.16-.24l-7.74-2.95a.27.27 0 0 0-.2 0l-7.74 2.95a.27.27 0 0 0-.16.24zm.8 10.18h14.4c.44 0 .8.36.8.8v.54a.27.27 0 0 1-.27.27H16.77a.27.27 0 0 1-.27-.27v-.53c0-.45.36-.8.8-.8zm12.53-8.03v6.43h1.2c.22 0 .4.18.4.4v.67H17.57v-.67c0-.22.18-.4.4-.4h1.2v-6.43h2.13v6.43h2.13v-6.43h2.14v6.43h2.13v-6.43z" fill="#071321"/></svg>