<svg version="1.1" id="Layer_1" xmlns="http://www.w3.org/2000/svg" x="0" y="0" viewBox="0 0 50 54" xml:space="preserve"><style>.st2{fill:#ffcb00}</style><path d="M40.2 43c6-4.5 9.5-11.5 9.5-19 0-13.3-11-24-24.5-24S.8 10.8.8 24c0 7.5 3.5 14.5 9.5 19l14.5 10.5L40.2 43z" fill-rule="evenodd" clip-rule="evenodd" fill="#ffcb00" stroke="#000" stroke-width=".75" stroke-miterlimit="10"/><path d="M12.8 41.2l-.7-.6C6.9 36.7 3.8 30.5 3.8 24c0-11.6 9.6-21 21.5-21s21.5 9.4 21.5 21c0 6.5-3.1 12.7-8.3 16.6l-.3.2c-.4.3-.8.6-1.3.9l-12 8.1-12.1-8.6z" fill-rule="evenodd" clip-rule="evenodd" fill="#1b6bc6"/><path class="st2" d="M34.1 12.2c-.2-.2-.4-.2-.6-.2H17.1c-.2 0-.4.1-.6.2-.2.2-.3.4-.3.6v21.4c0 .2.1.4.3.6.2.2.4.2.6.2h16.4c.2 0 .4-.1.6-.2.2-.2.2-.4.3-.6V12.8l-.3-.6zm-1.4 21.2h-4.9v-2.9c0-.1 0-.2-.1-.3-.1-.1-.2-.1-.3-.1h-4.1c-.1 0-.2 0-.3.1-.1.1-.1.2-.1.3v2.9H18V13.6h14.8c-.1 0-.1 19.8-.1 19.8z"/><path class="st2" d="M20.3 18.3h1.5c.2 0 .4-.1.5-.2s.2-.3.2-.5V16c0-.2-.1-.4-.2-.5s-.3-.2-.5-.2h-1.5c-.2 0-.4.1-.5.2-.1.1-.2.3-.2.5v1.5c0 .2.1.4.2.5s.3.3.5.3zm4.2 0H26c.2 0 .4-.1.5-.2s.2-.3.2-.5V16c0-.2-.1-.4-.2-.5s-.3-.2-.5-.2h-1.5c-.2 0-.4.1-.5.2-.1.1-.2.3-.2.5v1.5c0 .2.1.4.2.5.1.2.3.3.5.3zm4.3 0h1.5c.2 0 .4-.1.5-.2s.2-.3.2-.5V16c0-.2-.1-.4-.2-.5s-.3-.2-.5-.2h-1.5c-.2 0-.4.1-.5.2-.2.1-.3.3-.3.5v1.5c0 .2.1.4.2.5.2.2.4.3.6.3zm-8.5 4.5h1.5c.2 0 .4-.1.5-.2s.2-.3.2-.5v-1.5c0-.2-.1-.4-.2-.5s-.3-.2-.5-.2h-1.5c-.2 0-.4.1-.5.2s-.2.3-.2.5V22c0 .2.1.4.2.5s.3.2.5.3zm4.2 0H26c.2 0 .4-.1.5-.2s.2-.3.2-.5v-1.5c0-.2-.1-.4-.2-.5s-.3-.2-.5-.2h-1.5c-.2 0-.4.1-.5.2s-.2.3-.2.5V22c0 .2.1.4.2.5.1.2.3.2.5.3zm4.3 0h1.5c.2 0 .4-.1.5-.2s.2-.3.2-.5v-1.5c0-.2-.1-.4-.2-.5s-.3-.2-.5-.2h-1.5c-.2 0-.4.1-.5.2s-.2.3-.2.5V22c0 .2.1.4.2.5.1.2.3.2.5.3zm-8.5 4.5h1.5c.2 0 .4-.1.5-.2s.2-.3.2-.5V25c0-.2-.1-.4-.2-.5s-.3-.2-.5-.2h-1.5c-.2 0-.4.1-.5.2s-.2.3-.2.5v1.5c0 .2.1.4.2.5s.3.3.5.3zm4.2 0H26c.2 0 .4-.1.5-.2s.2-.3.2-.5V25c0-.2-.1-.4-.2-.5s-.3-.2-.5-.2h-1.5c-.2 0-.4.1-.5.2s-.2.3-.2.5v1.5c0 .2.1.4.2.5.1.2.3.3.5.3zm4.3 0h1.5c.2 0 .4-.1.5-.2s.2-.3.2-.5V25c0-.2-.1-.4-.2-.5s-.3-.2-.5-.2h-1.5c-.2 0-.4.1-.5.2-.2.1-.3.3-.3.5v1.5c0 .2.1.4.2.5.2.2.4.3.6.3z"/></svg>