<svg version="1.1" id="Layer_1" xmlns="http://www.w3.org/2000/svg" xmlns:xlink="http://www.w3.org/1999/xlink" x="0" y="0" viewBox="0 0 395.2 58.1" xml:space="preserve"><style>.st0{fill:#fff}.st1{fill:#00d1ff}.st2{fill:#1decfa}.st3{fill:#63e742}.st4{fill:#beed3a}.st5{fill:#ffcb00}.st6{fill:#ff7a00}.st7{fill:#ff3d00}.st8{fill:#ff003d}.st9{fill:#ff00c7}.st10{fill:#ad00ff}.st11{fill:#4200ff}.st12{fill:#2b098d}</style><circle class="st0" cx="257" cy="47.2" r="10.5"/><path class="st1" d="M264.5,47.2c0,4.1-3.4,7.5-7.5,7.5s-7.5-3.4-7.5-7.5s3.3-7.5,7.5-7.5C261.2,39.7,264.5,43,264.5,47.2z"/><circle class="st0" cx="234.9" cy="47.2" r="10.5"/><path class="st2" d="M242.4,47.2c0,4.1-3.4,7.5-7.5,7.5s-7.5-3.4-7.5-7.5s3.3-7.5,7.5-7.5S242.4,43,242.4,47.2z"/><circle class="st0" cx="212.8" cy="47.2" r="10.5"/><path class="st3" d="M220.3,47.2c0,4.1-3.4,7.5-7.5,7.5s-7.5-3.4-7.5-7.5s3.3-7.5,7.5-7.5S220.3,43,220.3,47.2z"/><circle class="st0" cx="190.6" cy="47.2" r="10.5"/><path class="st4" d="M198.1,47.2c0,4.1-3.4,7.5-7.5,7.5s-7.5-3.4-7.5-7.5s3.3-7.5,7.5-7.5S198.1,43,198.1,47.2z"/><circle class="st0" cx="168.5" cy="47.2" r="10.5"/><path class="st5" d="M176,47.2c0,4.1-3.4,7.5-7.5,7.5s-7.5-3.4-7.5-7.5s3.3-7.5,7.5-7.5S176,43,176,47.2z"/><circle class="st0" cx="146.4" cy="47.2" r="10.5"/><path class="st6" d="M153.9,47.2c0,4.1-3.4,7.5-7.5,7.5s-7.5-3.4-7.5-7.5s3.3-7.5,7.5-7.5S153.9,43,153.9,47.2z"/><circle class="st0" cx="124.2" cy="47.2" r="10.5"/><path class="st7" d="M131.7,47.2c0,4.1-3.4,7.5-7.5,7.5c-4.1,0-7.5-3.4-7.5-7.5s3.3-7.5,7.5-7.5S131.7,43,131.7,47.2z"/><circle class="st0" cx="102.1" cy="47.2" r="10.5"/><path class="st8" d="M109.6,47.2c0,4.1-3.4,7.5-7.5,7.5s-7.5-3.4-7.5-7.5s3.3-7.5,7.5-7.5C106.3,39.7,109.6,43,109.6,47.2z"/><circle class="st0" cx="80" cy="47.2" r="10.5"/><path class="st9" d="M87.5,47.2c0,4.1-3.4,7.5-7.5,7.5s-7.5-3.4-7.5-7.5s3.3-7.5,7.5-7.5S87.5,43,87.5,47.2z"/><circle class="st0" cx="57.8" cy="47.2" r="10.5"/><path class="st10" d="M65.3,47.2c0,4.1-3.4,7.5-7.5,7.5s-7.5-3.4-7.5-7.5s3.3-7.5,7.5-7.5S65.3,43,65.3,47.2z"/><circle class="st0" cx="35.7" cy="47.2" r="10.5"/><path class="st11" d="M43.2,47.2c0,4.1-3.4,7.5-7.5,7.5s-7.5-3.4-7.5-7.5s3.3-7.5,7.5-7.5S43.2,43,43.2,47.2z"/><circle class="st0" cx="13.5" cy="47.2" r="10.5"/><path class="st12" d="M21,47.2c0,4.1-3.4,7.5-7.5,7.5S6,51.3,6,47.2s3.3-7.5,7.5-7.5S21,43,21,47.2z"/><circle class="st0" cx="379.2" cy="19.4" r="15.5"/><path class="st1" d="M392.2,19.4c0,7.1-5.9,13-13,13s-13-5.9-13-13s5.7-13,13-13S392.2,12.2,392.2,19.4z"/><defs><path id="SVGID_1_" d="M373.3 13.5H385.1V25.3H373.3z"/></defs><clipPath id="SVGID_2_"><use xlink:href="#SVGID_1_" overflow="visible"/></clipPath><g clip-path="url(#SVGID_2_)"><path class="st0" d="M385.1,18l-0.2-0.2l-3.8-0.5l-1.7-3.5c0-0.1-0.1-0.2-0.2-0.2s-0.2,0.1-0.2,0.2l-1.7,3.5l-3.9,0.5 c-0.1,0-0.2,0.1-0.2,0.2s0.1,0.2,0.2,0.2l2.7,2.7l-0.7,3.8c-0.1,0.1,0,0.2,0.1,0.3c0.1,0.1,0.2,0,0.3-0.1l3.4-1.8l3.4,1.8 c0.1,0.1,0.2,0,0.3-0.1v-0.1l-0.6-3.8l2.7-2.7C385,18.2,385.1,18,385.1,18L385.1,18z"/></g><circle class="st0" cx="346.5" cy="19.4" r="15.5"/><path class="st2" d="M359.5,19.4c0,7.1-5.9,13-13,13s-13-5.9-13-13s5.7-13,13-13S359.5,12.2,359.5,19.4z"/><defs><path id="SVGID_3_" d="M340.6 13.5H352.40000000000003V25.3H340.6z"/></defs><clipPath id="SVGID_4_"><use xlink:href="#SVGID_3_" overflow="visible"/></clipPath><g clip-path="url(#SVGID_4_)"><path class="st0" d="M352.4,18l-0.2-0.2l-3.8-0.5l-1.7-3.5c0-0.1-0.1-0.2-0.2-0.2s-0.2,0.1-0.2,0.2l-1.7,3.5l-3.9,0.5 c-0.1,0-0.2,0.1-0.2,0.2s0.1,0.2,0.2,0.2l2.7,2.7l-0.7,3.8c-0.1,0.1,0,0.2,0.1,0.3c0.1,0.1,0.2,0,0.3-0.1l3.4-1.8l3.4,1.8 c0.1,0.1,0.2,0,0.3-0.1v-0.1l-0.6-3.8l2.7-2.7c0,0,0.1-0.2,0-0.2C352.3,18,352.4,18,352.4,18z"/></g><circle class="st0" cx="313.7" cy="19.4" r="15.5"/><path class="st3" d="M326.7,19.4c0,7.1-5.9,13-13,13s-13-5.9-13-13s5.7-13,13-13S326.7,12.2,326.7,19.4z"/><defs><path id="SVGID_5_" d="M307.8 13.5H319.6V25.3H307.8z"/></defs><clipPath id="SVGID_6_"><use xlink:href="#SVGID_5_" overflow="visible"/></clipPath><g clip-path="url(#SVGID_6_)"><path class="st0" d="M319.6,18l-0.2-0.2l-3.8-0.5l-1.7-3.5c0-0.1-0.1-0.2-0.2-0.2s-0.2,0.1-0.2,0.2l-1.7,3.5l-3.9,0.5 c-0.1,0-0.2,0.1-0.2,0.2s0.1,0.2,0.2,0.2l2.7,2.7l-0.7,3.8c-0.1,0.1,0,0.2,0.1,0.3c0.1,0.1,0.2,0,0.3-0.1l3.4-1.8l3.4,1.8 c0.1,0.1,0.2,0,0.3-0.1v-0.1l-0.6-3.8l2.7-2.7C319.5,18.2,319.6,18,319.6,18L319.6,18z"/></g><circle class="st0" cx="280.9" cy="19.4" r="15.5"/><path class="st4" d="M293.9,19.4c0,7.1-5.9,13-13,13s-13-5.9-13-13s5.7-13,13-13S293.9,12.2,293.9,19.4z"/><defs><path id="SVGID_7_" d="M275 13.5H286.8V25.3H275z"/></defs><clipPath id="SVGID_8_"><use xlink:href="#SVGID_7_" overflow="visible"/></clipPath><g clip-path="url(#SVGID_8_)"><path class="st0" d="M286.8,18l-0.2-0.2l-3.8-0.5l-1.7-3.5c0-0.1-0.1-0.2-0.2-0.2s-0.2,0.1-0.2,0.2l-1.7,3.5l-3.9,0.5 c-0.1,0-0.2,0.1-0.2,0.2s0.1,0.2,0.2,0.2l2.7,2.7l-0.7,3.8c-0.1,0.1,0,0.2,0.1,0.3c0.1,0.1,0.2,0,0.3-0.1l3.4-1.8l3.4,1.8 c0.1,0.1,0.2,0,0.3-0.1v-0.1l-0.6-3.8l2.7-2.7c0,0,0.1-0.2,0-0.2C286.7,18,286.8,18,286.8,18z"/></g><circle class="st0" cx="248.1" cy="19.4" r="15.5"/><path class="st5" d="M261.1,19.4c0,7.1-5.9,13-13,13s-13-5.9-13-13s5.7-13,13-13S261.1,12.2,261.1,19.4z"/><defs><path id="SVGID_9_" d="M242.2 13.5H254V25.3H242.2z"/></defs><clipPath id="SVGID_10_"><use xlink:href="#SVGID_9_" overflow="visible"/></clipPath><g clip-path="url(#SVGID_10_)"><path class="st0" d="M254,18l-0.2-0.2l-3.8-0.5l-1.7-3.5c0-0.1-0.1-0.2-0.2-0.2s-0.2,0.1-0.2,0.2l-1.7,3.5l-3.9,0.5 c-0.1,0-0.2,0.1-0.2,0.2s0.1,0.2,0.2,0.2l2.7,2.7l-0.7,3.8c-0.1,0.1,0,0.2,0.1,0.3c0.1,0.1,0.2,0,0.3-0.1l3.4-1.8l3.4,1.8 c0.1,0.1,0.2,0,0.3-0.1v-0.1l-0.6-3.8l2.7-2.7C253.9,18.2,254,18,254,18C253.9,18,254,18,254,18z"/></g><circle class="st0" cx="215.3" cy="19.4" r="15.5"/><path class="st6" d="M228.3,19.4c0,7.1-5.9,13-13,13s-13-5.9-13-13s5.7-13,13-13S228.3,12.2,228.3,19.4z"/><defs><path id="SVGID_11_" d="M209.4 13.5H221.20000000000002V25.3H209.4z"/></defs><clipPath id="SVGID_12_"><use xlink:href="#SVGID_11_" overflow="visible"/></clipPath><g clip-path="url(#SVGID_12_)"><path class="st0" d="M221.2,18l-0.2-0.2l-3.8-0.5l-1.7-3.5c0-0.1-0.1-0.2-0.2-0.2s-0.2,0.1-0.2,0.2l-1.7,3.5l-3.9,0.5 c-0.1,0-0.2,0.1-0.2,0.2s0.1,0.2,0.2,0.2l2.7,2.7l-0.7,3.8c-0.1,0.1,0,0.2,0.1,0.3c0.1,0.1,0.2,0,0.3-0.1l3.4-1.8l3.4,1.8 c0.1,0.1,0.2,0,0.3-0.1v-0.1l-0.6-3.8l2.7-2.7C221.1,18.2,221.2,18,221.2,18C221.1,18,221.2,18,221.2,18z"/></g><circle class="st0" cx="182.5" cy="19.4" r="15.5"/><path class="st7" d="M195.5,19.4c0,7.1-5.9,13-13,13s-13-5.9-13-13s5.7-13,13-13S195.5,12.2,195.5,19.4z"/><defs><path id="SVGID_13_" d="M176.6 13.5H188.4V25.3H176.6z"/></defs><clipPath id="SVGID_14_"><use xlink:href="#SVGID_13_" overflow="visible"/></clipPath><g clip-path="url(#SVGID_14_)"><path class="st0" d="M188.4,18l-0.2-0.2l-3.8-0.5l-1.7-3.5c0-0.1-0.1-0.2-0.2-0.2s-0.2,0.1-0.2,0.2l-1.7,3.5l-3.9,0.5 c-0.1,0-0.2,0.1-0.2,0.2s0.1,0.2,0.2,0.2l2.7,2.7l-0.7,3.8c-0.1,0.1,0,0.2,0.1,0.3c0.1,0.1,0.2,0,0.3-0.1l3.4-1.8l3.4,1.8 c0.1,0.1,0.2,0,0.3-0.1v-0.1l-0.6-3.8l2.7-2.7C188.3,18.2,188.4,18,188.4,18C188.3,18,188.4,18,188.4,18z"/></g><circle class="st0" cx="149.7" cy="19.4" r="15.5"/><path class="st8" d="M162.7,19.4c0,7.1-5.9,13-13,13s-13-5.9-13-13s5.7-13,13-13S162.7,12.2,162.7,19.4z"/><defs><path id="SVGID_15_" d="M143.8 13.5H155.60000000000002V25.3H143.8z"/></defs><clipPath id="SVGID_16_"><use xlink:href="#SVGID_15_" overflow="visible"/></clipPath><g clip-path="url(#SVGID_16_)"><path class="st0" d="M155.6,18l-0.2-0.2l-3.8-0.5l-1.7-3.5c0-0.1-0.1-0.2-0.2-0.2s-0.2,0.1-0.2,0.2l-1.7,3.5l-3.9,0.5 c-0.1,0-0.2,0.1-0.2,0.2s0.1,0.2,0.2,0.2l2.7,2.7l-0.7,3.8c-0.1,0.1,0,0.2,0.1,0.3c0.1,0.1,0.2,0,0.3-0.1l3.4-1.8l3.4,1.8 c0.1,0.1,0.2,0,0.3-0.1v-0.1l-0.6-3.8l2.7-2.7C155.5,18.2,155.6,18,155.6,18L155.6,18z"/></g><circle class="st0" cx="116.9" cy="19.4" r="15.5"/><path class="st9" d="M129.9,19.4c0,7.1-5.9,13-13,13s-13-5.9-13-13s5.7-13,13-13S129.9,12.2,129.9,19.4z"/><defs><path id="SVGID_17_" d="M111 13.5H122.8V25.3H111z"/></defs><clipPath id="SVGID_18_"><use xlink:href="#SVGID_17_" overflow="visible"/></clipPath><g clip-path="url(#SVGID_18_)"><path class="st0" d="M122.8,18l-0.2-0.2l-3.8-0.5l-1.7-3.5c0-0.1-0.1-0.2-0.2-0.2s-0.2,0.1-0.2,0.2l-1.7,3.5l-3.9,0.5 c-0.1,0-0.2,0.1-0.2,0.2s0.1,0.2,0.2,0.2l2.7,2.7l-0.7,3.8c-0.1,0.1,0,0.2,0.1,0.3c0.1,0.1,0.2,0,0.3-0.1l3.4-1.8l3.4,1.8 c0.1,0.1,0.2,0,0.3-0.1v-0.1l-0.6-3.8l2.7-2.7C122.7,18.2,122.8,18,122.8,18L122.8,18z"/></g><circle class="st0" cx="84.1" cy="19.4" r="15.5"/><path class="st10" d="M97.1,19.4c0,7.1-5.9,13-13,13s-13-5.9-13-13s5.7-13,13-13S97.1,12.2,97.1,19.4z"/><defs><path id="SVGID_19_" d="M78.2 13.5H90V25.3H78.2z"/></defs><clipPath id="SVGID_20_"><use xlink:href="#SVGID_19_" overflow="visible"/></clipPath><g clip-path="url(#SVGID_20_)"><path class="st0" d="M90,18l-0.2-0.2L86,17.3l-1.7-3.5c0-0.1-0.1-0.2-0.2-0.2s-0.2,0.1-0.2,0.2l-1.7,3.5l-3.9,0.5 c-0.1,0-0.2,0.1-0.2,0.2s0.1,0.2,0.2,0.2l2.7,2.7l-0.7,3.8c-0.1,0.1,0,0.2,0.1,0.3c0.1,0.1,0.2,0,0.3-0.1l3.4-1.8l3.4,1.8 c0.1,0.1,0.2,0,0.3-0.1v-0.1l-0.6-3.8l2.7-2.7C89.9,18.2,90,18,90,18C89.9,18,90,18,90,18z"/></g><circle class="st0" cx="51.3" cy="19.4" r="15.5"/><path class="st11" d="M64.3,19.4c0,7.1-5.9,13-13,13s-13-5.9-13-13s5.7-13,13-13S64.3,12.2,64.3,19.4z"/><defs><path id="SVGID_21_" d="M45.4 13.5H57.2V25.3H45.4z"/></defs><clipPath id="SVGID_22_"><use xlink:href="#SVGID_21_" overflow="visible"/></clipPath><g clip-path="url(#SVGID_22_)"><path class="st0" d="M57.2,18L57,17.8l-3.8-0.5l-1.7-3.5c0-0.1-0.1-0.2-0.2-0.2s-0.2,0.1-0.2,0.2l-1.7,3.5l-3.9,0.5 c-0.1,0-0.2,0.1-0.2,0.2s0.1,0.2,0.2,0.2l2.7,2.7l-0.7,3.8c-0.1,0.1,0,0.2,0.1,0.3c0.1,0.1,0.2,0,0.3-0.1l3.4-1.8l3.4,1.8 c0.1,0.1,0.2,0,0.3-0.1v-0.1l-0.6-3.8l2.7-2.7c0,0,0.1-0.2,0-0.2C57.1,18,57.2,18,57.2,18z"/></g><circle class="st0" cx="18.5" cy="19.4" r="15.5"/><path class="st12" d="M31.5,19.4c0,7.1-5.9,13-13,13s-13-5.9-13-13s5.7-13,13-13S31.5,12.2,31.5,19.4z"/><defs><path id="SVGID_23_" d="M12.6 13.5H24.4V25.3H12.6z"/></defs><clipPath id="SVGID_24_"><use xlink:href="#SVGID_23_" overflow="visible"/></clipPath><g clip-path="url(#SVGID_24_)"><path class="st0" d="M24.4,18l-0.2-0.2l-3.8-0.5l-1.7-3.5c0-0.1-0.1-0.2-0.2-0.2s-0.2,0.1-0.2,0.2l-1.7,3.5l-3.9,0.5 c-0.1,0-0.2,0.1-0.2,0.2s0.1,0.2,0.2,0.2l2.7,2.7l-0.7,3.8c-0.1,0.1,0,0.2,0.1,0.3c0.1,0.1,0.2,0,0.3-0.1l3.4-1.8l3.4,1.8 c0.1,0.1,0.2,0,0.3-0.1v-0.1l-0.6-3.8l2.7-2.7c0,0,0.1-0.2,0-0.2C24.3,18,24.4,18,24.4,18z"/></g><circle class="st0" cx="257" cy="69.9" r="10.5"/><path class="st1" d="M264.5,69.9c0,4.1-3.4,7.5-7.5,7.5s-7.5-3.4-7.5-7.5s3.3-7.5,7.5-7.5C261.2,62.4,264.5,65.7,264.5,69.9z"/><circle class="st0" cx="234.9" cy="69.9" r="10.5"/><path class="st2" d="M242.4,69.9c0,4.1-3.4,7.5-7.5,7.5s-7.5-3.4-7.5-7.5s3.3-7.5,7.5-7.5S242.4,65.7,242.4,69.9z"/><circle class="st0" cx="212.8" cy="69.9" r="10.5"/><path class="st3" d="M220.3,69.9c0,4.1-3.4,7.5-7.5,7.5s-7.5-3.4-7.5-7.5s3.3-7.5,7.5-7.5S220.3,65.7,220.3,69.9z"/><circle class="st0" cx="190.6" cy="69.9" r="10.5"/><path class="st4" d="M198.1,69.9c0,4.1-3.4,7.5-7.5,7.5s-7.5-3.4-7.5-7.5s3.3-7.5,7.5-7.5S198.1,65.7,198.1,69.9z"/><circle class="st0" cx="168.5" cy="69.9" r="10.5"/><path class="st5" d="M176,69.9c0,4.1-3.4,7.5-7.5,7.5S161,74,161,69.9s3.3-7.5,7.5-7.5S176,65.7,176,69.9z"/><circle class="st0" cx="146.4" cy="69.9" r="10.5"/><path class="st6" d="M153.9,69.9c0,4.1-3.4,7.5-7.5,7.5s-7.5-3.4-7.5-7.5s3.3-7.5,7.5-7.5S153.9,65.7,153.9,69.9z"/><circle class="st0" cx="124.2" cy="69.9" r="10.5"/><path class="st7" d="M131.7,69.9c0,4.1-3.4,7.5-7.5,7.5c-4.1,0-7.5-3.4-7.5-7.5s3.3-7.5,7.5-7.5S131.7,65.7,131.7,69.9z"/><circle class="st0" cx="102.1" cy="69.9" r="10.5"/><path class="st8" d="M109.6,69.9c0,4.1-3.4,7.5-7.5,7.5s-7.5-3.4-7.5-7.5s3.3-7.5,7.5-7.5C106.3,62.4,109.6,65.7,109.6,69.9z"/><circle class="st0" cx="80" cy="69.9" r="10.5"/><path class="st9" d="M87.5,69.9c0,4.1-3.4,7.5-7.5,7.5s-7.5-3.4-7.5-7.5s3.3-7.5,7.5-7.5S87.5,65.7,87.5,69.9z"/><circle class="st0" cx="57.8" cy="69.9" r="10.5"/><path class="st10" d="M65.3,69.9c0,4.1-3.4,7.5-7.5,7.5s-7.5-3.4-7.5-7.5s3.3-7.5,7.5-7.5S65.3,65.7,65.3,69.9z"/><circle class="st0" cx="35.7" cy="69.9" r="10.5"/><path class="st11" d="M43.2,69.9c0,4.1-3.4,7.5-7.5,7.5s-7.5-3.4-7.5-7.5s3.3-7.5,7.5-7.5S43.2,65.7,43.2,69.9z"/><circle class="st0" cx="13.5" cy="69.9" r="10.5"/><path class="st12" d="M21,69.9c0,4.1-3.4,7.5-7.5,7.5S6,74,6,69.9s3.3-7.5,7.5-7.5S21,65.7,21,69.9z"/><circle class="st0" cx="13.5" cy="69.9" r="3.5"/><circle class="st0" cx="35.7" cy="69.9" r="3.5"/><circle class="st0" cx="57.8" cy="69.9" r="3.5"/><circle class="st0" cx="79.9" cy="69.9" r="3.5"/><circle class="st0" cx="102.1" cy="69.9" r="3.5"/><circle class="st0" cx="124.2" cy="69.9" r="3.5"/><circle class="st0" cx="146.4" cy="69.9" r="3.5"/><circle class="st0" cx="168.5" cy="69.9" r="3.5"/><circle class="st0" cx="190.6" cy="69.9" r="3.5"/><circle class="st0" cx="212.8" cy="69.9" r="3.5"/><circle class="st0" cx="234.9" cy="69.9" r="3.5"/><circle class="st0" cx="257" cy="69.9" r="3.5"/><circle class="st0" cx="279.1" cy="47.2" r="10.5"/><path d="M286.6,47.2c0,4.1-3.4,7.5-7.5,7.5s-7.5-3.4-7.5-7.5s3.3-7.5,7.5-7.5C283.3,39.7,286.6,43,286.6,47.2z" fill="#bbb"/></svg>