<svg width="1232" height="72" viewBox="0 0 1232 72" fill="none" xmlns="http://www.w3.org/2000/svg"><circle cx="129.5" cy="54.5" r="3.5" stroke="#61A580" stroke-width="2"/><circle cx="70.5" cy="1.5" r="3.5" stroke="#61A580" stroke-width="2"/><circle cx="222.5" cy="41.5" r="3.5" stroke="#61A580" stroke-width="2"/><circle cx="322.5" cy="1.5" r="3.5" stroke="#61A580" stroke-width="2"/><circle cx="368.5" cy="29.5" r="3.5" stroke="#61A580" stroke-width="2"/><circle cx="496.5" cy="49.5" r="3.5" stroke="#61A580" stroke-width="2"/><path d="M82.0273 21.4949c.5353-.145 1.0968.1688 1.2521.6985l2.4074 8.2222 6.5317-2.5597c.2711-.1057.5824-.0902.8424.0464.2638.1345.4551.3749.525.6583l1.6739 6.783c.132.5368-.2001 1.0701-.7421 1.1916-.5418.1221-1.0892-.2125-1.2215-.7494l-1.3944-5.6502-6.486 2.5409c-.2482.0975-.526.0913-.7729-.0134-.0167-.0071-.0339-.0144-.0502-.023-.2596-.1269-.4534-.3545-.5338-.628l-2.7197-9.295c-.1559-.5296.1528-1.0775.6881-1.2222zM191.792 61.2047c.532.1537.85.7132.708 1.2467l-2.206 8.2784 6.912 1.1993c.286.0502.544.2249.696.4765.156.2519.195.5566.107.8352l-2.087 6.6675c-.165.5274-.726.8112-1.252.6339-.527-.1766-.821-.7466-.656-1.2743l1.739-5.554-6.864-1.1916c-.262-.0454-.497-.1948-.654-.4124-.01-.0147-.021-.0298-.031-.0456-.156-.2432-.203-.5383-.13-.8138l2.495-9.3577c.142-.5336.69-.8419 1.223-.6881zM221.735-5.56516c.533.1537.85.71317.708 1.24665l-2.206 8.27845 6.912 1.19925c.287.05023.545.22493.696.47656.156.25183.195.55658.108.83519l-2.087 6.66746c-.166.5274-.726.8112-1.253.6339-.526-.1766-.821-.7466-.655-1.2743l1.738-5.55397-6.863-1.19166c-.263-.04538-.497-.19472-.654-.41234-.011-.01471-.022-.02983-.031-.04563-.156-.24324-.204-.53828-.131-.81385l2.496-9.35765c.141-.53359.689-.84191 1.222-.68806zM354.733 52.4348c.533.1537.85.7132.708 1.2467l-2.206 8.2784 6.912 1.1993c.287.0502.545.2249.696.4765.156.2519.195.5566.108.8352l-2.087 6.6675c-.166.5274-.726.8112-1.253.6339-.526-.1766-.821-.7466-.655-1.2743l1.738-5.554-6.863-1.1916c-.263-.0454-.497-.1947-.654-.4124-.011-.0147-.022-.0298-.031-.0456-.156-.2432-.204-.5383-.131-.8138l2.496-9.3577c.141-.5336.689-.8419 1.222-.6881zM516.733.434715c.533.1537.85.713175.708 1.246645l-2.206 8.27846 6.912 1.19928c.287.0502.545.2249.696.4765.156.2519.195.5566.108.8352l-2.087 6.6675c-.166.5274-.726.8112-1.253.6339-.526-.1766-.821-.7467-.655-1.2743l1.738-5.554-6.863-1.1917c-.263-.0453-.497-.1947-.654-.4123-.011-.0147-.022-.0298-.031-.0456-.156-.2433-.204-.5383-.131-.8139l2.496-9.35762c.141-.533591.689-.841912 1.222-.688065zM582.255 38.7474c1.819-.4505 2.933-2.2969 2.482-4.116-.45-1.8191-2.297-2.9324-4.116-2.4819-1.819.4505-2.932 2.2969-2.482 4.116.451 1.8191 2.297 2.9324 4.116 2.4819zm-1.167-4.7128c.78-.193 1.571.2842 1.764 1.0637.193.7795-.284 1.5709-1.064 1.764-.779.193-1.571-.2842-1.764-1.0637-.193-.7795.285-1.5709 1.064-1.764zM562.46 43.6497c1.82-.4505 2.933-2.2968 2.482-4.116-.45-1.8191-2.297-2.9324-4.116-2.4819-1.819.4506-2.932 2.2969-2.482 4.116.451 1.8192 2.297 2.9325 4.116 2.4819zm-1.167-4.7127c.78-.1931 1.571.2841 1.764 1.0636.193.7795-.284 1.571-1.063 1.764-.78.1931-1.571-.2841-1.764-1.0636-.194-.7795.284-1.571 1.063-1.764z" fill="#61A580"/><path d="M598.502 41.742l-3.972-16.0385-2.828.7003-1.885.4669-.942.2335-1.885.4668-.943.2335-1.885.4669L554 35.7416l13.54 54.6683 22.658-5.6118c1.64.226 3.479.1386 5.381-.3322 2.345-.5808 4.34-1.6292 5.802-2.9216 1.959.4721 4.223.4386 6.451-.1132 5.55-1.3745 9.179-5.3495 8.263-9.0491l-.934-3.7702-.934-3.7702-.934-3.7703-.933-3.7702-.934-3.7702-.934-3.7702-.934-3.7703c-.89-3.5939-5.695-5.4059-11.056-4.2484zm9.171 4.7153c.633 2.5543-2.502 5.6216-6.844 6.6971-4.343 1.0754-8.547-.1742-9.179-2.7285-.039-.1574-.064-.3165-.074-.4769-.004-.0461.001-.0935.001-.1394-.003-.1154-.004-.232.007-.3488.005-.0522.018-.1057.026-.1587.017-.1111.032-.2229.061-.3352.016-.0619.041-.1231.061-.185.031-.1028.062-.2054.103-.3078.034-.0823.078-.1651.118-.2482.038-.0805.072-.16.117-.24.067-.1227.147-.2455.229-.3678.025-.0383.047-.0776.073-.1152.228-.3267.504-.6511.828-.9692.312-.3086.661-.5989 1.038-.8724.022-.0165.046-.0315.069-.0482.374-.2667.774-.5169 1.206-.7458.015-.0077.031-.0148.046-.0234.366-.1928.751-.37 1.149-.5298.017-.007.032-.0138.048-.0199.421-.166.855-.3137 1.304-.4408l.439-.1258c4.341-1.0731 8.541.1754 9.174 2.7297zm5.676 23.1814c.004.0831 0 .1672-.004.2522-.004.0789-.006.1575-.016.2359-.011.0848-.029.1702-.046.2557-.017.0791-.031.1577-.054.2373-.024.0849-.055.1706-.086.2553-.028.0791-.054.1586-.089.2372-.037.0861-.081.171-.125.256-.039.0778-.076.1559-.121.2331-.05.0863-.106.1715-.162.2564-.05.0761-.097.1519-.151.2274-.061.0851-.131.1683-.198.252-.06.0738-.116.1479-.18.2217-.073.083-.153.1638-.231.2454-.069.0719-.135.1433-.207.2143-.084.0806-.173.1579-.262.2368-.078.0693-.153.1389-.234.206-.094.0773-.194.1522-.294.2278-.084.0649-.166.1301-.254.1931-.105.0751-.219.1472-.329.2206-.09.0592-.176.1195-.269.1765-.115.0716-.239.1392-.359.207-.095.0546-.188.1105-.286.1628-.126.0673-.259.1292-.389.1925-.099.0485-.195.0992-.296.1444-.144.0645-.292.1233-.439.1837-.095.0396-.189.0818-.287.119-.165.063-.336.1194-.506.1765-.085.029-.167.0604-.254.0877-.257.0819-.521.1562-.79.2227-.368.0913-.736.1605-1.104.2195-.1.0158-.199.0304-.299.0441-.311.0429-.621.0747-.93.0943-.045.0031-.091.0085-.137.011-.022-.2438-.06-.4865-.12-.7278l-.28-1.1311c.069-.0059.137-.0187.205-.0257.264-.0253.528-.0577.791-.0979.109-.016.217-.0308.326-.0496.362-.0617.722-.1329 1.081-.2219.386-.0954.76-.206 1.126-.3258.119-.0384.231-.0822.348-.1231.245-.0869.487-.1768.722-.273.129-.053.255-.109.38-.1641.216-.0965.428-.1959.634-.301.121-.0609.24-.1214.357-.1855.212-.1144.414-.2346.614-.3583.098-.06.198-.1168.291-.1781.276-.1802.542-.3662.792-.5602.01-.0075.021-.0141.031-.0216.259-.2022.501-.4131.731-.6293.074-.0693.14-.1408.211-.2113.151-.1515.299-.3041.436-.4601.073-.0842.142-.1693.212-.2546.124-.1517.239-.3052.348-.4604.033-.047.074-.0912.105-.138.01.0525.019.1065.025.16.009.0758.019.1533.022.2325zm-12.253 3.0347c.004.0832 0 .1672-.004.2523-.004.0788-.006.1575-.016.2359-.011.0848-.029.1702-.047.2557-.016.0791-.031.1577-.053.2372-.024.085-.055.1707-.086.2554-.028.0791-.055.1586-.089.2372-.037.0861-.081.171-.125.2559-.04.0779-.076.156-.121.2332-.05.0863-.107.1714-.163.2563-.049.0762-.096.1519-.15.2274-.061.0852-.131.1684-.198.2521-.06.0738-.117.1478-.18.2217-.073.0829-.153.1638-.232.2453-.068.0719-.134.1434-.207.2144-.083.0806-.173.1578-.261.2368-.078.0693-.153.1388-.234.206-.094.0773-.195.1522-.294.2278-.084.0648-.166.1301-.254.193-.106.0752-.219.1472-.33.2207-.089.0591-.175.1195-.268.1765-.115.0716-.239.1391-.359.2069-.096.0547-.188.1106-.286.1629-.126.0673-.259.1292-.389.1925-.099.0485-.195.0992-.297.1444-.143.0644-.291.1232-.438.1837-.096.0396-.189.0817-.287.119-.165.063-.337.1194-.507.1764-.084.0291-.167.0604-.253.0878-.258.0819-.521.1562-.79.2227s-.537.1239-.804.173c-.089.0161-.176.0267-.265.0406-.177.0291-.355.0591-.53.0804-.104.0127-.205.0188-.309.0285-.158.0152-.317.0325-.474.0423-.11.0063-.218.0061-.328.0103-.146.0051-.292.0114-.437.0111-.111-.0005-.217-.0071-.326-.0102-.139-.0045-.28-.0067-.416-.0159-.109-.0071-.213-.0203-.32-.0309-.132-.0132-.265-.0234-.394-.0414-.108-.0143-.21-.035-.315-.052-.123-.0207-.247-.0399-.367-.0644-.103-.0214-.202-.0489-.303-.0729-.115-.0286-.23-.055-.342-.0875-.096-.028-.189-.0611-.283-.0929-.106-.0356-.216-.0695-.319-.109-.09-.0346-.175-.0737-.263-.112-.098-.0426-.198-.0838-.292-.1307-.083-.0414-.16-.0863-.239-.1307-.09-.049-.18-.0977-.264-.1509-.075-.0475-.145-.0992-.215-.1488-.078-.0558-.157-.1101-.23-.1691-.066-.0536-.126-.1108-.188-.1674-.068-.0614-.136-.1226-.197-.1865-.056-.059-.106-.1227-.157-.185-.056-.0672-.112-.1345-.161-.2043-.045-.0649-.084-.1332-.124-.2014-.043-.0724-.086-.1448-.122-.2209-.033-.0708-.061-.145-.089-.2181-.019-.0502-.036-.1011-.053-.1529.05.0267.106.0478.157.0733.169.087.344.1689.524.2454.1.0431.201.0861.305.1255.194.0748.396.141.601.2041.096.0294.188.0616.285.0884.305.0836.618.1573.941.2152.012.0022.023.0024.034.0046.314.0553.636.0965.965.1262.111.0104.226.0139.34.0217.234.0151.47.0267.711.0301.133.001.267-.0011.402-.0036.231-.0042.465-.0141.701-.0296.137-.0088.274-.0187.412-.032.254-.0237.509-.058.767-.0958.122-.0182.242-.032.364-.0532.382-.0637.765-.1403 1.15-.2358.386-.0955.759-.2061 1.126-.3258.118-.0384.231-.0822.347-.1231.246-.0869.488-.1768.723-.2731.129-.0529.254-.1089.38-.164.216-.0966.427-.1959.633-.301.121-.061.24-.1215.358-.1855.211-.1145.414-.2346.614-.3583.097-.0601.197-.1168.291-.1781.276-.1803.542-.3662.792-.5602.01-.0075.02-.0141.03-.0216.259-.2022.501-.4132.732-.6293.074-.0693.14-.1408.211-.2113.151-.1516.298-.3041.436-.4602.073-.0841.142-.1692.212-.2546.123-.1516.238-.3051.348-.4603.032-.0471.074-.0912.105-.138.01.0525.018.1065.025.1599.008.0759.019.1534.022.2325zm-36.013-20.4566l-1.455-5.874c2.947-.974 4.755-3.9728 4.241-7.0337l7.576-1.8761c.974 2.9469 3.973 4.7549 7.033 4.2412l1.455 5.874c-.017-.0107-.035-.0192-.053-.0298-.198-.121-.404-.227-.609-.3374-.198-.1081-.392-.223-.594-.3212-.073-.0357-.15-.0627-.225-.0963-2.317-1.0708-4.895-1.4744-7.47-1.1259-.032.004-.063.0046-.095.0085-.454.0654-.908.153-1.362.2653-.453.1123-.896.247-1.329.4012-.03.0105-.058.0253-.088.0368-2.44.8924-4.532 2.454-6.082 4.4823-.05.0645-.105.1251-.153.1902-.134.1811-.252.3735-.376.5611-.128.1929-.262.3831-.381.5826-.01.0176-.022.0336-.033.0512zm25.51 5.5705c.014-.0016.028-.0051.043-.0068.513-.062 1.025-.0926 1.534-.0927.438.0005.861.0287 1.272.077.201.0233.398.0524.592.0865.107.0186.216.0344.32.0568.292.0628.572.1395.841.2279.061.019.119.0406.178.0609.593.2112 1.124.4808 1.56.8051.012.009.025.0187.038.0277.149.1131.284.2316.408.3542.014.0144.029.0276.043.0413.115.1166.214.239.307.3631.018.0245.038.0465.055.0712.083.1177.15.2401.213.3646.016.0321.037.0627.052.095.073.158.131.3178.172.4837.633 2.5543-2.502 5.6216-6.844 6.697-4.343 1.0755-8.547-.1742-9.179-2.7285-.102-.41-.097-.8334-.014-1.26.119-.6238.428-1.2626.901-1.8819.03-.0395.062-.0792.094-.1192.133-.1671.28-.3326.438-.4957 1.245-1.2827 3.169-2.3814 5.425-2.9402.515-.1275 1.033-.2218 1.551-.287zm2.726-3.1141c.1.0431.201.0862.305.1255.195.0748.396.141.602.2041.095.0294.187.0616.285.0885.305.0835.617.1572.94.2152.012.0021.023.0024.034.0045.314.0553.637.0965.965.1262.112.0104.227.014.341.0217.233.0152.469.0267.71.0301.134.001.267-.0011.403-.0036.231-.0042.464-.014.701-.0295.136-.0089.273-.0188.412-.0321.253-.0237.509-.058.766-.0958.122-.0181.242-.032.364-.0532.381-.0632.763-.1398 1.148-.2353.386-.0955.76-.2061 1.126-.3259.119-.0383.231-.0821.348-.1231.245-.0868.487-.1767.723-.273.128-.0529.254-.1089.379-.164.216-.0966.428-.196.634-.301.121-.061.24-.1215.357-.1855.212-.1145.414-.2346.615-.3583.097-.0601.197-.1169.291-.1781.275-.1803.541-.3662.791-.5602.01-.0075.021-.0141.031-.0216.259-.2022.501-.4132.731-.6293.074-.0694.14-.1408.211-.2113.152-.1516.299-.3041.436-.4602.073-.0841.142-.1692.212-.2546.124-.1516.239-.3051.348-.4603.033-.0471.074-.0913.105-.1381.01.0526.019.1065.025.16.009.0778.021.156.023.2344.004.0831-.001.1672-.005.2522-.003.0789-.006.1576-.015.236-.011.0847-.029.1702-.047.2556-.016.0791-.031.1578-.053.2373-.024.085-.055.1706-.086.2554-.028.079-.055.1586-.089.2371-.037.0862-.081.1711-.125.256-.04.0779-.076.156-.121.2331-.05.0864-.107.1715-.163.2564-.049.0762-.096.1519-.151.2274-.061.0851-.13.1683-.197.252-.06.0739-.117.1479-.18.2217-.073.083-.153.1638-.232.2454-.068.0719-.134.1434-.207.2143-.083.0806-.173.1579-.261.2368-.078.0693-.153.1389-.234.2061-.094.0773-.195.1522-.294.2278-.084.0648-.166.1301-.254.193-.106.0751-.219.1472-.33.2207-.089.0591-.175.1195-.268.1765-.116.0716-.239.1391-.359.2069-.096.0547-.188.1105-.286.1628-.126.0674-.259.1292-.389.1925-.1.0486-.195.0992-.297.1445-.143.0644-.291.1232-.439.1836-.095.0396-.188.0818-.286.119-.166.063-.337.1194-.507.1765-.085.029-.167.0604-.253.0878-.258.08-.522.1543-.791.2208-.338.0838-.678.153-1.018.2102-.109.0179-.216.0276-.324.0433-.232.0334-.463.0657-.693.0866-.128.0117-.255.014-.383.0218-.208.0125-.417.0252-.623.0261-.132.0007-.261-.0062-.391-.0091-.15-.0038-.299-.01-.445-.0198-1.127-.7773-2.587-1.2861-4.246-1.4704-.503-.4295-.844-.9203-1.013-1.4638.054.0288.114.0509.169.0793.169.0861.344.1679.524.2444zm15.583.3441c.073-.0841.142-.1692.212-.2546.123-.1516.238-.3052.348-.4604.032-.047.073-.0912.105-.138.01.0526.018.1065.024.16.01.0777.021.156.024.2344.003.0831-.001.1672-.005.2522-.004.0789-.006.1576-.016.236-.011.0847-.028.1702-.046.2556-.017.0791-.031.1577-.054.2373-.024.085-.054.1706-.085.2553-.029.0791-.055.1587-.09.2372-.036.0862-.08.1711-.124.256-.04.0779-.077.156-.122.2331-.049.0863-.106.1715-.162.2564-.049.0762-.097.1519-.151.2274-.061.0851-.13.1683-.198.252-.06.0738-.116.1479-.18.2217-.072.083-.152.1638-.231.2454-.069.0719-.135.1433-.207.2143-.083.0806-.173.1579-.262.2368-.078.0693-.152.1389-.234.2061-.094.0772-.194.1521-.294.2278-.084.0648-.165.1301-.254.193-.105.0751-.219.1472-.329.2207-.09.0591-.176.1194-.269.1765-.115.0715-.238.1391-.359.2069-.095.0547-.187.1105-.285.1628-.127.0673-.26.1292-.39.1925-.099.0486-.194.0992-.296.1444-.143.0645-.292.1233-.439.1837-.095.0396-.189.0818-.287.119-.165.063-.336.1194-.506.1765-.085.029-.167.0604-.253.0878-.259.0809-.522.1552-.791.2217-.474.1174-.952.1998-1.429.264-.142.0192-.286.0307-.428.0449-.186.0192-.372.0233-.559.0334l-.174-.7012c-.051-.2064-.119-.4087-.198-.6071-.049-.125-.11-.2428-.17-.3631-.024-.049-.043-.0995-.069-.1471.023-.0016.045-.006.068-.0076.277-.0218.557-.06.836-.0971.137-.0181.274-.0288.411-.0509.417-.0672.832-.151 1.245-.2533.386-.0955.759-.206 1.126-.3258.119-.0384.231-.0822.348-.1231.245-.0869.487-.1768.722-.2731.129-.0529.254-.1089.38-.164.216-.0965.427-.1959.634-.301.12-.061.24-.1215.357-.1855.211-.1145.414-.2346.614-.3583.097-.0601.197-.1168.291-.1781.276-.1803.542-.3662.792-.5602.01-.0075.02-.0141.031-.0216.259-.2022.5-.4131.731-.6293.074-.0693.14-.1408.211-.2113.151-.1515.298-.305.436-.4611zm.934 3.7702c.073-.0841.142-.1692.212-.2546.123-.1516.238-.3051.348-.4603.032-.0471.073-.0912.105-.138.01.0525.018.1065.024.1599.01.0778.021.156.023.2344.004.0832 0 .1672-.004.2522-.004.0789-.006.1576-.016.236-.011.0847-.029.1702-.047.2556-.016.0791-.031.1578-.053.2373-.024.085-.055.1707-.086.2554-.028.079-.054.1586-.089.2372-.037.0861-.081.171-.125.2559-.039.0779-.076.156-.121.2332-.05.0863-.107.1714-.163.2563-.049.0762-.096.1519-.15.2274-.061.0851-.131.1684-.198.252-.06.0739-.116.1479-.18.2217-.073.083-.153.1639-.232.2454-.068.0719-.134.1434-.207.2143-.083.0806-.173.1579-.261.2369-.078.0693-.153.1388-.234.206-.094.0773-.194.1522-.294.2278-.084.0648-.166.1301-.254.193-.106.0752-.219.1472-.33.2207-.089.0591-.175.1195-.268.1765-.115.0716-.239.1391-.359.2069-.095.0547-.188.1105-.286.1629-.126.0673-.259.1291-.389.1925-.099.0485-.195.0991-.297.1444-.143.0644-.291.1232-.438.1837-.095.0395-.189.0817-.287.119-.165.063-.336.1193-.506.1764-.085.0291-.167.0604-.254.0878-.258.0809-.521.1552-.79.2218-.474.1174-.952.1997-1.429.2639-.143.0192-.286.0307-.428.045-.187.0191-.373.0232-.559.0334l-.174-.7013-.28-1.1311c.068-.0059.136-.0187.205-.0257.263-.0253.528-.0577.791-.0978.109-.016.217-.0309.326-.0497.361-.0616.722-.1329 1.081-.2219.386-.0954.759-.206 1.126-.3258.118-.0384.23-.0821.347-.1231.246-.0868.488-.1768.723-.273.129-.053.254-.109.38-.1641.216-.0965.427-.1959.633-.301.121-.0609.24-.1214.358-.1855.211-.1144.414-.2346.614-.3582.097-.0601.197-.1169.291-.1782.276-.1802.542-.3662.792-.5602.01-.0075.02-.014.03-.0216.259-.2022.501-.4131.732-.6293.074-.0693.14-.1407.211-.2112.151-.1516.298-.3051.436-.4612zm.933 3.7703c.074-.0842.143-.1693.212-.2546.124-.1517.239-.3052.349-.4604.032-.047.073-.0912.104-.138.01.0525.019.1065.025.16.009.0777.021.1559.023.2343.004.0832-.001.1673-.004.2523-.004.0789-.006.1575-.016.2359-.011.0848-.029.1702-.047.2557-.016.0791-.031.1577-.053.2373-.024.0849-.055.1706-.086.2553-.028.0791-.055.1586-.089.2372-.037.0861-.081.171-.125.256-.04.0778-.076.1559-.121.2331-.05.0863-.107.1714-.163.2563-.049.0762-.096.152-.151.2274-.06.0852-.13.1684-.197.2521-.06.0738-.117.1479-.18.2217-.073.0829-.153.1638-.232.2453-.068.072-.134.1434-.207.2144-.083.0806-.173.1579-.261.2368-.078.0693-.153.1388-.234.206-.094.0773-.195.1522-.294.2278-.084.0648-.166.1301-.254.1931-.106.0751-.219.1471-.33.2206-.089.0592-.175.1195-.268.1765-.116.0716-.239.1392-.359.207-.096.0546-.188.1105-.286.1628-.126.0673-.259.1292-.389.1925-.099.0485-.195.0992-.297.1444-.143.0645-.291.1232-.438.1837-.096.0396-.189.0818-.287.119-.166.063-.337.1194-.507.1765-.084.029-.167.0604-.253.0877-.258.0809-.522.1553-.79.2218-.474.1174-.952.1997-1.43.2639-.142.0193-.285.0307-.428.045-.186.0191-.372.0232-.558.0334l-.174-.7013-.28-1.131c.068-.006.136-.0188.204-.0257.264-.0253.528-.0577.791-.0979.11-.016.218-.0309.326-.0497.362-.0616.723-.1329 1.082-.2218.385-.0955.759-.2061 1.126-.3259.118-.0383.23-.0821.347-.1231.246-.0868.488-.1767.723-.273.129-.0529.254-.109.379-.164.217-.0966.428-.196.634-.301.121-.061.24-.1215.357-.1855.212-.1145.414-.2346.615-.3583.097-.0601.197-.1169.291-.1781.275-.1803.541-.3662.791-.5602.011-.0075.021-.0141.031-.0216.259-.2022.501-.4132.732-.6294.073-.0693.14-.1407.21-.2112.152-.1516.299-.3051.436-.4611zm.934 3.7702c.073-.0842.142-.1693.212-.2546.124-.1516.239-.3052.348-.4604.033-.047.074-.0912.105-.138.01.0526.019.1065.025.16.009.0777.02.1559.023.2344.003.0831-.001.1672-.005.2522-.003.0789-.006.1575-.015.2359-.011.0848-.029.1703-.047.2557-.016.0791-.031.1577-.053.2373-.024.0849-.055.1706-.086.2553-.029.0791-.055.1586-.089.2372-.037.0861-.081.1711-.125.256-.04.0779-.077.156-.121.2331-.05.0863-.107.1715-.163.2564-.049.0762-.096.1519-.151.2274-.061.0851-.13.1683-.197.252-.06.0738-.117.1479-.181.2217-.072.083-.152.1638-.231.2454-.068.0719-.135.1433-.207.2143-.083.0806-.173.1579-.261.2368-.078.0693-.153.1389-.235.206-.093.0773-.194.1522-.293.2279-.084.0648-.166.1301-.255.193-.105.0751-.218.1472-.329.2206-.089.0592-.176.1195-.268.1766-.116.0715-.239.1391-.359.2069-.096.0547-.188.1105-.286.1628-.127.0673-.259.1292-.39.1925-.099.0485-.194.0992-.296.1444-.143.0645-.292.1233-.439.1837-.095.0396-.188.0818-.286.119-.166.063-.337.1194-.507.1765-.085.029-.167.0604-.253.0877-.258.081-.522.1553-.791.2218-.474.1174-.951.1998-1.429.264-.142.0192-.285.0306-.428.0449-.186.0192-.372.0232-.559.0334l-.173-.7012-.281-1.1311c.069-.006.137-.0188.205-.0257.264-.0253.528-.0577.791-.0979.109-.016.218-.0308.326-.0497.362-.0616.722-.1329 1.082-.2218.385-.0955.759-.2061 1.125-.3258.119-.0384.231-.0822.348-.1231.246-.0869.487-.1768.723-.2731.129-.0529.254-.1089.379-.164.216-.0966.428-.1959.634-.301.121-.061.24-.1215.357-.1855.212-.1145.414-.2346.615-.3583.097-.0601.197-.1168.291-.1781.275-.1803.541-.3662.791-.5602.01-.0075.021-.0141.031-.0216.259-.2022.501-.4132.731-.6293.074-.0693.141-.1408.211-.2113.152-.1516.299-.305.436-.4611zm-11.541 2.5752c.004.0831 0 .1672-.004.2522-.004.0789-.006.1576-.016.236-.011.0847-.029.1702-.046.2556-.017.0791-.031.1578-.054.2373-.024.085-.055.1706-.086.2554-.028.079-.054.1586-.089.2372-.037.0861-.081.171-.125.2559-.039.0779-.076.156-.121.2331-.05.0864-.106.1715-.162.2564-.05.0762-.097.1519-.151.2274-.061.0851-.131.1683-.198.252-.06.0739-.116.1479-.18.2217-.073.083-.153.1638-.231.2454-.069.0719-.135.1434-.207.2143-.084.0806-.173.1579-.262.2368-.078.0694-.153.1389-.234.2061-.094.0773-.194.1522-.294.2278-.084.0648-.166.1301-.254.193-.105.0751-.219.1472-.33.2207-.089.0591-.175.1195-.268.1765-.115.0716-.239.1391-.359.2069-.095.0547-.188.1105-.286.1628-.126.0673-.259.1292-.389.1925-.099.0486-.195.0992-.296.1445-.144.0644-.292.1232-.439.1836-.095.0396-.189.0818-.287.1191-.165.0629-.336.1193-.506.1764-.085.029-.167.0604-.254.0878-.257.0818-.521.1562-.79.2227-.268.0665-.536.1239-.803.173-.089.016-.177.0267-.265.0406-.178.0291-.356.059-.531.0803-.104.0128-.205.0189-.309.0286-.158.0152-.317.0325-.473.0423-.111.0063-.219.0061-.329.0103-.146.0051-.292.0114-.436.0111-.112-.0005-.218-.0071-.327-.0102-.139-.0045-.28-.0067-.416-.016-.109-.007-.213-.0202-.32-.0308-.132-.0133-.265-.0234-.394-.0414-.108-.0144-.21-.0351-.315-.052-.122-.0208-.247-.0399-.366-.0644-.104-.0214-.203-.049-.304-.073-.115-.0285-.23-.0549-.341-.0874-.097-.028-.19-.0612-.283-.0929-.107-.0356-.217-.0695-.32-.1091-.09-.0346-.175-.0736-.262-.1119-.099-.0427-.199-.0839-.293-.1307-.083-.0414-.16-.0863-.239-.1308-.089-.0489-.18-.0976-.264-.1508-.075-.0475-.144-.0992-.215-.1488-.077-.0558-.157-.1101-.23-.1692-.066-.0536-.126-.1107-.188-.1674-.067-.0613-.135-.1225-.196-.1864-.057-.059-.107-.1227-.158-.185-.056-.0673-.112-.1345-.161-.2043-.045-.0649-.084-.1333-.124-.2014-.043-.0724-.086-.1448-.122-.221-.033-.0707-.06-.1449-.089-.218-.019-.0502-.036-.1011-.052-.153.049.0267.105.0478.156.0734.169.087.344.1689.524.2454.1.043.201.0861.305.1254.195.0749.396.141.602.2041.095.0295.187.0617.285.0885.304.0836.617.1573.94.2152.012.0022.023.0024.034.0046.314.0553.637.0965.965.1262.112.0104.227.0139.341.0217.233.0151.469.0267.71.0301.134.0009.267-.0011.403-.0036.231-.0042.464-.0141.7-.0296.137-.0089.274-.0187.413-.0321.253-.0237.509-.058.766-.0958.122-.0181.242-.0319.364-.0531.383-.0637.765-.1403 1.15-.2358.386-.0955.76-.2061 1.126-.3259.119-.0383.231-.0821.348-.1231.245-.0868.487-.1767.722-.273.129-.0529.254-.109.38-.164.216-.0966.428-.196.634-.301.121-.061.24-.1215.357-.1855.212-.1145.414-.2346.614-.3583.098-.0601.198-.1169.291-.1781.276-.1803.542-.3662.792-.5602.01-.0075.021-.0141.031-.0216.259-.2022.501-.4132.731-.6294.074-.0693.14-.1407.211-.2112.151-.1516.299-.3041.436-.4602.073-.0841.142-.1692.212-.2546.124-.1516.239-.3052.348-.4604.033-.047.074-.0912.105-.138.01.0526.019.1065.025.16.009.0759.019.1534.022.2325zm-19.458 1.169c-.367.1318-.736.2532-1.109.3457-.445.1102-.893.186-1.34.2427-.143.0185-.287.0262-.43.0395-.305.0276-.609.0449-.914.0482-.165.002-.33.0009-.496-.0051-.292-.0096-.583-.0335-.873-.0648-.155-.0168-.31-.0273-.464-.0502-.414-.0615-.825-.1429-1.229-.2498-.125-.0332-.245-.0785-.368-.115-.299-.0899-.597-.1871-.89-.3008-.147-.0576-.291-.121-.435-.1842-.289-.1266-.573-.2634-.852-.4133-.106-.0568-.214-.1112-.318-.1714-.237-.1374-.463-.2964-.692-.4509l2.12-3.9223c.287-.5293.771-.8822 1.253-.9134.045-.0032.09-.0045.137-.0039.169.076.545.281.802.4224.632.3468 1.041.5635 1.358.6791.787.8936 1.626 1.118 2.212 1.1407.712.028 1.442-.2161 2.184-.7119l.885 3.5752.189.7616c-.098.0421-.193.0897-.291.1291-.145.06-.293.1195-.439.1728zm-15.425-9.2136c-.014-.0886-.025-.1769-.037-.265-.04-.3063-.068-.6113-.084-.9156-.002-.0464-.007-.0921-.009-.1378-.013-.3509-.008-.7011.01-1.0478.004-.073.012-.146.017-.2192.019-.271.049-.5395.088-.8071.014-.0996.027-.199.044-.2972.049-.2841.108-.5649.177-.8429.036-.1441.078-.2865.119-.4298.046-.1563.094-.3105.146-.4644.001-.0033.003-.0077.005-.011l3.458 2.3106c.885.5922 1.911.7722 2.837.5479.34-.0904.662-.231.953-.4202.357-.2326.543-.6066.739-1.0023.332-.6634.609-1.1461 1.175-1.2864.936-.2318 1.923-.1051 2.778.3572l1.266.788.142-1.4556c.156-.3369 1.128-.9716 1.76-1.2062.611.896 1.847 3.1119 1.261 5.6819-.055.0585-.11.1163-.163.1753-.096.1079-.183.2175-.273.3277-.078.0964-.158.1914-.231.2894-.083.1127-.157.2279-.233.3417-.065.0993-.134.1964-.193.297-.07.1174-.129.2369-.19.3562-.052.1-.109.1999-.154.3013-.056.1219-.1.2457-.146.3692-.038.1005-.082.2003-.114.3012-.041.1293-.068.2592-.1.388-.002.0084-.004.016-.006.0244-.785.8469-1.537 1.3191-2.069 1.2958-.122-.0048-.49-.0185-.965-.6503l-.341-.4536-.39.0514c-.235-.0997-.714-.3624-1.016-.5277-.806-.4414-1.147-.6221-1.486-.6502-.176-.0145-.35-.0153-.522-.0028-1.162.0797-2.218.8013-2.825 1.9272l-1.956 3.6207c-.003-.0024-.007-.0045-.009-.0069-.109-.1041-.216-.2105-.322-.3193-.118-.1209-.234-.2422-.346-.3666-.185-.2074-.362-.4195-.531-.6408-.063-.0814-.122-.1658-.183-.2488-.156-.2163-.307-.438-.45-.6659-.039-.0632-.081-.1259-.12-.1903-.178-.2981-.345-.6039-.497-.9203-.02-.0419-.037-.0858-.057-.128-.128-.2753-.245-.5594-.353-.8479-.03-.0834-.062-.1666-.091-.2515-.116-.3335-.223-.6731-.309-1.0228-.087-.3497-.151-.7-.204-1.0499zm18.588 8.1601c.101.043.201.0861.305.1254.195.0749.396.141.602.2041.095.0295.187.0617.285.0885.305.0836.617.1573.94.2152.012.0022.023.0024.035.0046.313.0553.636.0965.964.1262.112.0104.227.0139.341.0217.234.0151.469.0267.71.0301.134.001.267-.0011.403-.0036.231-.0042.464-.0141.701-.0296.136-.0089.273-.0187.412-.0321.253-.0237.509-.058.766-.0958.122-.0181.243-.0319.364-.0531.381-.0632.763-.1399 1.149-.2354.385-.0954.759-.206 1.125-.3258.119-.0384.231-.0821.348-.1231.246-.0868.487-.1767.723-.273.129-.053.254-.109.379-.1641.216-.0965.428-.1959.634-.301.121-.0609.24-.1214.357-.1855.212-.1144.414-.2346.615-.3582.097-.0601.197-.1169.291-.1782.275-.1802.541-.3662.791-.5602.01-.0075.021-.014.031-.0216.259-.2022.501-.4131.731-.6293.074-.0693.141-.1407.211-.2112.152-.1516.299-.3041.436-.4602.074-.0842.142-.1693.212-.2546.124-.1516.239-.3052.349-.4604.032-.047.073-.0912.104-.138.01.0525.019.1065.025.16.009.0777.021.1559.023.2344.004.0831-.001.1672-.004.2522-.004.0789-.006.1575-.016.2359-.011.0848-.029.1702-.047.2557-.016.0791-.031.1577-.053.2373-.024.0849-.055.1706-.086.2553-.028.0791-.055.1586-.089.2372-.037.0861-.081.171-.125.256-.04.0778-.076.1559-.121.2331-.05.0863-.107.1715-.163.2563-.049.0762-.096.152-.151.2275-.061.0851-.13.1683-.197.252-.06.0738-.117.1479-.18.2217-.073.083-.153.1638-.232.2453-.068.072-.134.1434-.207.2144-.083.0806-.173.1579-.261.2368-.078.0693-.153.1389-.234.206-.094.0773-.195.1522-.294.2278-.084.0649-.166.1301-.254.1931-.106.0751-.219.1472-.33.2206-.089.0592-.175.1195-.268.1765-.116.0716-.239.1392-.359.207-.096.0546-.188.1105-.286.1628-.126.0673-.259.1292-.389.1925-.099.0485-.195.0992-.297.1444-.143.0645-.291.1233-.438.1837-.096.0396-.189.0818-.287.119-.166.063-.337.1194-.507.1765-.084.029-.167.0604-.253.0877-.258.08-.522.1543-.791.2209-.268.0665-.536.1238-.803.1729-.089.0161-.177.0267-.265.0407-.178.029-.356.059-.53.0803-.104.0127-.206.0189-.309.0285-.159.0152-.318.0325-.474.0423-.111.0064-.219.0061-.329.0104-.146.0051-.292.0113-.436.011-.111-.0005-.218-.007-.327-.0101-.139-.0046-.28-.0067-.416-.016-.109-.0071-.213-.0202-.32-.0308-.132-.0133-.265-.0235-.394-.0414-.108-.0144-.21-.0351-.315-.052-.122-.0208-.247-.0399-.366-.0644-.103-.0215-.202-.049-.303-.073-.115-.0285-.231-.0549-.342-.0874-.097-.028-.189-.0612-.283-.093-.107-.0355-.216-.0694-.319-.109-.091-.0346-.176-.0736-.263-.112-.099-.0426-.199-.0838-.293-.1306-.083-.0414-.16-.0863-.239-.1308-.089-.0489-.179-.0976-.263-.1508-.075-.0475-.145-.0993-.215-.1489-.078-.0557-.158-.1101-.23-.1691-.067-.0536-.127-.1107-.189-.1674-.067-.0614-.135-.1225-.196-.1865-.057-.059-.107-.1227-.158-.185-.056-.0672-.111-.1344-.161-.2043-.045-.0648-.084-.1332-.124-.2014-.042-.0724-.085-.1447-.121-.2209-.034-.0707-.061-.145-.089-.218-.02-.0502-.036-.1012-.053-.153.049.0267.106.0478.156.0733.172.0866.346.1685.526.245zm3.489-12.4705c-.171.0573-.338.1177-.504.1788-.148.0558-.297.1115-.442.1705-.162.0661-.32.1352-.476.206-.141.0637-.281.1266-.417.1943-.153.0748-.301.1524-.447.2317-.132.0706-.263.1412-.39.2147-.143.0823-.281.1684-.417.2553-.015.0096-.031.0185-.046.0284-.123-3.2367-2.102-5.5528-2.205-5.6722l-.274-.3143-.417-.0179c-.868-.036-2.645.7733-3.562 1.8167-1.06-.3707-2.207-.4278-3.309-.1549-1.483.3672-2.111 1.6312-2.447 2.3106-.055.1097-.099.2097-.146.2885-.093.0499-.196.0904-.304.1182-.408.086-.839-.0032-1.26-.2851l-3.743-2.5004c.13-.2432.255-.4893.401-.7205.064-.1018.134-.2001.201-.2998.176-.2627.364-.5164.56-.763.099-.1235.196-.2467.3-.3663.205-.237.422-.4619.646-.6813.092-.0898.177-.1869.272-.2733.308-.2825.633-.546.97-.7946.125-.0919.257-.1738.387-.2609.242-.1629.488-.3199.742-.4649.144-.0816.29-.1597.437-.2362.27-.139.547-.2656.83-.3837.133-.056.264-.1153.399-.1659.421-.1582.852-.3 1.297-.4102.445-.1102.892-.186 1.339-.2427.144-.0185.288-.0262.431-.0396.305-.0276.609-.0448.913-.0481.166-.002.331-.0009.497.0051.292.0096.583.0335.873.0648.154.0168.31.0273.464.0502.414.0614.824.1429 1.229.2498.124.0332.244.0784.368.115.299.0899.597.1871.889.3008.148.0576.291.121.436.1842.289.1266.573.2634.852.4133.106.0567.213.1111.317.1714.801.4641 1.556 1.0242 2.246 1.6827 1.542 1.4747 2.708 3.3809 3.258 5.6025.001.0018.001.0047.002.0066-.098.0271-.189.0608-.286.0898-.157.0467-.311.0949-.464.1459zm-17.704 14.1182c.016.0102.034.0168.049.026.412.252.836.4842 1.274.6919.154.0739.313.1314.47.1987.285.1224.571.2426.865.346.204.0715.41.1316.617.1933.26.0778.521.1502.786.2115.214.0499.429.0959.646.1352.27.0501.542.0876.817.1207.211.0257.422.0535.635.0688.301.0225.604.0253.909.0269.188.0014.375.0122.564.0055.475-.0178.953-.058 1.432-.1266.158-.0232.315-.0631.473-.0922.29-.0519.581-.097.873-.1691.045-.0112.09-.0304.136-.0428.26-.0675.517-.159.775-.243.241-.0786.482-.1513.722-.2457.072-.0279.146-.0454.218-.0742l.268 1.0811.934 3.7703.7 2.8276-5.673 1.4051c-.974-2.9469-3.974-4.7549-7.034-4.2412l-1.455-5.874-.001.0002zm23.46-42.6109l3.519 14.21c-.312.1083-.617.225-.913.3503l-3.549-14.3269.943-.2334zm-2.828.7003l3.656 14.7614c-.3.1814-.586.3704-.86.5681l-3.738-15.096.942-.2335zm-2.828.7004l3.983 16.079c-.287.3171-.534.6465-.757.9828l-4.168-16.8284.942-.2334zm-18.498 58.6017l-12.606-50.8981 28.277-7.0033 5.135 20.7362.934 3.7703.28 1.131c-.001.0003-.001.0005-.002.0007-.322.0276-.645.0676-.973.1168-.005-.0247-.008-.048-.014-.0725-.612-2.4733-1.881-4.6091-3.56-6.295l-2.555-10.3182-1.006.3492c-.125.0428-.25.0828-.38.115-2.338.5792-4.713-.8525-5.292-3.191-.032-.131-.055-.2625-.076-.3932l-.163-1.0482-11.533 2.8564.346 1.0029c.042.1256.083.2524.116.3834.579 2.3385-.853 4.7128-3.191 5.292-.131.0322-.26.0553-.39.0755l-1.053.1606 2.556 10.3182c-.007.0238-.015.0487-.023.0727-.073.2422-.143.4846-.203.7316-.077.3151-.146.6313-.199.9496-.02.117-.031.2357-.047.3538-.043.3007-.078.6014-.099.9037-.008.1272-.013.2543-.018.3817-.013.2972-.016.5942-.008.8924.002.1323.006.2645.014.3966.017.306.046.6108.084.9166.015.1222.025.2428.043.3653.063.4227.141.8444.246 1.2648.104.4204.231.83.372 1.2333.041.1169.089.2281.132.3434.109.288.226.5714.354.8498.055.1202.114.2388.172.3574.132.2673.274.5284.424.7854.064.1101.127.2205.194.329.16.2575.332.507.509.7533.07.0967.135.1967.207.2909.196.2566.405.5039.619.7469.168.1907.344.3722.521.5523.02.0182.038.0356.055.0533l2.556 10.3182 1.006-.3492c.124-.0428.249-.0828.379-.115 2.339-.5792 4.713.8525 5.292 3.191.033.131.055.2625.077.3932l.162 1.0482 7.754-1.9203c.036.0749.077.148.117.2211.048.0892.097.1771.151.2627.044.0701.093.1371.141.2052.478.6869 1.127 1.2724 1.921 1.735l-17.755 4.3974zm21.078-5.2686c-.104-.019-.208-.0404-.309-.0623-.145-.0322-.289-.0654-.429-.1039-.093-.0259-.182-.055-.272-.0837-.253-.0792-.495-.1695-.724-.2699-.077-.0338-.16-.0644-.234-.101-.105-.0511-.201-.1074-.299-.163-.093-.052-.186-.1049-.273-.1605-.085-.0541-.165-.1113-.244-.1687-.093-.068-.181-.1381-.266-.2113-.062-.0536-.125-.1079-.183-.1636-.1-.0982-.192-.2006-.277-.3056-.031-.0383-.067-.0734-.096-.1133-.11-.1479-.205-.3024-.285-.4627-.02-.041-.033-.0858-.051-.1273-.04-.0912-.072-.1862-.102-.2809.049.026.104.0464.153.0721.17.0871.344.1689.524.2454.101.0431.202.0862.305.1255.195.0748.396.141.602.2041.095.0294.187.0616.285.0885.305.0835.617.1572.941.2152.011.0021.022.0024.034.0045.314.0553.636.0966.964.1262.112.0104.227.014.341.0218.234.0151.47.0267.711.03.133.001.267-.0011.402-.0036.231-.0042.465-.014.701-.0295.137-.0089.273-.0187.412-.0321.253-.0237.509-.058.767-.0958.121-.0181.242-.032.364-.0532.379-.0629.761-.1396 1.147-.2351.385-.0954.759-.206 1.126-.3258.118-.0384.23-.0822.347-.1231.246-.0869.488-.1768.723-.273.129-.053.254-.109.379-.1641.217-.0965.428-.1959.634-.301.121-.0609.24-.1214.357-.1855.212-.1144.414-.2346.615-.3583.097-.06.197-.1168.291-.1781.275-.1802.541-.3662.792-.5602.01-.0075.02-.0141.03-.0216.259-.2022.501-.4131.732-.6293.074-.0693.14-.1408.21-.2113.152-.1515.299-.3041.437-.4601.073-.0842.142-.1693.212-.2546.123-.1517.238-.3052.348-.4604.032-.0459.071-.0886.101-.1352.018.0987.036.1984.042.3018.002.0254.007.0504.008.0751.005.1779-.005.3625-.033.5574l-.001.0052c-.099.6898-.429 1.3978-.961 2.0817-.015.0188-.031.0376-.046.0564-.161.202-.341.4015-.537.5982-.039.0397-.074.0804-.116.1187l-.017.0162c-1.246 1.1871-3.082 2.1899-5.206 2.716-1.798.4452-3.569.4877-5.076.2086zm17.329-3.2433c-1.536.3805-3.08.4817-4.482.3067.383-.5649.676-1.1528.86-1.7525.018-.0004.035-.0037.053-.0041.458-.0155.919-.0566 1.38-.1168.102-.0132.203-.0293.304-.0444.473-.071.946-.1571 1.418-.274.386-.0955.759-.2061 1.126-.3259.118-.0383.231-.0821.348-.1231.245-.0868.487-.1767.722-.273.129-.053.254-.109.38-.164.216-.0966.427-.196.633-.301.121-.061.24-.1215.358-.1855.211-.1145.414-.2347.614-.3583.097-.0601.197-.1169.291-.1781.276-.1803.542-.3663.792-.5602.01-.0076.02-.0141.03-.0216.259-.2022.501-.4132.732-.6294.074-.0693.14-.1407.211-.2112.151-.1516.299-.3041.436-.4602.073-.0842.142-.1693.212-.2546.123-.1516.238-.3052.348-.4604.036-.0508.079-.0985.112-.1488.473 2.521-2.622 5.4864-6.878 6.5404zM183.385 11.4839l-6.872-1.85175L178.914.7249c.441-1.6398-.519-3.32439-2.145-3.76269L139.466-13.0901c-1.626-.4383-3.303.5357-3.745 2.1755l-2.4 8.90721-6.872-1.85175c-.542-.14609-1.101.1786-1.248.72516l-5.334 19.79388c-.148.5466.173 1.1081.715 1.2542l2.945.7936-1.334 4.9485c-.147.5466.173 1.1081.715 1.2542l3.927 1.0582c.542.1461 1.101-.1786 1.248-.7252l1.334-4.9485 39.265 10.5814-1.333 4.9485c-.147.5466.173 1.1082.715 1.2542l3.926 1.0582c.543.1461 1.102-.1786 1.249-.7252l1.333-4.9484 2.945.7936c.542.146 1.101-.1786 1.249-.7252l5.334-19.7939c.147-.5465-.173-1.1081-.715-1.2542zM165.437-3.96828l10.798 2.90988c.542.146091.863.707671.715 1.25423l-3.939 14.61677c-3.606-2.0121-7.65-3.102-11.779-3.1744l4.205-15.60648zM160.682 13.676c4.144-.0362 8.216 1.061 11.78 3.1744l-1.113 4.129-11.779-3.1744 1.112-4.129zm-8.988-21.34777l11.78 3.17442-4.206 15.60645c-3.606-2.01214-7.65-3.10202-11.78-3.17439l4.206-15.60648zm-4.755 17.64426c4.144-.03618 8.216 1.06101 11.78 3.17441l-1.113 4.129-11.779-3.1744 1.112-4.12901zm-9.255-20.35809c.148-.5465.707-.8712 1.249-.7251l10.798 2.90986-4.206 15.60648c-3.606-2.01217-7.651-3.10205-11.78-3.17442l3.939-14.61682zM133.196 6.269c4.144-.03618 8.215 1.06098 11.78 3.17442l-1.113 4.12898-11.779-3.1744 1.112-4.129zm-6.81 17.4557l-1.963-.5291 1.067-3.9588 1.963.5291-1.067 3.9588zm45.156 12.1686l-1.963-.5291 1.067-3.9588 1.963.5291-1.067 3.9588zm5.527-4.8801l-54.972-14.8139 4.8-17.81451 5.89 1.5872061L129.854 10.8586c-.148.5466.172 1.1082.715 1.2543l41.229 11.1104c.542.1461 1.101-.1786 1.248-.7251l2.934-10.8867 5.89 1.5872-4.801 17.8145zM419 57h-2v-4c0-.5523-.448-1-1-1h-14c-.552 0-1 .4477-1 1v5c0 .5522.448 1 1 1h2v3h-1c-.552 0-1 .4478-1 1v4c-.552 0-1 .4478-1 1v15c0 .5522.448 1 1 1h14c.552 0 1-.4478 1-1V69c.552 0 1-.4478 1-1v-4h1c.552 0 1-.4478 1-1v-5c0-.5522-.448-1-1-1zm-16 0v-3h12v3h-12zm12 25h-12v-3h12v3zm0-5h-12v-3h12v3zm0-5h-12v-3h12v3zm1-5h-12v-3h12v3zm2-5h-12v-3h12v3zM439 62h-14c-.552 0-1 .4477-1 1v4h-2c-.552 0-1 .4478-1 1v5c0 .5522.448 1 1 1h1v9c0 .5522.448 1 1 1h14c.552 0 1-.4478 1-1V73c0-.5522-.448-1-1-1h-1v-3h2c.552 0 1-.4478 1-1v-5c0-.5523-.448-1-1-1zm-16 10v-3h12v3h-12zm14 10h-12v-3h12v3zm0-5h-12v-3h12v3zm1-10h-12v-3h12v3zM460 64c.552 0 1-.4478 1-1v-5c0-.5522-.448-1-1-1h-1v-4c0-.5523-.448-1-1-1h-14c-.552 0-1 .4477-1 1v5c0 .5522.448 1 1 1h1v3h-1c-.552 0-1 .4478-1 1v5c0 .5522.448 1 1 1h1v14c0 .5522.448 1 1 1h14c.552 0 1-.4478 1-1V68c0-.5522-.448-1-1-1h-1v-3h1zm-15-10h12v3h-12v-3zm0 13v-3h12v3h-12zm14 15h-12v-3h12v3zm0-5h-12v-3h12v3zm0-5h-12v-3h12v3zm-12-10v-3h12v3h-12zM405 26v-2h-2v2h-2v2h2v2h2v-2h2v-2h-2zM453 43v-2h-2v2h-2v2h2v2h2v-2h2v-2h-2zM412 42v-2h-2v2h-2v2h2v2h2v-2h2v-2h-2zM458 26v-2h-2v2h-2v2h2v2h2v-2h2v-2h-2zM441.904 38.9916c-1.198-2.6111-3.292-4.7057-5.903-5.9036V30h-2v3.75c-.001.4123.252.7824.637.932 5.144 2.0084 7.687 7.8071 5.678 12.9519-2.008 5.1447-7.807 7.6872-12.951 5.6788-5.145-2.0083-7.688-7.8071-5.679-12.9518.943-2.4155 2.787-4.3703 5.144-5.4519.175-.081.354-.157.534-.227.384-.1496.637-.5197.637-.932V28h-2v5.088h-.007c-6.024 2.7634-8.667 9.8867-5.904 15.9106 2.763 6.0239 9.887 8.667 15.911 5.9037 6.023-2.7634 8.667-9.8869 5.903-15.9107z" fill="#61A580"/><path d="M432 27h-2v5h2v-5zM433.871 45.2946c-.23-.7411-.754-1.3558-1.449-1.7016l-1.949-.975c-.422-.2108-.593-.7236-.382-1.1456.144-.2893.44-.4721.763-.4724h.292c.471.0005.854.3826.854.854V42h2v-.146c-.005-1.2425-.814-2.3387-2-2.709V38h-2v1.145c-1.5.4665-2.337 2.0605-1.871 3.5604.231.7411.754 1.3558 1.449 1.7016l1.949.975c.422.2108.593.7236.382 1.1456-.144.2893-.44.4722-.763.4724h-.292c-.471-.0005-.853-.3826-.854-.854V46h-2v.146c.005 1.2425.814 2.3387 2 2.709V50h2v-1.145c1.5-.4665 2.338-2.0605 1.871-3.5604zM436 26h-2v2h2v-2zM428 24h-2v2h2v-2zM438 43h-2v2h2v-2zM426 43h-2v2h2v-2zM24.6727 26.4833c-2.0186 0-3.6551 1.6308-3.6551 3.6424 0 2.0117 1.6365 3.6424 3.6551 3.6424 2.0187 0 3.6552-1.6307 3.6552-3.6424 0-2.0116-1.6365-3.6424-3.6552-3.6424zm0 5.4636c-1.0094 0-1.8275-.8153-1.8275-1.8212s.8181-1.8212 1.8275-1.8212c1.0094 0 1.8276.8153 1.8276 1.8212s-.8182 1.8212-1.8276 1.8212zM35.6376 37.4105c-2.0187 0-3.6552 1.6308-3.6552 3.6425 0 2.0116 1.6365 3.6424 3.6552 3.6424s3.6552-1.6308 3.6552-3.6424c0-2.0117-1.6365-3.6425-3.6552-3.6425zm0 5.4637c-1.0094 0-1.8276-.8154-1.8276-1.8212 0-1.0059.8182-1.8213 1.8276-1.8213 1.0094 0 1.8276.8154 1.8276 1.8213 0 1.0058-.8182 1.8212-1.8276 1.8212zM36.8196 27.6607L22.1992 42.2301l1.2923 1.2878 14.6203-14.5694-1.2922-1.2878z" fill="#61A580"/><path d="M51.7462 25.1629l-6.2394-4.1433h.1828v-6.3743c0-.5028-.4092-.9106-.9138-.9106h-4.569c-.5046 0-.9138.4078-.9138.9106V16.89l-8.6307-5.7368c-.3071-.2043-.7073-.2043-1.0143 0L8.56405 25.1629c-1.29347.8592-1.64311 2.6007-.78083 3.8896.86228 1.289 2.60978 1.6374 3.90328.7781l2.9342-1.9487V45.606h-1.8276c0-.5029-.4092-.9106-.9138-.9106H4.56896c-.50464 0-.91379.4077-.91379.9106H0v1.8212h3.65517v9.1061H0v1.8212h3.65517c0 .5029.40915.9107.91379.9107h7.31034c.5046 0 .9138-.4078.9138-.9107v-.3469l6.8223 2.8229c3.7192 1.5137 7.877 1.5596 11.629.1284l14.1162-5.3644c.8362-.3167 1.5093-.9558 1.8669-1.773.3693-.8286.3884-1.7705.053-2.6134-.2988-.7536-.8649-1.3716-1.5909-1.7365V27.8819l2.9342 1.9487c1.2934.8593 3.0409.5109 3.9032-.7781.8623-1.2889.5127-3.0305-.7808-3.8896zm-40.7807 32.281H5.48275V46.5166h5.48275v10.9273zm30.1551-41.888h2.7414v4.371l-2.7414-1.8213v-2.5497zm4.431 37.5317c-.1614.3717-.4665.663-.8462.8077l-14.1162 5.3635c-3.317 1.2662-6.9932 1.2268-10.282-.1102l-7.5141-3.1134v-8.608h2.3164c3.0299.0036 6.0178.7065 8.7295 2.0535.8954.4454 1.8823.6776 2.883.6784h7.0883c.7569.0049 1.3667.6203 1.3618 1.3746-.0041.6319-.4426 1.1786-1.0603 1.3217-.1197.0109-.2366.0355-.3582.0355H22.8448v1.8212H33.8103c.0183 0 .0356-.0054.0548-.0054.7252-.0117 1.4414-.1629 2.109-.4453l7.6403-3.2318c.3639-.1548.7755-.1548 1.1395 0 .3785.1593.6755.4653.8224.8478.1552.3903.1463.8265-.0247 1.2102zm-11.7413-4.7497H26.722c-.7171-.0011-1.4242-.1676-2.0661-.4863-2.5612-1.2714-5.3519-2.0195-8.2077-2.2V26.6654l13.7069-9.1061 13.7069 9.1061V49.121c-.3306.0278-.6551.1054-.9622.2304l-5.925 2.5069c.0172-.1104.0285-.2216.0338-.3333 0-1.7602-1.432-3.1871-3.1983-3.1871zm16.3743-19.8558c-.1948 0-.3852-.0573-.5474-.1649L30.6623 15.7089c-.3071-.2042-.7073-.2042-1.0143 0L10.6731 28.3154c-.4542.3013-1.06732.1786-1.36967-.274-.10795-.1616-.16551-.3514-.16551-.5456-.00057-.3293.16448-.637.43953-.8195L30.1551 13.0062l20.5777 13.6719c.275.1826.4401.4903.4395.8196.0001.5436-.4421.9843-.9877.9844z" fill="#61A580"/><path d="M9.13813 53.8014H7.31055v1.8212h1.82758v-1.8212zM305.353 44.7459l-7.306-1.3992 1.399-7.3011c.386-2.0161-.937-3.9638-2.954-4.3501l-32.874-6.2963c-2.017-.3864-3.966.9348-4.352 2.9509l-8.39 43.8067-2.74-.5247c-.504-.0966-.991.2337-1.088.7377l-.349 1.8253c-.386 2.0162.936 3.9638 2.953 4.3502l31.048 5.9464c2.017.3864 3.966-.9348 4.352-2.9509l1.923-10.039 7.305 1.3991c2.017.3864 3.966-.9348 4.352-2.9509l1.573-8.2138 4.566.8745c.504.0966.991-.2337 1.088-.7377l2.447-12.777c.386-2.0161-.936-3.9638-2.953-4.3501zM250.002 76.72c-1.009-.1932-1.67-1.167-1.477-2.1751l.175-.9126 29.221 5.5967-.174.9126c-.124.6408-.076 1.3032.14 1.9192L250.002 76.72zm42.138-42.0736l-8.914 46.5446c-.193 1.0081-1.168 1.6687-2.176 1.4755-1.009-.1932-1.67-1.167-1.477-2.1751l.35-1.8253c.096-.504-.234-.9909-.739-1.0875l-26.482-5.072 8.39-43.8067c.193-1.0081 1.168-1.6686 2.176-1.4754l29.73 5.6939c-.435.4895-.731 1.086-.858 1.728zm-4.816 35.0301l6.643-34.6803c.193-1.0081 1.167-1.6687 2.175-1.4755 1.009.1932 1.67 1.167 1.477 2.1751l-6.292 32.855c-.12.6434-.065 1.3071.158 1.9225l-4.161-.7968zm13.677-21.9797l-4.195 21.9034c-.193 1.0081-1.168 1.6686-2.176 1.4755-1.009-.1932-1.67-1.167-1.477-2.1751l4.545-23.7286 4.16.7968c-.434.4896-.73 1.086-.857 1.728zm3.206 12.9137l-3.652-.6996 2.272-11.8643c.193-1.0081 1.167-1.6686 2.176-1.4754 1.009.1931 1.67 1.1669 1.477 2.175l-2.273 11.8643z" fill="#61A580"/><path d="M281.728 54.4129l-21.003-4.0226-.35 1.8252 21.003 4.0227.35-1.8253zM286.079 51.4618l-19.177-3.6729-.349 1.8253 19.176 3.6728.35-1.8252zM277.614 40.6581c-.081-.7167-.452-1.3693-1.026-1.8064l-1.609-1.2307c-.349-.2662-.416-.7642-.149-1.1124.182-.2387.484-.354.779-.2976l.267.051c.43.0829.712.4985.63.9288l-.025.1332 1.826.3498.026-.1332c.213-1.1348-.335-2.2768-1.353-2.8221l.2-1.045-1.826-.3498-.2 1.045c-1.452.1634-2.495 1.4716-2.331 2.9221.081.7167.451 1.3693 1.026 1.8064l1.609 1.2307c.348.2661.415.7641.149 1.1124-.183.2387-.485.3539-.78.2976l-.267-.0511c-.43-.0829-.712-.4985-.63-.9288l.025-.1332-1.826-.3498-.025.1332c-.213 1.1348.334 2.2768 1.352 2.8222l-.2 1.0449 1.827.3498.2-1.0449c1.451-.1635 2.494-1.4717 2.331-2.9221zM265.076 47.4393l-1.826-.3498-.35 1.8253 1.827.3497.349-1.8252zM280.153 62.6267l-21.003-4.0226-.349 1.8253 21.003 4.0226.349-1.8253zM284.505 59.6756l-19.177-3.6728-.349 1.8253 19.176 3.6728.35-1.8253zM263.504 55.653l-1.826-.3498-.35 1.8253 1.826.3498.35-1.8253zM278.581 70.8404l-21.003-4.0227-.349 1.8253 21.002 4.0226.35-1.8252zM282.932 67.8894l-19.176-3.6728-.35 1.8252 19.177 3.6729.349-1.8253zM261.93 63.8668l-1.826-.3498-.35 1.8252 1.826.3498.35-1.8252z" fill="#61A580"/></svg>