<svg xmlns="http://www.w3.org/2000/svg" viewBox="0 0 116 112.9"><circle cx="58" cy="65" r="48" fill="#f4f4f4"/><path d="M110 57.9s0 .1 0 0V83c1.1 0 2 .9 2 2v7h-6v-7c0-1.1.9-2 2-2V57.9c-3.8-.5-6.5-4-6-7.8.4-3.1 2.8-5.5 5.9-6V43c0-.6.4-1 1-1s1 .4 1 1v1.1c3.8.5 6.5 4.1 5.9 7.9-.3 3.1-2.7 5.5-5.8 5.9zM108 86v4h2v-4c0-.6-.4-1-1-1s-1 .4-1 1zm1-40c-2.8 0-5 2.2-5 5s2.2 5 5 5 5-2.2 5-5-2.2-5-5-5zm1.6 7.6c.3-.5.4-1 .4-1.6 0-1.7-1.3-3-3-3-.5 0-1.1.2-1.6.4.9-1.4 2.7-1.9 4.1-1s1.9 2.7 1 4.1c-.2.5-.5.8-.9 1.1zM105 20c0-2.8-2.2-5-5-5 2.8 0 5-2.2 5-5 0 2.8 2.2 5 5 5-2.8 0-5 2.2-5 5zm0-6c-.6 0-1 .4-1 1s.4 1 1 1 1-.4 1-1-.4-1-1-1zM89 62c.6 0 1 .4 1 1v21c0 .6-.4 1-1 1H79c-.6 0-1-.4-1-1V63c0-.6.4-1 1-1h10zm-9 20c0 .6.4 1 1 1h6c.6 0 1-.4 1-1V65c0-.6-.4-1-1-1h-6c-.6 0-1 .4-1 1v17zm7-16h-6v-1h6v1zm0 2h-6v-1h6v1zm0 2h-6v-1h6v1zm0 2h-6v-1h6v1zm0 2h-6v-1h6v1zm0 2h-6v-1h6v1zm-50 9H27c-.6 0-1-.4-1-1V63c0-.6.4-1 1-1h10c.6 0 1 .4 1 1v21c0 .6-.4 1-1 1zm-1-20c0-.6-.4-1-1-1h-6c-.6 0-1 .4-1 1v17c0 .6.4 1 1 1h6c.6 0 1-.4 1-1V65zm-7 10h6v1h-6v-1zm0-2h6v1h-6v-1zm0-2h6v1h-6v-1zm0-2h6v1h-6v-1zm0-2h6v1h-6v-1zm0-2h6v1h-6v-1zm65 27H78v5c0 1.1-.9 2-2 2H40c-1.1 0-2-.9-2-2V86c0-1.1.9-2 2-2h4V70h-2c-.6 0-1-.4-1-1v-6c0-.6.4-1 1-1h32c.6 0 1 .4 1 1v6c0 .6-.4 1-1 1h-2v14h4c1.1 0 2 .9 2 2v4h15c.6 0 1-.4 1-1V57H22v32c0 .6.4 1 1 1h15v2H22c-1.1 0-2-.9-2-2V42c0-1.1.9-2 2-2h72c1.1 0 2 .9 2 2v48c0 1.1-.9 2-2 2zM72 68c.6 0 1-.4 1-1v-2c0-.6-.4-1-1-1H44c-.6 0-1 .4-1 1v2c0 .6.4 1 1 1h28zm-22 4h16c.6 0 1 .4 1 1v11h3V70H46v14h3V73c0-.6.4-1 1-1zm4.5 9h1c.3 0 .5.2.5.5V84h1v-9c0-.6-.4-1-1-1h-4c-.6 0-1 .4-1 1v9h4v-2h-.5c-.3 0-.5-.2-.5-.5s.2-.5.5-.5zm6 0h1c.3 0 .5.2.5.5s-.2.5-.5.5H61v2h4v-9c0-.6-.4-1-1-1h-4c-.6 0-1 .4-1 1v9h1v-2.5c0-.3.2-.5.5-.5zM76 87c0-.6-.4-1-1-1H41c-.6 0-1 .4-1 1v9c0 .6.4 1 1 1h34c.6 0 1-.4 1-1v-9zm18-44c0-.6-.4-1-1-1H23c-.6 0-1 .4-1 1v12h72V43zm-59.6 2c1 0 1.5.8 1.5 2v4c0 1.2-.5 2-1.5 2s-1.4-.8-1.4-2v-4c0-1.2.5-2 1.4-2zm-.7 6.1c0 .7.2 1.1.7 1.1s.7-.4.7-1.1v-4.2c0-.7-.2-1.1-.7-1.1s-.7.4-.7 1.1v4.2zm5.2-5.1h.4v-.9h.7v.9h.4c1 0 1.5.7 1.5 2v2.1c0 1.2-.5 2-1.5 2H40v.9h-.7v-.9h-.4c-1 0-1.5-.7-1.5-2V48c0-1.3.5-2 1.5-2zm1.1 5.3h.4c.5 0 .8-.4.8-1.1v-2.3c0-.8-.2-1.1-.8-1.1H40v4.5zm-1.9-1.1c0 .8.2 1.1.8 1.1h.4v-4.5h-.4c-.5 0-.8.4-.8 1.1v2.3zm6 .7l.6-2.5.9-3.4h.8v7.9h-.6v-6.3l-.7 2.6-.9 3.6h-.7v-7.9h.6v6zm5.4-5.9c1 0 1.4.8 1.4 2v.7h-.7v-.8c0-.7-.2-1.1-.7-1.1s-.7.4-.7 1.1v4.2c0 .7.2 1.1.7 1.1s.7-.4.7-1.1v-1h.7v1c0 1.2-.5 2-1.4 2S48 52.2 48 51v-4c0-1.2.5-2 1.5-2zm8.2 7.9H57v-7.1h-1.6v7.1h-.7V45h3v7.9zm4.4-5.9v.9c0 1.2-.5 1.9-1.5 1.9H60v3.1h-.7V45h1.4c1 .1 1.4.8 1.4 2zM60 49h.6c.5 0 .8-.3.8-1.1v-1c0-.7-.2-1.1-.7-1.1H60V49zm4.9-4c1 0 1.5.8 1.5 2v4c0 1.2-.5 2-1.5 2s-1.4-.8-1.4-2v-4c0-1.2.5-2 1.4-2zm-.7 6.1c0 .7.2 1.1.7 1.1s.7-.4.7-1.1v-4.2c0-.7-.2-1.1-.7-1.1s-.7.4-.7 1.1v4.2zm4.3-.1l.2-5.9h2.5v7.1h.5V54H71v-1.1h-2.6V54h-.7v-1.9h.4c.3-.3.4-.7.4-1.1zm2.1 1.2v-6.3h-1.2l-.2 5.1c0 .4-.1.8-.3 1.2h1.7zm4.7-7.1l1.2 7.9h-.7l-.2-1.6H74l-.2 1.6h-.6l1.2-7.9h.9zm.2 5.5l-.7-4.5-.7 4.5h1.4zm2.3-5.5h.7l1.5 3.6v-3.6h.7v3.6l1.5-3.6h.7l-1.4 3.3 1.4 4.5h-.7L81 49.2l-.3.8v3H80v-3l-.3-.8-1.2 3.7h-.7l1.4-4.5-1.4-3.3zM72.5 95c-.8 0-1.5-.6-1.5-1.5v-3.9c-.1-.8.4-1.6 1.2-1.7s1.6.4 1.7 1.2v4.1c.1.8-.4 1.6-1.2 1.7 0 .1-.1.1-.2.1zm.8-5.3c.1-.4-.1-.9-.6-1-.4-.1-.9.1-1 .6v4c-.1.4.1.9.6 1 .4.1.9-.1 1-.6v-4zM68.4 95h-.7v-6.2h-1.2v-.7h3.1v.7h-1.2V95zm-4.2-6.9h.7V95h-.7v-6.9zm-2 6.9h-1.4v-6.9h.7v2.7h.6c.8-.1 1.5.5 1.5 1.3v1.2c.2.8-.3 1.5-1.1 1.7-.1-.1-.2 0-.3 0zm.7-2.6c.1-.4-.1-.8-.5-.9h-.9v2.8h.7c.5 0 .7-.3.7-.9v-1zm-5.2-.2H57v2.7h-.7V88h1.4c.8 0 1.4.5 1.5 1.3v1.2c.1.8-.3 1.5-1.1 1.6-.2.1-.3.1-.4.1zm.8-2.5c0-.6-.2-.9-.7-.9H57v2.8h.6c.4 0 .8-.3.8-.7v-1.2zM54 94.9l-1.4-3-.4.7V95h-.7v-6.9h.7v3.3l1.7-3.3h.7L53 91.2l1.7 3.8-.7-.1zm-5-1.3h-1.6l-.2 1.4h-.7l1.2-6.9h1l1.2 6.9h-.7l-.2-1.4zm-.9-4.7l-.7 4h1.4l-.7-4zM43.4 95c-.8 0-1.5-.6-1.5-1.4v-1h.7v.7c-.1.4.2.9.6 1h.2c.5 0 .8-.4.8-1.1v-.5c.1-.5-.2-.9-.6-1h-.5V91h.3c.4 0 .8-.4.8-.8v-.4c0-.7-.2-1.1-.8-1.1-.4 0-.8.4-.8.8v.7H42v-.4c0-1.1.5-1.7 1.4-1.7.8 0 1.5.6 1.5 1.4v.5c.1.6-.2 1.2-.8 1.4.6.2.9.8.8 1.4v.5c.2.8-.4 1.6-1.2 1.7h-.3zm1.1-30h27c.3 0 .5.2.5.5s-.2.5-.5.5h-27c-.3 0-.5-.2-.5-.5s.2-.5.5-.5zm29.3-35.1c-5 0-9.6-2.9-11.8-7.4 6.5 3.2 14.4.5 17.6-6 1.8-3.6 1.8-7.9 0-11.5 6.5 3.2 9.3 11 6.1 17.6-2.3 4.4-6.9 7.3-11.9 7.3zm9.1-19.6v.3c0 8.4-6.8 15.2-15.2 15.2h-.3c5 3.5 12 2.3 15.5-2.7 2.7-3.8 2.7-9 0-12.8zM57 10c0-2.8-2.2-5-5-5 2.8 0 5-2.2 5-5 0 2.8 2.2 5 5 5-2.8 0-5 2.2-5 5zm0-6c-.6 0-1 .4-1 1s.4 1 1 1 1-.4 1-1-.4-1-1-1zM33 30c0-2.8-2.2-5-5-5 2.8 0 5-2.2 5-5 0 2.8 2.2 5 5 5-2.8 0-5 2.2-5 5zm0-6c-.6 0-1 .4-1 1s.4 1 1 1 1-.4 1-1-.4-1-1-1zM8 57.9s0 .1 0 0V83c1.1 0 2 .9 2 2v7H4v-7c0-1.1.9-2 2-2V57.9c-3.8-.5-6.5-4-6-7.8.4-3.1 2.8-5.5 5.9-6V43c0-.6.4-1 1-1s1 .4 1 1v1.1c3.8.5 6.5 4.1 5.9 7.9-.3 3.1-2.7 5.5-5.8 5.9zM6 86v4h2v-4c0-.6-.4-1-1-1s-1 .4-1 1zm1-40c-2.8 0-5 2.2-5 5s2.2 5 5 5 5-2.2 5-5-2.2-5-5-5zm1.6 7.6c.2-.5.4-1.1.4-1.6 0-1.7-1.3-3-3-3-.5 0-1.1.2-1.6.4.9-1.4 2.7-1.9 4.1-1s1.9 2.7 1 4.1c-.2.5-.5.8-.9 1.1zM9 20c0-2.8-2.2-5-5-5 2.8 0 5-2.2 5-5 0 2.8 2.2 5 5 5-2.8 0-5 2.2-5 5zm0-6c-.6 0-1 .4-1 1s.4 1 1 1 1-.4 1-1-.4-1-1-1z" fill="#252955"/></svg>