<svg width="116" height="116" fill="none" xmlns="http://www.w3.org/2000/svg"><g clip-path="url(#clip0)" fill="#94A5B9"><path d="M21.971 38.336c5.454 0 9.89-4.437 9.89-9.89 0-5.454-4.436-9.89-9.89-9.89-5.453 0-9.89 4.436-9.89 9.89 0 5.453 4.437 9.89 9.89 9.89zm0-16.086a6.203 6.203 0 0 1 6.196 6.196 6.203 6.203 0 0 1-6.196 6.195 6.202 6.202 0 0 1-6.195-6.195 6.203 6.203 0 0 1 6.195-6.196z"/><path d="M28.57 56.892a28.405 28.405 0 0 0 26.54-18.195h18.427l7.4 7.4a1.847 1.847 0 0 0 2.612 0l6.635-6.635 6.635 6.635a1.848 1.848 0 0 0 2.63-.018l15.904-16.346a1.847 1.847 0 0 0 .012-2.565l-8.033-8.402a1.846 1.846 0 0 0-1.335-.57l-50.525-.001a29.96 29.96 0 0 0-10.059-12.71C40.463 1.897 34.639 0 28.569 0 12.884 0 .123 12.76.123 28.446c0 15.685 12.761 28.446 28.446 28.446zm0-53.198c10.533 0 20.144 6.828 23.914 16.99.269.725.96 1.205 1.732 1.205h50.992l6.256 6.544L98.108 42.16l-6.618-6.617a1.847 1.847 0 0 0-2.612 0l-6.635 6.635-6.635-6.635a1.847 1.847 0 0 0-1.306-.54h-20.49c-.795 0-1.502.508-1.752 1.263a24.72 24.72 0 0 1-23.49 16.931c-13.649 0-24.752-11.103-24.752-24.751 0-13.648 11.103-24.752 24.751-24.752z"/><path d="M55.168 30.292h48.195a1.847 1.847 0 0 0 0-3.694H55.168a1.847 1.847 0 0 0 0 3.694zM1.97 76.594h34.788c1.02 0 1.847-.826 1.847-1.847v-9.851c0-1.02-.827-1.847-1.847-1.847H1.97c-1.02 0-1.847.827-1.847 1.847v9.851c0 1.02.827 1.847 1.847 1.847zm1.848-9.85H34.91V72.9H3.818v-6.157zM114.03 63.049H91.557c-1.02 0-1.847.827-1.847 1.847v9.851c0 1.02.827 1.847 1.847 1.847h22.473c1.02 0 1.847-.826 1.847-1.847v-9.851c0-1.02-.827-1.847-1.847-1.847zm-1.847 9.851h-18.78v-6.157h18.78V72.9zM86.015 74.747v-9.851c0-1.02-.827-1.847-1.847-1.847H44.147c-1.02 0-1.847.827-1.847 1.847v9.851c0 1.02.827 1.847 1.847 1.847h40.02c1.021 0 1.848-.826 1.848-1.847zM82.321 72.9H45.994v-6.157H82.32V72.9zM1.97 96.298h22.474c1.02 0 1.847-.827 1.847-1.847v-9.852c0-1.02-.827-1.847-1.847-1.847H1.97c-1.02 0-1.847.827-1.847 1.847v9.852c0 1.02.827 1.847 1.847 1.847zm1.848-9.852h18.779v6.157H3.817v-6.157zM114.03 82.752H69.39c-1.02 0-1.846.827-1.846 1.847v9.852c0 1.02.827 1.847 1.847 1.847h44.639c1.02 0 1.847-.827 1.847-1.847v-9.852c0-1.02-.827-1.847-1.847-1.847zm-1.847 9.851H71.238v-6.157h40.945v6.157zM31.832 82.752c-1.02 0-1.847.827-1.847 1.847v9.852c0 1.02.827 1.847 1.848 1.847h30.17c1.02 0 1.846-.827 1.846-1.847v-9.852c0-1.02-.826-1.847-1.847-1.847h-30.17zm28.323 9.851H33.68v-6.157h26.475v6.157zM44.147 102.454H1.97c-1.02 0-1.847.827-1.847 1.847v9.852c0 1.02.827 1.847 1.847 1.847h42.177c1.02 0 1.847-.827 1.847-1.847v-9.852c0-1.02-.827-1.847-1.847-1.847zm-1.847 9.851H3.818v-6.157H42.3v6.157zM114.03 102.454H79.242c-1.02 0-1.847.827-1.847 1.847v9.852c0 1.02.827 1.847 1.847 1.847h34.788c1.02 0 1.847-.827 1.847-1.847v-9.852c0-1.02-.827-1.847-1.847-1.847zm-1.847 9.851H81.089v-6.157h31.094v6.157zM71.854 102.454H51.535c-1.02 0-1.847.827-1.847 1.847v9.852c0 1.02.827 1.847 1.847 1.847h20.319c1.02 0 1.847-.827 1.847-1.847v-9.852c0-1.02-.827-1.847-1.847-1.847zm-1.847 9.851H53.382v-6.157h16.625v6.157z"/></g><defs><clipPath id="clip0"><path fill="#fff" d="M0 0h116v116H0z"/></clipPath></defs></svg>