<svg width="75" height="75" fill="none" xmlns="http://www.w3.org/2000/svg"><ellipse cx="37.409" cy="37.044" rx="37.188" ry="37.044" fill="#FF9D43"/><path d="M21.114 19.7465l-1.4447-1.3378.6293-.6743 3.8958 3.6071-1.3854 1.4846c-.4045.4335-.8393.6728-1.3039.7177-.4647.0449-.8837-.1053-1.2569-.4508-.3822-.3539-.5631-.754-.5427-1.2005.0205-.4463.2404-.8943.6599-1.3439l.7486-.8021zm.546.5055l-.7561.8103c-.2238.2398-.338.4753-.3425.7063-.0045.2311.1004.4457.3144.6439.2105.195.4382.2865.6835.2751.2452-.0114.474-.1275.6864-.3481l.7734-.8289L21.66 20.252zM16.1146 22.7337c.3057-.4703.7022-.7558 1.1895-.8563.4875-.1004.9784.0087 1.4732.3277l.0921.0593c.3312.2136.5857.468.7638.7633.1781.2953.2648.6048.2604.9286-.0044.3237-.0986.6271-.2825.9102-.2925.4499-.6625.7048-1.1103.7644-.4477.0595-.9353-.0806-1.4628-.4208l-.3006-.1938 1.4033-2.1598c-.2884-.1542-.5644-.2029-.8278-.1458-.2633.057-.4738.2067-.6312.4491-.221.34-.263.706-.1259 1.0979l-.6434.153c-.1122-.2603-.1514-.5361-.1172-.8277.0344-.2912.1408-.5744.3194-.8493zm2.9005 1.7442c.1323-.2037.1675-.4141.1059-.6318-.0619-.2174-.2092-.4259-.4423-.6253l-.919 1.4145.0552.0356c.26.1446.4916.1999.6947.1663.2034-.0338.3718-.1536.5055-.3593zM17.5788 28.6545l-.3497.8088-3.6303-1.5574.3498-.8088 2.4223 1.0392-1.8096-2.4564.3496-.8088 3.6302 1.5574-.3497.8088-2.4225-1.0392 1.8099 2.4564zm1.2276.9782c-.2818-.1209-.4677-.3168-.5573-.5877-.0896-.271-.0637-.5702.0778-.8976.1415-.3274.342-.552.6014-.6731.2592-.1212.5298-.1214.8115-.0005l-.2631.6083c-.1454-.0624-.2766-.069-.3931-.02-.1168.049-.2067.147-.2702.2941-.0635.1471-.073.2791-.0281.396.0449.1169.14.2067.2854.2691l-.2643.6114zM15.6702 32.724l.3105-1.2393-3.1508-.7833.215-.858 3.1508.7835.3071-1.225.684.17-.8325 3.3224-.6841-.1703zM16.1358 35.4403l-.0735.8775-3.9389-.3274.0735-.8775 2.6285.2184-2.4997-1.756.0735-.8775 3.9389.3274-.0735.8775-2.6283-.2184 2.4995 1.756zM12.4135 40.3971l-.0772-.8809 1.5904-.1381-.1336-1.5263-1.5904.1382-.0772-.8808 3.9378-.3421.0771.8809-1.6413.1426.1337 1.5262 1.6413-.1426.0771.8809-3.9377.342zM16.3908 43.2402l-.4029-1.6625-3.1462.7563-.2075-.856 3.8424-.9238.6101 2.5186-.6959.1674zM15.6005 49.3889l-.3963-.7911 2.896-1.4397-.6885-1.374-2.896 1.4396-.3963-.7911 3.5365-1.7583 1.4812 2.9565-3.5366 1.7581zM17.6959 49.0004c.3117-.2288.6381-.3736.9791-.434.341-.0605.661-.0288.9599.0952.2989.124.5555.3306.7693.6195.3165.4277.4351.8763.3559 1.3458-.0791.4695-.3393.8827-.78 1.2394l-.1655.1261c-.3137.2303-.6384.3761-.9742.4375-.3358.0611-.6542.0298-.955-.0946-.3007-.1242-.5594-.3328-.7761-.6256-.331-.4472-.4462-.9147-.3459-1.4029.1002-.4879.3993-.9147.8972-1.2804l.0353-.026zm.465.7572c-.3275.2405-.5338.496-.6195.7668-.0856.2708-.0394.5263.1384.7664.1777.2402.4101.3581.6974.3538.2871-.0045.612-.1398.9748-.4061.3215-.2362.5253-.492.6118-.7679.0863-.2759.042-.532-.1329-.7683-.172-.2324-.4011-.3488-.6874-.3494-.2867-.0009-.6142.1341-.9826.4047zM22.6981 54.8022c-.4238.4387-.862.6931-1.3144.7627-.4525.0695-.8472-.0572-1.1842-.3799-.3124-.2995-.4639-.6414-.4541-1.0258l-1.2991 1.3452-.6397-.6129 3.7937-3.9286.5897.5652-.2522.3137c.4074-.0472.7725.0838 1.0953.3933.3475.3331.4955.7229.4439 1.1701-.0517.4469-.2986.8997-.741 1.3576l-.0379.0394zm-.5839-.6657c.2735-.2832.4338-.5621.4812-.8367.0472-.2746-.0346-.5127-.2453-.7144-.2615-.2508-.5531-.3231-.8748-.2175l-1.2156 1.2588c-.097.3314-.0138.6232.2495.8755.2037.195.4418.2658.7146.2126.2726-.0533.5696-.2461.8904-.5783zM26.351 55.7702l-1.048-.7356-1.8707 2.6443-.7256-.5093 1.8706-2.6444-1.0361-.7274.4061-.5742 2.8099 1.9725-.4062.5741zM27.1786 59.7912c-.0015-.0846.0226-.2095.0722-.3746-.3841.1381-.7593.1166-1.1259-.0642-.3558-.1757-.5957-.42-.7199-.7332-.1243-.3132-.1122-.6184.0359-.9163.1871-.3761.4709-.5954.8512-.6582.3804-.0626.8313.0348 1.353.2923l.4878.2407.1151-.2314c.0907-.1826.1122-.354.0643-.5144-.0479-.1603-.1767-.2924-.3862-.3958-.1811-.0894-.352-.1176-.5124-.0844-.1606.0331-.2755.1194-.3446.2585l-.7954-.3927c.0963-.1934.2505-.3426.4632-.4475.2125-.105.4534-.1505.7224-.1368.269.0136.5399.0878.8128.2225.4146.2045.6934.4716.8369.8009.1433.3294.1247.6836-.0559 1.0628l-.7915 1.5912c-.1579.3173-.2391.5926-.2437.8259l-.0276.0555-.8117-.4008zm-.5902-1.0019c.1571.0775.3239.1124.5003.1048.1764-.0078.3313-.0584.465-.1522l.3308-.6652-.4287-.2117c-.2946-.1454-.5415-.2035-.7409-.1747-.1993.0288-.3453.1368-.4382.3238-.0757.1522-.0853.2984-.0286.4385.0567.1404.1701.2526.3403.3367zM33.2053 57.7186l-1.1337 3.7717-.8504-.2535.9282-3.0886-1.0708-.3193-.4651 1.2934c-.2344.6189-.4926 1.0364-.7749 1.2523-.2821.216-.6286.2625-1.0392.1401l-.2625-.0783.2101-.7121.1802.0347c.1944.0302.3641-.0423.5096-.2174.1455-.1752.3096-.5248.4924-1.0488l.553-1.5861 2.7231.8119zM35.488 61.9922c-.0296-.0794-.0485-.2051-.0567-.3773-.3163.2572-.6774.361-1.0836.3115-.394-.0482-.7018-.1994-.9232-.4536-.2215-.2544-.3119-.5465-.2713-.8764.0512-.4165.2459-.7173.5838-.9019.338-.1848.7959-.2421 1.3736-.1716l.5404.0659.0314-.2565c.0249-.2022-.012-.371-.1107-.5066-.0988-.1353-.264-.2175-.4961-.2456-.2007-.0245-.3711.0055-.5116.0897-.1405.0843-.2201.2036-.2391.3576l-.8811-.1075c.0264-.2143.1222-.4061.2878-.5753.1655-.1693.3775-.2918.6359-.368.2583-.0758.5386-.0955.8409-.0586.4592.056.8113.2158 1.0562.4789.2449.2635.3453.6038.3014 1.0212l-.2168 1.7627c-.0432.3516-.0281.6381.0453.8596l-.0075.0614-.899-.1096zm-.8903-.7503c.1741.0212.343-.0009.507-.0664.1637-.0655.2931-.1646.388-.2972l.0906-.7368-.475-.0582c-.3263-.0397-.5786-.013-.7569.08-.1784.0933-.2803.2433-.3056.4503-.0208.1686.0189.3097.119.4233.1001.1136.2444.1819.4329.205zM43.5284 61.5494l-.9152.1276-2.8704-3.396.5224 3.7227-.9154.1275-.736-5.2473.9152-.1274 2.8795 3.4094-.5242-3.7371.9081-.1266.736 5.2472zM47.8909 57.4227c.1792.4875.2519.9461.2178 1.3757-.0339.4298-.1719.8004-.414 1.1121-.2419.3118-.5676.5422-.9769.6916-.405.1477-.8018.1808-1.191.0993-.3893-.0814-.7371-.2731-1.0436-.5746-.3066-.3016-.5487-.69-.7259-1.1653l-.1029-.28c-.1784-.4853-.2496-.945-.2133-1.3792.0362-.4343.1754-.8074.4173-1.1192.2421-.3117.5666-.5417.9736-.6903.407-.1485.8036-.1826 1.1895-.1025.3861.08.732.2716 1.038.5747.3059.303.5493.6969.7298 1.1813l.1016.2764zm-.9633.0569c-.2027-.5513-.4627-.9356-.7799-1.1533-.3172-.2176-.668-.2562-1.052-.1161-.3753.1368-.6147.3901-.7186.76-.1039.37-.0597.8234.1325 1.3604l.1056.287c.2008.5468.463.9304.7865 1.1506.3236.2206.6752.2615 1.0547.1231.3844-.1403.6263-.3939.7261-.7608.0997-.3672.0465-.8311-.1593-1.3913l-.0956-.2596zM50.6534 57.3494l-1.0223-4.2373.8659-.5286 1.1478 5.5137-.7631.4658-4.4056-3.5242.8627-.5269 3.3146 2.8375zM55.2361 51.9153c.3547.3802.6.775.7356 1.1841.1357.4094.1527.8042.0507 1.1849-.1017.3809-.3125.7191-.6319 1.0146-.3157.2924-.6688.4759-1.0594.551-.3905.075-.7857.0326-1.1855-.1272-.4-.1597-.7741-.4245-1.1224-.7943l-.204-.2184c-.353-.3786-.5974-.7751-.7329-1.1895-.1353-.4143-.1522-.8118-.0503-1.1927.1019-.3807.3115-.7181.6292-1.012.3174-.2938.6697-.4785 1.0568-.5535.387-.075.7805-.032 1.1805.1293.4.1614.7773.4306 1.1322.8074l.2014.2163zm-.8661.4241c-.4011-.4301-.7903-.6843-1.1672-.7625-.3773-.0781-.7156.0216-1.0152.299-.2928.2707-.415.5968-.3669.9777.0479.3813.265.7824.6509 1.2032l.209.2241c.3978.4264.7887.679 1.1727.7573.3841.0783.7239-.0194 1.0203-.2935.2998-.2774.4243-.6044.3734-.9815-.0507-.3768-.2799-.7839-.6878-1.2212l-.1892-.2026zM58.167 49.8681c-.1892-.1369-.3834-.1762-.5824-.1179-.199.0583-.4768.2224-.8333.4922-.3564.2698-.6732.4604-.9501.5717-.531.2123-.9947.1752-1.3906-.1116-.3468-.2511-.5298-.5986-.549-1.0429-.0191-.4442.1352-.891.4632-1.3404.2177-.2983.4669-.5242.7475-.6779.2806-.1537.5716-.2236.8728-.2093.3015.0141.5761.1111.8243.2908l-.5411.7418c-.2228-.1615-.4484-.2175-.6767-.1685-.2284.0492-.4379.2042-.6283.4652-.1773.2435-.2633.47-.2573.6797.0058.2098.1019.3821.2883.5169.1569.1138.341.1359.5518.0666.2109-.0693.4876-.2347.8301-.4967.3425-.2618.6509-.4478.9253-.558.2745-.1101.5286-.1528.7617-.1278.2332.0248.4603.1172.6809.2771.3585.2595.5439.6028.556 1.0299.0121.4271-.1531.8751-.4953 1.3441-.2263.31-.4919.5535-.7968.73-.3049.1765-.6115.2635-.9196.2608-.3081-.0026-.5972-.1017-.8672-.2971l.5435-.7447c.2444.1768.4921.2333.7435.1692.2515-.0639.4866-.2459.7056-.5461.189-.2591.2785-.4921.2682-.6989-.0099-.2065-.1018-.3727-.275-.4982z" fill="#000"/><path d="M57.8303 43.659l-.7156 1.4905 4.1263 1.9651-.3955.8241-4.1263-1.9651-.7091 1.4774-.6723-.3203 1.82-3.7918.6725.3201z" fill="#000"/><path d="M60.7498 42.404l-.2643.9917 1.9772.5227-.237.8898-5.141-1.359.4798-1.8008c.1575-.5908.4122-1.0116.764-1.2627.3518-.2507.7797-.3095 1.284-.1762.3439.091.61.2498.798.4765.188.2265.3051.5041.3511.8325l2.4473-.5841.0457.0121-.2539.9533-2.2509.5042zm-.9845.8014l.2435-.9143c.08-.3003.0665-.5548-.0402-.7636-.1068-.2089-.2921-.3485-.5558-.418-.2753-.0727-.5092-.0512-.7014.065-.1922.1163-.3319.3283-.4192.6366l-.2502.9391 1.7233.4552zM61.1141 35.7444c.5204.0317.9713.1491 1.3528.3523.3816.2032.6674.4776.8571.8232.1898.3458.2713.7353.2447 1.1689-.0263.4286-.155.8042-.3857 1.1268-.2308.3226-.5463.5633-.9465.7224-.4002.1592-.8544.2244-1.3625.1959l-.2991-.0182c-.5177-.0315-.9691-.1507-1.3541-.3577-.385-.207-.6723-.4833-.8624-.8291-.1898-.3457-.2714-.7343-.245-1.1652.0264-.4309.1539-.8065.3822-1.127.2283-.3203.5432-.5592.9445-.7171.4012-.1578.8609-.2222 1.3787-.1931l.2953.0179zm-.3335.9019c-.5882-.0359-1.0461.0474-1.3733.2499-.3271.2026-.5032.5071-.5283.914-.0243.397.1129.7171.4115.9603.2986.2431.7333.3843 1.3042.4241l.3064.0185c.5834.0356 1.0413-.0501 1.3736-.2572.3325-.207.5109-.5114.5357-.9135.0249-.4067-.1114-.729-.409-.9673-.2977-.2381-.7455-.3754-1.3435-.4117l-.2773-.0171zM60.7927 32.0459l.2735 2.159 1.6165-.2032-.3196-2.5235.7394-.0929.4351 3.4369-5.277.6629-.432-3.4117.7393-.0929.3162 2.4982 1.4571-.183-.2734-2.1591.7249-.0907z" fill="#000"/><path d="M61.2292 29.0645l-4.3747-.0217-.3089-.9637 5.6492.2047.2723.8492-4.4867 3.4212-.3079-.9602 3.5567-2.5295zM60.5063 26.5411c-.0672-.1509-.0761-.2862-.0271-.4061.0492-.1199.1383-.2085.2674-.2657.127-.0559.2503-.0616.3704-.0163.1202.045.2136.143.2808.2937.0643.1443.0738.2766.0291.3972-.0449.1207-.1317.2095-.2609.2666-.129.0571-.2547.0636-.3771.0194-.1221-.0439-.2163-.1403-.2826-.2888zM57.892 23.9918l.5421.8728 1.7397-1.0724.4863.7829-4.5231 2.7877-.9841-1.5842c-.3229-.5199-.455-.9934-.3963-1.4203.0586-.4269.3097-.7772.7533-1.0506.3025-.1865.601-.27.8956-.2504.2946.0195.5775.1255.8487.3176l1.2549-2.1728.0404-.0249.5209.8387-1.1784 1.9759zm-.0917 1.2633l-.4999-.8046c-.1639-.2639-.3588-.4291-.5847-.4953-.2258-.0661-.4547-.0278-.6868.1151-.2422.1494-.387.3335-.4344.5523-.0472.2189.0115.4657.1765.7406l.5133.8262 1.516-.9343zM51.4747 21.2835l2.6115-2.4019c.4152-.3817.8667-.5518 1.3544-.5102.4879.0417.9356.2828 1.3438.7228.413.4457.6214.9094.6254 1.391.004.4818-.206.9177-.6301 1.3077l-2.6088 2.3993-.6245-.6737 2.61-2.4005c.2609-.24.3991-.489.4143-.7476.0153-.2583-.096-.5158-.334-.7725-.4823-.5205-.9986-.5278-1.5488-.0216l-2.5887 2.3809-.6245-.6737z" fill="#000"/><path d="M37.597 68.5793c17.7206 0 32.0893-14.3102 32.0893-31.9669 0-17.6566-14.3687-31.96689-32.0893-31.96689S5.50775 18.9558 5.50775 36.6124c0 17.6567 14.36865 31.9669 32.08925 31.9669z" stroke="#071321"/><path d="M37.597 68.5793c17.7206 0 32.0893-14.3102 32.0893-31.9669 0-17.6566-14.3687-31.96689-32.0893-31.96689S5.50775 18.9558 5.50775 36.6124c0 17.6567 14.36865 31.9669 32.08925 31.9669z" stroke="#071321"/><path fill-rule="evenodd" clip-rule="evenodd" d="M36.5873 22.1767c.1629-.8091.2094-1.1559-.7447-1.3409-.5352-.0462-1.0937-.0693-1.6521-.0693-.4189 0-.7679 0-1.1403.0462-.4421.0463-.5352.6242-.4654.9941l.1397.6936c.0698.3237.1396.6011.3257.8092.3258.3236.9774.4161 1.4428.4392.5817.0231 1.0239-.0693 1.3729-.3005.3723-.2774.605-.6936.7214-1.2716zm4.1421 2.1501c-.6981.0231-1.2799-.1156-1.722-.4161-.512-.3468-.8377-.9017-.9774-1.6184-.0465-.2774-.1163-.9247-.4188-.9247s-.3724.6473-.4189.9247c-.1396.7398-.4654 1.2716-.9773 1.6184-.4422.3005-1.0006.4392-1.722.4161-.6283-.0231-1.4428-.1387-1.9082-.6242-.3025-.3006-.4188-.6936-.4886-1.1097l-.1164-.578c-.0931-.3237-.1862-.6473-.605-.6473l-.0698-.9248c1.0471-.2312 1.815-.3237 2.8622-.3237 1.0006 0 2.0245.0925 3.0251.2775.1396.0231.2327.0462.3956.0462.1629 0 .2792-.0231.3956-.0462.9773-.185 2.0245-.2775 3.0251-.2775 1.0472 0 1.8383.0925 2.8622.3237l-.0698.9248c-.4189 0-.5352.3236-.605.6473l-.1164.578c-.093.4392-.1861.8091-.4886 1.1097-.4189.4855-1.2333.6011-1.8616.6242zm-2.0711-2.1501c.1164.578.3491.9942.7214 1.2253.3258.2312.7912.3237 1.3729.3006.4654-.0231 1.1403-.1156 1.4428-.4393.1861-.1849.2559-.4855.3258-.8091l.1396-.6936c.0698-.3699-.0233-.9248-.4654-.9941-.3723-.0463-.7214-.0463-1.1403-.0463-.5584 0-1.0937.0232-1.6521.0694-.9541.2312-.9308.578-.7447 1.3871zM36.3788 14.5707v-3.6066c-.1629.0231-.3258.0694-.4887.0925-.2792.0694-.5817.1618-.8377.2774-.0698.0231-.1164.0694-.1396.1156-.0466.0463-.0466.1156-.0466.185v2.3119h-.6283v-1.5028c-.8377.5087-1.5591 1.2022-2.0943 2.0345-.6283.9479-1.0006 2.0807-1.0238 3.2829-.0233.2543-.1862.4624-.3724.6936-.1163.1387-.2094.2774-.2094.3005.0233.1388.0465.2775.0698.4393 0 .0462.0233.0925.0233.1387 1.0937-.2312 2.2106-.4161 3.3509-.5317 1.21-.1387 2.4433-.2081 3.6999-.2081 1.2333 0 2.4666.0694 3.7.2081 1.1169.1156 2.2339.3005 3.3508.5317 0-.0462.0233-.0925.0233-.1387.0233-.1387.0466-.3005.0698-.4393 0-.0231-.1163-.1618-.2094-.3005-.1629-.2081-.3491-.4393-.3723-.6936-.0466-1.2022-.4189-2.335-1.0239-3.2829-.5352-.8323-1.2566-1.5258-2.0943-2.0345v1.5028h-.6981v-2.3119c0-.0694-.0233-.1387-.0466-.185-.0465-.0462-.093-.0925-.1396-.1156-.2792-.1156-.5817-.208-.8842-.2774-.1629-.0462-.3026-.0694-.4654-.0925v3.6066h-.6283v-3.7222c0-.1618-.0698-.3236-.1862-.4392-.1163-.1156-.2792-.185-.4421-.185s-.3258.0694-.4422.185c-.1163.1156-.1861.2774-.1861.4392v3.7222h-.6283zm.1163-4.2539c.0699-.1156.1397-.2312.2327-.3468.2327-.23119.5353-.3699.8843-.3699.3491 0 .6516.13871.8843.3699.093.0925.1861.2081.2327.3468.2559.0462.4886.0925.7446.1387.3258.0694.6283.185.9308.3005.1862.0694.3491.185.4421.3468.1164.1619.1629.3468.1629.5318v.0924c1.0705.578 1.9547 1.4103 2.6063 2.4275.6748 1.0404 1.0937 2.2657 1.1169 3.6066 0 .0463.1164.185.2327.3237.1862.2312.3724.4624.3491.7629-.0233.1619-.0465.3237-.0698.4624-.0233.1618-.0698.3005-.0931.4624l-.0698.3005-.3025-.0693c-1.1635-.2543-2.3503-.4624-3.5836-.578-1.1868-.1387-2.3968-.185-3.6301-.185-1.2334 0-2.4434.0694-3.6302.185-1.21.1387-2.4201.3237-3.5836.578l-.3025.0693-.0698-.3005c-.0465-.1619-.0698-.3006-.0931-.4624-.0232-.1618-.0465-.3005-.0698-.4624-.0232-.2774.1629-.5086.3491-.7629.1163-.1387.2327-.2774.2327-.3237.0465-1.3178.4654-2.5431 1.1169-3.6066.6516-1.0172 1.5591-1.8495 2.6063-2.4275v-.0924c0-.2081.0698-.3931.1629-.5318.1163-.1618.2792-.2774.4421-.3468.3025-.1155.605-.208.9075-.2774.3491-.0693.6051-.1156.861-.1618z" fill="#071321"/><path fill-rule="evenodd" clip-rule="evenodd" d="M37.6115 17.3447c-1.0006 0-1.9779.0463-2.9553.1388-.9773.0924-1.9546.208-2.9087.393l-.1164-.6011c.9774-.1618 1.978-.3006 2.9786-.393.9773-.0925 1.978-.1387 3.0018-.1387 1.0007 0 2.0013.0462 3.0019.1387 1.0006.0924 2.0012.208 2.9786.393l-.1164.6011c-.9541-.1618-1.9314-.3006-2.9088-.393-.9773-.0925-1.9546-.1388-2.9553-.1388z" fill="#071321"/><path d="M40.1577 67.2081l-1.1723-.1104c-.074-.0067-.1378-.0536-.168-.1238l-.4199-1.0139c-.0672-.1674-.3057-.1674-.3729 0l-.4166 1.0139c-.0268.0702-.094.1171-.1679.1238l-1.1724.1104c-.1747.0167-.2452.2342-.1142.3514l.8835.7729c.0571.0502.0806.1238.0638.1975l-.2654 1.0841c-.0403.1707.1445.3112.299.2209l.9775-.5723c.0638-.0368.1411-.0368.2049 0l.9776.5723c.1545.0903.3393-.0469.2989-.2209l-.262-1.0841c-.0168-.0737.0067-.1473.0638-.1975l.8835-.7729c.1277-.1172.0538-.3347-.1209-.3514zM46.3748 66.4829l-1.1738.094c-.074.0062-.145-.0289-.187-.0928l-.5903-.9259c-.0953-.1532-.3302-.1119-.3672.0645l-.2335 1.0705c-.0142.0739-.0722.1317-.1438.151l-1.1353.3116c-.1691.0467-.2007.2731-.0513.3657l1.0049.6085c.0649.0395.1009.1079.0972.1833l-.0723 1.1136c-.01.1751.1965.2815.3329.1658l.8629-.7326c.0565-.0473.1326-.0607.2018-.0354l1.0625.3944c.1679.0622.326-.1048.2559-.2692l-.447-1.0224c-.0294-.0696-.0191-.1461.0284-.2055l.7353-.914c.1053-.1374-.0054-.3388-.1803-.3251zM34.2858 67.1552l-1.1353-.3115c-.0716-.0194-.1263-.0765-.1438-.151l-.2368-1.0711c-.037-.1764-.2719-.2177-.3672-.0645l-.587.9264c-.0387.0646-.1131.0991-.187.0929l-1.1738-.094c-.175-.0138-.2823.1882-.1737.3262l.7353.9141c.0475.0593.0578.1359.0284.2054l-.4503 1.0218c-.0695.1611.088.3315.2559.2693l1.0624-.3945c.0693-.0252.1454-.0118.2018.0355l.863.7326c.1364.1157.3423.0125.3329-.1658l-.069-1.113c-.0038-.0754.0322-.1439.0972-.1834l1.0048-.6084c.1462-.0933.1113-.3203-.0578-.367zM51.7503 64.5705l-1.1395.2956c-.0718.0189-.1479-.0033-.2004-.0591l-.7427-.8097c-.1205-.1343-.3447-.053-.3504.1271l-.0433 1.0947c-.0011.0751-.0482.1421-.1153.1735l-1.0638.5032c-.1584.0752-.15.3037.0133.3691l1.0957.4253c.0708.0278.1182.0889.1277.1638l.1229 1.1092c.0207.1741.2426.2432.3568.1057l.7221-.8708c.0473-.0563.1199-.0826.1925-.0698l1.1151.2047c.1762.0322.3028-.1596.2051-.3094l-.6185-.9295c-.041-.0635-.0442-.1407-.0078-.2073l.5648-1.0273c.0798-.1536-.0644-.3328-.2343-.289zM28.6231 65.8944l-1.0637-.5032c-.0671-.0315-.1111-.0973-.1153-.1736l-.0465-1.0958c-.0056-.1801-.2298-.2614-.3504-.127l-.7395.8108c-.0494.0569-.1286.078-.2004.0591l-1.1396-.2956c-.1699-.0438-.3108.1365-.2279.2912l.5648 1.0274c.0364.0666.0332.1438-.0078.2072l-.6217.9284c-.0964.1467.0289.3416.2051.3094l1.1151-.2047c.0726-.0128.1452.0135.1926.0698l.7221.8708c.1142.1375.3349.0716.3568-.1057l.126-1.108c.0095-.0749.0568-.1361.1277-.1638l1.0956-.4254c.1602-.0665.1654-.2961.007-.3713z" fill="#071321"/></svg>