<svg xmlns="http://www.w3.org/2000/svg" width="57.1" height="56.9" viewBox="0 0 57.1 56.9"><style>.st0{fill:#ffcb00}.st2{fill-rule:evenodd;clip-rule:evenodd;fill:#071321}</style><ellipse cx="28.6" cy="28.5" class="st0" rx="28.6" ry="28.5"/><path fill="none" stroke="#071321" d="M28.7 52.8c13.7 0 24.7-11 24.8-24.7 0-13.7-11.1-24.7-24.8-24.7A24.9 24.9 0 0 0 3.9 28.1C4 41.8 15.1 52.8 28.7 52.8z"/><path d="M26.8 35.8c.3-1.6.4-2.3-1.5-2.6-1.1-.1-2.1-.1-3.2-.1-.8 0-1.5 0-2.2.1-.9.1-1 1.2-.9 1.9l.3 1.3c.1.6.3 1.2.6 1.6.6.6 1.9.8 2.8.8 1.1 0 2-.1 2.7-.6.7-.5 1.2-1.4 1.4-2.4zm8 4.2c-1.2.1-2.3-.2-3.4-.8-1-.7-1.7-1.9-1.9-3.2-.1-.5-.2-1.8-.8-1.8s-.7 1.3-.8 1.8c-.2 1.3-.9 2.4-1.9 3.2-.9.6-2 .8-3.4.8-1.2 0-2.8-.3-3.7-1.2-.5-.6-.9-1.4-1-2.2l-.2-1.1c-.2-.6-.4-1.3-1.2-1.3l-.1-1.8c2-.5 3.5-.6 5.6-.6 1.9 0 3.9.2 5.9.5.3 0 .5.1.8.1.3 0 .5-.1.8-.1 1.9-.4 3.9-.5 5.9-.5 2 0 3.6.2 5.6.6l-.1 1.8c-.8 0-1 .6-1.2 1.3l-.2 1.1c-.2.9-.4 1.6-1 2.2-.9 1-2.5 1.2-3.7 1.2zm-4-4.2c.2 1.1.7 1.9 1.4 2.4.8.5 1.7.7 2.7.6.9 0 2.2-.2 2.8-.8.4-.4.5-.9.6-1.6l.3-1.3c.1-.7 0-1.8-.9-1.9-.7-.2-1.4-.2-2.2-.2-1.1 0-2.1 0-3.2.1-1.9.5-1.9 1.2-1.5 2.7zM26.3 21v-7c-.3.1-.6.1-1 .2-.5.1-1.1.3-1.6.5-.1 0-.2.1-.3.2-.1.1-.1.2-.1.4v4.5h-1.2v-2.9c-3.6 2.2-5.9 6.1-6.1 10.4 0 .5-.4.9-.7 1.4-.2.3-.4.5-.4.6l.1.9v.3c2.1-.5 4.3-.8 6.5-1 4.8-.5 9.6-.5 14.4 0 2.2.2 4.3.6 6.5 1v-.3l.1-.9-.4-.6c-.3-.4-.7-.9-.7-1.4-.2-4.3-2.4-8.1-6.1-10.4v2.9h-1.4v-4.5c0-.1 0-.2-.1-.4-.1-.1-.2-.2-.3-.2-.8-.3-1.7-.6-2.6-.7v7H30v-7.2c-.1-.7-.7-1.2-1.3-1.1-.6.1-1.1.5-1.1 1.1V21h-1.3zm.3-8.2c.1-.2.3-.4.5-.7.9-.9 2.4-1 3.4 0 .2.2.4.4.5.7l1.4.3c.6.1 1.2.4 1.8.6.4.1.7.4.9.7.2.3.3.7.3 1v.2c2.1 1.1 3.8 2.7 5.1 4.7 1.4 2.1 2.1 4.5 2.2 7 0 .1.2.4.5.6.4.5.7.9.7 1.5l-.1.9c0 .3-.1.6-.2.9l-.1.6-.6-.1c-2.3-.5-4.6-.9-7-1.1-2.3-.3-4.7-.4-7.1-.4-2.4 0-4.8.1-7.1.4-2.4.3-4.7.6-7 1.1l-.7.1-.1-.6c-.1-.3-.1-.6-.2-.9l-.1-.9c-.1-.5.3-1 .7-1.5.2-.3.4-.5.4-.6A13.79 13.79 0 0 1 22 15.6v-.2c0-.4.1-.8.3-1 .2-.3.5-.5.9-.7.6-.2 1.2-.4 1.8-.5.6-.3 1.1-.3 1.6-.4z" class="st2"/><path d="M28.8 26.4c-2 0-3.9.1-5.8.3s-3.8.4-5.7.8l-.2-1.2c1.9-.3 3.9-.6 5.8-.8 3.9-.4 7.8-.4 11.7 0 2 .2 3.9.4 5.8.8l-.2 1.2c-1.9-.3-3.8-.6-5.7-.8-1.9-.2-3.8-.3-5.7-.3z" class="st2"/><path d="M16.8 47.5h24v6.1h-24z" class="st0"/><path fill="#071321" d="M30.3 51.6l-.9-.1c-.1 0-.1 0-.1-.1l-.3-.8c0-.1-.1-.1-.2-.1 0 0-.1 0-.1.1l-.3.8c0 .1-.1.1-.1.1l-.9.1c-.1 0-.2.1-.1.2v.1l.7.6s.1.1 0 .2l-.2.8c0 .1.1.2.2.2l.8-.4h.2l.8.4c.1.1.3 0 .2-.2l-.2-.8v-.2l.7-.6c0-.1-.1-.2-.2-.3zm4.8-.5l-.9.1c-.1 0-.1 0-.1-.1l-.5-.7c0-.1-.1-.1-.2-.1l-.1.1-.2.8c0 .1 0 .1-.1.1l-.9.2c-.1 0-.1.1-.1.2 0 0 0 .1.1.1l.8.5.1.1-.1.9c0 .1.2.2.3.1l.7-.6h.2l.8.3c.1 0 .3-.1.2-.2l-.3-.8v-.2l.6-.7c-.1 0-.2-.1-.3-.1zm-9.3.5l-.9-.2-.1-.1-.2-.8c0-.1-.1-.1-.2-.1 0 0-.1 0-.1.1l-.5.7c0 .1-.1.1-.1.1l-.9-.1c-.1 0-.2.1-.2.2v.1l.6.7v.2l-.3.6c-.1.1.1.3.2.2l.8-.3h.2l.7.6c.1.1.3 0 .3-.1v-.9c0-.1 0-.1.1-.1l.8-.5c-.1-.1-.1-.3-.2-.3zm13.4-2l-.9.2h-.2l-.6-.6c0-.1-.1-.1-.2 0l-.1.1v.8c0 .1 0 .1-.1.1l-.8.4c-.1 0-.1.1-.1.2s.1.1.1.1l.8.3.1.1.1.8c0 .1.2.2.3.1l.6-.7s.1-.1.2 0l.8.2c.1 0 .2-.1.2-.2l-.5-.7v-.2l.4-.8c.1-.1 0-.2-.1-.2zm-17.8 1l-.8-.4c-.1 0-.1-.1-.1-.1v-.8c0-.1-.2-.2-.3-.1l-.6.6s-.1.1-.1 0l-.9-.2c-.1 0-.2 0-.2.1v.1l.4.8v.2l-.5.7c-.1.1 0 .3.2.2l.9-.2c.1 0 .1 0 .1.1l.6.7c.1.1.3.1.3-.1l.1-.8c0-.1 0-.1.1-.1l.8-.3c.1-.1.1-.3 0-.4z"/></svg>