<svg width="40" height="40" viewBox="0 0 40 40" fill="none" xmlns="http://www.w3.org/2000/svg"><path d="M36.6668 22.6666c.3686 0 .6666-.2986.6666-.6666v-2.6666c0-.368-.298-.6667-.6666-.6667h-3.3334V18c0-.368-.298-.6666-.6667-.6666-.3686 0-.6666.2986-.6666.6666v.6666H13.3333V18c0-.368-.2987-.6666-.6666-.6666-.368 0-.6667.2986-.6667.6666v.6666H8.66664c-.36797 0-.66665.2987-.66665.6667V22c0 .368.29868.6666.66665.6666H36.6668zM9.33328 21.3334V20H36.0001v1.3334H9.33328zM24 14.6666c-1.0779 0-1.7747.8193-1.8507.9134-.2307.2834-.188.6973.094.9307.2827.234.7007.1934.9374-.0853.0026-.0047.3639-.4253.8193-.4253.4553 0 .816.4207.816.4207.132.162.324.246.5179.246.148 0 .2961-.0487.4201-.1493.286-.232.3286-.652.0966-.9373-.0759-.0942-.7726-.9136-1.8506-.9136zM36.6668 28c.3686 0 .6666-.2987.6666-.6666v-2.6667c0-.3679-.298-.6666-.6666-.6666h-3.3334v-.6667c0-.3679-.298-.6666-.6667-.6666-.3686 0-.6666.2987-.6666.6666v.6667H13.3333v-.6667c0-.3679-.2987-.6666-.6666-.6666-.368 0-.6667.2987-.6667.6666v.6667H8.66664c-.36797 0-.66665.2987-.66665.6666v2.6667c0 .3679.29868.6666.66665.6666H36.6668zM9.33328 26.6667v-1.3334H36.0001v1.3334H9.33328zM27.4827 13.0866c.132.1627.324.2467.518.2467.148 0 .296-.0487.42-.1493.286-.232.3287-.652.0966-.9374-.076-.0939-.7726-.9133-1.8507-.9133-1.078 0-1.7747.8193-1.8507.9133-.2307.2834-.188.6974.094.9307.2826.2347.7007.1934.9366-.0853.0034-.0047.3647-.4253.82-.4253.4556-.0001.8162.4199.8162.4199zM.66986 8.73336c.033984.34071.320705.6.66336.6h4.00003c.34266 0 .6293-.25929.66337-.6l.66664-6.66664c.01867-.18797-.04265-.37398-.1693-.51399-.12601-.13937-.30531-.21929-.49398-.21929h-2.0001V.666641C3.99988.298672 3.70121 0 3.33324 0s-.66665.298672-.66665.666641v.666639H.666578c-.188673 0-.367971.08-.493988.2193-.1266412.14-.1879698.32601-.16929776.51398L.66986 8.73336zm4.59339-6.06672L4.72989 8H1.93651l-.53336-5.33336h3.8601z" fill="#071321"/><path d="M18.666 15.3334c0 .7453.3047 1.4386.858 1.9513.128.1187.2907.178.4534.178.1786 0 .3573-.0721.4886-.2134.25-.27.2347-.692-.0353-.9427-.2787-.2573-.4313-.6033-.4313-.9733 0-.552.3513-1.0527.8753-1.2453.2174-.08.3774-.2674.4227-.4947.046-.2274-.0307-.462-.2-.62-.2787-.2574-.4314-.6034-.4314-.9734 0-.6933.546-1.2733 1.2427-1.3213.256-.0173.4787-.1793.574-.4173.0947-.238.0453-.50934-.128-.69802-.2293-.25-.3553-.56867-.3553-.89664 0-.69336.546-1.27336 1.2427-1.32133.256-.01734.4786-.17929.574-.41734.0946-.23797.0453-.5093-.128-.69797-.2287-.25-.3553-.56867-.3553-.89664 0-.59602.406-1.12203.9866-1.2793.1847-.05.338-.17601.4227-.34601.0853-.17.0933-.3693.022-.54531-.0647-.16336-.098-.33-.098-.49602 0-.73531.598-1.33336 1.3334-1.33336.7353 0 1.3334.59797 1.3334 1.33336 0 .16602-.0334.33266-.098.49602-.0713.17601-.0634.37531.022.54531.0847.17.238.29601.4227.34601.5807.15735.9866.68336.9866 1.2793 0 .32797-.1266.64664-.3553.89664-.1733.18867-.2226.46-.1279.69797.0953.23797.3179.4.5739.41734.6967.04797 1.2427.62797 1.2427 1.32133 0 .32797-.1266.64664-.3553.89664-.1734.18868-.2227.46002-.128.69802.0953.2379.318.4.574.4173.6967.048 1.2427.628 1.2427 1.3213 0 .37-.1527.716-.4313.9734-.1693.158-.2461.3926-.2.62.0453.2273.2053.4147.4233.4947.5234.1926.8747.6933.8747 1.2453 0 .368.298.6666.6667.6666.3686 0 .6666-.2986.6666-.6666 0-.812-.3766-1.5674-.9893-2.0647.2107-.3847.3227-.8173.3227-1.2687 0-1.0426-.6134-1.9586-1.508-2.39201.1147-.29867.1747-.61734.1747-.94133 0-1.04265-.6134-1.95867-1.508-2.39203.1147-.29867.1747-.61734.1747-.94133 0-.97203-.5347-1.85-1.3574-2.31468.016-.11664.024-.23399.024-.35203C28.6661 1.19602 27.4701 0 25.9994 0s-2.6666 1.19602-2.6666 2.66664c0 .11797.0079.23531.024.35203-.8227.46469-1.3574 1.34266-1.3574 2.31469 0 .32399.06.64266.1747.94133-.8947.43336-1.508 1.3493-1.508 2.39203 0 .32399.06.64266.1747.94133-.8947.43335-1.508 1.34925-1.508 2.39205 0 .4513.1121.884.3227 1.2687-.6128.4972-.9895 1.2525-.9895 2.0646z" fill="#071321"/><path d="M25.0782 9.28035c.3387.14.7287-.02133.8707-.36.0127-.03203.0313-.06734.05-.10203.0187.03336.036.06797.0487.0993.1053.25867.3547.41601.6179.41601.084 0 .1687-.01601.2507-.05.3413-.13797.506-.52734.3673-.86797-.074-.1807-.4806-1.08265-1.2847-1.08265-.804 0-1.2107.90203-1.2847 1.08265-.1379.3393.0254.72469.3641.86469zM39.3323 38.6663H28.6655c-.3687 0-.6667.2987-.6667.6666 0 .368.298.6667.6667.6667h10.6667c.3687 0 .6666-.2987.6666-.6667 0-.3679-.2978-.6666-.6665-.6666zm0-9.3333h-6.0001v-.6666c0-.368-.2979-.6667-.6666-.6667-.3687 0-.6667.2987-.6667.6667v.6666H13.3321v-.6666c0-.368-.2987-.6667-.6667-.6667-.3679 0-.6666.2987-.6666.6667v.6666H5.99868c-.36797 0-.66665.2987-.66665.6667v2.6666c0 .368.29868.6666.66665.6666h2.00001v3.3334c0 .368.29868.6666.66665.6666.36797 0 .66664-.2986.66664-.6666v-3.3334H35.9989v3.3334c0 .368.298.6666.6666.6666.3687 0 .6667-.2986.6667-.6666v-3.3334h2c.3687 0 .6666-.2986.6666-.6666v-2.6666c.0001-.368-.2978-.6667-.6665-.6667zm-.6667 2.6667H6.66532v-1.3334H38.6656v1.3334z" fill="#071321"/><path d="M10 38.6664H3.99995V11.3331c0-.3679-.29867-.6666-.66664-.6666-.36798 0-.66665.2987-.66665.6666v27.3334H.666646C.298674 38.6665 0 38.9652 0 39.3332c0 .3679.298596.6666.666567.6666H10c.368 0 .6666-.2987.6666-.6666 0-.368-.2986-.6668-.6666-.6668zm16.0001 0h-1.3334c-.3686 0-.6666.2987-.6666.6667 0 .3679.298.6666.6666.6666h1.3334c.3687 0 .6667-.2987.6667-.6666 0-.368-.298-.6667-.6667-.6667zm-5.3334 0H14c-.3679 0-.6666.2987-.6666.6667 0 .3679.2987.6667.6666.6667h6.6667c.3687 0 .6667-.2987.6667-.6666 0-.368-.298-.6668-.6667-.6668z" fill="#071321"/></svg>