<svg width="43" height="44" viewBox="0 0 43 44" fill="none" xmlns="http://www.w3.org/2000/svg"><path d="M43 29.078V15.2138C43 14.91 42.8002 14.6423 42.5091 14.556L36.0945 12.6528C36.591 11.4383 36.9005 10.2328 36.9005 9.11364C36.9005 4.44732 33.1041 0.650879 28.4377 0.650879C23.7713 0.650879 19.975 4.44723 19.975 9.11364C19.975 10.2328 20.2845 11.4383 20.781 12.6528L14.5616 14.4981L0.881317 10.4389C0.673819 10.3775 0.449304 10.4174 0.275749 10.5468C0.102194 10.6763 0 10.8802 0 11.0968V24.9783C0 24.9799 0 24.9816 0 24.9833V38.8477C0 39.1514 0.199721 39.4191 0.491023 39.5055L14.3561 43.6195C14.3602 43.6207 14.3665 43.6225 14.3665 43.6225C14.3687 43.6232 14.371 43.6233 14.3732 43.624C14.3987 43.6313 14.4249 43.6369 14.4516 43.6412C14.4587 43.6424 14.4658 43.6436 14.4731 43.6445C14.5018 43.6482 14.5309 43.6507 14.5605 43.6508C14.5924 43.6508 14.6216 43.6482 14.6504 43.6445C14.6575 43.6436 14.6646 43.6424 14.6717 43.6412C14.6984 43.6369 14.7247 43.6312 14.7503 43.624C14.7525 43.6233 14.7548 43.6232 14.757 43.6225L14.7633 43.6206C14.7673 43.6194 28.1598 39.6458 28.1598 39.6458C28.2449 39.6836 28.3387 39.705 28.4378 39.705C28.5369 39.705 28.6309 39.6836 28.7159 39.6458L42.1187 43.6224C42.1828 43.6414 42.2485 43.6508 42.3139 43.6508C42.4601 43.6508 42.6044 43.604 42.7243 43.5145C42.8978 43.3849 43.0001 43.1811 43.0001 42.9646V29.0835C43 29.0817 43 29.0798 43 29.078ZM41.6277 15.7259V28.17L29.1239 24.4601V22.5084C30.0187 21.587 33.5326 17.8429 35.5168 13.9129L41.6277 15.7259ZM28.4377 2.02322C32.3473 2.02322 35.5282 5.20394 35.5282 9.11364C35.5282 10.2281 35.1553 11.4693 34.5756 12.7261C34.5468 12.772 34.5232 12.8219 34.5056 12.8755C32.8522 16.3657 29.654 19.9431 28.4375 21.2373C27.2218 19.9444 24.0266 16.372 22.3725 12.883C22.354 12.8243 22.3281 12.7698 22.2963 12.7202C21.7187 11.4657 21.3473 10.2267 21.3473 9.11355C21.3473 5.20394 24.5281 2.02322 28.4377 2.02322ZM27.7516 22.5083V24.46L15.2478 28.1699V15.7259L21.3586 13.9129C23.343 17.8429 26.8568 21.587 27.7516 22.5083ZM1.37234 25.8915L6.11314 27.2982C6.17828 27.3175 6.24397 27.3267 6.30856 27.3267C6.60453 27.3267 6.87762 27.1338 6.96609 26.8355C7.07396 26.4722 6.86683 26.0903 6.50343 25.9825L1.37234 24.4601V12.0161L13.8755 15.7259V28.17L9.13476 26.7633C8.77154 26.6554 8.38958 26.8626 8.2818 27.226C8.17393 27.5893 8.38107 27.9712 8.74446 28.0789L13.8756 29.6014V42.0454L1.37234 38.3355V25.8915ZM29.1239 38.3355V33.3679C29.1239 32.989 28.8168 32.6818 28.4377 32.6818C28.0587 32.6818 27.7516 32.989 27.7516 33.3679V38.3355L15.2478 42.0453V29.6014L27.7516 25.8915V30.6232C27.7516 31.0022 28.0587 31.3094 28.4377 31.3094C28.8168 31.3094 29.1239 31.0022 29.1239 30.6232V25.8915L41.6277 29.6014V42.0454L29.1239 38.3355Z" fill="#000"/><path d="M28.4375 13.9168C31.0859 13.9168 33.2407 11.7621 33.2407 9.11362C33.2407 6.46518 31.0859 4.31042 28.4375 4.31042C25.789 4.31042 23.6343 6.46509 23.6343 9.11362C23.6343 11.7621 25.789 13.9168 28.4375 13.9168ZM28.4375 5.68277C30.3293 5.68277 31.8683 7.2218 31.8683 9.11362C31.8683 11.0054 30.3293 12.5445 28.4375 12.5445C26.5457 12.5445 25.0066 11.0054 25.0066 9.11362C25.0066 7.2218 26.5457 5.68277 28.4375 5.68277Z" fill="#000"/></svg>