<svg width="24" height="22" viewBox="0 0 24 22" fill="none" xmlns="http://www.w3.org/2000/svg"><path d="M20.0196 19.9804c.2979 1.538-1.1323 2.5064-2.5624 1.7659 0 0-5.4824-2.7343-5.4228-2.7913l-5.48233 2.7343c-1.43017.7405-2.86035-.2279-2.5624-1.7659 0 0 1.01258-5.8078 1.07259-5.7535L.652599 10.0685c-1.191813-1.08232-.65549741-2.67733.834271-2.90519 0 0 6.07824-.85447 6.07824-.79751l2.74119-5.29771c.7747-1.424119 2.5028-1.424119 3.2179 0 0 0 2.7411 5.24075 2.6816 5.24075l6.1378.85447c1.6685.22786 2.2048 1.82287 1.013 2.90519 0 0-4.3918 4.1416-4.4096 4.1018l1.0726 5.8101z" fill="#FFCB00"/></svg>