<svg width="16" height="16" viewBox="0 0 16 16" fill="none" xmlns="http://www.w3.org/2000/svg"><path d="M14.9626 2.76029C14.8985 2.69793 14.8165 2.66659 14.7167 2.66659H11.4118L10.6631 0.927102C10.5562 0.670096 10.3637 0.451328 10.0858 0.27076C9.80757 0.0902291 9.52579 0 9.24068 0H5.81815C5.53303 0 5.25133 0.0902291 4.97326 0.27076C4.69515 0.451328 4.50264 0.67006 4.39565 0.927102L3.64699 2.66659H0.342204C0.242296 2.66659 0.160407 2.69793 0.0961993 2.76029C0.0321788 2.82279 0 2.90269 0 2.99989V3.66663C0 3.76383 0.032029 3.84373 0.0961993 3.90612C0.160407 3.96859 0.242446 3.99982 0.342204 3.99982H1.36885V13.9166C1.36885 14.4932 1.53642 14.9844 1.8715 15.3906C2.20667 15.797 2.60952 16 3.08014 16H11.9786C12.4494 16 12.8522 15.79 13.1873 15.37C13.5224 14.9496 13.6899 14.4515 13.6899 13.8751V3.99982H14.7167C14.8164 3.99982 14.8985 3.96859 14.9625 3.90612C15.0265 3.84377 15.0588 3.76383 15.0588 3.66663V2.99989C15.0589 2.90269 15.0266 2.82279 14.9626 2.76029ZM5.65778 1.44768C5.70764 1.38522 5.76829 1.34691 5.83957 1.33311H9.22993C9.30121 1.34702 9.36197 1.38529 9.41176 1.44768L9.92531 2.66645H5.1337L5.65778 1.44768ZM12.321 13.8752C12.321 14.0279 12.2961 14.1686 12.2461 14.297C12.1961 14.4254 12.1443 14.5191 12.091 14.5782C12.0374 14.6373 12.0002 14.6667 11.9787 14.6667H3.08018C3.05879 14.6667 3.02155 14.6373 2.96794 14.5782C2.91441 14.5191 2.86268 14.4254 2.81274 14.297C2.76288 14.1686 2.73793 14.0278 2.73793 13.8752V3.99982H12.321V13.8752H12.321Z" fill="#1B6BC6"/><path d="M4.44889 12.6668H5.13334C5.23325 12.6668 5.31532 12.6356 5.37934 12.5732C5.44337 12.5105 5.47554 12.4308 5.47554 12.3334V6.33322C5.47554 6.23606 5.44337 6.15616 5.37934 6.09362C5.31514 6.03127 5.23329 6.00004 5.13334 6.00004H4.44889C4.34899 6.00004 4.26706 6.03123 4.20289 6.09362C4.13879 6.15616 4.10669 6.23606 4.10669 6.33322V12.3334C4.10669 12.4308 4.13868 12.5105 4.20289 12.5732C4.26706 12.6356 4.34899 12.6668 4.44889 12.6668Z" fill="#1B6BC6"/><path d="M7.18791 12.6668H7.87235C7.97222 12.6668 8.05426 12.6356 8.11825 12.5732C8.1826 12.5105 8.21448 12.4308 8.21448 12.3334V6.33322C8.21448 6.23606 8.18257 6.15616 8.11825 6.09362C8.05426 6.03127 7.97222 6.00004 7.87235 6.00004H7.18791C7.08811 6.00004 7.00607 6.03123 6.9419 6.09362C6.87769 6.15616 6.8457 6.23606 6.8457 6.33322V12.3334C6.8457 12.4308 6.87769 12.5105 6.9419 12.5732C7.00604 12.6356 7.08811 12.6668 7.18791 12.6668Z" fill="#1B6BC6"/><path d="M9.92504 12.6668H10.6094C10.7094 12.6668 10.7914 12.6356 10.8555 12.5732C10.9196 12.5105 10.9515 12.4308 10.9515 12.3334V6.33322C10.9515 6.23606 10.9196 6.15616 10.8555 6.09362C10.7914 6.03127 10.7094 6.00004 10.6094 6.00004H9.92504C9.82502 6.00004 9.74324 6.03123 9.67889 6.09362C9.61479 6.15616 9.58276 6.23606 9.58276 6.33322V12.3334C9.58276 12.4308 9.61479 12.5105 9.67889 12.5732C9.74324 12.6356 9.82502 12.6668 9.92504 12.6668Z" fill="#1B6BC6"/></svg>